<svg width="135" height="135" viewBox="0 0 135 135" fill="none" xmlns="http://www.w3.org/2000/svg">
<path d="M113.579 134.699H21.2491C9.71915 134.699 0.369141 125.349 0.369141 113.819V21.4894C0.369141 9.95938 9.71915 0.609375 21.2491 0.609375H113.579C125.109 0.609375 134.459 9.95938 134.459 21.4894V113.819C134.469 125.349 125.119 134.699 113.579 134.699Z" fill="#F5BF00"/>
<path d="M51.669 57.3591L81.699 57.1391C89.159 57.0791 95.249 63.0891 95.299 70.5391C95.359 77.9991 89.349 84.0891 81.899 84.1391L51.869 84.3591C44.409 84.4191 38.319 78.4091 38.269 70.9591C38.209 63.5091 44.209 57.4191 51.669 57.3591Z" fill="#FCFCFD"/>
<path d="M51.7686 84.3691C59.2244 84.3691 65.2686 78.325 65.2686 70.8691C65.2686 63.4133 59.2244 57.3691 51.7686 57.3691C44.3127 57.3691 38.2686 63.4133 38.2686 70.8691C38.2686 78.325 44.3127 84.3691 51.7686 84.3691Z" fill="#2D2A2E"/>
<path d="M83.1685 52.9497L53.1385 53.1697C45.6785 53.2297 39.5885 47.2197 39.5385 39.7697C39.4785 32.3097 45.4885 26.2197 52.9385 26.1697L82.9685 25.9497C90.4285 25.8897 96.5185 31.8997 96.5685 39.3497C96.6285 46.7997 90.6285 52.8897 83.1685 52.9497Z" fill="#FCFCFD"/>
<path d="M83.0684 52.9395C90.5242 52.9395 96.5684 46.8953 96.5684 39.4395C96.5684 31.9836 90.5242 25.9395 83.0684 25.9395C75.6125 25.9395 69.5684 31.9836 69.5684 39.4395C69.5684 46.8953 75.6125 52.9395 83.0684 52.9395Z" fill="#2D2A2E"/>
<path d="M30.8494 101.729C30.6694 101.219 30.3594 100.839 30.0194 100.569C29.4594 100.149 28.8594 100.099 28.3394 100.099C27.7794 100.099 27.0694 100.189 26.4594 100.729C26.0094 101.129 25.6794 101.799 25.6794 102.499C25.6794 102.969 25.8594 103.459 26.3094 103.859C26.5994 104.129 27.2494 104.489 27.5594 104.639L28.8994 105.269C29.5894 105.579 30.2594 105.989 30.7994 106.539C31.6494 107.409 31.8094 108.189 31.8094 109.159C31.8094 110.029 31.6494 111.399 30.5594 112.539C29.3094 113.839 27.7394 113.969 26.6894 113.969C25.4794 113.969 24.4994 113.749 23.6094 112.849C22.9594 112.179 22.4694 111.199 22.3594 110.119L24.0094 109.669C24.0494 110.429 24.3394 111.119 24.8094 111.609C25.4594 112.279 26.1994 112.389 26.9294 112.389C27.6494 112.389 28.5594 112.279 29.2494 111.559C29.8094 110.979 30.0494 110.109 30.0494 109.389C30.0494 108.499 29.6494 107.849 29.2494 107.489C28.9594 107.219 28.2694 106.819 27.7994 106.599L26.6194 106.039C26.2194 105.859 25.3494 105.409 24.8494 104.899C24.4494 104.479 23.9994 103.759 23.9994 102.599C23.9994 101.549 24.3094 100.609 25.1594 99.7793C26.0994 98.8593 27.1894 98.5293 28.4494 98.5293C29.0994 98.5293 30.0994 98.6193 30.9094 99.1593C31.4894 99.5393 31.9794 100.169 32.2494 100.859L30.8494 101.729Z" fill="#2D2A2E"/>
<path d="M39.269 98.7793C40.789 98.7793 42.109 99.1793 42.869 99.9193C43.469 100.499 43.899 101.489 43.899 102.739C43.899 104.189 43.339 105.289 42.689 105.909C42.059 106.509 40.859 107.209 38.469 107.209H37.199L36.399 113.689H34.749L36.579 98.7793H39.269ZM37.369 105.639H38.779C39.579 105.639 40.679 105.549 41.459 104.839C41.909 104.439 42.259 103.769 42.259 102.779C42.259 101.769 41.859 101.189 41.429 100.879C40.829 100.409 39.909 100.339 39.239 100.339H38.009L37.369 105.639Z" fill="#2D2A2E"/>
<path d="M55.049 100.919H49.099L48.649 104.699H54.419L54.149 106.849H48.379L47.799 111.539H53.749L53.479 113.689H45.249L47.079 98.7793H55.309L55.049 100.919Z" fill="#2D2A2E"/>
<path d="M66.6789 100.919H60.7289L60.2789 104.699H66.0489L65.7789 106.849H60.0089L59.4289 111.539H65.3789L65.1089 113.689H56.8789L58.7089 98.7793H66.9389L66.6789 100.919Z" fill="#2D2A2E"/>
<path d="M74.4691 98.7793C76.0091 98.7793 78.4891 98.9993 80.1691 100.679C81.1491 101.659 81.9591 103.299 81.9591 105.639C81.9591 109.059 80.3991 110.919 79.6391 111.629C77.9191 113.259 75.5691 113.689 72.8691 113.689H68.2891L70.1191 98.7793H74.4691ZM72.0791 110.779H73.1291C74.1391 110.779 75.7191 110.709 76.9291 109.639C77.7791 108.879 78.4291 107.489 78.4291 105.729C78.4291 104.409 78.0091 103.359 77.3591 102.729C76.6391 102.039 75.4191 101.679 74.2491 101.679H73.1991L72.0791 110.779Z" fill="#2D2A2E"/>
<path d="M87.4391 106.73L83.0791 98.7695H87.0091L89.4491 103.4L92.9991 98.7695H97.1991L90.8691 106.73L90.0191 113.68H86.5791L87.4391 106.73Z" fill="#2D2A2E"/>
<path d="M104.489 107.159L103.689 113.689H99.9095L100.739 107.049L96.9395 98.7793H101.119L102.149 101.169C102.749 102.599 102.799 102.689 102.949 103.179C102.989 103.289 103.039 103.469 103.109 103.669C103.309 103.289 103.509 102.979 103.849 102.489L106.419 98.7793H110.999L104.489 107.159Z" fill="#2D2A2E"/>
</svg>
