<svg width="132" height="131" viewBox="0 0 132 131" fill="none" xmlns="http://www.w3.org/2000/svg">
<g clip-path="url(#clip0_60_43)">
<path d="M43.9805 46.6499L88.3705 46.3199C99.3905 46.2399 108.39 55.1099 108.47 66.1299C108.55 77.1499 99.6805 86.1499 88.6605 86.2299L44.2705 86.5599C33.2505 86.6399 24.2505 77.7699 24.1705 66.7499C24.0905 55.7299 32.9605 46.7299 43.9805 46.6499Z" fill="#F5BF00"/>
<path d="M44.1309 86.5597C55.1545 86.5597 64.0909 77.6234 64.0909 66.5998C64.0909 55.5762 55.1545 46.6396 44.1309 46.6396C33.1073 46.6396 24.1709 55.5762 24.1709 66.5998C24.1709 77.6234 33.1073 86.5597 44.1309 86.5597Z" fill="#2D2A2E"/>
<path d="M90.5306 40.1205L46.1406 40.4505C35.1206 40.5305 26.1206 31.6605 26.0406 20.6405C25.9606 9.6205 34.8306 0.6205 45.8506 0.5405L90.2406 0.210498C101.261 0.130498 110.261 9.0005 110.341 20.0205C110.431 31.0405 101.561 40.0405 90.5306 40.1205Z" fill="#F5BF00"/>
<path d="M90.3907 40.1202C101.414 40.1202 110.351 31.1838 110.351 20.1602C110.351 9.1366 101.414 0.200195 90.3907 0.200195C79.3671 0.200195 70.4307 9.1366 70.4307 20.1602C70.4307 31.1838 79.3671 40.1202 90.3907 40.1202Z" fill="#2D2A2E"/>
<path d="M13.2102 112.21C12.9502 111.45 12.4802 110.89 11.9902 110.49C11.1602 109.86 10.2702 109.8 9.51015 109.8C8.68015 109.8 7.63016 109.93 6.73016 110.72C6.07016 111.31 5.57015 112.31 5.57015 113.33C5.57015 114.02 5.83015 114.75 6.50015 115.35C6.93015 115.75 7.89015 116.28 8.35015 116.51L10.3302 117.44C11.3502 117.9 12.3402 118.5 13.1402 119.32C14.3902 120.61 14.6301 121.76 14.6301 123.19C14.6301 124.48 14.4002 126.49 12.7802 128.18C10.9302 130.1 8.62015 130.29 7.07015 130.29C5.29015 130.29 3.83015 129.96 2.51015 128.64C1.55015 127.65 0.830156 126.2 0.660156 124.61L3.10015 123.95C3.17015 125.07 3.60015 126.1 4.29015 126.82C5.25015 127.81 6.34015 127.98 7.43015 127.98C8.49015 127.98 9.84016 127.81 10.8702 126.76C11.7002 125.9 12.0602 124.61 12.0602 123.56C12.0602 122.24 11.4702 121.28 10.8702 120.75C10.4402 120.35 9.42015 119.76 8.72015 119.43L6.97015 118.6C6.38015 118.34 5.09015 117.67 4.36015 116.91C3.77015 116.28 3.10015 115.23 3.10015 113.51C3.10015 111.96 3.56015 110.57 4.82015 109.35C6.21015 108 7.83015 107.5 9.68015 107.5C10.6402 107.5 12.1201 107.63 13.3102 108.42C14.1701 108.98 14.9002 109.91 15.2902 110.93L13.2102 112.21Z" fill="#2D2A2E"/>
<path d="M25.6597 107.85C27.9097 107.85 29.8597 108.44 30.9797 109.54C31.8697 110.4 32.4997 111.85 32.4997 113.7C32.4997 115.85 31.6697 117.47 30.7197 118.39C29.7997 119.28 28.0097 120.31 24.4797 120.31H22.5997L21.4097 129.89H18.9697L21.6797 107.86H25.6597V107.85ZM22.8497 117.99H24.9297C26.1197 117.99 27.7397 117.86 28.8897 116.8C29.5497 116.21 30.0797 115.21 30.0797 113.76C30.0797 112.27 29.4897 111.41 28.8597 110.95C27.9697 110.26 26.6097 110.16 25.6197 110.16H23.7997L22.8497 117.99Z" fill="#2D2A2E"/>
<path d="M48.98 111.02H40.19L39.53 116.6H48.05L47.65 119.77H39.13L38.27 126.71H47.06L46.66 129.88H34.5L37.21 107.85H49.37L48.98 111.02Z" fill="#2D2A2E"/>
<path d="M66.1597 111.02H57.3697L56.7097 116.6H65.2297L64.8297 119.77H56.3097L55.4497 126.71H64.2397L63.8397 129.88H51.6797L54.3897 107.85H66.5497L66.1597 111.02Z" fill="#2D2A2E"/>
<path d="M77.6805 107.85C79.9605 107.85 83.6305 108.18 86.1005 110.66C87.5505 112.11 88.7405 114.53 88.7405 117.99C88.7405 123.04 86.4305 125.79 85.3005 126.84C82.7605 129.25 79.2905 129.88 75.2905 129.88H68.5205L71.2305 107.85H77.6805ZM74.1505 125.59H75.7005C77.1905 125.59 79.5305 125.49 81.3205 123.9C82.5805 122.78 83.5305 120.73 83.5305 118.12C83.5305 116.17 82.9005 114.62 81.9405 113.69C80.8805 112.67 79.0705 112.14 77.3505 112.14H75.8005L74.1505 125.59Z" fill="#2D2A2E"/>
<path d="M96.8404 119.61L90.4004 107.85H96.2104L99.8104 114.69L105.06 107.85H111.27L101.92 119.61L100.67 129.88H95.5804L96.8404 119.61Z" fill="#2D2A2E"/>
<path d="M122.05 120.24L120.86 129.89H115.28L116.5 120.08L110.88 107.86H117.06L118.58 111.4C119.47 113.51 119.54 113.65 119.77 114.37C119.84 114.54 119.9 114.8 120 115.1C120.3 114.54 120.59 114.08 121.09 113.35L124.89 107.87H131.66L122.05 120.24Z" fill="#2D2A2E"/>
</g>
<defs>
<clipPath id="clip0_60_43">
<rect width="132" height="131" fill="white"/>
</clipPath>
</defs>
</svg>
