<svg width="8" height="8" viewBox="0 0 8 8" fill="none" xmlns="http://www.w3.org/2000/svg">
<path d="M7.36857 3.36849H4.63167V0.631592C4.63167 0.282773 4.3489 0 4.00008 0C3.65126 0 3.36849 0.282773 3.36849 0.631592V3.36849H0.631592C0.282773 3.36849 0 3.65126 0 4.00008C0 4.3489 0.282773 4.63167 0.631592 4.63167H3.36849V7.36857C3.36849 7.71739 3.65126 8.00016 4.00008 8.00016C4.3489 8.00016 4.63167 7.71739 4.63167 7.36857V4.63167H7.36857C7.71739 4.63167 8.00016 4.3489 8.00016 4.00008C8.00016 3.65126 7.71739 3.36849 7.36857 3.36849Z" fill="black"/>
</svg>
