<svg width="24" height="24" viewBox="0 0 24 24" fill="none" xmlns="http://www.w3.org/2000/svg">
<path fill-rule="evenodd" clip-rule="evenodd" d="M8.51296 4H15.487C18.2001 4 20 5.93332 20 8.71454V15.2855C20 18.0667 18.2001 20 15.487 20H8.51296C5.79993 20 4 18.0667 4 15.2855V8.71454C4 5.93592 5.80469 4 8.51296 4ZM15.4871 5.11641H8.51299C6.43941 5.11641 5.11631 6.53572 5.11631 8.71466V15.2856C5.11631 17.4674 6.435 18.8838 8.51299 18.8838H15.4871C17.5651 18.8838 18.8838 17.4674 18.8838 15.2856V8.71466C18.8838 6.53283 17.5651 5.11641 15.4871 5.11641Z" fill="#ACB8C1"/>
<path d="M9.6001 8.7998L15.2001 8.79981" stroke="#ACB8C1" stroke-width="1.5" stroke-linecap="round"/>
<path d="M9.6001 11.2002L15.2001 11.2002" stroke="#ACB8C1" stroke-width="1.5" stroke-linecap="round"/>
<path d="M11.4854 8.7998C13.6849 9.65695 14.0001 11.9998 11.4854 14.4569M9.6001 13.4284L14.3133 15.9998" stroke="#ACB8C1" stroke-width="1.5" stroke-linecap="round"/>
</svg>
