<svg width="46" height="46" viewBox="0 0 46 46" fill="none" xmlns="http://www.w3.org/2000/svg">
<circle cx="23" cy="23" r="23" fill="#FCD400"/>
<path d="M28 18H18C17.7348 18 17.4804 18.1054 17.2929 18.2929C17.1054 18.4804 17 18.7348 17 19C17 19.2652 17.1054 19.5196 17.2929 19.7071C17.4804 19.8946 17.7348 20 18 20H28C28.2652 20 28.5196 19.8946 28.7071 19.7071C28.8946 19.5196 29 19.2652 29 19C29 18.7348 28.8946 18.4804 28.7071 18.2929C28.5196 18.1054 28.2652 18 28 18ZM28 22H18C17.7348 22 17.4804 22.1054 17.2929 22.2929C17.1054 22.4804 17 22.7348 17 23C17 23.2652 17.1054 23.5196 17.2929 23.7071C17.4804 23.8946 17.7348 24 18 24H28C28.2652 24 28.5196 23.8946 28.7071 23.7071C28.8946 23.5196 29 23.2652 29 23C29 22.7348 28.8946 22.4804 28.7071 22.2929C28.5196 22.1054 28.2652 22 28 22ZM30 13H16C15.2044 13 14.4413 13.3161 13.8787 13.8787C13.3161 14.4413 13 15.2044 13 16V26C13 26.7956 13.3161 27.5587 13.8787 28.1213C14.4413 28.6839 15.2044 29 16 29H27.59L31.29 32.71C31.3834 32.8027 31.4943 32.876 31.6161 32.9258C31.7379 32.9755 31.8684 33.0008 32 33C32.1312 33.0034 32.2613 32.976 32.38 32.92C32.5626 32.845 32.7189 32.7176 32.8293 32.5539C32.9396 32.3901 32.999 32.1974 33 32V16C33 15.2044 32.6839 14.4413 32.1213 13.8787C31.5587 13.3161 30.7956 13 30 13ZM31 29.59L28.71 27.29C28.6166 27.1973 28.5057 27.124 28.3839 27.0742C28.2621 27.0245 28.1316 26.9992 28 27H16C15.7348 27 15.4804 26.8946 15.2929 26.7071C15.1054 26.5196 15 26.2652 15 26V16C15 15.7348 15.1054 15.4804 15.2929 15.2929C15.4804 15.1054 15.7348 15 16 15H30C30.2652 15 30.5196 15.1054 30.7071 15.2929C30.8946 15.4804 31 15.7348 31 16V29.59Z" fill="#0D1D28"/>
</svg>
