<svg width="28" height="28" viewBox="0 0 28 28" fill="none" xmlns="http://www.w3.org/2000/svg">
<path d="M21.9618 20.254C21.6238 19.6472 21.8432 18.8821 22.4518 18.5451L25.6739 16.7609C26.2825 16.4239 27.0499 16.6426 27.3879 17.2494C27.7259 17.8562 27.5066 18.6214 26.8979 18.9584L23.6759 20.7425C23.0673 21.0795 22.2999 20.8608 21.9618 20.254Z" fill="#FDF2CC"/>
<path d="M6.83687 20.254C7.17489 19.6472 6.95552 18.8821 6.3469 18.5451L3.12484 16.7609C2.51622 16.4239 1.74881 16.6426 1.41079 17.2494C1.07276 17.8562 1.29213 18.6214 1.90076 18.9584L5.12282 20.7425C5.73144 21.0795 6.49885 20.8608 6.83687 20.254Z" fill="#FDF2CC"/>
<path d="M5.38385 12.71H23.4081V24.921C23.4081 26.2196 22.3481 27.2722 21.0405 27.2722H7.75144C6.44386 27.2722 5.38385 26.2196 5.38385 24.921V12.71Z" fill="#374956"/>
<path d="M3.2085 11.393C3.2085 10.6657 3.77063 10.0762 4.46405 10.0762H24.1725C24.8659 10.0762 25.4281 10.6657 25.4281 11.393C25.4281 12.1202 24.8659 12.7098 24.1725 12.7098H4.46405C3.77063 12.7098 3.2085 12.1202 3.2085 11.393Z" fill="#0D1D28"/>
<path d="M8.36352 3.1576C8.23216 2.39045 8.74943 1.66238 9.51888 1.53142L17.125 0.236767C17.8945 0.105799 18.6247 0.621526 18.7561 1.38868C18.8875 2.15583 18.3702 2.88389 17.6007 3.01486L9.99458 4.30951C9.22513 4.44048 8.49488 3.92475 8.36352 3.1576Z" fill="#FDF2CC"/>
<path fill-rule="evenodd" clip-rule="evenodd" d="M5.37304 4.47854C4.60359 4.60951 4.08632 5.33758 4.21768 6.10473C4.26233 6.36552 4.3762 6.59726 4.53729 6.78441L4.30216 6.82443C3.6159 6.94124 3.15455 7.5906 3.27171 8.27482C3.38887 8.95903 4.04017 9.419 4.72643 9.3022L24.2313 5.98225C24.9176 5.86544 25.3789 5.21609 25.2618 4.53187C25.1446 3.84766 24.4933 3.38768 23.8071 3.50449L23.5719 3.54451C23.6616 3.31468 23.6919 3.0584 23.6473 2.79761C23.5159 2.03046 22.7857 1.51473 22.0162 1.6457L5.37304 4.47854Z" fill="#374956"/>
</svg>
