<svg width="14" height="16" viewBox="0 0 14 16" fill="none" xmlns="http://www.w3.org/2000/svg">
<path d="M1 4.11111H13M12.25 4.11111L11.5997 13.5549C11.5728 13.9473 11.4035 14.3146 11.1258 14.5828C10.8482 14.8509 10.4829 15 10.1035 15H3.8965C3.5171 15 3.1518 14.8509 2.87416 14.5828C2.59653 14.3146 2.42719 13.9473 2.40025 13.5549L1.75 4.11111H12.25ZM5.5 7.22222V11.8889V7.22222ZM8.5 7.22222V11.8889V7.22222ZM9.25 4.11111V1.77778C9.25 1.5715 9.17098 1.37367 9.03033 1.22781C8.88968 1.08194 8.69891 1 8.5 1H5.5C5.30109 1 5.11032 1.08194 4.96967 1.22781C4.82902 1.37367 4.75 1.5715 4.75 1.77778V4.11111H9.25Z" stroke="#1D1C19" stroke-width="1.05" stroke-linecap="round" stroke-linejoin="round"/>
</svg>
