<svg width="46" height="46" viewBox="0 0 46 46" fill="none" xmlns="http://www.w3.org/2000/svg">
<circle cx="23" cy="23" r="23" fill="#FCD400"/>
<path d="M25.2885 19.6828L19.7496 25.2388C19.4689 25.5207 19.4689 25.9775 19.7496 26.2595C19.8839 26.3959 20.0673 26.4722 20.2584 26.4713C20.4497 26.4733 20.6335 26.3968 20.7672 26.2595L26.3061 20.7034C26.4987 20.5234 26.578 20.2523 26.5128 19.9964C26.4477 19.7405 26.2485 19.5407 25.9934 19.4754C25.7383 19.41 25.468 19.4895 25.2885 19.6828V19.6828Z" fill="#0D1D28"/>
<ellipse cx="20.5364" cy="20.7997" rx="0.719963" ry="0.722187" fill="#0D1D28"/>
<ellipse cx="25.6047" cy="25.1425" rx="0.719963" ry="0.722187" fill="#0D1D28"/>
<path fill-rule="evenodd" clip-rule="evenodd" d="M32.8131 18.9909C33.1301 19.8143 32.9223 20.7482 32.2862 21.3582C31.8257 21.7711 31.5625 22.3612 31.5625 22.9807C31.5625 23.6003 31.8257 24.1904 32.2862 24.6033C32.9504 25.2086 33.1767 26.1606 32.8563 27.0015C32.5358 27.8424 31.7341 28.4002 30.8367 28.4068H30.5967C30.0008 28.4113 29.4325 28.6594 29.0231 29.0937C28.6136 29.5281 28.3985 30.1111 28.4272 30.7081C28.4591 31.3084 28.242 31.8952 27.8274 32.3292C27.4129 32.7633 26.8378 33.006 26.2385 32.9999C25.6286 33.0001 25.048 32.737 24.645 32.2777C24.2318 31.8186 23.6441 31.5565 23.0275 31.5565C22.4109 31.5565 21.8232 31.8186 21.41 32.2777C21.007 32.737 20.4264 33.0001 19.8165 32.9999C19.2137 33.0064 18.6354 32.761 18.2202 32.3227C17.805 31.8843 17.5904 31.2924 17.6278 30.6889C17.6539 30.0934 17.4375 29.513 17.0283 29.0808C16.6192 28.6486 16.0524 28.4018 15.4583 28.3971H15.2183C14.3598 28.3563 13.6054 27.813 13.2923 27.0101C12.9791 26.2072 13.1658 25.2947 13.7688 24.6803C14.226 24.2676 14.4871 23.6796 14.4871 23.0626C14.4871 22.4456 14.226 21.8576 13.7688 21.4449C13.0668 20.847 12.8153 19.871 13.1405 19.0067C13.4658 18.1425 14.2975 17.5766 15.2183 17.5932H15.4583C16.0604 17.5919 16.6351 17.3407 17.046 16.8993C17.457 16.4579 17.6676 15.8656 17.6278 15.263C17.6068 14.6692 17.8287 14.0927 18.242 13.6672C18.6554 13.2416 19.2242 13.0041 19.8165 13.0097C20.4288 13.0081 21.0111 13.2755 21.41 13.7416C21.8272 14.1967 22.4158 14.4553 23.0323 14.4541C23.6454 14.4526 24.23 14.1943 24.645 13.7416C25.0421 13.2719 25.6247 13.0009 26.2385 13.0001C26.8395 12.9938 27.4162 13.2378 27.8311 13.6741C28.246 14.1103 28.4618 14.6996 28.4272 15.3015C28.3984 15.8977 28.6138 16.4797 29.0236 16.9126C29.4333 17.3454 30.0017 17.5913 30.5967 17.5932H30.8367C31.7164 17.6161 32.4961 18.1674 32.8131 18.9909ZM31.2296 26.3654C31.3087 26.1977 31.2608 25.9973 31.1144 25.8839V25.8262C30.3099 25.0823 29.8523 24.0349 29.8523 22.9374C29.8523 21.8399 30.3099 20.7925 31.1144 20.0487C31.2608 19.9353 31.3087 19.7349 31.2296 19.5672C31.1744 19.397 31.0143 19.2835 30.836 19.288H30.596C29.5251 19.2858 28.5017 18.8439 27.7642 18.0651C27.0331 17.2864 26.6455 16.2451 26.689 15.1763C26.7051 15.0614 26.67 14.9452 26.593 14.8586C26.5001 14.7614 26.3721 14.7058 26.2378 14.7045C26.101 14.6918 25.9671 14.7498 25.8827 14.8586C25.1454 15.6745 24.1006 16.1426 23.0028 16.1489C21.9053 16.1414 20.8609 15.6735 20.123 14.8586C20.0486 14.7638 19.9359 14.7073 19.8158 14.7045C19.6815 14.7058 19.5535 14.7614 19.4606 14.8586C19.3836 14.9452 19.3485 15.0614 19.3646 15.1763C19.428 16.256 19.0449 17.3142 18.3055 18.1015C17.5661 18.8887 16.5358 19.3353 15.4576 19.3361H15.2464C15.0586 19.3216 14.8848 19.4365 14.824 19.6154C14.7449 19.7831 14.7928 19.9834 14.9392 20.0968C15.7507 20.8378 16.217 21.8849 16.2256 22.9856C16.2193 24.0868 15.7527 25.1348 14.9392 25.8743C14.7928 25.9877 14.7449 26.1881 14.824 26.3558C14.8728 26.5318 15.0356 26.6513 15.2176 26.6446H15.4576C16.5279 26.6487 17.5502 27.091 18.2878 27.869C19.0254 28.6471 19.4143 29.6934 19.3646 30.7659C19.3472 30.878 19.3827 30.9918 19.4606 31.0741C19.5643 31.1778 19.7082 31.2306 19.8542 31.2185C19.9722 31.2155 20.0836 31.1631 20.1613 31.0741C20.9007 30.2456 21.9567 29.7721 23.0652 29.7721C24.1737 29.7721 25.2297 30.2456 25.969 31.0741C26.036 31.1577 26.132 31.2127 26.2378 31.2281C26.3721 31.2268 26.5001 31.1712 26.593 31.0741C26.6709 30.9918 26.7064 30.878 26.689 30.7659C26.6498 29.6978 27.0368 28.6582 27.7642 27.8772C28.5043 27.1021 29.526 26.6609 30.596 26.6543H30.8072C30.9986 26.6713 31.1754 26.5504 31.2296 26.3654Z" fill="#0D1D28"/>
</svg>
