<svg width="35" height="35" viewBox="0 0 35 35" fill="none" xmlns="http://www.w3.org/2000/svg">
<circle cx="17.5" cy="17.5" r="17.5" fill="#D90000"/>
<path d="M26.6871 8.92524C26.9579 8.92524 27.2177 9.04474 27.4092 9.25745C27.6008 9.47016 27.7084 9.75867 27.7084 10.0595V19.1335C27.7084 19.4343 27.6008 19.7228 27.4092 19.9356C27.2177 20.1483 26.9579 20.2678 26.6871 20.2678H23.6231V8.92524H26.6871ZM9.37667 21.402H15.2707V27.0733C15.2707 29.3418 18.4123 29.3418 18.4123 29.3418C18.4123 29.3418 18.4123 24.8048 19.4602 23.6705C20.028 23.0546 20.8972 21.0073 21.5804 20.2678V8.92524H10.7095C10.2244 8.92008 9.75301 9.10343 9.37682 9.44354C9.00063 9.78366 8.74334 10.2591 8.64949 10.7877L7.32177 18.7275C7.2703 19.0582 7.28505 19.3974 7.36496 19.7211C7.44488 20.0447 7.588 20.3449 7.78415 20.6002C7.98031 20.8555 8.22468 21.0597 8.49992 21.1983C8.77516 21.3369 9.0745 21.4064 9.37667 21.402Z" fill="white"/>
</svg>
