<svg width="12" height="15" viewBox="0 0 12 15" fill="none" xmlns="http://www.w3.org/2000/svg">
<path d="M0.75 13.8372H9.45833M7.92225 1.84275C8.06831 1.69152 8.24302 1.5709 8.43619 1.48792C8.62937 1.40494 8.83713 1.36126 9.04737 1.35943C9.2576 1.35761 9.46609 1.39767 9.66068 1.47728C9.85526 1.55689 10.032 1.67446 10.1807 1.82312C10.3294 1.97179 10.4469 2.14857 10.5266 2.34315C10.6062 2.53774 10.6462 2.74623 10.6444 2.95647C10.6426 3.1667 10.5989 3.37447 10.5159 3.56764C10.4329 3.76081 10.3123 3.93552 10.1611 4.08158L3.36383 10.8788H1.125V8.64L7.92225 1.84275Z" stroke="#2D2A2E" stroke-width="1.26667" stroke-linecap="round" stroke-linejoin="round"/>
</svg>
