<svg width="12" height="12" viewBox="0 0 12 12" fill="none" xmlns="http://www.w3.org/2000/svg">
<path d="M6.00002 3.08366C5.84531 3.08366 5.69694 3.14512 5.58754 3.25451C5.47815 3.36391 5.41669 3.51228 5.41669 3.66699V6.00033C5.41669 6.15504 5.47815 6.30341 5.58754 6.4128C5.69694 6.5222 5.84531 6.58366 6.00002 6.58366C6.15473 6.58366 6.30311 6.5222 6.4125 6.4128C6.5219 6.30341 6.58336 6.15504 6.58336 6.00033V3.66699C6.58336 3.51228 6.5219 3.36391 6.4125 3.25451C6.30311 3.14512 6.15473 3.08366 6.00002 3.08366ZM6.53669 8.11199C6.52392 8.07482 6.50627 8.03951 6.48419 8.00699L6.41419 7.91949C6.33216 7.83855 6.22799 7.78372 6.11483 7.76192C6.00167 7.74012 5.88459 7.75232 5.77836 7.79699C5.70766 7.82653 5.64256 7.86797 5.58586 7.91949C5.53179 7.974 5.48902 8.03864 5.45999 8.10971C5.43096 8.18079 5.41625 8.25689 5.41669 8.33366C5.41761 8.40989 5.43347 8.4852 5.46336 8.55532C5.48955 8.62771 5.53135 8.69346 5.58579 8.74789C5.64023 8.80233 5.70597 8.84413 5.77836 8.87033C5.84818 8.90119 5.92368 8.91713 6.00002 8.91713C6.07636 8.91713 6.15186 8.90119 6.22169 8.87033C6.29408 8.84413 6.35982 8.80233 6.41426 8.74789C6.46869 8.69346 6.51049 8.62771 6.53669 8.55532C6.56658 8.4852 6.58243 8.40989 6.58336 8.33366C6.58622 8.29482 6.58622 8.25583 6.58336 8.21699C6.57331 8.17979 6.55757 8.14437 6.53669 8.11199ZM6.00002 0.166992C4.8463 0.166992 3.71848 0.509111 2.7592 1.15009C1.79991 1.79106 1.05224 2.7021 0.610726 3.76801C0.169215 4.83391 0.0536951 6.0068 0.278776 7.13835C0.503856 8.26991 1.05943 9.30931 1.87523 10.1251C2.69104 10.9409 3.73044 11.4965 4.862 11.7216C5.99355 11.9467 7.16644 11.8311 8.23234 11.3896C9.29825 10.9481 10.2093 10.2004 10.8503 9.24115C11.4912 8.28187 11.8334 7.15405 11.8334 6.00033C11.8334 5.23428 11.6825 4.47574 11.3893 3.76801C11.0962 3.06027 10.6665 2.41721 10.1248 1.87554C9.58314 1.33386 8.94008 0.904181 8.23234 0.611028C7.52461 0.317876 6.76607 0.166992 6.00002 0.166992ZM6.00002 10.667C5.07704 10.667 4.17479 10.3933 3.40736 9.88052C2.63993 9.36774 2.04179 8.6389 1.68859 7.78618C1.33538 6.93346 1.24296 5.99515 1.42303 5.0899C1.60309 4.18466 2.04755 3.35314 2.70019 2.70049C3.35284 2.04785 4.18436 1.60339 5.0896 1.42333C5.99485 1.24326 6.93316 1.33568 7.78588 1.68889C8.6386 2.0421 9.36743 2.64023 9.88021 3.40766C10.393 4.17509 10.6667 5.07735 10.6667 6.00033C10.6667 7.238 10.175 8.42499 9.29985 9.30016C8.42468 10.1753 7.2377 10.667 6.00002 10.667Z" fill="#0D1D28"/>
</svg>
