<svg width="10" height="10" viewBox="0 0 10 10" fill="none" xmlns="http://www.w3.org/2000/svg">
<path d="M5.00016 0.833496C2.7085 0.833496 0.833496 2.7085 0.833496 5.00016C0.833496 7.29183 2.7085 9.16683 5.00016 9.16683C7.29183 9.16683 9.16683 7.29183 9.16683 5.00016C9.16683 2.7085 7.29183 0.833496 5.00016 0.833496ZM5.00016 7.0835C4.75016 7.0835 4.5835 6.91683 4.5835 6.66683C4.5835 6.41683 4.75016 6.25016 5.00016 6.25016C5.25016 6.25016 5.41683 6.41683 5.41683 6.66683C5.41683 6.91683 5.25016 7.0835 5.00016 7.0835ZM5.41683 5.00016C5.41683 5.25016 5.25016 5.41683 5.00016 5.41683C4.75016 5.41683 4.5835 5.25016 4.5835 5.00016V3.3335C4.5835 3.0835 4.75016 2.91683 5.00016 2.91683C5.25016 2.91683 5.41683 3.0835 5.41683 3.3335V5.00016Z" fill="#EA7407"/>
</svg>
