<svg width="16" height="16" viewBox="0 0 16 16" fill="none" xmlns="http://www.w3.org/2000/svg">
<path fill-rule="evenodd" clip-rule="evenodd" d="M0.666748 8.00033C0.666748 3.95024 3.94999 0.666992 8.00008 0.666992C12.0502 0.666992 15.3334 3.95024 15.3334 8.00033C15.3334 12.0504 12.0502 15.3337 8.00008 15.3337C3.94999 15.3337 0.666748 12.0504 0.666748 8.00033ZM11.5203 6.18721C11.7156 5.99195 11.7156 5.67537 11.5203 5.4801C11.325 5.28484 11.0085 5.28484 10.8132 5.4801L6.83341 9.45988L5.18697 7.81344C4.99171 7.61818 4.67512 7.61818 4.47986 7.81344C4.2846 8.0087 4.2846 8.32528 4.47986 8.52055L6.47986 10.5205C6.67512 10.7158 6.9917 10.7158 7.18697 10.5205L11.5203 6.18721Z" fill="#04A971"/>
</svg>
