<svg width="33" height="33" viewBox="0 0 33 33" fill="none" xmlns="http://www.w3.org/2000/svg">
<path d="M16.5 14.95C16.0889 14.95 15.6947 15.1133 15.404 15.404C15.1133 15.6947 14.95 16.0889 14.95 16.5V22.7C14.95 23.1111 15.1133 23.5053 15.404 23.796C15.6947 24.0867 16.0889 24.25 16.5 24.25C16.9111 24.25 17.3053 24.0867 17.596 23.796C17.8867 23.5053 18.05 23.1111 18.05 22.7V16.5C18.05 16.0889 17.8867 15.6947 17.596 15.404C17.3053 15.1133 16.9111 14.95 16.5 14.95ZM17.089 8.874C16.7116 8.71897 16.2884 8.71897 15.911 8.874C15.7207 8.94777 15.5469 9.05838 15.3995 9.1995C15.2626 9.35016 15.1525 9.52316 15.074 9.711C14.9872 9.89495 14.9448 10.0967 14.95 10.3C14.9488 10.504 14.9879 10.7062 15.0651 10.8951C15.1422 11.0839 15.2558 11.2557 15.3995 11.4005C15.5502 11.5374 15.7232 11.6475 15.911 11.726C16.1458 11.8225 16.4008 11.8598 16.6534 11.8347C16.906 11.8096 17.1486 11.7228 17.3598 11.582C17.571 11.4411 17.7444 11.2506 17.8648 11.0271C17.9851 10.8035 18.0487 10.5539 18.05 10.3C18.0443 9.88961 17.8837 9.49653 17.6005 9.1995C17.4531 9.05838 17.2793 8.94777 17.089 8.874ZM16.5 1C13.4344 1 10.4376 1.90906 7.88867 3.61222C5.33971 5.31538 3.35303 7.73615 2.17987 10.5684C1.00672 13.4007 0.699764 16.5172 1.29784 19.5239C1.89591 22.5306 3.37214 25.2924 5.53985 27.4601C7.70756 29.6279 10.4694 31.1041 13.4761 31.7022C16.4828 32.3002 19.5993 31.9933 22.4316 30.8201C25.2639 29.647 27.6846 27.6603 29.3878 25.1113C31.0909 22.5624 32 19.5656 32 16.5C32 14.4645 31.5991 12.4489 30.8201 10.5684C30.0412 8.68786 28.8995 6.97915 27.4602 5.53984C26.0208 4.10054 24.3121 2.95881 22.4316 2.17987C20.5511 1.40092 18.5355 1 16.5 1ZM16.5 28.9C14.0475 28.9 11.6501 28.1727 9.61093 26.8102C7.57176 25.4477 5.98243 23.5111 5.0439 21.2453C4.10537 18.9795 3.85981 16.4862 4.33827 14.0809C4.81673 11.6755 5.99771 9.46605 7.73188 7.73187C9.46605 5.9977 11.6755 4.81672 14.0809 4.33826C16.4862 3.85981 18.9795 4.10537 21.2453 5.04389C23.5111 5.98242 25.4477 7.57176 26.8102 9.61093C28.1728 11.6501 28.9 14.0475 28.9 16.5C28.9 19.7887 27.5936 22.9427 25.2681 25.2681C22.9427 27.5936 19.7887 28.9 16.5 28.9Z" fill="#0D1D28" stroke="white" stroke-width="0.5"/>
</svg>
