<svg width="25" height="24" viewBox="0 0 25 24" fill="none" xmlns="http://www.w3.org/2000/svg">
<path d="M11.913 15.29C11.8697 15.3375 11.8294 15.3876 11.7922 15.44C11.7541 15.4957 11.7236 15.5563 11.7016 15.62C11.6726 15.6767 11.6522 15.7374 11.6412 15.8C11.6362 15.8666 11.6362 15.9334 11.6412 16C11.6378 16.1312 11.6654 16.2613 11.7217 16.38C11.767 16.5041 11.8391 16.6168 11.9331 16.7101C12.027 16.8034 12.1405 16.8751 12.2655 16.92C12.386 16.9729 12.5163 17.0002 12.6481 17.0002C12.7798 17.0002 12.9102 16.9729 13.0307 16.92C13.1556 16.8751 13.2691 16.8034 13.3631 16.7101C13.457 16.6168 13.5292 16.5041 13.5744 16.38C13.6191 16.2584 13.6396 16.1294 13.6348 16C13.6356 15.8684 13.6102 15.7379 13.5601 15.6161C13.51 15.4943 13.4361 15.3834 13.3428 15.29C13.2492 15.1963 13.1379 15.1219 13.0152 15.0711C12.8925 15.0203 12.7609 14.9942 12.6279 14.9942C12.495 14.9942 12.3634 15.0203 12.2407 15.0711C12.118 15.1219 12.0066 15.1963 11.913 15.29ZM12.6279 2C10.6365 2 8.68979 2.58649 7.03398 3.6853C5.37817 4.78412 4.08762 6.3459 3.32553 8.17317C2.56344 10.0004 2.36405 12.0111 2.75256 13.9509C3.14107 15.8907 4.10003 17.6725 5.50818 19.0711C6.91634 20.4696 8.71043 21.422 10.6636 21.8079C12.6168 22.1937 14.6413 21.9957 16.4811 21.2388C18.321 20.4819 19.8935 19.2002 20.9999 17.5557C22.1062 15.9112 22.6968 13.9778 22.6968 12C22.6968 10.6868 22.4363 9.38642 21.9303 8.17317C21.4243 6.95991 20.6827 5.85752 19.7477 4.92893C18.8127 4.00035 17.7027 3.26375 16.4811 2.7612C15.2595 2.25866 13.9502 2 12.6279 2ZM12.6279 20C11.0348 20 9.47742 19.5308 8.15277 18.6518C6.82812 17.7727 5.79568 16.5233 5.18601 15.0615C4.57634 13.5997 4.41683 11.9911 4.72763 10.4393C5.03844 8.88743 5.80561 7.46197 6.93213 6.34315C8.05866 5.22433 9.49393 4.4624 11.0565 4.15372C12.619 3.84504 14.2386 4.00346 15.7105 4.60896C17.1823 5.21447 18.4404 6.23984 19.3255 7.55544C20.2106 8.87103 20.683 10.4177 20.683 12C20.683 14.1217 19.8344 16.1566 18.3237 17.6569C16.8131 19.1571 14.7643 20 12.6279 20ZM12.6279 7C12.0974 6.99966 11.5761 7.13812 11.1165 7.40144C10.6569 7.66476 10.2753 8.04366 10.01 8.5C9.93718 8.61382 9.88826 8.7411 9.86622 8.87418C9.84418 9.00726 9.84948 9.14339 9.88178 9.27439C9.91409 9.40538 9.97275 9.52854 10.0542 9.63643C10.1357 9.74433 10.2383 9.83475 10.3559 9.90224C10.4734 9.96974 10.6035 10.0129 10.7383 10.0292C10.8732 10.0454 11.0099 10.0345 11.1403 9.99688C11.2707 9.9593 11.3921 9.89591 11.4972 9.81052C11.6024 9.72513 11.689 9.6195 11.7519 9.5C11.8407 9.3474 11.9684 9.22078 12.1222 9.13298C12.2761 9.04518 12.4505 8.9993 12.6279 9C12.895 9 13.1511 9.10536 13.3399 9.29289C13.5287 9.48043 13.6348 9.73478 13.6348 10C13.6348 10.2652 13.5287 10.5196 13.3399 10.7071C13.1511 10.8946 12.895 11 12.6279 11C12.3609 11 12.1048 11.1054 11.916 11.2929C11.7271 11.4804 11.621 11.7348 11.621 12V13C11.621 13.2652 11.7271 13.5196 11.916 13.7071C12.1048 13.8946 12.3609 14 12.6279 14C12.895 14 13.1511 13.8946 13.3399 13.7071C13.5287 13.5196 13.6348 13.2652 13.6348 13V12.82C14.3007 12.58 14.8606 12.1152 15.2164 11.5069C15.5722 10.8985 15.7015 10.1853 15.5815 9.49189C15.4616 8.79849 15.1 8.16902 14.5601 7.71352C14.0202 7.25801 13.3363 7.00546 12.6279 7Z" fill="#0D1D28"/>
</svg>
