<svg width="18" height="16" viewBox="0 0 18 16" fill="none" xmlns="http://www.w3.org/2000/svg">
<path d="M16.5 6.74984H15.6667V5.9165C15.6667 5.69549 15.5789 5.48353 15.4226 5.32725C15.2663 5.17097 15.0544 5.08317 14.8334 5.08317C14.6123 5.08317 14.4004 5.17097 14.2441 5.32725C14.0878 5.48353 14 5.69549 14 5.9165V6.74984H13.1667C12.9457 6.74984 12.7337 6.83764 12.5774 6.99392C12.4212 7.1502 12.3334 7.36216 12.3334 7.58317C12.3334 7.80418 12.4212 8.01615 12.5774 8.17243C12.7337 8.32871 12.9457 8.4165 13.1667 8.4165H14V9.24984C14 9.47085 14.0878 9.68281 14.2441 9.83909C14.4004 9.99537 14.6123 10.0832 14.8334 10.0832C15.0544 10.0832 15.2663 9.99537 15.4226 9.83909C15.5789 9.68281 15.6667 9.47085 15.6667 9.24984V8.4165H16.5C16.721 8.4165 16.933 8.32871 17.0893 8.17243C17.2456 8.01615 17.3334 7.80418 17.3334 7.58317C17.3334 7.36216 17.2456 7.1502 17.0893 6.99392C16.933 6.83764 16.721 6.74984 16.5 6.74984ZM10.0834 8.18317C10.528 7.79828 10.8846 7.32224 11.1291 6.78736C11.3735 6.25247 11.5 5.67126 11.5 5.08317C11.5 3.9781 11.061 2.91829 10.2796 2.13689C9.49823 1.35549 8.43842 0.916504 7.33335 0.916504C6.22829 0.916504 5.16848 1.35549 4.38708 2.13689C3.60567 2.91829 3.16669 3.9781 3.16669 5.08317C3.16668 5.67126 3.29319 6.25247 3.53763 6.78736C3.78206 7.32224 4.13871 7.79828 4.58335 8.18317C3.4168 8.71141 2.42707 9.56445 1.7325 10.6403C1.03793 11.7161 0.667914 12.9693 0.666687 14.2498C0.666687 14.4709 0.754484 14.6828 0.910765 14.8391C1.06704 14.9954 1.27901 15.0832 1.50002 15.0832C1.72103 15.0832 1.933 14.9954 2.08928 14.8391C2.24556 14.6828 2.33335 14.4709 2.33335 14.2498C2.33335 12.9238 2.86014 11.652 3.79782 10.7143C4.7355 9.77662 6.00727 9.24984 7.33335 9.24984C8.65944 9.24984 9.93121 9.77662 10.8689 10.7143C11.8066 11.652 12.3334 12.9238 12.3334 14.2498C12.3334 14.4709 12.4212 14.6828 12.5774 14.8391C12.7337 14.9954 12.9457 15.0832 13.1667 15.0832C13.3877 15.0832 13.5997 14.9954 13.7559 14.8391C13.9122 14.6828 14 14.4709 14 14.2498C13.9988 12.9693 13.6288 11.7161 12.9342 10.6403C12.2396 9.56445 11.2499 8.71141 10.0834 8.18317ZM7.33335 7.58317C6.8389 7.58317 6.35555 7.43655 5.94443 7.16185C5.53331 6.88714 5.21287 6.4967 5.02366 6.03988C4.83444 5.58306 4.78493 5.0804 4.88139 4.59545C4.97785 4.11049 5.21596 3.66504 5.56559 3.3154C5.91522 2.96577 6.36068 2.72767 6.84563 2.63121C7.33058 2.53474 7.83325 2.58425 8.29006 2.77347C8.74688 2.96269 9.13732 3.28312 9.41203 3.69425C9.68673 4.10537 9.83335 4.58872 9.83335 5.08317C9.83335 5.74621 9.56996 6.3821 9.10112 6.85094C8.63228 7.31978 7.9964 7.58317 7.33335 7.58317Z" fill="white"/>
</svg>
