<svg width="35" height="35" viewBox="0 0 35 35" fill="none" xmlns="http://www.w3.org/2000/svg">
<circle cx="17.5" cy="17.5" r="17.5" fill="#2BD900"/>
<path d="M8.77962 25.8423C8.50875 25.8423 8.24897 25.7228 8.05744 25.5101C7.8659 25.2974 7.7583 25.0089 7.7583 24.7081V15.6341C7.7583 15.3332 7.8659 15.0447 8.05744 14.832C8.24897 14.6193 8.50875 14.4998 8.77962 14.4998H11.8436V25.8423H8.77962ZM26.09 13.3656H20.196V7.69429C20.196 5.42578 17.0544 5.42578 17.0544 5.42578C17.0544 5.42578 17.0544 9.96279 16.0065 11.097C15.4386 11.7129 14.5695 13.7603 13.8862 14.4998V25.8423H24.7572C25.2422 25.8475 25.7137 25.6641 26.0899 25.324C26.466 24.9839 26.7233 24.5084 26.8172 23.9799L28.1449 16.0401C28.1964 15.7094 28.1816 15.3702 28.1017 15.0465C28.0218 14.7228 27.8787 14.4227 27.6825 14.1674C27.4864 13.9121 27.242 13.7079 26.9668 13.5693C26.6915 13.4307 26.3922 13.3612 26.09 13.3656Z" fill="white"/>
</svg>
