<svg width="12" height="10" viewBox="0 0 12 10" fill="none" xmlns="http://www.w3.org/2000/svg">
<path d="M10.0833 0.333496H1.91663C1.4525 0.333496 1.00738 0.517871 0.679189 0.846059C0.351001 1.17425 0.166626 1.61937 0.166626 2.0835V7.91683C0.166626 8.38096 0.351001 8.82608 0.679189 9.15427C1.00738 9.48245 1.4525 9.66683 1.91663 9.66683H10.0833C10.5474 9.66683 10.9925 9.48245 11.3207 9.15427C11.6489 8.82608 11.8333 8.38096 11.8333 7.91683V2.0835C11.8333 1.61937 11.6489 1.17425 11.3207 0.846059C10.9925 0.517871 10.5474 0.333496 10.0833 0.333496ZM9.84413 1.50016L6.41413 4.93016C6.3599 4.98484 6.29538 5.02823 6.2243 5.05785C6.15321 5.08746 6.07697 5.10271 5.99996 5.10271C5.92295 5.10271 5.84671 5.08746 5.77562 5.05785C5.70454 5.02823 5.64002 4.98484 5.58579 4.93016L2.15579 1.50016H9.84413ZM10.6666 7.91683C10.6666 8.07154 10.6052 8.21991 10.4958 8.32931C10.3864 8.4387 10.238 8.50016 10.0833 8.50016H1.91663C1.76192 8.50016 1.61354 8.4387 1.50415 8.32931C1.39475 8.21991 1.33329 8.07154 1.33329 7.91683V2.32266L4.76329 5.75266C5.09142 6.08038 5.53621 6.26446 5.99996 6.26446C6.46371 6.26446 6.9085 6.08038 7.23663 5.75266L10.6666 2.32266V7.91683Z" fill="#50616E" stroke="white" stroke-width="0.2"/>
</svg>
