<svg width="24" height="24" viewBox="0 0 24 24" fill="none" xmlns="http://www.w3.org/2000/svg">
<path fill-rule="evenodd" clip-rule="evenodd" d="M14.5141 5.59961H16.7354C17.6545 5.59961 18.4 6.35162 18.4 7.27933V9.5192C18.4 10.4462 17.6545 11.1989 16.7354 11.1989H14.5141C13.5944 11.1989 12.8489 10.4462 12.8489 9.5192V7.27933C12.8489 6.35162 13.5944 5.59961 14.5141 5.59961Z" stroke="#ACB8C1" stroke-width="1.5" stroke-linecap="round"/>
<path fill-rule="evenodd" clip-rule="evenodd" d="M6.46532 5.59961H8.6859C9.60563 5.59961 10.3512 6.35162 10.3512 7.27933V9.5192C10.3512 10.4462 9.60563 11.1989 8.6859 11.1989H6.46532C5.54559 11.1989 4.80005 10.4462 4.80005 9.5192V7.27933C4.80005 6.35162 5.54559 5.59961 6.46532 5.59961Z" stroke="#ACB8C1" stroke-width="1.5" stroke-linecap="round"/>
<path fill-rule="evenodd" clip-rule="evenodd" d="M6.46532 13.6006H8.6859C9.60563 13.6006 10.3512 14.3526 10.3512 15.281V17.5202C10.3512 18.4479 9.60563 19.1999 8.6859 19.1999H6.46532C5.54559 19.1999 4.80005 18.4479 4.80005 17.5202V15.281C4.80005 14.3526 5.54559 13.6006 6.46532 13.6006Z" stroke="#ACB8C1" stroke-width="1.5" stroke-linecap="round"/>
<path fill-rule="evenodd" clip-rule="evenodd" d="M14.5141 13.6006H16.7354C17.6545 13.6006 18.4 14.3526 18.4 15.281V17.5202C18.4 18.4479 17.6545 19.1999 16.7354 19.1999H14.5141C13.5944 19.1999 12.8489 18.4479 12.8489 17.5202V15.281C12.8489 14.3526 13.5944 13.6006 14.5141 13.6006Z" stroke="#ACB8C1" stroke-width="1.5" stroke-linecap="round"/>
</svg>
