<svg width="24" height="24" viewBox="0 0 24 24" fill="none" xmlns="http://www.w3.org/2000/svg">
<path d="M15.178 13.2825L15.1783 13.2825C16.8005 13.2694 18.1231 14.5735 18.1339 16.1875L18.1339 16.1882C18.1469 17.8043 16.8418 19.1257 15.2219 19.1366L15.2215 19.1366L7.49523 19.1931L7.49484 19.1931C5.87272 19.2061 4.55012 17.902 4.53926 16.2881C4.52841 14.6738 5.83168 13.3521 7.45189 13.3389C7.45194 13.3389 7.45199 13.3389 7.45204 13.3389L15.178 13.2825Z" stroke="#ACB8C1" stroke-width="1.07839"/>
<path d="M7.47336 19.7318C9.39165 19.7318 10.9467 18.1799 10.9467 16.2656C10.9467 14.3512 9.39165 12.7993 7.47336 12.7993C5.55508 12.7993 4 14.3512 4 16.2656C4 18.1799 5.55508 19.7318 7.47336 19.7318Z" fill="#ACB8C1"/>
<path d="M7.82192 11.4548L7.82153 11.4548C6.19941 11.4678 4.87681 10.1638 4.86596 8.54978L4.86595 8.54906C4.85293 6.93297 6.15804 5.61152 7.77802 5.60067L7.77835 5.60067L15.5046 5.54418L15.505 5.54418C17.1272 5.53116 18.4498 6.83522 18.4606 8.44919L18.4606 8.44992C18.4736 10.0632 17.1713 11.3851 15.5482 11.3983C15.5481 11.3983 15.548 11.3983 15.5478 11.3983L7.82192 11.4548Z" stroke="#ACB8C1" stroke-width="1.07839"/>
<path d="M15.5266 11.9325C17.4449 11.9325 18.9999 10.3806 18.9999 8.46624C18.9999 6.55189 17.4449 5 15.5266 5C13.6083 5 12.0532 6.55189 12.0532 8.46624C12.0532 10.3806 13.6083 11.9325 15.5266 11.9325Z" fill="#ACB8C1"/>
</svg>
