<svg width="14" height="8" viewBox="0 0 14 8" fill="none" xmlns="http://www.w3.org/2000/svg">
<path d="M1 5.0556C1.26522 5.0556 1.51957 4.95025 1.70711 4.76271C1.89464 4.57517 2 4.32082 2 4.0556V3.4656L4.88 6.3456C5.4425 6.9074 6.205 7.22296 7 7.22296C7.795 7.22296 8.5575 6.9074 9.12 6.3456L13.71 1.7556C13.8963 1.56824 14.0008 1.31479 14.0008 1.0506C14.0008 0.786417 13.8963 0.532965 13.71 0.345603C13.617 0.251875 13.5064 0.17748 13.3846 0.126712C13.2627 0.0759429 13.132 0.0498047 13 0.0498047C12.868 0.0498047 12.7373 0.0759429 12.6154 0.126712C12.4936 0.17748 12.383 0.251875 12.29 0.345603L7.71 4.9256C7.61704 5.01933 7.50644 5.09373 7.38458 5.14449C7.26272 5.19526 7.13201 5.2214 7 5.2214C6.86799 5.2214 6.73728 5.19526 6.61542 5.14449C6.49356 5.09373 6.38296 5.01933 6.29 4.9256L3.41 2.0556H4C4.26522 2.0556 4.51957 1.95025 4.70711 1.76271C4.89464 1.57517 5 1.32082 5 1.0556C5 0.790387 4.89464 0.536033 4.70711 0.348496C4.51957 0.16096 4.26522 0.055603 4 0.055603H1C0.803708 0.055763 0.611804 0.113689 0.448207 0.222161C0.284609 0.330634 0.156553 0.484855 0.0799997 0.665603C0.0296167 0.789589 0.00249808 0.921794 0 1.0556V4.0556C0 4.32082 0.105357 4.57517 0.292893 4.76271C0.48043 4.95025 0.734783 5.0556 1 5.0556Z" fill="black"/>
</svg>
