<svg width="18" height="21" viewBox="0 0 18 21" fill="none" xmlns="http://www.w3.org/2000/svg">
<path fill-rule="evenodd" clip-rule="evenodd" d="M1.77879 12.1981V11.9901C1.80673 11.3746 1.9873 10.7782 2.30188 10.2624C2.8255 9.64289 3.18394 8.88366 3.33961 8.06442C3.33961 7.43125 3.33961 6.78903 3.39023 6.15585C3.65177 3.10757 6.41062 1 9.13571 1H9.20321C11.9283 1 14.6872 3.10757 14.9571 6.15585C15.0078 6.78903 14.9571 7.43125 14.9993 8.06442C15.1571 8.88556 15.5152 9.64714 16.037 10.2715C16.354 10.7827 16.5348 11.3769 16.5601 11.9901V12.1891C16.579 13.0161 16.3183 13.8224 15.8261 14.4595C15.1758 15.2044 14.2933 15.6678 13.3457 15.762C10.567 16.0877 7.76348 16.0877 4.98479 15.762C4.03826 15.6637 3.15703 15.201 2.50436 14.4595C2.01982 13.8219 1.76263 13.0204 1.77879 12.1981Z" stroke="#0D1D28" stroke-width="2" stroke-linecap="round" stroke-linejoin="round"/>
<path d="M7.04382 18.9092C7.47799 19.5045 8.11556 19.8898 8.81543 19.9798C9.5153 20.0698 10.2198 19.857 10.7729 19.3886C10.943 19.25 11.0961 19.089 11.2285 18.9092" stroke="#0D1D28" stroke-width="2" stroke-linecap="round" stroke-linejoin="round"/>
</svg>
