<svg width="33" height="31" viewBox="0 0 33 31" fill="none" xmlns="http://www.w3.org/2000/svg">
<path d="M31.9891 9.594C31.9966 9.50065 31.9966 9.4069 31.9891 9.31355L28.8902 1.93351C28.7692 1.64178 28.5537 1.39437 28.2751 1.22717C27.9965 1.05997 27.6692 0.981665 27.3407 1.00362H5.64837C5.33804 1.00334 5.03478 1.09182 4.77786 1.25761C4.52094 1.42341 4.32219 1.65887 4.20737 1.93351L1.10846 9.31355C1.10099 9.4069 1.10099 9.50065 1.10846 9.594C1.05697 9.67616 1.02031 9.76597 1 9.85968C1.01725 10.88 1.31179 11.8786 1.8549 12.7581C2.39802 13.6376 3.17116 14.368 4.09891 14.8781V29.0478C4.09891 29.4393 4.26216 29.8147 4.55274 30.0915C4.84332 30.3683 5.23743 30.5238 5.64837 30.5238H27.3407C27.7517 30.5238 28.1458 30.3683 28.4364 30.0915C28.727 29.8147 28.8902 29.4393 28.8902 29.0478V14.9372C29.8269 14.422 30.6058 13.6823 31.1495 12.7915C31.6931 11.9008 31.9826 10.89 31.9891 9.85968C32.0036 9.77166 32.0036 9.68202 31.9891 9.594ZM18.044 27.5718H14.9451V21.6678H18.044V27.5718ZM25.7913 27.5718H21.1429V20.1917C21.1429 19.8003 20.9797 19.4249 20.6891 19.148C20.3985 18.8712 20.0044 18.7157 19.5935 18.7157H13.3956C12.9847 18.7157 12.5906 18.8712 12.3 19.148C12.0094 19.4249 11.8462 19.8003 11.8462 20.1917V27.5718H7.19782V15.7637C8.08019 15.759 8.95132 15.5748 9.75296 15.2235C10.5546 14.8723 11.2682 14.362 11.8462 13.7268C12.4278 14.3551 13.1431 14.8582 13.9445 15.2028C14.746 15.5475 15.6152 15.7257 16.4946 15.7257C17.3739 15.7257 18.2431 15.5475 19.0446 15.2028C19.846 14.8582 20.5613 14.3551 21.1429 13.7268C21.7209 14.362 22.4345 14.8723 23.2362 15.2235C24.0378 15.5748 24.9089 15.759 25.7913 15.7637V27.5718ZM25.7913 12.8117C24.9694 12.8117 24.1812 12.5007 23.6 11.9471C23.0189 11.3935 22.6924 10.6426 22.6924 9.85968C22.6924 9.46822 22.5291 9.09279 22.2386 8.81598C21.948 8.53918 21.5539 8.38367 21.1429 8.38367C20.732 8.38367 20.3379 8.53918 20.0473 8.81598C19.7567 9.09279 19.5935 9.46822 19.5935 9.85968C19.5935 10.6426 19.267 11.3935 18.6858 11.9471C18.1047 12.5007 17.3164 12.8117 16.4946 12.8117C15.6727 12.8117 14.8845 12.5007 14.3033 11.9471C13.7221 11.3935 13.3956 10.6426 13.3956 9.85968C13.3956 9.46822 13.2324 9.09279 12.9418 8.81598C12.6512 8.53918 12.2571 8.38367 11.8462 8.38367C11.4352 8.38367 11.0411 8.53918 10.7506 8.81598C10.46 9.09279 10.2967 9.46822 10.2967 9.85968C10.312 10.2473 10.247 10.6341 10.1053 10.9978C9.96368 11.3615 9.74823 11.6951 9.47126 11.9795C9.19429 12.2639 8.86123 12.4935 8.49109 12.6553C8.12095 12.8171 7.72099 12.9079 7.31403 12.9224C6.49215 12.9518 5.69169 12.6689 5.08873 12.136C4.79018 11.8722 4.54911 11.5549 4.37927 11.2023C4.20944 10.8497 4.11417 10.4687 4.09891 10.0811L6.702 3.95564H26.2871L28.8902 10.0811C28.8315 10.825 28.4792 11.5202 27.9043 12.0268C27.3294 12.5334 26.5744 12.8138 25.7913 12.8117Z" fill="#0D1D28" stroke="white" stroke-width="0.5"/>
</svg>
