<svg width="20" height="20" viewBox="0 0 20 20" fill="none" xmlns="http://www.w3.org/2000/svg">
<path d="M19.8474 3.70441L18.1818 1.41434V0.83332C18.1818 0.373086 17.7748 0 17.2728 0H2.72727C2.2252 0 1.8182 0.373086 1.8182 0.83332V1.41434L0.152685 3.70441C0.0531393 3.84129 0 4.00215 0 4.16668V5.83336C0 6.5709 0.351776 7.23535 0.909077 7.69363V19.1667C0.90912 19.6269 1.31612 20 1.8182 20H10H14.5455H18.1818C18.6839 20 19.0909 19.6269 19.0909 19.1667V7.69363C19.6482 7.23535 20 6.5709 20 5.83336V4.16668C20 4.00215 19.9469 3.84129 19.8474 3.70441ZM1.8182 4.41898L3.48371 2.12891C3.58326 1.99203 3.63639 1.83117 3.63639 1.66664H16.3637C16.3637 1.83117 16.4168 1.99199 16.5164 2.12891L18.1818 4.41898V5.83332C18.1818 6.11387 18.0262 6.36395 17.7908 6.51531C17.7681 6.52535 17.7455 6.53602 17.7231 6.54801C17.5997 6.61414 17.473 6.6525 17.3455 6.6632C17.3214 6.665 17.2973 6.66664 17.2727 6.66664C16.7748 6.66664 16.3636 6.28973 16.3636 5.83332V4.16664H14.5455V5.83332C14.5455 6.28977 14.1343 6.66664 13.6364 6.66664C13.1384 6.66664 12.7273 6.28973 12.7273 5.83332V4.16664H10.9091V5.83332C10.9091 6.28977 10.4979 6.66664 10 6.66664C9.50208 6.66664 9.09095 6.28973 9.09095 5.83332V4.16664H7.27275V5.83332C7.27275 6.28977 6.86157 6.66664 6.36367 6.66664C5.86573 6.66664 5.45459 6.28973 5.45459 5.83332V4.16664H3.63639V5.83332C3.63639 6.28977 3.22522 6.66664 2.72732 6.66664C2.70277 6.66664 2.67861 6.665 2.65453 6.6632C2.52708 6.6525 2.40039 6.61414 2.27693 6.54801C2.25456 6.53602 2.23193 6.52535 2.20922 6.51531C1.97387 6.36395 1.8182 6.11387 1.8182 5.83332V4.41898ZM10.9091 18.3333V12.5H13.6364V18.3333H10.9091ZM17.2728 18.3333H15.4546V11.6667C15.4546 11.2064 15.0476 10.8334 14.5455 10.8334H10C9.49795 10.8334 9.09095 11.2064 9.09095 11.6667V18.3334H2.72727V8.33336C3.42465 8.33336 4.06236 8.09129 4.54547 7.6941C5.02858 8.09129 5.6663 8.33336 6.36367 8.33336C7.06104 8.33336 7.69876 8.09129 8.18187 7.6941C8.66498 8.09129 9.30269 8.33336 10.0001 8.33336C10.6974 8.33336 11.3352 8.09129 11.8183 7.6941C12.3014 8.09129 12.9391 8.33336 13.6365 8.33336C14.3338 8.33336 14.9715 8.09129 15.4547 7.6941C15.9378 8.09129 16.5755 8.33336 17.2729 8.33336V18.3333H17.2728Z" fill="black"/>
<path d="M7.27269 11.666H4.54541V14.9993H7.27269V11.666Z" fill="black"/>
</svg>
