<svg width="154" height="141" viewBox="0 0 154 141" fill="none" xmlns="http://www.w3.org/2000/svg">
<path d="M89.2501 124.61C87.0101 123.26 84.11 123.08 81.65 124.14C78.18 125.63 75.6701 129.17 76.2801 133.01C76.4501 134.06 76.6701 135.3 77.1901 136.24C77.6501 137.07 78.4701 137.79 79.1701 138.42C80.7101 139.8 82.3801 140.21 84.4101 140.21C86.3301 140.2 88.24 139.99 89.8101 138.79C91.2701 137.68 92.2201 136.04 92.6401 134.27C93.4301 130.91 92.6301 126.11 89.2501 124.61Z" fill="#FCD400"/>
<path d="M85.6202 122.35C83.3802 121 80.4802 120.82 78.0202 121.88C74.5502 123.37 72.0402 126.91 72.6502 130.75C72.8202 131.8 73.0402 133.04 73.5602 133.98C74.0202 134.81 74.8402 135.53 75.5402 136.16C77.0802 137.54 78.7502 137.95 80.7802 137.95C82.7002 137.94 84.6102 137.73 86.1802 136.53C87.6402 135.42 88.5902 133.78 89.0102 132.01C89.8002 128.66 88.9902 123.85 85.6202 122.35ZM88.1602 130.63C87.9802 132.3 87.3402 133.93 86.1502 135.14C84.9402 136.36 83.4002 136.79 81.7202 136.86C79.9702 136.94 78.2302 136.92 76.7702 135.83C76.1502 135.36 75.6002 134.79 75.0602 134.23C74.3402 133.48 74.1102 132.62 73.8602 131.64C73.3802 129.75 73.4602 128.02 74.4702 126.31C75.2402 125.01 76.3802 123.93 77.7102 123.21C79.6002 122.18 81.7602 122.01 83.7202 122.59C83.7702 122.71 83.8602 122.82 84.0102 122.86C87.4202 123.73 88.5002 127.48 88.1602 130.63Z" fill="#2D2A2E" stroke="#2D2A2E" stroke-width="0.5" stroke-miterlimit="10"/>
<path d="M4.88 38.5C4.19 38.09 3.31 38.03 2.56 38.36C1.5 38.81 0.730002 39.9 0.920002 41.07C0.970002 41.39 1.04 41.77 1.2 42.06C1.34 42.31 1.59 42.54 1.81 42.73C2.28 43.15 2.79001 43.28 3.41001 43.28C4.00001 43.28 4.58 43.21 5.06 42.85C5.5 42.51 5.8 42.01 5.92 41.47C6.16 40.43 5.92 38.96 4.88 38.5ZM5.66001 41.03C5.60001 41.54 5.41001 42.04 5.05001 42.41C4.68001 42.78 4.21 42.91 3.7 42.94C3.17 42.96 2.63001 42.96 2.19001 42.63C2.00001 42.49 1.83 42.31 1.67 42.14C1.45 41.91 1.38001 41.65 1.30001 41.35C1.15001 40.77 1.18 40.24 1.49 39.72C1.73 39.32 2.07001 38.99 2.48001 38.77C3.06001 38.46 3.72 38.4 4.32 38.58C4.33 38.62 4.36001 38.65 4.41001 38.66C5.44001 38.92 5.77001 40.07 5.66001 41.03Z" fill="#2D2A2E" stroke="#2D2A2E" stroke-width="0.75" stroke-miterlimit="10"/>
<path d="M10.7201 106.41C10.6501 106.14 10.5101 105.91 10.3101 105.71C10.2001 105.63 10.1001 105.55 9.9901 105.46C9.7401 105.32 9.4801 105.25 9.1901 105.24C8.9701 105.23 8.7701 105.28 8.5801 105.38C8.3801 105.44 8.2201 105.55 8.0701 105.71C7.9201 105.85 7.8101 106.02 7.7401 106.22C7.6401 106.41 7.6001 106.61 7.6001 106.83L7.6601 107.25C7.7301 107.52 7.8701 107.75 8.0701 107.95C8.1801 108.03 8.2801 108.11 8.3901 108.2C8.6401 108.34 8.9001 108.41 9.1901 108.42C9.4101 108.43 9.6101 108.38 9.8001 108.28C10.0001 108.22 10.1601 108.11 10.3101 107.95C10.4601 107.81 10.5701 107.64 10.6401 107.44C10.7401 107.25 10.7801 107.05 10.7801 106.83L10.7201 106.41Z" fill="#2D2A2E"/>
<path d="M22.9203 106.41C22.8503 106.14 22.7103 105.91 22.5103 105.71C22.4003 105.63 22.3003 105.55 22.1903 105.46C21.9403 105.32 21.6803 105.25 21.3903 105.24C21.1703 105.23 20.9703 105.28 20.7803 105.38C20.5803 105.44 20.4203 105.55 20.2703 105.71C20.1203 105.85 20.0103 106.02 19.9403 106.22C19.8403 106.41 19.8003 106.61 19.8003 106.83L19.8603 107.25C19.9303 107.52 20.0703 107.75 20.2703 107.95C20.3803 108.03 20.4803 108.11 20.5903 108.2C20.8403 108.34 21.1003 108.41 21.3903 108.42C21.6103 108.43 21.8103 108.38 22.0003 108.28C22.2003 108.22 22.3603 108.11 22.5103 107.95C22.6603 107.81 22.7703 107.64 22.8403 107.44C22.9403 107.25 22.9803 107.05 22.9803 106.83L22.9203 106.41Z" fill="#2D2A2E"/>
<path d="M35.12 106.41C35.05 106.14 34.91 105.91 34.71 105.71C34.6 105.63 34.5 105.55 34.39 105.46C34.14 105.32 33.88 105.25 33.59 105.24C33.37 105.23 33.17 105.28 32.98 105.38C32.78 105.44 32.62 105.55 32.47 105.71C32.32 105.85 32.21 106.02 32.14 106.22C32.04 106.41 32 106.61 32 106.83L32.06 107.25C32.13 107.52 32.27 107.75 32.47 107.95C32.58 108.03 32.68 108.11 32.79 108.2C33.04 108.34 33.3 108.41 33.59 108.42C33.81 108.43 34.01 108.38 34.2 108.28C34.4 108.22 34.56 108.11 34.71 107.95C34.86 107.81 34.97 107.64 35.04 107.44C35.14 107.25 35.18 107.05 35.18 106.83L35.12 106.41Z" fill="#2D2A2E"/>
<path d="M47.3202 106.41C47.2502 106.14 47.1102 105.91 46.9102 105.71C46.8002 105.63 46.7002 105.55 46.5902 105.46C46.3402 105.32 46.0802 105.25 45.7902 105.24C45.5702 105.23 45.3702 105.28 45.1802 105.38C44.9802 105.44 44.8202 105.55 44.6702 105.71C44.5202 105.85 44.4102 106.02 44.3402 106.22C44.2402 106.41 44.2002 106.61 44.2002 106.83L44.2602 107.25C44.3302 107.52 44.4702 107.75 44.6702 107.95C44.7802 108.03 44.8802 108.11 44.9902 108.2C45.2402 108.34 45.5002 108.41 45.7902 108.42C46.0102 108.43 46.2102 108.38 46.4002 108.28C46.6002 108.22 46.7602 108.11 46.9102 107.95C47.0602 107.81 47.1702 107.64 47.2402 107.44C47.3402 107.25 47.3802 107.05 47.3802 106.83L47.3202 106.41Z" fill="#2D2A2E"/>
<path d="M59.5101 106.41C59.4401 106.14 59.3001 105.91 59.1001 105.71C58.9901 105.63 58.8901 105.55 58.7801 105.46C58.5301 105.32 58.2701 105.25 57.9801 105.24C57.7601 105.23 57.5601 105.28 57.3701 105.38C57.1701 105.44 57.0101 105.55 56.8601 105.71C56.7101 105.85 56.6001 106.02 56.5301 106.22C56.4301 106.41 56.3901 106.61 56.3901 106.83L56.4501 107.25C56.5201 107.52 56.6601 107.75 56.8601 107.95C56.9701 108.03 57.0701 108.11 57.1801 108.2C57.4301 108.34 57.6901 108.41 57.9801 108.42C58.2001 108.43 58.4001 108.38 58.5901 108.28C58.7901 108.22 58.9501 108.11 59.1001 107.95C59.2501 107.81 59.3601 107.64 59.4301 107.44C59.5301 107.25 59.5701 107.05 59.5701 106.83L59.5101 106.41Z" fill="#2D2A2E"/>
<path d="M10.7201 118.61C10.6501 118.34 10.5101 118.11 10.3101 117.91C10.2001 117.83 10.1001 117.75 9.9901 117.66C9.7401 117.52 9.4801 117.45 9.1901 117.44C8.9701 117.43 8.7701 117.48 8.5801 117.58C8.3801 117.64 8.2201 117.75 8.0701 117.91C7.9201 118.05 7.8101 118.22 7.7401 118.42C7.6401 118.61 7.6001 118.81 7.6001 119.03L7.6601 119.45C7.7301 119.72 7.8701 119.95 8.0701 120.15C8.1801 120.23 8.2801 120.31 8.3901 120.4C8.6401 120.54 8.9001 120.61 9.1901 120.62C9.4101 120.63 9.6101 120.58 9.8001 120.48C10.0001 120.42 10.1601 120.31 10.3101 120.15C10.4601 120.01 10.5701 119.84 10.6401 119.64C10.7401 119.45 10.7801 119.25 10.7801 119.03L10.7201 118.61Z" fill="#2D2A2E"/>
<path d="M22.9203 118.61C22.8503 118.34 22.7103 118.11 22.5103 117.91C22.4003 117.83 22.3003 117.75 22.1903 117.66C21.9403 117.52 21.6803 117.45 21.3903 117.44C21.1703 117.43 20.9703 117.48 20.7803 117.58C20.5803 117.64 20.4203 117.75 20.2703 117.91C20.1203 118.05 20.0103 118.22 19.9403 118.42C19.8403 118.61 19.8003 118.81 19.8003 119.03L19.8603 119.45C19.9303 119.72 20.0703 119.95 20.2703 120.15C20.3803 120.23 20.4803 120.31 20.5903 120.4C20.8403 120.54 21.1003 120.61 21.3903 120.62C21.6103 120.63 21.8103 120.58 22.0003 120.48C22.2003 120.42 22.3603 120.31 22.5103 120.15C22.6603 120.01 22.7703 119.84 22.8403 119.64C22.9403 119.45 22.9803 119.25 22.9803 119.03L22.9203 118.61Z" fill="#2D2A2E"/>
<path d="M35.12 118.61C35.05 118.34 34.91 118.11 34.71 117.91C34.6 117.83 34.5 117.75 34.39 117.66C34.14 117.52 33.88 117.45 33.59 117.44C33.37 117.43 33.17 117.48 32.98 117.58C32.78 117.64 32.62 117.75 32.47 117.91C32.32 118.05 32.21 118.22 32.14 118.42C32.04 118.61 32 118.81 32 119.03L32.06 119.45C32.13 119.72 32.27 119.95 32.47 120.15C32.58 120.23 32.68 120.31 32.79 120.4C33.04 120.54 33.3 120.61 33.59 120.62C33.81 120.63 34.01 120.58 34.2 120.48C34.4 120.42 34.56 120.31 34.71 120.15C34.86 120.01 34.97 119.84 35.04 119.64C35.14 119.45 35.18 119.25 35.18 119.03L35.12 118.61Z" fill="#2D2A2E"/>
<path d="M47.3202 118.61C47.2502 118.34 47.1102 118.11 46.9102 117.91C46.8002 117.83 46.7002 117.75 46.5902 117.66C46.3402 117.52 46.0802 117.45 45.7902 117.44C45.5702 117.43 45.3702 117.48 45.1802 117.58C44.9802 117.64 44.8202 117.75 44.6702 117.91C44.5202 118.05 44.4102 118.22 44.3402 118.42C44.2402 118.61 44.2002 118.81 44.2002 119.03L44.2602 119.45C44.3302 119.72 44.4702 119.95 44.6702 120.15C44.7802 120.23 44.8802 120.31 44.9902 120.4C45.2402 120.54 45.5002 120.61 45.7902 120.62C46.0102 120.63 46.2102 120.58 46.4002 120.48C46.6002 120.42 46.7602 120.31 46.9102 120.15C47.0602 120.01 47.1702 119.84 47.2402 119.64C47.3402 119.45 47.3802 119.25 47.3802 119.03L47.3202 118.61Z" fill="#2D2A2E"/>
<path d="M59.5101 118.61C59.4401 118.34 59.3001 118.11 59.1001 117.91C58.9901 117.83 58.8901 117.75 58.7801 117.66C58.5301 117.52 58.2701 117.45 57.9801 117.44C57.7601 117.43 57.5601 117.48 57.3701 117.58C57.1701 117.64 57.0101 117.75 56.8601 117.91C56.7101 118.05 56.6001 118.22 56.5301 118.42C56.4301 118.61 56.3901 118.81 56.3901 119.03L56.4501 119.45C56.5201 119.72 56.6601 119.95 56.8601 120.15C56.9701 120.23 57.0701 120.31 57.1801 120.4C57.4301 120.54 57.6901 120.61 57.9801 120.62C58.2001 120.63 58.4001 120.58 58.5901 120.48C58.7901 120.42 58.9501 120.31 59.1001 120.15C59.2501 120.01 59.3601 119.84 59.4301 119.64C59.5301 119.45 59.5701 119.25 59.5701 119.03L59.5101 118.61Z" fill="#2D2A2E"/>
<path d="M10.7201 130.81C10.6501 130.54 10.5101 130.31 10.3101 130.11C10.2001 130.03 10.1001 129.95 9.9901 129.86C9.7401 129.72 9.4801 129.65 9.1901 129.64C8.9701 129.63 8.7701 129.68 8.5801 129.78C8.3801 129.84 8.2201 129.95 8.0701 130.11C7.9201 130.25 7.8101 130.42 7.7401 130.62C7.6401 130.81 7.6001 131.01 7.6001 131.23L7.6601 131.65C7.7301 131.92 7.8701 132.15 8.0701 132.35C8.1801 132.43 8.2801 132.51 8.3901 132.6C8.6401 132.74 8.9001 132.81 9.1901 132.82C9.4101 132.83 9.6101 132.78 9.8001 132.68C10.0001 132.62 10.1601 132.51 10.3101 132.35C10.4601 132.21 10.5701 132.04 10.6401 131.84C10.7401 131.65 10.7801 131.45 10.7801 131.23L10.7201 130.81Z" fill="#2D2A2E"/>
<path d="M22.9203 130.81C22.8503 130.54 22.7103 130.31 22.5103 130.11C22.4003 130.03 22.3003 129.95 22.1903 129.86C21.9403 129.72 21.6803 129.65 21.3903 129.64C21.1703 129.63 20.9703 129.68 20.7803 129.78C20.5803 129.84 20.4203 129.95 20.2703 130.11C20.1203 130.25 20.0103 130.42 19.9403 130.62C19.8403 130.81 19.8003 131.01 19.8003 131.23L19.8603 131.65C19.9303 131.92 20.0703 132.15 20.2703 132.35C20.3803 132.43 20.4803 132.51 20.5903 132.6C20.8403 132.74 21.1003 132.81 21.3903 132.82C21.6103 132.83 21.8103 132.78 22.0003 132.68C22.2003 132.62 22.3603 132.51 22.5103 132.35C22.6603 132.21 22.7703 132.04 22.8403 131.84C22.9403 131.65 22.9803 131.45 22.9803 131.23L22.9203 130.81Z" fill="#2D2A2E"/>
<path d="M35.12 130.81C35.05 130.54 34.91 130.31 34.71 130.11C34.6 130.03 34.5 129.95 34.39 129.86C34.14 129.72 33.88 129.65 33.59 129.64C33.37 129.63 33.17 129.68 32.98 129.78C32.78 129.84 32.62 129.95 32.47 130.11C32.32 130.25 32.21 130.42 32.14 130.62C32.04 130.81 32 131.01 32 131.23L32.06 131.65C32.13 131.92 32.27 132.15 32.47 132.35C32.58 132.43 32.68 132.51 32.79 132.6C33.04 132.74 33.3 132.81 33.59 132.82C33.81 132.83 34.01 132.78 34.2 132.68C34.4 132.62 34.56 132.51 34.71 132.35C34.86 132.21 34.97 132.04 35.04 131.84C35.14 131.65 35.18 131.45 35.18 131.23L35.12 130.81Z" fill="#2D2A2E"/>
<path d="M47.3202 130.81C47.2502 130.54 47.1102 130.31 46.9102 130.11C46.8002 130.03 46.7002 129.95 46.5902 129.86C46.3402 129.72 46.0802 129.65 45.7902 129.64C45.5702 129.63 45.3702 129.68 45.1802 129.78C44.9802 129.84 44.8202 129.95 44.6702 130.11C44.5202 130.25 44.4102 130.42 44.3402 130.62C44.2402 130.81 44.2002 131.01 44.2002 131.23L44.2602 131.65C44.3302 131.92 44.4702 132.15 44.6702 132.35C44.7802 132.43 44.8802 132.51 44.9902 132.6C45.2402 132.74 45.5002 132.81 45.7902 132.82C46.0102 132.83 46.2102 132.78 46.4002 132.68C46.6002 132.62 46.7602 132.51 46.9102 132.35C47.0602 132.21 47.1702 132.04 47.2402 131.84C47.3402 131.65 47.3802 131.45 47.3802 131.23L47.3202 130.81Z" fill="#2D2A2E"/>
<path d="M59.5101 130.81C59.4401 130.54 59.3001 130.31 59.1001 130.11C58.9901 130.03 58.8901 129.95 58.7801 129.86C58.5301 129.72 58.2701 129.65 57.9801 129.64C57.7601 129.63 57.5601 129.68 57.3701 129.78C57.1701 129.84 57.0101 129.95 56.8601 130.11C56.7101 130.25 56.6001 130.42 56.5301 130.62C56.4301 130.81 56.3901 131.01 56.3901 131.23L56.4501 131.65C56.5201 131.92 56.6601 132.15 56.8601 132.35C56.9701 132.43 57.0701 132.51 57.1801 132.6C57.4301 132.74 57.6901 132.81 57.9801 132.82C58.2001 132.83 58.4001 132.78 58.5901 132.68C58.7901 132.62 58.9501 132.51 59.1001 132.35C59.2501 132.21 59.3601 132.04 59.4301 131.84C59.5301 131.65 59.5701 131.45 59.5701 131.23L59.5101 130.81Z" fill="#2D2A2E"/>
<path d="M60.9901 94.2299C39.2701 94.2299 21.6001 76.5599 21.6001 54.84C21.6001 33.12 39.2701 15.45 60.9901 15.45C82.7101 15.45 100.38 33.12 100.38 54.84C100.38 76.5599 82.7101 94.2299 60.9901 94.2299Z" fill="#FCD400"/>
<path d="M61.6302 59.77C61.4402 59.2 61.1102 58.79 60.7602 58.32C60.3702 57.79 60.0102 57.28 59.5602 56.8C58.7102 55.88 57.8302 55 56.9202 54.14C56.0302 53.31 55.1602 52.46 54.2402 51.67C53.7502 51.25 53.2502 50.88 52.7302 50.5C52.5102 50.34 52.2902 50.16 52.0302 50.05C51.7002 49.91 51.3602 49.87 51.0502 49.69C51.0102 49.67 50.9702 49.71 50.9902 49.75C51.1602 50.04 51.2202 50.34 51.3202 50.65C51.4102 50.91 51.5802 51.13 51.7402 51.35C52.1202 51.87 52.4902 52.36 52.9102 52.86C53.7102 53.81 54.5902 54.71 55.4402 55.62C56.2702 56.51 57.1302 57.36 58.0202 58.19C58.5002 58.64 59.0002 59.03 59.5402 59.41C60.0502 59.77 60.4602 60.13 61.0702 60.33C61.3902 60.43 61.7302 60.09 61.6302 59.77Z" fill="#2D2A2E"/>
<path d="M51.0104 59.77C51.2004 59.2 51.5303 58.79 51.8803 58.32C52.2703 57.79 52.6304 57.28 53.0804 56.8C53.9304 55.88 54.8104 55 55.7204 54.14C56.6104 53.31 57.4803 52.46 58.4003 51.67C58.8903 51.25 59.3904 50.88 59.9104 50.5C60.1304 50.34 60.3504 50.16 60.6104 50.05C60.9404 49.91 61.2803 49.87 61.5903 49.69C61.6303 49.67 61.6703 49.71 61.6503 49.75C61.4803 50.04 61.4204 50.34 61.3204 50.65C61.2304 50.91 61.0603 51.13 60.9003 51.35C60.5203 51.87 60.1503 52.36 59.7303 52.86C58.9303 53.81 58.0503 54.71 57.2003 55.62C56.3703 56.51 55.5104 57.36 54.6204 58.19C54.1404 58.64 53.6404 59.03 53.1004 59.41C52.5904 59.77 52.1804 60.13 51.5704 60.33C51.2404 60.43 50.9004 60.09 51.0104 59.77Z" fill="#2D2A2E"/>
<path d="M88.3899 59.77C88.1999 59.2 87.87 58.79 87.52 58.32C87.13 57.79 86.77 57.28 86.32 56.8C85.47 55.88 84.5899 55 83.6799 54.14C82.7899 53.31 81.9199 52.46 80.9999 51.67C80.5099 51.25 80.01 50.88 79.49 50.5C79.27 50.34 79.0499 50.16 78.7899 50.05C78.4599 49.91 78.1199 49.87 77.8099 49.69C77.7699 49.67 77.7299 49.71 77.7499 49.75C77.9199 50.04 77.98 50.34 78.08 50.65C78.17 50.91 78.3399 51.13 78.4999 51.35C78.8799 51.87 79.2499 52.36 79.6699 52.86C80.4699 53.81 81.3499 54.71 82.1999 55.62C83.0299 56.51 83.8899 57.36 84.7799 58.19C85.2599 58.64 85.76 59.03 86.3 59.41C86.81 59.77 87.22 60.13 87.83 60.33C88.15 60.43 88.4899 60.09 88.3899 59.77Z" fill="#2D2A2E"/>
<path d="M77.76 59.77C77.95 59.2 78.28 58.79 78.63 58.32C79.02 57.79 79.38 57.28 79.83 56.8C80.68 55.88 81.56 55 82.47 54.14C83.36 53.31 84.23 52.46 85.15 51.67C85.64 51.25 86.14 50.88 86.66 50.5C86.88 50.34 87.1 50.16 87.36 50.05C87.69 49.91 88.03 49.87 88.34 49.69C88.38 49.67 88.42 49.71 88.4 49.75C88.23 50.04 88.17 50.34 88.07 50.65C87.98 50.91 87.81 51.13 87.65 51.35C87.27 51.87 86.9 52.36 86.48 52.86C85.68 53.81 84.8 54.71 83.95 55.62C83.12 56.51 82.26 57.36 81.37 58.19C80.89 58.64 80.39 59.03 79.85 59.41C79.34 59.77 78.93 60.13 78.32 60.33C78 60.43 77.66 60.09 77.76 59.77Z" fill="#2D2A2E"/>
<path d="M77.66 72.64C77.33 71.72 76.7 70.97 75.94 70.37C74.29 69.07 72.08 68.59 70.02 68.63C68.01 68.67 66.11 69.3 64.56 70.6C63.89 71.16 63.2499 71.87 62.9299 72.69C62.6899 73.31 62.45 74.23 62.77 74.86C62.8 74.92 62.89 74.94 62.95 74.91C63.44 74.64 63.84 74.08 64.24 73.69C64.73 73.22 65.19 72.71 65.73 72.3C66.96 71.38 68.49 70.88 70.02 70.82C71.53 70.77 73.3 71.09 74.58 71.94C75.19 72.35 75.63 72.98 76.07 73.56C76.5 74.15 76.79 74.91 77.36 75.38C77.6 75.57 77.99 75.53 78.07 75.19C78.28 74.36 77.95 73.43 77.66 72.64Z" fill="#2D2A2E"/>
<path d="M71.7201 22.74C70.4401 23.24 70.5001 24 71.7701 24.45C91.6301 25.48 107.48 41.97 107.48 62.08C107.48 82.86 90.5701 99.77 69.7901 99.77C49.0101 99.77 32.1001 82.86 32.1001 62.08C32.1001 43.34 45.8601 27.77 63.8001 24.89C65.2301 24.33 65.0101 23.2 63.4701 23.21C44.7401 26.24 30.3901 42.5 30.3901 62.07C30.3901 83.79 48.0601 101.46 69.7801 101.46C91.5001 101.46 109.17 83.79 109.17 62.07C109.18 41.01 92.5501 23.75 71.7201 22.74Z" fill="#2D2A2E"/>
<path d="M131.29 115.98C131.13 114.74 130.44 113.79 129.66 112.85C129.45 112.59 129.2 112.36 128.97 112.12C128.46 111.42 127.85 110.78 127.29 110.15C126.14 108.85 124.96 107.59 123.74 106.36C121.42 104.02 119.03 101.76 116.61 99.5399C114.26 97.3799 111.96 95.0799 109.41 93.1499C107.37 91.6099 104.61 90.1599 101.95 90.5499C101.29 90.1099 100.64 89.6599 99.9401 89.2899C99.5901 89.1099 99.25 88.9299 98.9 88.7499C98.72 88.6599 98.5501 88.5699 98.3601 88.5099C98.2801 88.4899 98.2001 88.4699 98.1301 88.4499C98.1201 88.4399 98.1201 88.4299 98.1101 88.4199C97.9201 88.2299 97.6501 88.2599 97.4601 88.4199C96.6201 89.0999 95.78 89.78 94.95 90.46C94.54 90.8 94.13 91.1299 93.73 91.4899C93.54 91.6599 93.35 91.8299 93.15 91.9999C92.93 92.1899 92.77 92.4299 92.59 92.6599C92.44 92.8499 92.5701 93.0599 92.7501 93.1499C92.7601 93.2099 92.77 93.2699 92.79 93.3299C92.85 93.5199 92.9401 93.6899 93.0301 93.8699C93.2101 94.2199 93.3901 94.5599 93.5701 94.9099C93.9401 95.6099 94.3901 96.2599 94.8301 96.9199C94.4401 99.5699 95.88 102.34 97.43 104.38C99.36 106.93 101.66 109.23 103.82 111.58C106.05 114 108.31 116.39 110.64 118.71C111.87 119.93 113.13 121.11 114.43 122.26C115.06 122.82 115.7 123.43 116.4 123.94C116.64 124.17 116.87 124.41 117.13 124.63C118.08 125.41 119.02 126.09 120.26 126.26C121.82 126.47 123.37 126.05 124.71 125.31C126.3 124.71 127.69 123.72 128.84 122.43C130.44 120.65 131.61 118.38 131.29 115.98Z" fill="#2D2A2E"/>
<path d="M131.29 115.98C131.13 114.74 130.44 113.79 129.66 112.85C129.45 112.59 129.2 112.36 128.97 112.12C128.83 111.92 128.68 111.73 128.52 111.55C127.36 110.15 126.14 108.82 124.87 107.52C122.2 104.77 119.42 102.13 116.61 99.5399C114.26 97.3799 111.96 95.0799 109.41 93.1499C107.37 91.6099 104.61 90.1599 101.95 90.5499C101.29 90.1099 100.64 89.6599 99.9401 89.2899C99.5901 89.1099 99.25 88.9299 98.9 88.7499C98.72 88.6599 98.5501 88.5699 98.3601 88.5099C98.2801 88.4899 98.2001 88.4699 98.1301 88.4499C98.1201 88.4399 98.1201 88.4299 98.1101 88.4199C97.9201 88.2299 97.6501 88.2599 97.4601 88.4199C96.6201 89.0999 95.78 89.78 94.95 90.46C94.54 90.8 94.13 91.1299 93.73 91.4899C93.54 91.6599 93.34 91.8299 93.15 91.9999C92.93 92.1899 92.77 92.4299 92.59 92.6599C92.44 92.8499 92.5701 93.0599 92.7501 93.1499C92.7601 93.2099 92.77 93.2699 92.79 93.3299C92.85 93.5199 92.9401 93.6899 93.0301 93.8699C93.2101 94.2199 93.3901 94.5599 93.5701 94.9099C93.9401 95.6099 94.3901 96.2599 94.8301 96.9199C94.4401 99.5699 95.88 102.34 97.43 104.38C99.36 106.93 101.66 109.23 103.82 111.58C106.41 114.4 109.05 117.18 111.8 119.84C113.1 121.1 114.44 122.33 115.83 123.49C116.02 123.64 116.21 123.8 116.4 123.94C116.64 124.17 116.87 124.41 117.13 124.63C117.86 125.24 118.6 125.77 119.47 126.06C121.1 126.15 121.29 125.16 119.64 124.3C119.13 124.13 118.68 123.69 118.21 123.37C117.98 123.21 117.78 123.01 117.58 122.82C116.96 122.24 116.4 121.89 115.79 121.25C115 120.42 114.13 119.66 113.31 118.86C111.28 116.88 108.05 113.55 106.11 111.47C104.13 109.33 102.14 107.19 100.21 105.01C99.1801 103.84 98.18 102.62 97.48 101.22C96.86 99.9899 96.6301 98.7699 96.5201 97.4699C96.4101 97.0699 96.31 96.6699 96.18 96.2699C96.16 96.2199 96.1501 96.1799 96.1301 96.1299C96.0701 96.0199 96.01 95.9099 95.95 95.7999C95.83 95.5999 95.7001 95.41 95.5701 95.21C95.4801 95.07 95.38 94.9299 95.29 94.7899C95.11 94.5599 94.9301 94.3199 94.7201 94.1099C94.4701 93.8499 94.22 93.59 93.98 93.32C93.84 93.17 93.7 93.0199 93.54 92.8799L93.5301 92.8699C93.6101 92.8199 93.6901 92.77 93.7701 92.71C93.9701 92.55 94.17 92.3799 94.37 92.2199C94.79 91.8699 95.21 91.5199 95.62 91.1599C96.37 90.5199 97.12 89.8799 97.87 89.2499C97.88 89.2599 97.8801 89.2699 97.8901 89.2799C98.0301 89.4399 98.1701 89.5799 98.3301 89.7199C98.5901 89.9699 98.86 90.2199 99.12 90.4699C99.2 90.5499 99.29 90.6099 99.37 90.6799C99.61 90.8199 99.8601 90.9699 100.1 91.1099C100.24 91.1899 100.37 91.2699 100.51 91.3399C100.58 91.3799 100.65 91.4099 100.72 91.4499C100.72 91.4499 100.87 91.5099 100.91 91.5399C100.95 91.5599 101.01 91.5799 101.02 91.5799C101.1 91.6099 101.17 91.6299 101.25 91.6599C101.42 91.7099 101.6 91.7599 101.77 91.7999C102.08 91.8699 102.4 91.9299 102.71 91.9899C103.37 92.1199 104.11 92.3 104.76 92.6C105.16 92.74 105.57 92.9099 105.98 93.1099C107.18 93.6899 108.28 94.45 109.28 95.32C111.72 97.44 114.1 99.6499 116.47 101.85C118.54 103.78 121.86 107 123.83 109.02C124.64 109.85 125.45 110.68 126.24 111.52C126.87 112.19 127.47 112.95 128.19 113.54C128.67 114.33 129.12 115.07 129.28 116.01C129.43 116.92 129.2 117.87 128.85 118.71C128.47 119.62 128.04 120.53 127.47 121.35C127.12 121.86 126.66 122.28 126.16 122.65C125.56 123.04 124.88 123.36 124.19 123.64C123.91 123.76 123.61 123.84 123.32 123.94C121.77 124.72 121.98 125.61 123.26 125.89C123.76 125.73 124.25 125.53 124.71 125.28C126.3 124.68 127.69 123.69 128.84 122.4C130.44 120.65 131.61 118.38 131.29 115.98Z" fill="#2D2A2E"/>
<path d="M54.98 12.37C54.98 12.37 71.13 -5.60999 92.67 5.33001C92.67 5.33001 126.34 18.81 109.6 40.81C108.09 42.79 106.02 40.76 106.22 39.2C107.49 29.54 115.37 20.44 138.02 34.95C138.02 34.95 170.52 56.48 127.11 99.89" stroke="#2D2A2E" stroke-width="2" stroke-miterlimit="10" stroke-linecap="round" stroke-linejoin="round" stroke-dasharray="6 6"/>
<path d="M149.35 45.49C147.9 45.24 146.32 45.71 145.2 46.74C143.49 48.32 143.01 50.67 144.03 52.48C144.34 53.03 144.68 53.6 145.14 53.99C145.55 54.34 146.1 54.55 146.62 54.75C147.62 55.13 148.56 55.11 149.75 54.67C149.76 54.67 149.77 54.66 149.78 54.66C150.71 54.32 151.75 53.83 152.39 52.85C152.94 52.02 153.17 50.97 153.05 49.9C152.84 47.82 151.39 45.61 149.35 45.49ZM144.67 49.89C144.81 49.16 145.17 48.47 145.69 47.89C146.14 47.39 146.69 47.02 147.31 46.79C147.64 46.67 147.99 46.59 148.35 46.55C148.44 46.61 148.55 46.63 148.66 46.62C150.35 46.44 151.49 47.91 151.86 49.45C152.01 50.05 152.1 50.96 151.67 51.84C151.35 52.52 150.78 53.01 149.87 53.38C149.02 53.73 148.19 54.03 147.34 53.79C146.95 53.68 146.57 53.5 146.23 53.34C145.82 53.15 145.58 52.84 145.27 52.39C144.68 51.54 144.49 50.77 144.67 49.89Z" fill="#2D2A2E" stroke="#2D2A2E" stroke-width="0.5" stroke-miterlimit="10"/>
<path d="M144.67 49.89C144.81 49.16 145.17 48.47 145.69 47.89C146.14 47.39 146.69 47.02 147.31 46.79C147.64 46.67 147.99 46.59 148.35 46.55C148.44 46.61 148.55 46.63 148.66 46.62C150.35 46.44 151.49 47.91 151.86 49.45C152.01 50.05 152.1 50.96 151.67 51.84C151.35 52.52 150.78 53.01 149.87 53.38C149.02 53.73 148.19 54.03 147.34 53.79C146.95 53.68 146.57 53.5 146.23 53.34C145.82 53.15 145.58 52.84 145.27 52.39C144.68 51.54 144.49 50.77 144.67 49.89Z" fill="white"/>
</svg>
