<svg width="148" height="143" viewBox="0 0 148 143" fill="none" xmlns="http://www.w3.org/2000/svg">
<path d="M96.86 109.19C96.86 106.9 96.87 104.6 96.87 102.31C96.89 94.1199 96.86 85.9299 96.83 77.7299L96.79 65.4399C96.78 63.3899 96.77 61.3399 96.75 59.2999C96.74 58.2499 96.75 57.1699 96.71 56.1099C96.7 55.3599 96.68 54.6199 96.61 53.8799C96.41 51.5699 95.99 49.2799 95.36 47.0499C93.06 38.9699 87.95 31.8699 81.03 27.3899C78.75 25.9099 76.28 24.7299 73.72 23.8399C73.07 23.6699 72.44 23.3999 71.78 23.2399C70.81 22.9999 69.76 22.7499 68.79 22.5299C66.61 22.0399 64.62 21.9899 62.42 21.9099C62.35 21.9199 62.27 21.9199 62.2 21.9299C61.81 21.9299 61.43 21.9299 61.04 21.9499C61.03 21.9499 61.03 21.9499 61.02 21.9499C60.86 21.9599 60.71 21.9599 60.55 21.9799C58.68 22.0699 56.81 22.2999 54.98 22.6999C50.99 23.5599 47.12 25.1599 43.66 27.3899C36.73 31.8699 31.63 38.9799 29.33 47.0499C28.7 49.2699 28.28 51.5699 28.08 53.8799C28.01 54.6199 27.99 55.3699 27.98 56.1099C27.94 57.1799 27.95 58.2499 27.94 59.2999C27.92 61.3499 27.91 63.3999 27.9 65.4399L27.86 77.7299C27.83 85.9199 27.81 94.1099 27.82 102.31C27.82 104.6 27.83 106.9 27.83 109.19C27.83 111.49 27.79 113.78 28.11 116.07C28.13 116.24 28.28 116.35 28.46 116.4C28.47 116.41 28.48 116.42 28.5 116.42C30.69 116.83 33 116.73 35.21 116.75C37.5 116.77 39.8 116.78 42.09 116.79C50.28 116.82 58.48 116.84 66.67 116.86C70.77 116.87 79.8 116.87 83.89 116.86C85.94 116.86 87.99 116.85 90.04 116.85C91.59 116.85 93.13 116.84 94.68 116.81V116.82C95.36 116.82 95.99 116.82 96.53 116.82C96.56 116.82 96.57 116.83 96.59 116.82C96.62 116.82 96.64 116.82 96.67 116.82V116.77C96.69 116.76 96.71 116.76 96.72 116.74C96.85 116.49 96.78 116.17 96.79 115.89C96.8 115.55 96.82 115.14 96.83 114.8C96.84 114.15 96.85 113.6 96.85 112.95C96.85 112.3 96.87 111.64 96.86 110.99C96.86 110.78 96.85 110.58 96.84 110.38C96.86 109.99 96.86 109.59 96.86 109.19Z" fill="#FCD400"/>
<path d="M119.59 85.0799L119.57 79.2299C119.57 78.8599 119.58 78.4799 119.58 78.1099C119.58 77.5999 119.57 77.0899 119.56 76.5799V75.2599H119.55C119.54 75.0199 119.55 74.7799 119.54 74.5399C119.46 72.1999 119.33 69.8699 119.1 67.5399C118.67 63.1999 117.92 58.8799 116.52 54.7399C116.1 53.5099 115.96 52.7299 115.4 51.5099C115.37 51.4599 115.22 51.0499 115.16 50.9599C113.23 47.2899 110.92 43.9599 108.1 40.8699C105.05 37.5199 101.43 34.6699 97.35 32.6699C92.9 30.4899 88.04 29.3399 83.13 28.8699C80.27 28.5899 77.41 28.5499 74.54 28.6799C73.59 28.7199 72.64 28.8099 71.69 28.8799C71.3 28.8799 70.91 28.8799 70.51 28.8999C70.51 28.8999 70.51 28.8999 70.5 28.8999C70.49 28.8999 70.49 28.8999 70.48 28.8999C70.32 28.9099 70.16 28.9099 70 28.9299C68.1 29.0199 66.21 29.2599 64.35 29.6599C60.3 30.5299 56.38 32.1499 52.88 34.4199C51.61 35.2399 50.4 36.1599 49.25 37.1399C48.62 38.0199 49.09 38.7799 50.13 38.0799C53.91 34.8499 58.39 32.5099 63.18 31.2399C64.77 30.8199 66.4 30.5099 68.03 30.3299C69.29 30.3099 70.56 30.2199 71.82 30.1799C73.08 30.2199 74.35 30.3099 75.61 30.3299C77.25 30.5099 78.87 30.8099 80.46 31.2399C88.22 33.2999 95.16 38.1499 99.63 45.0399C101.85 48.4499 103.45 52.2499 104.42 56.2399C104.9 58.2199 105.19 60.2299 105.35 62.2599C105.39 62.7499 105.42 63.2399 105.43 63.7199C105.39 64.9699 105.4 66.2299 105.39 67.4599C105.39 67.5199 105.39 67.5799 105.39 67.6399C105.37 69.9299 105.36 72.2199 105.36 74.5099C105.33 82.8199 105.31 91.1199 105.29 99.4299C105.28 103.58 105.28 107.74 105.29 111.89C105.29 113.97 105.3 116.04 105.3 118.12C105.3 119.93 105.19 121.73 105.24 123.53C103.19 123.48 101.23 123.58 99.17 123.58C96.84 123.58 94.52 123.57 92.19 123.57C83.88 123.55 70.57 123.58 62.26 123.61L49.79 123.65C47.71 123.66 45.63 123.67 43.56 123.69C41.85 123.71 40.01 123.71 38.34 123.74C38.41 121.88 38.33 120 38.33 118.13C38.33 116.05 38.34 113.98 38.34 111.9C38.35 107.75 38.34 103.59 38.34 99.4399C38.33 91.1299 38.3 82.8299 38.27 74.5199C38.26 72.2299 38.26 69.9399 38.24 67.6499C38.24 67.5899 38.24 67.5299 38.24 67.4699C38.23 66.2399 38.25 64.9799 38.2 63.7299C38.22 63.2399 38.25 62.7499 38.28 62.2699C38.44 60.2399 38.73 58.2299 39.21 56.2499C40.18 52.2699 41.78 48.4699 44 45.0499C44.61 44.1099 45.28 43.2099 45.98 42.3399C46.5 41.0899 45.73 40.8999 45.08 41.4299C42 45.1899 39.68 49.6099 38.33 54.3699C37.69 56.6299 37.27 58.9499 37.06 61.2899C36.99 62.0399 36.97 62.7999 36.96 63.5499C36.92 64.6299 36.93 65.7199 36.92 66.7899C36.9 68.8699 36.89 70.9399 36.88 73.0199L36.84 85.4799C36.81 93.7899 36.79 102.09 36.8 110.4C36.8 112.73 36.81 115.05 36.81 117.38C36.81 119.71 36.77 122.04 37.1 124.36C37.12 124.53 37.27 124.64 37.46 124.7C37.47 124.71 37.48 124.72 37.5 124.72C39.73 125.14 42.06 125.03 44.31 125.06C46.64 125.08 48.96 125.09 51.29 125.1C59.6 125.13 67.91 125.15 76.22 125.17C80.38 125.18 89.53 125.18 93.69 125.17C95.77 125.17 97.85 125.16 99.92 125.16C101.5 125.16 103.05 125.15 104.63 125.11V125.12C105.33 125.12 105.97 125.12 106.52 125.12C108.59 125.12 110.63 125.15 112.7 125.15C114.78 125.15 116.86 125.16 118.93 124.85C119.08 124.83 119.17 124.7 119.21 124.53C119.26 124.48 119.3 124.42 119.31 124.34C119.64 122 119.59 119.65 119.6 117.29C119.6 114.94 119.61 112.59 119.61 110.24C119.64 101.87 119.61 93.4799 119.59 85.0799ZM118.23 75.6399C118.2 83.5399 118.1 91.2799 118.09 99.1799C118.08 103.38 118.08 107.57 118.09 111.77C118.09 113.87 118.1 115.97 118.1 118.07C118.1 119.9 117.99 121.72 118.04 123.54C116 123.48 114.05 123.59 111.99 123.59C110.2 123.59 108.42 123.58 106.63 123.58C106.85 121.52 106.83 119.46 106.83 117.4C106.83 115.07 106.84 112.75 106.84 110.42C106.86 102.11 106.83 93.8099 106.8 85.4999L106.76 73.0399C106.75 70.9599 106.74 68.8899 106.72 66.8099C106.71 65.7399 106.72 64.6499 106.68 63.5699C106.67 62.8099 106.65 62.0599 106.58 61.3099C106.37 58.9699 105.95 56.6399 105.31 54.3899C102.97 46.1999 97.8 38.9999 90.77 34.4499C87.56 32.3699 84 30.8499 80.31 29.9299C80.45 29.9399 80.59 29.9299 80.73 29.9399C85.53 30.1999 90.34 31.0599 94.8 32.8899C102.84 36.1799 108.99 42.6899 113.25 50.1199C113.86 51.4899 114.49 52.8399 115 54.2499C115.72 56.2499 116.29 58.2999 116.74 60.3699C117.7 64.7899 118.01 67.2199 118.19 71.7299C118.21 72.2899 118.19 72.8099 118.21 73.3699C118.24 73.6699 118.23 75.0099 118.23 75.6399Z" fill="#2D2A2E" stroke="#2D2A2E" stroke-width="0.25" stroke-miterlimit="10"/>
<path d="M36.72 115.72C33.89 116.15 30.99 117 27.86 118.31C25.71 119.21 23.26 120.33 21.36 122.19C19.43 124.08 18.63 126.45 19.16 128.71C19.71 131.03 21.57 133.1 24.14 134.23C26.93 135.46 30.07 135.66 32.77 135.7C35.54 135.74 38.35 135.51 41.06 135.28L41.79 135.22C45.01 134.96 47.91 134.75 50.84 134.9C53.78 135.05 56.66 135.69 59.66 136.85C60.39 137.13 61.12 137.43 61.85 137.72C63.89 138.55 66.01 139.4 68.2 139.97C71.04 140.71 73.99 141.11 76.96 141.16C77.16 141.16 77.36 141.16 77.56 141.16C80.27 141.16 82.99 140.86 85.64 140.27C88.19 139.7 90.79 138.8 94.06 137.33C94.59 137.09 95.11 136.86 95.63 136.62C97.73 135.66 99.89 134.67 102.12 133.96C104.6 133.17 107.39 132.75 110.64 132.7C112.36 132.67 114.12 132.72 115.83 132.78C119.67 132.9 123.64 133.02 127.48 132.18C130.46 131.53 132.82 130.43 134.51 128.93C136.57 127.09 137.3 124.5 136.42 122.18C135.63 120.11 133.87 118.25 131.18 116.65C128.88 115.28 126.21 114.4 123.46 114.09C122.12 113.94 120.75 113.94 119.38 114.1" stroke="#2D2A2E" stroke-width="2" stroke-miterlimit="10" stroke-dasharray="5 5"/>
<path d="M86.3601 83.68C85.7201 82.61 84.9001 81.64 83.9901 80.82C82.2501 79.25 80.1401 78.15 77.9101 77.53C73.0601 76.2 67.5801 77.18 63.5801 80.35C61.5901 81.93 59.4501 84.36 59.1101 87.02C59.0401 87.56 59.7901 87.65 60.0301 87.28C60.6201 86.36 61.0601 85.35 61.6901 84.45C62.3101 83.55 63.0601 82.73 63.8701 82C65.6301 80.43 67.7901 79.39 70.0501 78.85C74.2201 77.86 78.8101 78.63 82.2901 81.27C83.2201 81.97 84.0701 82.84 84.7401 83.8C85.1201 84.35 85.4601 84.93 85.7201 85.54C85.9901 86.17 86.1401 86.85 86.4401 87.46C86.6301 87.86 87.2801 87.77 87.3801 87.33C87.6301 86.1 86.9901 84.73 86.3601 83.68Z" fill="#2D2A2E" stroke="#2D2A2E" stroke-width="0.25" stroke-miterlimit="10"/>
<path d="M90.3897 76.84C89.5497 75.77 88.4897 74.8 87.2897 73.98C85.0097 72.41 82.2597 71.31 79.3397 70.69C72.9997 69.36 65.8297 70.34 60.5997 73.51C57.9997 75.09 55.1997 77.52 54.7597 80.18C54.6697 80.72 55.6497 80.81 55.9597 80.44C56.7297 79.52 57.3097 78.51 58.1197 77.61C58.9397 76.71 59.9097 75.89 60.9697 75.16C63.2697 73.59 66.0897 72.55 69.0497 72.01C74.4997 71.02 80.4997 71.79 85.0397 74.43C86.2497 75.13 87.3597 76 88.2397 76.96C88.7397 77.51 89.1797 78.09 89.5297 78.7C89.8897 79.33 90.0797 80.01 90.4697 80.62C90.7197 81.02 91.5697 80.93 91.6897 80.49C92.0397 79.25 91.2097 77.88 90.3897 76.84Z" fill="#2D2A2E" stroke="#2D2A2E" stroke-width="0.25" stroke-miterlimit="10"/>
<path d="M76.5198 84.8499C76.3198 84.6399 75.9997 84.4899 75.7497 84.3799C75.5497 84.2899 75.3398 84.2399 75.1298 84.1799C75.0998 84.1699 75.0798 84.1599 75.0498 84.1499C74.9198 84.1099 74.7997 84.0499 74.6697 84.0299C73.9797 83.8899 73.2797 83.9299 72.5597 83.9899C72.3897 83.9999 72.2198 83.9999 72.0498 84.0199C71.7898 84.0499 71.5297 84.1099 71.3097 84.1799C70.6197 84.3899 69.9697 84.7399 69.3997 85.1799C68.2497 86.0799 67.4897 87.3999 67.2297 88.8299C66.7697 91.3999 67.8597 94.1599 70.0897 95.5399C70.2697 95.6799 70.4598 95.7899 70.6598 95.8899C70.9498 96.0399 71.2498 96.1799 71.5698 96.2599C72.1998 96.4199 72.8798 96.4199 73.5198 96.4299C73.7098 96.4299 73.8898 96.4199 74.0698 96.3999C74.1198 96.3999 74.1697 96.3999 74.2297 96.3899C74.2397 96.3899 74.2397 96.3899 74.2497 96.3899C74.4897 96.3599 74.7298 96.2999 74.9697 96.2099C75.0398 96.1899 75.1298 96.1799 75.1898 96.1599C75.8798 95.9499 76.5298 95.5999 77.0998 95.1599C78.2498 94.2599 79.0098 92.9399 79.2698 91.5099C79.7298 88.9799 78.6898 86.2499 76.5198 84.8499ZM77.2497 93.7399C77.0997 93.9099 76.9197 94.0599 76.7497 94.2099C76.4097 94.4899 76.0298 94.7199 75.6298 94.9099C75.0698 95.1699 74.4798 95.3699 73.8798 95.4699C72.7398 95.5499 71.6398 95.4399 70.5998 94.7799C69.3598 93.9899 68.4898 92.6599 68.1898 91.2199C67.8598 89.6299 68.1998 87.8399 69.2698 86.5799C69.7698 85.9899 70.3998 85.5199 71.0998 85.2099C71.3198 85.1399 71.5398 85.0699 71.7698 85.0199C71.7998 85.0099 71.8297 84.9999 71.8697 84.9999C72.2097 84.9299 72.5497 84.8699 72.8897 84.8499C72.9197 84.8499 72.9497 84.8499 72.9697 84.8499C73.2898 84.8299 73.5997 84.8499 73.8997 84.8799C73.9597 84.8899 74.0297 84.8899 74.0897 84.8999C74.1597 84.9099 74.2197 84.9199 74.2897 84.9299C74.8497 85.0299 75.3898 85.2099 75.9098 85.5399C77.1498 86.3299 78.0198 87.6599 78.3198 89.0999C78.6598 90.6899 78.3197 92.4899 77.2497 93.7399Z" fill="#2D2A2E" stroke="#2D2A2E" stroke-width="0.25" stroke-miterlimit="10"/>
<path d="M92.5597 66.6C92.8697 66.18 92.2197 65.56 91.8097 65.89C89.0397 68.16 84.1297 73.41 81.6697 76C79.2597 78.53 76.8597 81.06 74.4497 83.59C69.5797 88.71 72.3197 85.88 67.4997 91.05C64.7797 93.97 59.9097 98.89 57.3397 101.94C57.0297 102.31 57.6697 102.92 58.0197 102.59C63.1697 97.75 65.3297 95.66 70.1997 90.55C75.0697 85.44 77.1797 83.21 82.0297 78.08C84.7697 75.17 90.1997 69.82 92.5597 66.6Z" fill="#2D2A2E" stroke="#2D2A2E" stroke-width="0.25" stroke-miterlimit="10"/>
<path d="M118.1 118.07C118.1 119.9 117.99 121.72 118.04 123.54C116 123.48 114.05 123.59 111.99 123.59C110.2 123.59 108.42 123.58 106.63 123.58C106.85 121.52 106.83 119.46 106.83 117.4C106.83 115.07 106.84 112.75 106.84 110.42C106.86 102.11 106.83 93.8099 106.8 85.4999L106.76 73.0399C106.75 70.9599 106.74 68.8899 106.72 66.8099C106.71 65.7399 106.72 64.6499 106.68 63.5699C106.67 62.8099 106.65 62.0599 106.58 61.3099C106.37 58.9699 105.95 56.6399 105.31 54.3899C102.97 46.1999 97.8001 38.9999 90.7701 34.4499C87.5601 32.3699 84.0001 30.8499 80.3101 29.9299C80.4501 29.9399 80.5901 29.9299 80.7301 29.9399C85.5301 30.1999 90.3401 31.0599 94.8001 32.8899C102.84 36.1799 108.99 42.6899 113.25 50.1199C113.86 51.4899 114.49 52.8399 115 54.2499C115.72 56.2499 116.29 58.2999 116.74 60.3699C117.7 64.7899 118.01 67.2199 118.19 71.7299C118.21 72.2899 118.19 72.8099 118.21 73.3699C118.22 73.6799 118.21 75.0099 118.21 75.6499C118.18 83.5499 118.08 91.2899 118.07 99.1899C118.06 103.39 118.06 107.58 118.07 111.78C118.09 113.88 118.09 115.97 118.1 118.07Z" fill="#2D2A2E"/>
<path d="M126.26 28.15C126.2 27.92 126.08 27.73 125.92 27.56C125.83 27.49 125.74 27.42 125.65 27.35C125.44 27.23 125.22 27.17 124.97 27.17C124.79 27.16 124.61 27.2 124.45 27.29C124.28 27.34 124.14 27.44 124.02 27.57C123.89 27.69 123.8 27.83 123.74 28C123.66 28.16 123.62 28.33 123.62 28.52L123.67 28.88C123.73 29.11 123.85 29.3 124.01 29.47C124.1 29.54 124.19 29.61 124.28 29.68C124.49 29.8 124.71 29.86 124.96 29.86C125.14 29.87 125.32 29.83 125.48 29.74C125.65 29.69 125.79 29.59 125.91 29.46C126.04 29.34 126.13 29.2 126.19 29.03C126.27 28.87 126.31 28.7 126.31 28.51L126.26 28.15Z" fill="#2D2A2E"/>
<path d="M136.63 28.15C136.57 27.92 136.45 27.73 136.29 27.56C136.2 27.49 136.11 27.42 136.02 27.35C135.81 27.23 135.59 27.17 135.34 27.17C135.16 27.16 134.98 27.2 134.82 27.29C134.65 27.34 134.51 27.44 134.39 27.57C134.26 27.69 134.17 27.83 134.11 28C134.03 28.16 133.99 28.33 133.99 28.52L134.04 28.88C134.1 29.11 134.22 29.3 134.38 29.47C134.47 29.54 134.56 29.61 134.65 29.68C134.86 29.8 135.08 29.86 135.33 29.86C135.51 29.87 135.69 29.83 135.85 29.74C136.02 29.69 136.16 29.59 136.28 29.46C136.41 29.34 136.5 29.2 136.56 29.03C136.64 28.87 136.68 28.7 136.68 28.51L136.63 28.15Z" fill="#2D2A2E"/>
<path d="M147 28.15C146.94 27.92 146.82 27.73 146.66 27.56C146.57 27.49 146.48 27.42 146.39 27.35C146.18 27.23 145.96 27.17 145.71 27.17C145.53 27.16 145.35 27.2 145.19 27.29C145.02 27.34 144.88 27.44 144.76 27.57C144.63 27.69 144.54 27.83 144.48 28C144.4 28.16 144.36 28.33 144.36 28.52L144.41 28.88C144.47 29.11 144.59 29.3 144.75 29.47C144.84 29.54 144.93 29.61 145.02 29.68C145.23 29.8 145.45 29.86 145.7 29.86C145.88 29.87 146.06 29.83 146.22 29.74C146.39 29.69 146.53 29.59 146.65 29.46C146.78 29.34 146.87 29.2 146.93 29.03C147.01 28.87 147.05 28.7 147.05 28.51L147 28.15Z" fill="#2D2A2E"/>
<path d="M126.26 38.5199C126.2 38.2899 126.08 38.1 125.92 37.93C125.83 37.86 125.74 37.79 125.65 37.72C125.44 37.6 125.22 37.54 124.97 37.54C124.79 37.53 124.61 37.57 124.45 37.66C124.28 37.71 124.14 37.81 124.02 37.94C123.89 38.06 123.8 38.2 123.74 38.37C123.66 38.53 123.62 38.7 123.62 38.89L123.67 39.25C123.73 39.48 123.85 39.6699 124.01 39.8399C124.1 39.9099 124.19 39.98 124.28 40.05C124.49 40.17 124.71 40.23 124.96 40.23C125.14 40.24 125.32 40.2 125.48 40.11C125.65 40.06 125.79 39.96 125.91 39.83C126.04 39.71 126.13 39.57 126.19 39.4C126.27 39.24 126.31 39.0699 126.31 38.8799L126.26 38.5199Z" fill="#2D2A2E"/>
<path d="M136.63 38.5199C136.57 38.2899 136.45 38.1 136.29 37.93C136.2 37.86 136.11 37.79 136.02 37.72C135.81 37.6 135.59 37.54 135.34 37.54C135.16 37.53 134.98 37.57 134.82 37.66C134.65 37.71 134.51 37.81 134.39 37.94C134.26 38.06 134.17 38.2 134.11 38.37C134.03 38.53 133.99 38.7 133.99 38.89L134.04 39.25C134.1 39.48 134.22 39.6699 134.38 39.8399C134.47 39.9099 134.56 39.98 134.65 40.05C134.86 40.17 135.08 40.23 135.33 40.23C135.51 40.24 135.69 40.2 135.85 40.11C136.02 40.06 136.16 39.96 136.28 39.83C136.41 39.71 136.5 39.57 136.56 39.4C136.64 39.24 136.68 39.0699 136.68 38.8799L136.63 38.5199Z" fill="#2D2A2E"/>
<path d="M147 38.5199C146.94 38.2899 146.82 38.1 146.66 37.93C146.57 37.86 146.48 37.79 146.39 37.72C146.18 37.6 145.96 37.54 145.71 37.54C145.53 37.53 145.35 37.57 145.19 37.66C145.02 37.71 144.88 37.81 144.76 37.94C144.63 38.06 144.54 38.2 144.48 38.37C144.4 38.53 144.36 38.7 144.36 38.89L144.41 39.25C144.47 39.48 144.59 39.6699 144.75 39.8399C144.84 39.9099 144.93 39.98 145.02 40.05C145.23 40.17 145.45 40.23 145.7 40.23C145.88 40.24 146.06 40.2 146.22 40.11C146.39 40.06 146.53 39.96 146.65 39.83C146.78 39.71 146.87 39.57 146.93 39.4C147.01 39.24 147.05 39.0699 147.05 38.8799L147 38.5199Z" fill="#2D2A2E"/>
<path d="M126.26 48.8899C126.2 48.6599 126.08 48.4699 125.92 48.2999C125.83 48.2299 125.74 48.1599 125.65 48.0899C125.44 47.9699 125.22 47.9099 124.97 47.9099C124.79 47.8999 124.61 47.9399 124.45 48.0299C124.28 48.0799 124.14 48.1799 124.02 48.3099C123.89 48.4299 123.8 48.5699 123.74 48.7399C123.66 48.8999 123.62 49.0699 123.62 49.2599L123.67 49.6199C123.73 49.8499 123.85 50.0399 124.01 50.2099C124.1 50.2799 124.19 50.3499 124.28 50.4199C124.49 50.5399 124.71 50.5999 124.96 50.5999C125.14 50.6099 125.32 50.5699 125.48 50.4799C125.65 50.4299 125.79 50.3299 125.91 50.1999C126.04 50.0799 126.13 49.9399 126.19 49.7699C126.27 49.6099 126.31 49.4399 126.31 49.2499L126.26 48.8899Z" fill="#2D2A2E"/>
<path d="M136.63 48.8899C136.57 48.6599 136.45 48.4699 136.29 48.2999C136.2 48.2299 136.11 48.1599 136.02 48.0899C135.81 47.9699 135.59 47.9099 135.34 47.9099C135.16 47.8999 134.98 47.9399 134.82 48.0299C134.65 48.0799 134.51 48.1799 134.39 48.3099C134.26 48.4299 134.17 48.5699 134.11 48.7399C134.03 48.8999 133.99 49.0699 133.99 49.2599L134.04 49.6199C134.1 49.8499 134.22 50.0399 134.38 50.2099C134.47 50.2799 134.56 50.3499 134.65 50.4199C134.86 50.5399 135.08 50.5999 135.33 50.5999C135.51 50.6099 135.69 50.5699 135.85 50.4799C136.02 50.4299 136.16 50.3299 136.28 50.1999C136.41 50.0799 136.5 49.9399 136.56 49.7699C136.64 49.6099 136.68 49.4399 136.68 49.2499L136.63 48.8899Z" fill="#2D2A2E"/>
<path d="M147 48.8899C146.94 48.6599 146.82 48.4699 146.66 48.2999C146.57 48.2299 146.48 48.1599 146.39 48.0899C146.18 47.9699 145.96 47.9099 145.71 47.9099C145.53 47.8999 145.35 47.9399 145.19 48.0299C145.02 48.0799 144.88 48.1799 144.76 48.3099C144.63 48.4299 144.54 48.5699 144.48 48.7399C144.4 48.8999 144.36 49.0699 144.36 49.2599L144.41 49.6199C144.47 49.8499 144.59 50.0399 144.75 50.2099C144.84 50.2799 144.93 50.3499 145.02 50.4199C145.23 50.5399 145.45 50.5999 145.7 50.5999C145.88 50.6099 146.06 50.5699 146.22 50.4799C146.39 50.4299 146.53 50.3299 146.65 50.1999C146.78 50.0799 146.87 49.9399 146.93 49.7699C147.01 49.6099 147.05 49.4399 147.05 49.2499L147 48.8899Z" fill="#2D2A2E"/>
<path d="M24.9997 51.95C24.9997 51.95 22.7997 31.59 49.4597 20.49" stroke="#2D2A2E" stroke-width="2" stroke-miterlimit="10" stroke-dasharray="5 5"/>
<path d="M46.1296 130.57C44.6796 130.32 43.0997 130.79 41.9797 131.82C40.2697 133.4 39.7896 135.75 40.8096 137.56C41.1196 138.11 41.4597 138.68 41.9197 139.07C42.3297 139.42 42.8797 139.63 43.3997 139.83C44.3997 140.21 45.3397 140.19 46.5297 139.75C46.5397 139.75 46.5496 139.74 46.5596 139.74C47.4896 139.4 48.5297 138.91 49.1697 137.93C49.7197 137.1 49.9497 136.05 49.8297 134.98C49.6197 132.91 48.1696 130.7 46.1296 130.57ZM41.4496 134.97C41.5896 134.24 41.9497 133.55 42.4697 132.97C42.9197 132.47 43.4696 132.1 44.0896 131.87C44.4196 131.75 44.7696 131.67 45.1296 131.63C45.2196 131.69 45.3297 131.71 45.4397 131.7C47.1297 131.52 48.2697 132.99 48.6397 134.53C48.7897 135.13 48.8797 136.04 48.4496 136.92C48.1296 137.6 47.5597 138.09 46.6497 138.46C45.7997 138.81 44.9697 139.11 44.1197 138.87C43.7297 138.76 43.3497 138.58 43.0097 138.42C42.5997 138.23 42.3597 137.92 42.0497 137.47C41.4597 136.62 41.2696 135.85 41.4496 134.97Z" fill="#2D2A2E" stroke="#2D2A2E" stroke-width="0.5" stroke-miterlimit="10"/>
<path d="M41.4495 134.97C41.5895 134.24 41.9495 133.55 42.4695 132.97C42.9195 132.47 43.4695 132.1 44.0895 131.87C44.4195 131.75 44.7695 131.67 45.1295 131.63C45.2195 131.69 45.3295 131.71 45.4395 131.7C47.1295 131.52 48.2695 132.99 48.6395 134.53C48.7895 135.13 48.8795 136.04 48.4495 136.92C48.1295 137.6 47.5595 138.09 46.6495 138.46C45.7995 138.81 44.9695 139.11 44.1195 138.87C43.7295 138.76 43.3495 138.58 43.0095 138.42C42.5995 138.23 42.3595 137.92 42.0495 137.47C41.4595 136.62 41.2695 135.85 41.4495 134.97Z" fill="white"/>
<path d="M122.85 3.34998C121.2 2.35998 119.07 2.21998 117.26 2.99998C114.71 4.08998 112.86 6.69998 113.31 9.52998C113.43 10.3 113.59 11.22 113.98 11.91C114.32 12.52 114.92 13.05 115.44 13.52C116.57 14.54 117.8 14.84 119.3 14.84C120.71 14.83 122.12 14.68 123.28 13.8C124.35 12.98 125.05 11.77 125.36 10.47C125.93 7.99998 125.34 4.45998 122.85 3.34998Z" fill="#FCD400"/>
<path d="M120.18 1.68994C118.53 0.699944 116.4 0.559946 114.59 1.33995C112.04 2.42995 110.19 5.03994 110.64 7.86994C110.76 8.63994 110.92 9.55995 111.31 10.2499C111.65 10.8599 112.25 11.3899 112.77 11.8599C113.9 12.8799 115.13 13.1799 116.63 13.1799C118.04 13.1699 119.45 13.0199 120.61 12.1399C121.68 11.3199 122.38 10.1099 122.69 8.80995C123.26 6.32995 122.67 2.78994 120.18 1.68994ZM122.05 7.78995C121.92 9.01995 121.45 10.2199 120.57 11.1099C119.68 12.0099 118.54 12.3199 117.31 12.3799C116.02 12.4399 114.74 12.4299 113.67 11.6199C113.21 11.2799 112.81 10.8599 112.41 10.4399C111.88 9.88994 111.71 9.25994 111.52 8.52994C111.17 7.12994 111.23 5.85995 111.97 4.60995C112.54 3.64995 113.38 2.85995 114.36 2.31995C115.75 1.55995 117.34 1.42995 118.78 1.85995C118.82 1.94995 118.88 2.02995 118.99 2.05995C121.51 2.70995 122.3 5.45995 122.05 7.78995Z" fill="#2D2A2E" stroke="#2D2A2E" stroke-width="0.5" stroke-miterlimit="10"/>
<path d="M4.94983 78.4099C4.25982 77.9999 3.37983 77.9399 2.62983 78.2699C1.56983 78.7199 0.799826 79.8099 0.989826 80.9799C1.03983 81.2999 1.10982 81.6799 1.26982 81.9699C1.40982 82.2199 1.65983 82.4499 1.87983 82.6399C2.34983 83.0599 2.85983 83.1899 3.47983 83.1899C4.06983 83.1899 4.64983 83.1199 5.12983 82.7599C5.56983 82.4199 5.86983 81.9199 5.98983 81.3799C6.21983 80.3299 5.97983 78.8599 4.94983 78.4099ZM5.71983 80.9399C5.65983 81.4499 5.46983 81.9499 5.10983 82.3199C4.73983 82.6899 4.26983 82.8199 3.75983 82.8499C3.22983 82.8699 2.68983 82.8699 2.24983 82.5399C2.05983 82.3999 1.88983 82.2199 1.72983 82.0499C1.50983 81.8199 1.43983 81.5599 1.35983 81.2599C1.20983 80.6799 1.23983 80.1499 1.54983 79.6299C1.78983 79.2299 2.12983 78.8999 2.53983 78.6799C3.11983 78.3699 3.77983 78.3099 4.37983 78.4899C4.38983 78.5299 4.41983 78.5599 4.46983 78.5699C5.49983 78.8299 5.82983 79.9699 5.71983 80.9399Z" fill="#2D2A2E" stroke="#2D2A2E" stroke-width="0.75" stroke-miterlimit="10"/>
</svg>
