<svg width="400" height="400" viewBox="0 0 400 400" fill="none" xmlns="http://www.w3.org/2000/svg">
<path d="M0 30C0 15 15 0 30 0H370C385 0 400 10 400 30C400 45 385 60 370 60H25C10 60 0 45 0 30Z" fill="#FF8746"/>
<path d="M25 30V380C25 395 45 405 55 395L80 370L105 390C110 395 125 395 130 390L155 365L180 390C185 395 200 395 205 390L230 365L255 390C260 395 275 395 280 390L305 365L330 390C340 400 360 395 360 375V30H25Z" fill="#FFC24A"/>
<path d="M85 105C85 100 90 95 95 95H265C270 95 275 100 275 105C275 110 270 115 265 115H90C85 115 85 110 85 105ZM85 160C85 155 90 150 95 150H225C230 150 235 155 235 160C235 165 230 170 225 170H90C85 170 85 165 85 160ZM85 220C85 215 90 210 95 210H300C305 210 310 215 310 220C310 225 305 230 300 230H90C85 230 85 225 85 220ZM85 275C85 270 90 265 95 265H265C270 265 275 270 275 275C275 280 270 285 265 285H90C85 285 85 280 85 275Z" fill="#F27632"/>
</svg>
