<svg width="46" height="46" viewBox="0 0 46 46" fill="none" xmlns="http://www.w3.org/2000/svg">
<circle cx="23" cy="23" r="23" fill="#FCD400"/>
<path fill-rule="evenodd" clip-rule="evenodd" d="M28.5002 16.5833H17.5002C15.4751 16.5833 13.8335 18.2249 13.8335 20.25V25.75C13.8335 27.775 15.4751 29.4166 17.5002 29.4166H28.5002C30.5252 29.4166 32.1668 27.775 32.1668 25.75V20.25C32.1668 18.2249 30.5252 16.5833 28.5002 16.5833ZM17.5002 17.9583H28.5002C29.108 17.9583 29.6908 18.1998 30.1206 18.6295C30.5504 19.0593 30.7918 19.6422 30.7918 20.25V24.1458H15.2085V20.25C15.2085 18.9843 16.2345 17.9583 17.5002 17.9583ZM17.5002 28.0416H28.5002C29.108 28.0416 29.6908 27.8002 30.1206 27.3704C30.5504 26.9407 30.7918 26.3578 30.7918 25.75V25.5208H15.2085V25.75C15.2085 27.0156 16.2345 28.0416 17.5002 28.0416Z" fill="#0D1D28"/>
</svg>
