<svg width="20" height="20" viewBox="0 0 20 20" fill="none" xmlns="http://www.w3.org/2000/svg">
<path d="M17.9929 4.58097H17.7061V2.01114C17.7031 1.48196 17.4907 0.9753 17.1149 0.60111C16.7391 0.226919 16.2304 0.0153705 15.699 0.012378C15.608 -0.00412601 15.5147 -0.00412601 15.4237 0.012378L1.77517 4.58097H1.64901H1.4655L1.27052 4.6495H1.10995L0.926436 4.75229L0.788803 4.94646L0.628232 5.08351L0.502069 5.19773L0.364437 5.36905C0.327735 5.40183 0.296733 5.44042 0.272681 5.48327C0.230107 5.54931 0.1918 5.61797 0.157988 5.68885L0.0891717 5.81449C0.057241 5.89652 0.0304254 5.98043 0.0088859 6.06576C0.0140471 6.10748 0.0140471 6.14968 0.0088859 6.1914C-0.00296196 6.32057 -0.00296196 6.45055 0.0088859 6.57973V18.0012C0.0112945 18.5169 0.212639 19.0119 0.571275 19.3839C0.929911 19.756 1.41841 19.9766 1.93574 20H17.9929C18.5242 19.9969 19.033 19.7854 19.4088 19.4112C19.7846 19.0371 19.997 18.5304 20 18.0012V6.57973C19.997 6.05055 19.7846 5.54389 19.4088 5.1697C19.033 4.79551 18.5242 4.58396 17.9929 4.58097ZM15.7907 1.73702C15.8473 1.75777 15.8961 1.79505 15.9309 1.84398C15.9656 1.89291 15.9848 1.95119 15.9857 2.01114V4.58097H7.23459L15.7907 1.73702ZM18.2796 18.0012C18.2796 18.077 18.2494 18.1496 18.1956 18.2031C18.1418 18.2566 18.0689 18.2868 17.9929 18.2868H1.93574C1.8597 18.2868 1.78676 18.2566 1.73298 18.2031C1.67922 18.1496 1.64901 18.077 1.64901 18.0012V6.57973C1.64901 6.504 1.67922 6.43137 1.73298 6.37782C1.78676 6.32427 1.8597 6.29419 1.93574 6.29419H17.9929C18.0689 6.29419 18.1418 6.32427 18.1956 6.37782C18.2494 6.43137 18.2796 6.504 18.2796 6.57973V18.0012Z" fill="black"/>
<path d="M15.1256 13.7187C15.9174 13.7187 16.5592 13.0795 16.5592 12.291C16.5592 11.5024 15.9174 10.8633 15.1256 10.8633C14.3337 10.8633 13.6919 11.5024 13.6919 12.291C13.6919 13.0795 14.3337 13.7187 15.1256 13.7187Z" fill="black"/>
</svg>
