<svg width="46" height="46" viewBox="0 0 46 46" fill="none" xmlns="http://www.w3.org/2000/svg">
<circle cx="23" cy="23" r="23" fill="#FCD400"/>
<path d="M23.0002 13.8333C21.1872 13.8333 19.4149 14.3709 17.9074 15.3782C16.4 16.3854 15.2251 17.8171 14.5313 19.492C13.8375 21.167 13.6559 23.0101 14.0096 24.7883C14.3633 26.5665 15.2364 28.1998 16.5184 29.4818C17.8003 30.7638 19.4337 31.6368 21.2118 31.9905C22.99 32.3442 24.8331 32.1627 26.5081 31.4689C28.1831 30.7751 29.6147 29.6002 30.622 28.0927C31.6292 26.5853 32.1668 24.813 32.1668 23C32.1668 21.7962 31.9297 20.6042 31.4691 19.492C31.0084 18.3799 30.3332 17.3694 29.482 16.5182C28.6308 15.667 27.6202 14.9918 26.5081 14.5311C25.3959 14.0704 24.204 13.8333 23.0002 13.8333V13.8333ZM23.0002 30.3333C21.5498 30.3333 20.1319 29.9032 18.926 29.0974C17.72 28.2916 16.7801 27.1463 16.2251 25.8063C15.67 24.4663 15.5248 22.9918 15.8077 21.5693C16.0907 20.1468 16.7891 18.8401 17.8147 17.8145C18.8403 16.7889 20.147 16.0905 21.5695 15.8076C22.992 15.5246 24.4665 15.6698 25.8065 16.2249C27.1465 16.7799 28.2918 17.7198 29.0976 18.9258C29.9034 20.1318 30.3335 21.5496 30.3335 23C30.3335 24.9449 29.5609 26.8102 28.1856 28.1854C26.8103 29.5607 24.9451 30.3333 23.0002 30.3333V30.3333Z" fill="black"/>
<path d="M23.0002 20.25C23.5064 20.25 23.9168 19.8396 23.9168 19.3333C23.9168 18.827 23.5064 18.4166 23.0002 18.4166C22.4939 18.4166 22.0835 18.827 22.0835 19.3333C22.0835 19.8396 22.4939 20.25 23.0002 20.25Z" fill="black"/>
<path d="M23.0002 21.1666C22.757 21.1666 22.5239 21.2632 22.352 21.4351C22.1801 21.607 22.0835 21.8402 22.0835 22.0833V26.6666C22.0835 26.9097 22.1801 27.1429 22.352 27.3148C22.5239 27.4867 22.757 27.5833 23.0002 27.5833C23.2433 27.5833 23.4764 27.4867 23.6483 27.3148C23.8203 27.1429 23.9168 26.9097 23.9168 26.6666V22.0833C23.9168 21.8402 23.8203 21.607 23.6483 21.4351C23.4764 21.2632 23.2433 21.1666 23.0002 21.1666Z" fill="black"/>
</svg>
