<svg width="20" height="20" viewBox="0 0 20 20" fill="none" xmlns="http://www.w3.org/2000/svg">
<g clip-path="url(#clip0_311_50)">
<path d="M10 0C4.4775 0 0 4.47688 0 10C0 15.5231 4.47688 20 10 20C15.5231 20 20 15.5231 20 10C20 4.47688 15.5231 0 10 0ZM10 18.77C5.175 18.77 1.25 14.825 1.25 10C1.25 5.175 5.175 1.25 10 1.25C14.825 1.25 18.75 5.175 18.75 10C18.75 14.825 14.825 18.77 10 18.77ZM10.625 9.74625V3.75C10.625 3.405 10.345 3.125 10 3.125C9.655 3.125 9.375 3.405 9.375 3.75V10C9.375 10.1769 9.44875 10.3356 9.5675 10.4494C9.57812 10.4619 9.58625 10.475 9.5975 10.4862L12.6906 13.58C12.9344 13.8238 13.33 13.8238 13.5744 13.58C13.8187 13.3363 13.8181 12.94 13.5744 12.6956L10.625 9.74625Z" fill="black"/>
</g>
<defs>
<clipPath id="clip0_311_50">
<rect width="20" height="20" fill="white"/>
</clipPath>
</defs>
</svg>
