<svg width="33" height="33" viewBox="0 0 33 33" fill="none" xmlns="http://www.w3.org/2000/svg">
<path d="M8.75 13.4C8.44344 13.4 8.14376 13.4909 7.88887 13.6612C7.63397 13.8315 7.4353 14.0736 7.31799 14.3568C7.20067 14.6401 7.16998 14.9517 7.22978 15.2524C7.28959 15.5531 7.43721 15.8292 7.65398 16.046C7.87076 16.2628 8.14694 16.4104 8.44761 16.4702C8.74828 16.53 9.05993 16.4993 9.34316 16.382C9.62638 16.2647 9.86846 16.066 10.0388 15.8111C10.2091 15.5562 10.3 15.2566 10.3 14.95C10.3 14.5389 10.1367 14.1447 9.84601 13.854C9.55533 13.5633 9.16109 13.4 8.75 13.4ZM27.35 7.2H25.8V2.55C25.8 2.13891 25.6367 1.74467 25.346 1.45398C25.0553 1.1633 24.6611 1 24.25 1H8.75C8.33891 1 7.94467 1.1633 7.65398 1.45398C7.3633 1.74467 7.2 2.13891 7.2 2.55V7.2H5.65C4.41674 7.2 3.234 7.68991 2.36195 8.56195C1.48991 9.434 1 10.6167 1 11.85V21.15C1 22.3833 1.48991 23.566 2.36195 24.438C3.234 25.3101 4.41674 25.8 5.65 25.8H7.2V30.45C7.2 30.8611 7.3633 31.2553 7.65398 31.546C7.94467 31.8367 8.33891 32 8.75 32H24.25C24.6611 32 25.0553 31.8367 25.346 31.546C25.6367 31.2553 25.8 30.8611 25.8 30.45V25.8H27.35C28.5833 25.8 29.766 25.3101 30.638 24.438C31.5101 23.566 32 22.3833 32 21.15V11.85C32 10.6167 31.5101 9.434 30.638 8.56195C29.766 7.68991 28.5833 7.2 27.35 7.2ZM10.3 4.1H22.7V7.2H10.3V4.1ZM22.7 28.9H10.3V22.7H22.7V28.9ZM28.9 21.15C28.9 21.5611 28.7367 21.9553 28.446 22.246C28.1553 22.5367 27.7611 22.7 27.35 22.7H25.8V21.15C25.8 20.7389 25.6367 20.3447 25.346 20.054C25.0553 19.7633 24.6611 19.6 24.25 19.6H8.75C8.33891 19.6 7.94467 19.7633 7.65398 20.054C7.3633 20.3447 7.2 20.7389 7.2 21.15V22.7H5.65C5.23891 22.7 4.84467 22.5367 4.55398 22.246C4.2633 21.9553 4.1 21.5611 4.1 21.15V11.85C4.1 11.4389 4.2633 11.0447 4.55398 10.754C4.84467 10.4633 5.23891 10.3 5.65 10.3H27.35C27.7611 10.3 28.1553 10.4633 28.446 10.754C28.7367 11.0447 28.9 11.4389 28.9 11.85V21.15Z" fill="#0D1D28" stroke="white" stroke-width="0.7"/>
</svg>
