<svg width="143" height="120" viewBox="0 0 143 120" fill="none" xmlns="http://www.w3.org/2000/svg">
<path d="M133.22 66.0347C133.17 65.7947 132.9 65.7347 132.83 65.9447C129.51 66.0547 126.18 66.1147 122.85 66.1147C121.21 66.1147 119.57 66.0947 117.92 66.0547C117.08 66.0347 116.23 66.0247 115.39 65.9747C114.6 65.9247 113.76 65.8247 112.98 65.9947C112.9 65.9947 112.83 65.9947 112.75 65.9947C110.57 66.0347 108.38 66.1247 106.2 66.0747C104.16 66.0347 102.12 65.7147 100.09 65.7847C99.1098 65.8147 98.1298 65.9347 97.1798 66.1947C96.2598 66.4447 95.3698 66.7947 94.4398 67.0147C93.8198 67.0147 93.1598 67.1347 92.5998 67.1647C91.7298 67.2147 90.8298 67.2147 89.9798 67.3947C89.1098 67.5747 88.3098 67.8047 87.3998 67.8647C86.3898 67.9247 85.3798 67.9547 84.3698 67.9647C82.4398 67.9847 80.5098 67.9147 78.5898 67.7547C77.5198 67.6647 76.4398 67.5447 75.3798 67.4047C74.6798 67.3047 73.9498 67.1347 73.2298 67.0647C73.1998 66.9947 73.1398 66.9347 73.0398 66.9247C72.2898 66.8347 71.5198 66.8547 70.7598 66.8447C70.1298 66.8347 69.4998 66.7947 68.8698 66.7947C67.7798 66.7947 66.6498 67.0247 65.9198 67.9047C65.1798 68.7947 64.6898 69.9947 64.9798 71.1547C65.1998 72.0447 65.5398 72.5847 66.4898 72.8147C66.6098 72.8447 66.7698 73.0647 66.8098 73.1247C67.6598 74.2347 67.9898 74.8647 68.4998 75.9047C69.0698 77.0647 69.6698 78.2047 70.1798 79.3847C71.2298 81.7847 71.9698 84.3347 72.0298 86.9647C72.0898 89.5247 71.4698 91.9947 69.2398 93.4747C67.1498 94.8647 65.0898 95.1447 62.4798 95.1647C62.4498 95.1647 62.0698 95.1547 62.0498 95.1547C61.2098 95.1547 60.3698 95.1547 59.5398 95.1647C57.8898 95.1647 56.2498 95.1747 54.5998 95.1747C52.9998 95.1747 51.3998 95.1847 49.7998 95.1847C49.0598 95.1847 48.3398 95.2047 47.5998 95.2147C47.3298 95.2147 46.8598 95.2147 46.7498 95.2047C42.7698 94.6947 40.9898 93.8747 38.9798 91.4047C36.8598 88.7947 36.3798 85.5447 36.2598 82.2747C36.0098 75.3247 35.9498 68.2047 37.8798 61.4547C38.8498 58.0647 40.3098 54.9247 42.2298 51.9747C43.6298 50.0547 44.4798 48.2147 44.6998 46.4147C44.6098 46.4847 44.5198 46.5547 44.3998 46.5847L44.3398 46.5947C44.2798 46.5647 44.2198 46.5647 44.1698 46.6247C44.0898 46.7247 44.1498 46.6647 44.0698 46.6947C44.0098 46.7147 43.9298 46.6947 43.8698 46.7247C43.7298 46.7647 43.5998 46.8147 43.4598 46.8347C43.1598 46.8847 42.8498 46.8647 42.5598 46.8347C41.9598 46.7747 41.3798 46.5747 40.9598 46.1247C40.7798 45.9347 40.6298 45.7047 40.5098 45.4647C40.4498 45.3447 40.3998 45.2247 40.3398 45.1047C40.3098 45.0447 40.2898 44.9847 40.2498 44.9247C40.1998 44.8547 40.1498 44.8247 40.1198 44.7347C40.0698 44.5947 40.0998 44.3847 40.1398 44.2547C40.1798 44.1547 40.2098 44.0747 40.1798 43.9647C40.1098 43.7247 39.9098 43.7447 39.7298 43.8247C39.5998 43.7947 39.4798 43.7747 39.3298 43.7947C39.1098 43.8247 38.8798 43.8747 38.6798 43.7247C38.3898 43.4847 38.2398 43.0247 38.1998 42.6647C38.1098 41.8347 38.5198 41.0647 39.1498 40.5447C39.2998 40.4247 39.4698 40.3147 39.6498 40.2247C39.8298 40.1347 40.0598 40.0947 40.2198 39.9847C40.5998 39.7147 40.2198 39.3947 39.9698 39.2447C39.6098 39.0347 39.1998 38.9247 38.8198 38.7747C38.3998 38.6147 38.1198 38.3747 37.7998 38.0847C37.7498 38.0447 37.6998 38.0347 37.6398 38.0347C36.0198 37.7847 34.5298 37.8147 32.7698 38.0447C32.6298 38.0647 32.1098 38.0547 32.0798 38.1547C32.0198 38.1447 31.9598 38.1347 31.8898 38.1447C31.7198 38.1747 31.5798 38.2947 31.5198 38.4447C31.4798 38.5347 31.4598 38.6347 31.4398 38.7347C31.4398 38.7647 31.4298 38.7847 31.4298 38.8147C31.3998 38.8247 31.3798 38.8447 31.3598 38.8547C30.0198 39.7847 29.7398 41.5247 29.7398 43.0547C29.7398 44.5247 30.2098 46.2247 31.4698 47.1247C31.4698 47.1447 31.4698 47.1647 31.4698 47.1847C31.4698 47.2147 31.4598 47.2447 31.4698 47.3047C31.4698 47.3847 31.5098 47.4547 31.5398 47.5247C31.6098 47.6447 31.7398 47.7547 31.8698 47.7647C32.0198 47.7747 32.1498 47.7747 32.2698 47.6747C32.2998 47.6547 32.3198 47.6147 32.3498 47.5847C32.5298 47.6847 32.6898 47.7747 32.8998 47.8447C33.1498 47.9347 33.3998 48.0147 33.6498 48.0747C33.6798 48.0847 33.7098 48.0847 33.7298 48.0947C33.9698 48.1547 34.2098 48.2147 34.4398 48.2647C34.6798 48.3147 34.9298 48.3347 35.1698 48.3747H35.1798H35.1898C35.3898 48.4047 35.5998 48.4247 35.7998 48.4447C36.0298 48.4647 36.2498 48.4947 36.4798 48.4947C36.5198 48.4947 36.5698 48.4947 36.6098 48.4947C32.5898 50.2447 29.3998 53.5047 26.6798 56.8947C23.3198 61.0947 20.8098 65.7647 19.2098 70.9047C18.3098 73.7847 17.5698 76.7647 17.1598 79.7547C12.7798 79.7047 8.10982 80.9747 4.72982 83.8247C1.17982 86.8147 0.339821 91.2247 0.109821 95.6447C0.0998206 95.8147 0.259818 95.9547 0.419818 95.9547C0.579818 95.9547 0.749818 95.9647 0.919818 95.9647C1.77982 96.0847 2.72982 95.9947 3.56982 95.9947C4.70982 95.9947 5.84982 96.0047 6.97982 96.0047C9.20982 96.0147 11.4398 96.0047 13.6598 96.0047C15.8898 96.0047 18.1198 96.0047 20.3398 96.0047C22.1198 96.0047 23.9398 96.0047 25.7498 95.9347C27.5198 96.0147 29.2798 96.1947 30.8198 97.0947C31.8298 97.6847 32.7098 98.5647 33.2298 99.6147C33.3798 99.9147 33.3898 100.235 33.5098 100.535C33.5598 100.665 33.5898 100.725 33.7298 100.795C33.8698 100.865 34.0698 100.865 34.2598 100.845C40.0798 101.125 45.9398 100.925 51.7698 100.955C57.6698 100.985 63.5598 100.985 69.4598 100.985H114.46C117.78 100.955 120.94 101.035 124.26 100.925C124.68 100.965 124.81 100.855 124.84 100.665C125.01 99.3647 124.78 98.0247 124.59 96.7347C124.4 95.4147 124.13 94.1047 123.79 92.8247C123.1 90.2647 122.15 87.7747 120.91 85.4247C119.82 83.3647 118.57 81.5247 117.03 79.7447C118.59 78.4247 120.01 77.0647 121.5 75.7347C122.93 74.4647 128.09 69.9247 129.81 68.2247C129.89 68.1647 129.97 68.1047 130.06 68.0547C130.25 67.9447 130.49 67.9247 130.7 67.9247C131.2 67.9247 131.73 67.9447 132.23 67.9147C132.66 67.8947 132.98 67.7247 133.15 67.3047C133.23 67.1247 133.25 66.9047 133.25 66.7147C133.25 66.5947 133.25 66.4847 133.24 66.3747C133.31 66.2847 133.31 66.1347 133.22 66.0347ZM31.4598 46.8047C30.5298 45.8147 30.1098 44.4147 30.1398 43.0147C30.1598 41.6647 30.4498 40.1347 31.4698 39.1047C31.4698 39.1147 31.4698 39.1247 31.4698 39.1347C31.3798 40.2547 31.4598 41.3847 31.4598 42.6347C31.4598 43.4147 31.4798 44.1947 31.4798 44.9747C31.4798 45.5947 31.4098 46.1847 31.4598 46.8047ZM118.3 69.7647C118.16 69.1747 118.04 68.6447 117.63 68.1547C118.32 68.1547 118.95 68.1447 119.64 68.1447C120.49 68.1447 121.35 68.1347 122.21 68.1347C123.06 68.1347 123.95 68.0947 124.8 68.0947C125.45 68.0947 126.07 68.0947 126.71 68.0747C124.96 69.5747 121.29 72.8547 119.89 74.1347C118.43 75.4547 117 76.7247 115.51 78.0447C113.96 76.5847 112.43 75.3947 110.55 74.3847C109.41 73.7747 108.35 73.2347 107.11 72.8647C108.44 72.8647 109.64 72.9247 110.97 72.9047C112.57 72.8847 114.2 72.9247 115.8 72.8347C116.57 72.8247 117.46 72.8247 117.97 72.1447C118.45 71.4747 118.48 70.5247 118.3 69.7647Z" fill="#FCD400"/>
<path d="M142.088 57.6362C142.008 58.2862 141.888 58.9262 141.658 59.5462C141.238 60.7062 140.468 61.6662 139.368 62.2462C138.218 62.8462 136.898 62.9962 135.618 63.0362C134.988 63.0562 134.368 63.0562 133.738 63.0662C132.408 63.0562 131.058 63.0862 129.738 63.0862H114.768C113.448 63.0862 112.098 63.0562 110.768 63.0662C110.138 63.0562 109.518 63.0562 108.888 63.0362C107.608 62.9962 106.288 62.8462 105.138 62.2462C104.038 61.6662 103.268 60.7162 102.848 59.5462C102.628 58.9262 102.498 58.2862 102.418 57.6362C102.408 57.5362 102.408 57.4362 102.398 57.3362C102.418 56.7162 102.398 56.0862 102.398 55.4662V48.3262V45.3462V38.0262C102.398 37.4062 102.418 36.7762 102.398 36.1562C102.398 36.0563 102.408 35.9462 102.418 35.8562C102.498 35.2062 102.618 34.5662 102.848 33.9462C103.268 32.7862 104.038 31.8262 105.138 31.2462C106.288 30.6462 107.608 30.4962 108.888 30.4562C109.518 30.4362 110.138 30.4362 110.768 30.4262C112.098 30.4362 113.448 30.4062 114.768 30.4062H129.738C131.058 30.4062 132.408 30.4362 133.738 30.4262C134.368 30.4362 134.988 30.4362 135.618 30.4562C136.898 30.4962 138.218 30.6462 139.368 31.2462C140.468 31.8262 141.238 32.7762 141.658 33.9462C141.878 34.5662 142.008 35.2062 142.088 35.8562C142.098 35.9562 142.098 36.0563 142.108 36.1562C142.088 36.7762 142.108 37.4062 142.108 38.0262V45.3462V48.3262V55.4662C142.108 56.0862 142.088 56.7162 142.108 57.3362C142.098 57.4262 142.098 57.5362 142.088 57.6362Z" fill="#FCD400"/>
<path d="M60.1781 66.4491C60.1781 66.9691 60.1681 67.4891 60.1681 68.0191C60.1681 69.0591 60.1981 70.1091 60.2181 71.1491C60.2581 73.1891 60.1881 75.2291 60.1981 77.2791C60.2081 81.3091 60.2181 85.3491 60.1981 89.3791C59.7581 89.3691 59.3081 89.3691 58.8681 89.3591C58.8581 89.2991 58.8381 89.2291 58.8281 89.1591C58.8681 89.1591 58.9081 89.1591 58.9481 89.1591C58.9981 89.1591 59.0381 89.1291 59.0881 89.0991H59.0981C59.1781 89.0491 59.2481 88.9791 59.2381 88.8791C59.2281 88.7891 59.2681 88.6591 59.2581 88.5791C59.3081 87.5391 59.2381 86.6091 59.2081 85.6091C59.1781 84.3391 59.1481 83.0691 59.1281 81.8091C59.0881 79.3691 59.0881 76.9191 59.1081 74.4791C59.1281 71.9891 59.1781 69.4991 59.2881 67.0091C59.3181 66.3491 59.4181 65.6491 60.1981 65.5391C60.2281 65.5391 60.2481 65.5391 60.2781 65.5391C60.1581 65.8291 60.1781 66.0891 60.1781 66.4491Z" fill="#10181E"/>
<path d="M95.0291 53.6986C94.8991 53.3486 94.3291 53.4986 94.4591 53.8586C94.5991 54.2486 94.6791 54.6386 94.7491 55.0386C94.7291 55.0486 94.7091 55.0286 94.6791 55.0486C93.9891 55.3886 93.3791 55.7086 92.6091 55.8386C91.8691 55.9686 91.1191 56.0386 90.3591 56.0886C88.7491 56.2086 87.1391 56.3086 85.5291 56.3886C83.9391 56.4686 82.3391 56.5086 80.7491 56.4986C79.9491 56.4886 79.1491 56.4686 78.3591 56.4386C77.8091 56.4186 77.2591 56.3586 76.7091 56.3586C76.6591 56.2686 76.5891 56.1886 76.4591 56.1886C72.3891 56.1586 68.3191 55.9186 64.2691 55.4786C62.2291 55.2486 60.1991 54.9586 58.1691 54.6486C56.4991 54.3986 54.7491 54.2186 53.1591 54.9086C51.8091 55.4886 50.8691 56.5986 50.6591 58.0686C50.3991 59.8586 50.8291 61.8286 51.0491 63.6086C51.5391 67.5786 52.0191 71.5486 52.6091 75.5086C53.2491 79.8386 53.7691 84.2886 54.8591 88.5386C54.8791 88.6586 54.9091 88.7786 54.9391 88.8986C54.9491 88.9486 54.9591 88.9986 54.9691 89.0486L54.9791 89.0586C54.9891 89.0986 54.9991 89.1386 55.0091 89.1686C55.0391 89.2686 55.1391 89.3686 55.2591 89.3586C56.2991 89.2686 57.3491 89.2086 58.3991 89.1786C58.3991 89.1886 58.3991 89.1986 58.3991 89.2086C58.4691 89.1986 58.5191 89.1686 58.5891 89.1686H58.5991H58.6091C58.6891 89.1686 58.7391 89.1986 58.8091 89.2086C58.8091 89.1886 58.7991 89.1786 58.7991 89.1586C58.8391 89.1586 58.8791 89.1586 58.9191 89.1586C58.9691 89.1586 59.0091 89.1286 59.0591 89.0986H59.0691C59.1491 89.0486 59.2191 88.9786 59.2091 88.8786C59.1991 88.7886 59.2391 88.6586 59.2291 88.5786C59.2791 87.5386 59.2091 86.6086 59.1791 85.6086C59.1491 84.3386 59.1191 83.0686 59.0991 81.8086C59.0591 79.3686 59.0591 76.9186 59.0791 74.4786C59.0991 71.9886 59.1491 69.4986 59.2591 67.0086C59.2891 66.3486 59.3891 65.6486 60.1691 65.5386C60.1991 65.5386 60.2191 65.5386 60.2491 65.5386C60.2491 65.5486 60.2491 65.5486 60.2491 65.5586C60.2991 65.5386 60.3591 65.5286 60.4191 65.5286C60.5091 65.5286 60.5891 65.5486 60.6591 65.5786C60.6591 65.5586 60.6591 65.5486 60.6591 65.5386C61.0291 65.6286 61.3091 65.6886 61.6691 65.7986C62.7691 66.1286 63.8691 66.3486 65.0091 66.5186C69.8191 67.2286 74.6591 67.7286 79.5191 68.0086C83.6091 68.2386 88.5391 68.8886 91.9891 66.1686C93.7191 64.8086 94.5591 62.8086 94.9491 60.6986C95.3691 58.4786 95.8591 55.8486 95.0291 53.6986Z" fill="#1C2A38"/>
<path d="M133.223 66.0412C133.173 65.8012 132.903 65.7412 132.833 65.9512C129.513 66.0612 126.183 66.1212 122.853 66.1212C121.213 66.1212 119.573 66.1012 117.923 66.0612C117.083 66.0412 116.233 66.0312 115.393 65.9812C114.603 65.9312 113.763 65.8312 112.983 66.0012C112.903 66.0012 112.833 66.0012 112.753 66.0012C110.573 66.0412 108.383 66.1312 106.203 66.0812C104.163 66.0412 102.123 65.7212 100.093 65.7912C99.1131 65.8212 98.1331 65.9412 97.1831 66.2012C96.2631 66.4512 95.3731 66.8012 94.4431 67.0212C93.8231 67.0212 93.1631 67.1412 92.6031 67.1712C91.7331 67.2212 90.8331 67.2212 89.9831 67.4012C89.1131 67.5812 88.3131 67.8112 87.4031 67.8712C86.3931 67.9312 85.3831 67.9612 84.3731 67.9712C82.4431 67.9912 80.5131 67.9212 78.5931 67.7612C77.5231 67.6712 76.4431 67.5512 75.3831 67.4112C74.6831 67.3112 73.9531 67.1412 73.2331 67.0712C73.2031 67.0012 73.1431 66.9412 73.0431 66.9312C72.2931 66.8412 71.5231 66.8612 70.7631 66.8512C70.1331 66.8412 69.5031 66.8012 68.8731 66.8012C67.7831 66.8012 66.6531 67.0312 65.9231 67.9112C65.1831 68.8012 64.6931 70.0012 64.9831 71.1612C65.1831 71.9512 65.5031 72.4512 66.2331 72.7212C67.8131 72.9812 69.4231 72.7712 71.0131 72.7012C72.9531 72.6112 74.9031 72.5512 76.8531 72.5012C80.4231 72.4012 83.9931 72.4412 87.5631 72.4212C91.1331 72.4012 94.7031 72.3812 98.2731 72.4012C101.833 72.4212 105.403 72.4712 108.963 72.6312C110.963 72.7212 112.963 72.8212 114.963 72.8512C115.233 72.8412 115.513 72.8412 115.783 72.8312C116.553 72.8212 117.443 72.8212 117.953 72.1412C118.433 71.4912 118.463 70.5312 118.293 69.7712C118.153 69.1812 118.033 68.6512 117.623 68.1612C118.313 68.1612 118.943 68.1512 119.633 68.1512C120.483 68.1512 121.343 68.1412 122.203 68.1412C123.053 68.1412 123.943 68.1012 124.793 68.1012C125.443 68.1012 126.063 68.1012 126.703 68.0812C124.953 69.5812 121.283 72.8612 119.883 74.1412C118.463 75.4312 117.053 76.6712 115.603 77.9612C115.633 78.1012 115.653 78.2412 115.683 78.3912C115.723 78.5712 115.763 78.7412 115.833 78.9112C115.843 78.9512 115.873 79.0212 115.843 78.9412C115.863 78.9812 115.883 79.0312 115.903 79.0712C115.933 79.1312 115.963 79.1812 116.003 79.2312C116.003 79.2412 116.003 79.2312 116.003 79.2412C116.023 79.2712 116.043 79.2912 116.073 79.3212C116.123 79.3812 116.183 79.4312 116.243 79.4812C116.253 79.4912 116.283 79.5112 116.293 79.5212C116.313 79.5312 116.333 79.5512 116.333 79.5512C116.403 79.5912 116.463 79.6412 116.533 79.6712C116.563 79.6912 116.593 79.7012 116.633 79.7212C116.643 79.7212 116.633 79.7212 116.643 79.7212C116.653 79.7212 116.643 79.7212 116.653 79.7212C116.723 79.7412 116.783 79.7612 116.853 79.7812C116.873 79.7812 116.893 79.7912 116.913 79.7912C116.923 79.7912 116.923 79.7912 116.923 79.7912C116.933 79.7912 116.953 79.7912 116.963 79.7912C116.993 79.7912 117.023 79.7912 117.053 79.7912C117.043 79.7812 117.043 79.7712 117.033 79.7712C118.593 78.4512 120.013 77.0912 121.503 75.7612C122.933 74.4912 128.093 69.9512 129.813 68.2512C129.893 68.1912 129.973 68.1312 130.063 68.0812C130.253 67.9712 130.493 67.9512 130.703 67.9512C131.203 67.9512 131.733 67.9712 132.233 67.9412C132.663 67.9212 132.983 67.7512 133.153 67.3312C133.233 67.1512 133.253 66.9312 133.253 66.7412C133.253 66.6212 133.253 66.5112 133.243 66.4012C133.313 66.2912 133.313 66.1412 133.223 66.0412Z" fill="#1C2A38"/>
<path d="M120.132 100.787C120.232 100.647 120.222 100.437 120.012 100.387C118.972 100.167 117.912 100.197 116.862 100.217C116.332 100.227 115.812 100.227 115.282 100.237C114.802 100.247 114.222 100.167 113.772 100.347C113.592 100.427 113.682 100.657 113.822 100.717C113.832 100.717 113.852 100.717 113.862 100.727C114.182 102.137 114.252 103.617 113.992 105.057C113.572 107.407 112.322 109.567 110.442 111.037C109.512 111.767 108.452 112.337 107.322 112.677C107.212 112.707 107.082 112.727 106.962 112.767C106.572 112.917 106.182 113.007 105.782 113.057C105.772 113.057 105.762 113.067 105.752 113.067C105.662 113.077 105.582 113.067 105.492 113.077C105.202 113.107 104.912 113.127 104.592 113.127C103.532 113.117 102.422 113.097 101.392 112.847C100.872 112.717 100.392 112.487 99.9116 112.247C99.5916 112.087 99.2616 111.897 98.9716 111.677C95.3216 109.427 93.5416 104.917 94.2816 100.717C94.4816 100.667 94.5516 100.357 94.3116 100.317C93.2916 100.157 92.2116 100.257 91.1816 100.267C90.6416 100.277 90.1016 100.307 89.5616 100.327C89.2916 100.337 89.0216 100.347 88.7516 100.337C88.4516 100.317 88.2516 100.187 87.9516 100.307C87.7816 100.377 87.7716 100.597 87.9516 100.667C87.9716 100.677 87.9916 100.677 88.0116 100.677C87.3816 107.067 90.2416 113.687 95.7616 117.087C96.2316 117.457 96.7516 117.747 97.2816 118.017C98.0616 118.407 98.8316 118.777 99.6816 118.987C101.352 119.397 103.142 119.417 104.862 119.447C105.372 119.457 105.842 119.407 106.312 119.367C106.452 119.357 106.592 119.377 106.732 119.347C106.742 119.347 106.762 119.337 106.772 119.337C107.422 119.247 108.042 119.097 108.682 118.867C108.872 118.817 109.092 118.787 109.272 118.727C111.112 118.167 112.812 117.257 114.322 116.067C117.362 113.677 119.392 110.187 120.062 106.387C120.412 104.537 120.392 102.637 120.132 100.787Z" fill="#1C2A38"/>
<path d="M33.2611 99.067C33.2011 98.957 33.1311 98.837 33.0711 98.727C33.0311 98.657 32.9911 98.577 32.9511 98.507C32.9511 98.507 32.9511 98.507 32.9511 98.497C32.4311 97.257 30.9711 96.497 29.7811 96.077C29.4011 95.947 29.0211 95.907 28.6411 95.817C28.2711 95.737 27.8911 95.617 27.5111 95.567C26.6911 95.447 25.7211 95.307 24.9211 95.577C24.9011 95.587 24.9011 95.597 24.8911 95.617H24.7811C26.9611 98.057 27.9411 101.527 27.3511 104.807C26.9311 107.157 25.6811 109.317 23.8011 110.787C22.8711 111.517 21.8111 112.087 20.6811 112.427C20.5711 112.457 20.4411 112.477 20.3211 112.517C19.9311 112.667 19.5411 112.757 19.1411 112.807C19.1311 112.807 19.1211 112.817 19.1111 112.817C19.0211 112.827 18.9411 112.817 18.8511 112.827C18.5611 112.857 18.2711 112.877 17.9511 112.877C16.8911 112.867 15.7811 112.847 14.7511 112.597C14.2311 112.467 13.7511 112.237 13.2711 111.997C12.9511 111.837 12.6211 111.647 12.3311 111.427C8.67108 109.177 6.89108 104.637 7.64108 100.437C7.95108 98.717 8.70108 97.107 9.82108 95.787H9.73108C9.74108 95.697 9.70108 95.607 9.60108 95.567C9.33107 95.467 9.01108 95.507 8.72108 95.507C8.45108 95.507 8.17108 95.517 7.90108 95.517C7.28108 95.527 6.66108 95.527 6.05108 95.547C5.46108 95.567 4.86107 95.607 4.27107 95.637C3.97107 95.647 3.68107 95.657 3.38107 95.647C3.09107 95.637 2.79107 95.517 2.52107 95.607C2.39107 95.657 2.39108 95.817 2.50108 95.877C2.09108 96.907 1.76107 97.967 1.56107 99.067C0.351074 105.867 3.23108 113.207 9.14108 116.847C9.61108 117.217 10.1311 117.507 10.6611 117.777C11.4411 118.167 12.2111 118.537 13.0611 118.747C14.7311 119.157 16.5211 119.177 18.2411 119.207C18.7511 119.217 19.2211 119.167 19.6911 119.127C19.8311 119.117 19.9711 119.137 20.1111 119.107C20.1211 119.107 20.1411 119.097 20.1511 119.097C20.8011 119.007 21.4211 118.857 22.0611 118.627C22.2511 118.577 22.4711 118.547 22.6511 118.487C24.4911 117.927 26.1911 117.017 27.7011 115.827C30.7411 113.437 32.7711 109.947 33.4411 106.147C33.8611 103.797 33.7811 101.377 33.2611 99.067Z" fill="#1C2A38"/>
<path d="M95.1484 47.2664C95.1584 44.5964 95.0884 41.9264 94.8784 39.2664C94.6684 36.6464 94.3284 34.0164 93.7484 31.4464C93.2084 29.0364 92.6884 26.5864 91.5084 24.4064C90.4084 22.3964 88.4884 20.4164 86.2984 19.2664C86.1984 19.2164 86.0284 19.2864 85.9784 19.3964C85.9084 19.5364 85.8384 19.6764 85.7784 19.8064C84.9784 20.9864 83.8084 21.7964 82.4584 22.2264C81.7084 22.4664 80.9284 22.6064 80.1484 22.6564C79.8084 22.6764 79.4684 22.6964 79.1284 22.6864C78.7184 22.6764 78.4584 22.6064 78.0584 22.5164C77.9384 22.4964 77.8184 22.5264 77.7084 22.6164C77.6984 22.6264 77.6984 22.6364 77.6984 22.6364C76.2084 23.7864 75.6284 25.5264 75.1484 27.2764C75.1384 27.2864 75.1184 27.2864 75.1084 27.3064C74.1984 28.3364 72.8184 29.5164 71.8184 30.5064C70.9184 31.4064 70.0184 32.2864 69.0884 33.1564C68.6484 33.5664 68.1684 33.9764 67.6284 34.2564C66.9484 34.6064 66.1984 34.6464 65.4484 34.7064C64.0484 34.8164 62.6384 34.9264 61.2384 35.0264C58.5284 35.2364 55.8084 35.4264 53.0884 35.6264C51.8084 35.7164 50.5184 35.7664 49.2484 35.9464C48.3284 36.0764 47.3284 36.3664 46.7384 37.1364C46.7084 37.1764 46.6784 37.2364 46.6484 37.2864C46.7584 37.3064 46.8784 37.3564 46.9984 37.3964C47.0184 37.4564 47.0484 37.5164 47.1184 37.5564C47.3584 37.6864 47.6184 37.7064 47.8684 37.7964C48.0984 37.8764 48.2884 38.0164 48.4684 38.1864C48.8484 38.5364 49.2184 39.0264 49.3784 39.5264C49.5384 40.0264 49.4984 40.5964 49.3384 41.0864C49.1784 41.5764 48.7984 41.9464 48.5384 42.3864C48.5184 42.4264 48.5384 42.4664 48.5784 42.4864L48.5684 42.4964C48.7984 42.9264 49.1784 43.2664 49.6484 43.4864C50.7284 43.9864 51.9584 43.7764 53.0884 43.6664C55.9984 43.3964 58.9284 43.4564 61.8584 43.4364C63.2984 43.4264 64.7384 43.4064 66.1684 43.3164C67.4584 43.2364 68.8384 43.1764 70.0884 42.7964C72.2184 42.1364 73.5284 40.2464 75.3984 39.1464C75.5184 39.6464 75.6284 40.1364 75.6584 40.6664C75.6984 41.3464 75.6584 42.0264 75.6484 42.7064C75.6084 44.2164 75.5484 45.7164 75.4684 47.2264C75.3884 48.7364 75.2884 50.2364 75.1684 51.7364C75.0484 53.2264 74.8084 54.7464 74.8084 56.2464C74.8084 56.3664 74.8784 56.4264 74.9584 56.4764C75.0284 56.5564 75.1084 56.6364 75.2184 56.6764C75.5984 56.8464 76.1384 56.7764 76.5384 56.7764C77.1084 56.7864 77.6684 56.7764 78.2384 56.7664C80.5484 56.7464 82.8584 56.6664 85.1584 56.5764C87.4684 56.4864 89.7684 56.3364 92.0684 56.1264C92.8284 56.0564 93.9884 56.0764 94.6484 55.6464C94.7684 55.5664 94.8584 55.4964 94.9184 55.3664C94.9884 55.2764 94.9984 55.2564 95.0084 55.1864C95.2184 53.9364 95.1484 52.5964 95.1484 51.3264C95.1284 49.9964 95.1484 48.6264 95.1484 47.2664Z" fill="#FCD400"/>
<path d="M138.627 58.1243V40.6843C138.627 40.3543 138.627 40.0143 138.637 39.6843C138.507 38.9543 138.007 39.0643 138.027 39.7443C138.027 40.0543 138.037 40.3743 138.037 40.6843V58.1243C138.037 58.7443 138.017 59.3743 138.037 59.9943C138.037 60.0943 138.027 60.2043 138.017 60.2943C137.937 60.9443 137.817 61.5843 137.587 62.2043C137.167 63.3643 136.397 64.3243 135.297 64.9043C134.147 65.5043 132.827 65.6543 131.547 65.6943C130.917 65.7143 130.297 65.7143 129.667 65.7243C128.337 65.7143 126.987 65.7443 125.667 65.7443H110.697C109.377 65.7443 108.027 65.7143 106.697 65.7243C106.067 65.7143 105.447 65.7143 104.817 65.6943C103.537 65.6543 102.217 65.5043 101.067 64.9043C99.967 64.3243 99.197 63.3743 98.777 62.2043C98.557 61.5843 98.427 60.9443 98.347 60.2943C98.337 60.1943 98.337 60.0943 98.327 59.9943C98.347 59.3743 98.327 58.7443 98.327 58.1243V40.6843C98.327 40.0643 98.347 39.4343 98.327 38.8143C98.327 38.7143 98.337 38.6043 98.347 38.5143C98.427 37.8643 98.547 37.2243 98.777 36.6043C99.197 35.4443 99.967 34.4843 101.067 33.9043C102.217 33.3043 103.537 33.1543 104.817 33.1143C105.447 33.0943 106.067 33.0943 106.697 33.0843C108.027 33.0943 109.377 33.0643 110.697 33.0643H125.667C126.987 33.0643 128.337 33.0943 129.667 33.0843C130.297 33.0943 130.917 33.0943 131.547 33.1143C132.827 33.1543 134.147 33.3043 135.297 33.9043C135.547 34.0343 135.767 34.1943 135.987 34.3543C136.737 34.9643 136.927 34.4543 136.567 33.9543C136.397 33.8043 136.217 33.6543 136.027 33.5343C135.227 33.0243 134.307 32.7643 133.367 32.6243C133.357 32.6243 133.357 32.6143 133.347 32.6143C133.337 32.6143 133.327 32.6143 133.317 32.6143C132.927 32.5543 132.537 32.5143 132.147 32.4943C131.527 32.4643 130.907 32.4643 130.287 32.4743C128.697 32.4443 127.107 32.4743 125.527 32.4743H110.837C109.257 32.4743 107.667 32.4543 106.077 32.4743C105.457 32.4643 104.837 32.4643 104.217 32.4943C103.827 32.5143 103.437 32.5543 103.047 32.6143C103.037 32.6143 103.027 32.6143 103.017 32.6143C103.007 32.6143 103.007 32.6243 102.997 32.6243C102.057 32.7643 101.137 33.0343 100.337 33.5343C99.277 34.2043 98.537 35.2543 98.117 36.4243C97.907 37.0343 97.787 37.6843 97.747 38.3243C97.727 38.6343 97.707 39.0043 97.727 39.3643C97.727 39.8043 97.737 40.2443 97.737 40.6843V58.1243C97.737 58.5643 97.727 59.0043 97.727 59.4443C97.707 59.8043 97.737 60.1743 97.747 60.4843C97.787 61.1243 97.907 61.7843 98.117 62.3843C98.527 63.5543 99.277 64.6043 100.337 65.2743C101.137 65.7843 102.057 66.0443 102.997 66.1843C103.007 66.1843 103.007 66.1943 103.017 66.1943C103.027 66.1943 103.037 66.1943 103.047 66.1943C103.437 66.2543 103.827 66.2943 104.217 66.3143C104.837 66.3443 105.457 66.3443 106.077 66.3343C107.667 66.3643 109.257 66.3343 110.837 66.3343H125.527C127.107 66.3343 128.697 66.3543 130.287 66.3343C130.907 66.3443 131.527 66.3443 132.147 66.3143C132.537 66.2943 132.927 66.2543 133.317 66.1943C133.327 66.1943 133.337 66.1943 133.347 66.1943C133.357 66.1943 133.357 66.1843 133.367 66.1843C134.307 66.0443 135.227 65.7743 136.027 65.2743C137.087 64.6043 137.827 63.5543 138.247 62.3843C138.457 61.7743 138.577 61.1243 138.617 60.4843C138.637 60.1743 138.657 59.8043 138.637 59.4443C138.637 59.0043 138.627 58.5643 138.627 58.1243Z" fill="black" stroke="black" stroke-width="0.25" stroke-miterlimit="10"/>
<path d="M110.777 57.3447C110.777 54.6847 110.767 52.0347 110.767 49.3747C110.767 46.7147 110.757 44.0647 110.757 41.4047C110.757 40.0747 110.747 38.7447 110.727 37.4247C110.707 36.1747 110.727 34.9047 110.567 33.6647C110.537 33.4347 110.247 33.4347 110.217 33.6647C110.057 34.9047 110.077 36.1747 110.057 37.4247C110.037 38.7547 110.037 40.0847 110.027 41.4047C110.027 44.0647 110.017 46.7147 110.017 49.3747C110.017 52.0347 110.007 54.6847 110.007 57.3447C110.007 59.9047 109.827 62.5847 110.177 65.1047C110.217 65.3847 110.567 65.3947 110.607 65.1047C110.957 62.5947 110.777 59.9047 110.777 57.3447Z" fill="black" stroke="black" stroke-width="0.25" stroke-miterlimit="10"/>
<path d="M126.566 57.3447C126.566 54.6847 126.556 52.0347 126.556 49.3747C126.556 46.7147 126.546 44.0647 126.546 41.4047C126.546 40.0747 126.536 38.7447 126.516 37.4247C126.496 36.1747 126.516 34.9047 126.356 33.6647C126.326 33.4347 126.036 33.4347 126.006 33.6647C125.846 34.9047 125.866 36.1747 125.846 37.4247C125.826 38.7547 125.826 40.0847 125.816 41.4047C125.816 44.0647 125.806 46.7147 125.806 49.3747C125.806 52.0347 125.796 54.6847 125.796 57.3447C125.796 59.9047 125.616 62.5847 125.966 65.1047C126.006 65.3847 126.356 65.3947 126.396 65.1047C126.756 62.5947 126.576 59.9047 126.566 57.3447Z" fill="black" stroke="black" stroke-width="0.25" stroke-miterlimit="10"/>
<path d="M102.857 65.5988C101.607 65.5788 100.367 65.4588 99.1166 65.4788C98.0866 65.4888 97.0266 65.5188 96.0666 65.9488C95.4966 66.2088 94.9966 66.5288 94.3666 66.6388C93.6966 66.7488 93.0066 66.7588 92.3266 66.7988C91.0566 66.8688 89.7866 66.8688 88.5166 66.9988C88.2966 67.0188 88.2966 67.3288 88.5166 67.3488C89.7766 67.4688 91.0566 67.4088 92.3266 67.3388C93.3966 67.2888 94.5066 67.2888 95.5166 66.8788C96.0866 66.6488 96.6266 66.3688 97.2366 66.2488C97.8566 66.1288 98.4966 66.1288 99.1166 66.1088C100.367 66.0788 101.657 66.0588 102.907 66.0488C103.147 66.0488 103.107 65.6088 102.857 65.5988Z" fill="black" stroke="black" stroke-width="0.25" stroke-miterlimit="10"/>
<path d="M106.2 73.5796C103.8 72.6796 100.83 73.0396 98.3496 73.4896C95.7896 73.9496 93.2895 74.7496 90.9395 75.8596C86.3395 78.0296 82.3895 81.4196 79.5195 85.6196C78.2595 87.4596 77.1395 89.4096 76.3595 91.4996C75.7995 92.7196 75.6295 93.6396 75.6595 94.7096C75.6895 95.8396 75.9795 96.9196 76.8395 97.6996C78.3795 99.0796 81.3095 99.2796 82.8795 97.8296C83.2796 97.4596 83.6495 96.9296 83.8895 96.4296C84.2295 95.6096 84.3095 95.0096 84.3995 94.3696C84.5295 93.3696 84.7295 92.3796 84.9795 91.3996C85.2295 90.4496 85.4596 89.5296 85.8196 88.6096C86.0596 87.9996 86.3695 87.3896 86.6295 86.7796C87.2395 85.6696 87.9196 84.5996 88.7096 83.6096C91.3496 80.2596 94.8996 77.7196 98.8196 76.0496C99.1696 75.8996 99.4795 75.7696 99.7895 75.6396C100.84 75.3596 101.87 74.9796 102.94 74.7296C103.52 74.5896 104.11 74.4696 104.71 74.3796C105.01 74.3296 105.3 74.2896 105.6 74.2396C105.84 74.2096 106.13 74.2296 106.27 73.9996L106.28 73.9896C106.28 73.9896 106.28 73.9896 106.29 73.9796C106.38 73.8796 106.38 73.6496 106.2 73.5796ZM104.68 73.8296C104.04 73.9296 103.41 74.0496 102.78 74.1996C102.42 74.2796 102.06 74.3696 101.69 74.4696C100.91 74.6596 100.15 74.8696 99.4495 75.1396C97.3495 75.9596 95.3296 77.0196 93.4896 78.3196C90.5796 80.3796 88.2695 82.9196 86.5195 86.0096C86.3995 86.1896 86.1695 86.6696 86.0795 86.8596C85.7895 87.4096 85.5395 88.1596 85.2895 88.7896C84.4495 90.9796 84.1295 92.8196 83.7595 95.1896C83.7495 95.2696 83.7396 95.3496 83.7096 95.4296C83.6196 95.7596 83.5296 96.0596 83.3496 96.3496C83.0196 96.9096 82.5395 97.4096 81.9495 97.7296C80.9195 98.2896 79.4596 98.2796 78.3796 97.8796C77.2196 97.4596 76.4595 96.5096 76.2595 95.2996C76.0895 94.2696 76.2495 93.3996 76.5195 92.3396C78.3695 87.7296 80.5395 84.3396 83.8895 81.2196C87.5695 77.7896 92.1395 75.3896 97.0495 74.2996C99.5395 73.7496 102.47 73.2596 105.06 73.7696C104.95 73.7996 104.81 73.8096 104.68 73.8296Z" fill="black" stroke="black" stroke-width="0.25" stroke-miterlimit="10"/>
<path d="M30.5315 92.695C29.3415 91.295 27.9015 90.115 26.3215 89.165C24.5215 88.085 22.5915 87.215 20.5615 86.715C20.2115 86.625 19.8615 86.565 19.5215 86.495C18.5215 86.205 17.6615 86.155 16.8515 86.075C15.8115 85.975 14.7715 85.975 13.7415 86.075C11.8715 86.255 10.0315 86.755 8.35154 87.605C6.84154 88.375 5.46154 89.435 4.34154 90.715C3.34154 91.855 2.22154 93.395 2.07154 94.955C2.05154 95.115 2.28154 95.155 2.36154 95.035C2.77154 94.385 3.04154 93.645 3.44154 92.975C3.87154 92.265 4.35154 91.595 4.91154 90.985C5.97154 89.815 7.26154 88.855 8.67154 88.145C10.3215 87.315 12.1515 86.845 13.9915 86.705C14.3115 86.675 14.6315 86.675 14.9515 86.665C15.6115 86.725 16.2915 86.665 16.9315 86.735C18.0015 86.855 19.1115 87.025 20.1615 87.265C22.2015 87.735 24.1515 88.515 25.9615 89.575C27.5115 90.485 28.9115 91.625 30.0915 92.975C31.3115 94.365 32.0415 95.995 32.9115 97.605C33.0015 97.765 33.2115 97.645 33.1915 97.485C32.8715 95.685 31.7115 94.075 30.5315 92.695Z" fill="black" stroke="black" stroke-width="0.25" stroke-miterlimit="10"/>
<path d="M25.7401 95.6172H24.7701C26.9501 98.0572 27.93 101.527 27.34 104.807C26.92 107.157 25.6701 109.317 23.7901 110.787C22.8601 111.517 21.8001 112.087 20.6701 112.427C20.5601 112.457 20.4301 112.477 20.3101 112.517C19.9201 112.667 19.5301 112.757 19.1301 112.807C19.1201 112.807 19.1101 112.817 19.1001 112.817C19.0101 112.827 18.93 112.817 18.84 112.827C18.55 112.857 18.2601 112.877 17.9401 112.877C16.8801 112.867 15.7701 112.847 14.7401 112.597C14.2201 112.467 13.7401 112.237 13.2601 111.997C12.9401 111.837 12.6101 111.647 12.3201 111.427C8.66005 109.177 6.88005 104.637 7.63005 100.437C7.94005 98.7172 8.69005 97.1072 9.81005 95.7872H8.88005C7.90005 97.1072 7.22005 98.6472 6.93005 100.277C6.13005 104.777 8.03005 109.637 11.95 112.047C12.26 112.287 12.6101 112.487 12.9601 112.657C13.4701 112.917 13.9901 113.157 14.5501 113.297C15.6601 113.567 16.8401 113.587 17.9801 113.597C18.3201 113.597 18.6301 113.577 18.9401 113.547C19.0301 113.537 19.1201 113.547 19.2201 113.537C19.2301 113.537 19.2401 113.527 19.2501 113.527C19.6801 113.467 20.0901 113.367 20.5101 113.217C20.6401 113.187 20.7801 113.157 20.9001 113.127C22.1201 112.757 23.2501 112.157 24.2401 111.367C26.2501 109.787 27.5901 107.477 28.0401 104.957C28.6301 101.677 27.7701 98.1972 25.7401 95.6172Z" fill="black" stroke="black" stroke-width="0.25" stroke-miterlimit="10"/>
<path d="M33.072 98.7256C33.032 98.6556 32.992 98.5756 32.952 98.5056C32.942 98.4956 32.922 98.4656 32.902 98.4456C32.892 98.4356 32.882 98.4256 32.882 98.4056C32.772 98.2756 32.642 98.1556 32.512 98.0456C32.472 98.0056 32.422 97.9756 32.382 97.9356C32.322 97.8956 32.262 97.8456 32.202 97.8056C32.162 97.7756 32.132 97.7556 32.092 97.7256C32.942 100.366 33.162 103.226 32.662 105.986C32.022 109.596 30.092 112.926 27.192 115.196C25.752 116.326 24.132 117.196 22.382 117.726C22.212 117.776 22.002 117.806 21.822 117.856C21.212 118.076 20.622 118.216 20.002 118.306C19.992 118.306 19.972 118.316 19.962 118.316C19.822 118.336 19.692 118.326 19.562 118.326C19.112 118.366 18.672 118.406 18.182 118.406C16.552 118.386 14.852 118.366 13.252 117.976C12.442 117.776 11.702 117.426 10.962 117.056C10.462 116.806 9.96202 116.526 9.51202 116.176C3.88202 112.706 1.14202 105.726 2.29202 99.2556C2.51202 98.0456 2.88202 96.8856 3.36202 95.7656H2.50201C2.06201 96.8256 1.72201 97.9356 1.52201 99.0756C0.312011 105.876 3.19201 113.216 9.10201 116.856C9.57201 117.226 10.092 117.516 10.622 117.786C11.402 118.176 12.172 118.546 13.022 118.756C14.692 119.166 16.482 119.186 18.202 119.216C18.712 119.226 19.182 119.176 19.652 119.136C19.792 119.126 19.932 119.146 20.072 119.116C20.082 119.116 20.102 119.106 20.112 119.106C20.762 119.016 21.382 118.866 22.022 118.636C22.212 118.586 22.432 118.556 22.612 118.496C24.452 117.936 26.152 117.026 27.662 115.836C30.702 113.446 32.732 109.956 33.402 106.156C33.822 103.806 33.742 101.386 33.222 99.0756C33.202 98.9556 33.132 98.8356 33.072 98.7256Z" fill="black" stroke="black" stroke-width="0.25" stroke-miterlimit="10"/>
<path d="M19.6917 99.2156C19.5517 99.0656 19.3317 98.9656 19.1617 98.8856C19.0217 98.8256 18.8817 98.7856 18.7317 98.7456C18.7117 98.7356 18.6917 98.7356 18.6717 98.7256C18.5817 98.6956 18.5017 98.6556 18.4117 98.6456C17.9417 98.5456 17.4617 98.5756 16.9617 98.6156C16.8417 98.6256 16.7317 98.6156 16.6117 98.6356C16.4317 98.6556 16.2617 98.6956 16.1117 98.7456C15.6317 98.8856 15.1917 99.1256 14.8017 99.4356C14.0117 100.056 13.4917 100.956 13.3117 101.946C13.0017 103.706 13.7417 105.606 15.2817 106.556C15.4017 106.656 15.5417 106.726 15.6717 106.796C15.8717 106.896 16.0717 106.996 16.2917 107.046C16.7217 107.156 17.1917 107.156 17.6317 107.166C17.7617 107.166 17.8817 107.156 18.0117 107.146C18.0517 107.146 18.0817 107.146 18.1217 107.146H18.1317C18.3017 107.126 18.4617 107.086 18.6217 107.026C18.6717 107.016 18.7317 107.006 18.7717 106.986C19.2517 106.846 19.6917 106.606 20.0817 106.296C20.8717 105.676 21.3917 104.776 21.5717 103.786C21.8917 102.046 21.1717 100.176 19.6917 99.2156ZM20.1917 105.326C20.0917 105.446 19.9617 105.546 19.8517 105.646C19.6117 105.836 19.3617 105.996 19.0817 106.126C18.7017 106.306 18.2917 106.446 17.8817 106.516C17.1017 106.566 16.3417 106.496 15.6317 106.046C14.7717 105.496 14.1817 104.586 13.9817 103.596C13.7517 102.506 13.9917 101.276 14.7217 100.406C15.0617 100.006 15.4917 99.6756 15.9817 99.4656C16.1317 99.4156 16.2817 99.3656 16.4417 99.3356C16.4617 99.3356 16.4817 99.3256 16.5117 99.3156C16.7417 99.2656 16.9817 99.2256 17.2117 99.2156C17.2317 99.2156 17.2517 99.2156 17.2717 99.2156C17.4917 99.2056 17.7017 99.2156 17.9117 99.2356C17.9517 99.2356 18.0017 99.2356 18.0417 99.2456C18.0917 99.2556 18.1317 99.2556 18.1817 99.2656C18.5617 99.3356 18.9317 99.4556 19.2917 99.6856C20.1517 100.236 20.7417 101.146 20.9417 102.136C21.1617 103.236 20.9217 104.466 20.1917 105.326Z" fill="black" stroke="black" stroke-width="0.25" stroke-miterlimit="10"/>
<path d="M113.818 100.531C114.178 102.001 114.258 103.551 113.988 105.061C113.568 107.411 112.318 109.571 110.438 111.041C109.508 111.771 108.448 112.341 107.318 112.681C107.208 112.711 107.078 112.731 106.958 112.771C106.568 112.921 106.178 113.011 105.778 113.061C105.768 113.061 105.758 113.071 105.748 113.071C105.658 113.081 105.578 113.071 105.488 113.081C105.198 113.111 104.908 113.131 104.588 113.131C103.528 113.121 102.418 113.101 101.388 112.851C100.868 112.721 100.388 112.491 99.9079 112.251C99.5879 112.091 99.2579 111.901 98.9679 111.681C95.3079 109.431 93.5279 104.891 94.2779 100.691C94.2879 100.641 94.2979 100.591 94.3179 100.541H93.5779C92.7779 105.041 94.6879 109.891 98.5979 112.311C98.9079 112.551 99.2579 112.751 99.6079 112.921C100.118 113.181 100.638 113.421 101.198 113.561C102.308 113.831 103.488 113.851 104.628 113.861C104.968 113.861 105.278 113.841 105.588 113.811C105.678 113.801 105.768 113.811 105.868 113.801C105.878 113.801 105.888 113.791 105.898 113.791C106.328 113.731 106.738 113.631 107.158 113.481C107.288 113.451 107.428 113.421 107.548 113.391C108.768 113.021 109.898 112.421 110.888 111.631C112.898 110.051 114.238 107.741 114.688 105.221C114.968 103.661 114.908 102.061 114.568 100.541H113.818V100.531Z" fill="black" stroke="black" stroke-width="0.25" stroke-miterlimit="10"/>
<path d="M119.328 100.531C119.628 102.411 119.638 104.341 119.298 106.231C118.658 109.841 116.728 113.171 113.828 115.441C112.388 116.571 110.768 117.441 109.018 117.971C108.848 118.021 108.638 118.051 108.458 118.101C107.848 118.321 107.258 118.461 106.638 118.551C106.628 118.551 106.608 118.561 106.598 118.561C106.458 118.581 106.328 118.571 106.198 118.571C105.748 118.611 105.308 118.651 104.818 118.651C103.188 118.631 101.488 118.611 99.8876 118.221C99.0776 118.021 98.3376 117.671 97.5976 117.301C97.0976 117.051 96.5976 116.771 96.1476 116.421C90.8176 113.131 88.0876 106.701 88.7976 100.541H88.0076C87.3176 106.981 90.1776 113.681 95.7476 117.111C96.2176 117.481 96.7376 117.771 97.2676 118.041C98.0476 118.431 98.8176 118.801 99.6676 119.011C101.338 119.421 103.128 119.441 104.848 119.471C105.358 119.481 105.828 119.431 106.298 119.391C106.438 119.381 106.578 119.401 106.718 119.371C106.728 119.371 106.748 119.361 106.758 119.361C107.408 119.271 108.028 119.121 108.668 118.891C108.858 118.841 109.078 118.811 109.258 118.751C111.098 118.191 112.798 117.281 114.308 116.091C117.348 113.701 119.378 110.211 120.048 106.411C120.398 104.461 120.378 102.481 120.068 100.541H119.328V100.531Z" fill="black" stroke="black" stroke-width="0.25" stroke-miterlimit="10"/>
<path d="M106.57 100.531C107.06 101.051 107.42 101.691 107.56 102.391C107.79 103.481 107.55 104.711 106.82 105.581C106.72 105.701 106.59 105.801 106.48 105.901C106.24 106.091 105.99 106.251 105.71 106.381C105.33 106.561 104.92 106.701 104.51 106.771C103.73 106.821 102.97 106.751 102.26 106.301C101.4 105.751 100.81 104.841 100.61 103.851C100.38 102.761 100.62 101.531 101.35 100.661C101.39 100.611 101.44 100.571 101.49 100.531H100.68C100.32 101.031 100.07 101.591 99.9601 102.201C99.6501 103.961 100.39 105.861 101.93 106.811C102.05 106.901 102.19 106.981 102.32 107.051C102.52 107.151 102.72 107.251 102.94 107.301C103.37 107.411 103.84 107.411 104.28 107.421C104.41 107.421 104.53 107.411 104.66 107.401C104.7 107.401 104.73 107.401 104.77 107.401H104.78C104.95 107.381 105.11 107.341 105.27 107.281C105.32 107.271 105.38 107.261 105.42 107.241C105.9 107.101 106.34 106.861 106.73 106.551C107.52 105.931 108.04 105.031 108.22 104.041C108.44 102.811 108.12 101.531 107.4 100.531H106.57Z" fill="black" stroke="black" stroke-width="0.25" stroke-miterlimit="10"/>
<path d="M36.4131 60.0938C37.3631 57.5338 38.7931 55.2438 40.2831 52.9738C40.3731 52.8438 40.1731 52.6938 40.0631 52.8038C36.6531 56.3638 34.9231 61.4038 34.2731 66.2138C33.5431 71.6238 33.0331 77.2038 34.0031 82.6138C34.5031 85.4338 35.4131 88.2038 36.9531 90.6338C37.0631 90.8138 37.3331 90.6538 37.2331 90.4638C34.8531 85.8538 33.9631 80.8038 34.0531 75.6438C34.1031 72.9238 34.3831 70.2138 34.7431 67.5138C35.0731 64.9938 35.5231 62.4938 36.4131 60.0938Z" fill="black" stroke="black" stroke-width="0.25" stroke-miterlimit="10"/>
<path d="M133.239 66.0747C133.229 65.7547 132.809 65.6847 132.799 66.0247C132.789 66.4347 132.859 66.8347 132.699 67.2147C132.629 67.3647 132.519 67.4347 132.349 67.4547C132.129 67.4847 131.899 67.4747 131.679 67.4847C131.219 67.5047 130.759 67.4847 130.309 67.5347C130.159 67.5547 130.029 67.5747 129.889 67.6547C129.869 67.6647 129.839 67.6847 129.829 67.6947C129.819 67.7047 129.789 67.7347 129.779 67.7347C129.729 67.7747 129.739 67.7747 129.709 67.8047C127.969 69.3347 122.629 74.0247 121.159 75.3347C119.669 76.6547 118.159 77.9447 116.719 79.3447C116.399 78.9847 116.249 78.7847 115.909 78.4447C117.519 77.1047 118.809 75.8347 120.269 74.5147C121.759 73.1647 126.009 69.4647 127.399 68.0047C127.459 67.9447 127.449 67.8847 127.419 67.8347C127.419 67.8347 127.429 67.8247 127.429 67.8147C127.429 67.8047 127.439 67.7947 127.439 67.7847C127.449 67.7647 127.439 67.7347 127.429 67.7147C127.409 67.6547 127.319 67.5947 127.209 67.5847C126.409 67.5147 125.569 67.5447 124.769 67.5447C123.919 67.5447 123.069 67.5447 122.209 67.5547C121.359 67.5547 120.509 67.5547 119.649 67.5647C118.849 67.5647 118.019 67.5447 117.219 67.6347C117.209 67.6347 117.199 67.6447 117.189 67.6447C117.179 67.6447 117.179 67.6447 117.169 67.6447C116.949 67.6247 116.789 67.9147 116.909 68.0947C117.289 68.6447 117.489 69.2447 117.639 69.8947C117.769 70.4747 117.869 71.3747 117.379 71.8247C117.149 72.0447 116.769 72.1347 116.469 72.1647C116.109 72.1947 115.739 72.1947 115.379 72.2047C112.539 72.0447 109.659 72.1447 106.829 72.1447L69.0889 72.2847C68.3289 72.2847 67.6689 72.2947 66.7789 72.2047C66.0189 72.0547 65.5689 71.3047 65.5989 70.5047C65.6289 69.5547 66.2389 68.3747 67.0789 67.9047C67.8189 67.4847 68.7689 67.4447 69.5989 67.4247C70.7489 67.3947 71.9189 67.5047 73.0689 67.3947C73.3789 67.3647 73.3689 66.9547 73.0689 66.9247C72.3189 66.8347 71.5489 66.8547 70.7889 66.8447C70.1589 66.8347 69.5289 66.7947 68.8989 66.7947C67.8089 66.7947 66.6789 67.0247 65.9489 67.9047C65.2089 68.7947 64.7189 69.9947 65.0089 71.1547C65.2289 72.0447 65.5689 72.5847 66.5189 72.8147C66.6389 72.8447 66.7989 73.0647 66.8389 73.1247C67.6889 74.2347 68.0189 74.8647 68.5289 75.9047C69.0989 77.0647 69.6989 78.2047 70.2089 79.3847C71.2589 81.7847 71.9989 84.3347 72.0589 86.9647C72.1189 89.5247 71.4989 91.9947 69.2689 93.4747C67.1789 94.8647 65.1189 95.1447 62.5089 95.1647C62.4789 95.1647 62.0989 95.1547 62.0789 95.1547C61.2389 95.1547 60.3989 95.1547 59.5689 95.1647C57.9189 95.1647 56.2789 95.1747 54.6289 95.1747C53.0289 95.1747 51.4289 95.1847 49.8289 95.1847C49.0889 95.1847 48.3689 95.2047 47.6289 95.2147C47.3589 95.2147 46.8889 95.2147 46.7789 95.2047C42.7989 94.6947 41.0189 93.8747 39.0089 91.4047C36.8889 88.7947 36.4089 85.5447 36.2889 82.2747C36.0389 75.3247 35.9789 68.2047 37.9089 61.4547C38.8789 58.0647 40.3389 54.9247 42.2589 51.9747C43.6589 50.0547 44.5089 48.2147 44.7289 46.4147C44.6389 46.4847 44.5489 46.5547 44.4289 46.5847L44.2789 46.6047C44.2789 46.6147 44.2789 46.6347 44.2789 46.6547C44.0789 48.4747 43.0289 49.8247 42.1589 51.3347C37.9389 56.8247 36.3789 63.8847 35.7289 70.6447C35.3589 74.5047 35.4289 78.4047 35.5989 82.2747C35.7489 85.6447 36.2789 88.8747 38.3289 91.6447C40.4289 94.4947 43.0989 95.3447 46.8489 95.6847C46.8889 95.6847 47.4889 95.6947 47.5189 95.6947C48.2689 95.7047 48.9289 95.6847 49.6789 95.6847C51.3289 95.6847 52.9689 95.6947 54.6189 95.6947C56.2189 95.6947 57.8189 95.7047 59.4189 95.7047C60.2689 95.7047 61.1089 95.7047 61.9589 95.7147C62.4289 95.7147 62.9189 95.7247 63.3989 95.6947C66.6989 95.7547 70.5189 94.3747 71.9089 91.2647C73.6789 87.2847 72.1489 82.6447 70.5189 78.8947C69.6489 76.8847 68.6889 74.8047 67.4289 72.9247C68.3389 72.9547 69.2089 72.9347 70.0789 72.9147C72.5689 76.4647 74.1389 80.6547 74.3289 85.0147C74.4289 87.3347 74.2589 89.5247 72.8689 91.4647C72.1989 92.3947 71.4189 93.0947 70.4489 93.7847C70.0589 94.0647 69.6989 94.2647 69.2689 94.4747C68.8489 94.6847 68.5589 94.8447 67.8989 95.1247C67.8589 95.1447 67.8789 95.2147 67.9289 95.2247C68.8689 95.2647 69.9689 94.5747 70.6589 94.1447C71.5989 93.5547 72.4589 92.8247 73.1589 91.9647C74.6089 90.1747 74.9489 87.7547 74.8889 85.5247C74.7589 80.9947 73.2489 76.6947 70.7589 72.9047C70.9089 72.9047 71.0589 72.8947 71.2089 72.8947H103.719C103.849 72.9047 104.299 72.9147 104.429 72.9247C105.069 72.9947 105.429 73.0547 106.049 73.2047C107.329 73.5247 108.509 74.0547 109.689 74.6447C111.939 75.7647 113.939 77.3147 115.669 79.1247C119.149 82.7747 121.639 87.4347 122.989 92.2847C123.369 93.6447 123.659 95.0447 123.859 96.4447C124.039 97.6847 124.289 98.8147 124.219 100.125C121.299 100.235 118.579 100.185 115.779 100.185L89.3189 100.105C77.5689 100.105 65.8289 100.065 54.0789 100.125C50.8289 100.135 47.5689 100.155 44.3189 100.165C41.4289 100.175 38.5389 100.115 35.6489 100.205C35.6789 99.2047 35.4989 98.1647 35.3589 97.1847C35.1989 96.0947 35.0089 95.0047 34.7489 93.9347C34.2489 91.8547 33.4689 89.8447 32.2689 88.0547C30.0489 84.7447 26.6989 82.3247 22.9389 81.0347C21.3489 80.4847 19.6189 80.0747 17.8989 79.9447C17.9889 79.5847 18.0489 79.2047 18.1289 78.8447C18.2289 78.3447 18.3289 77.8447 18.4289 77.3447C18.4289 77.3347 18.4389 77.3147 18.4389 77.3047C18.8089 75.6647 19.1789 74.0247 19.6389 72.4047C20.3889 69.7947 21.3289 67.2447 22.5389 64.8147C24.7589 60.3747 27.7189 56.1247 31.3989 52.7647C33.4689 50.8747 35.7989 49.2147 38.4989 48.3847C38.8289 48.2847 38.7389 47.7947 38.4089 47.9047C38.3589 47.9247 38.2489 47.9147 38.1989 47.9247C37.3289 48.0147 36.4989 48.2047 35.5889 48.0747C35.3089 48.0447 35.0089 47.9947 34.7289 47.9347C34.3389 47.8547 33.9889 47.7547 33.5989 47.6647C33.2489 47.5847 32.8289 47.4747 32.5189 47.2747C32.5189 47.2647 32.5189 47.2647 32.5189 47.2447C32.5189 47.2347 32.5189 47.2147 32.5189 47.2047C32.5989 46.4847 32.5789 45.7347 32.5789 45.0047C32.5789 44.1947 32.5789 43.3847 32.5789 42.5847C32.5789 41.3147 32.5689 40.4347 32.4989 39.3047C32.4989 39.1047 32.4989 39.0247 32.4989 38.8947C32.4989 38.7847 32.4889 38.7147 32.4789 38.6147C32.4589 38.5047 32.5489 38.4547 32.5689 38.4547C34.3789 38.0547 36.1589 38.1647 37.9389 38.5247C37.9289 38.5147 37.9189 38.5047 37.9089 38.4947C37.7789 38.3747 37.7089 38.2047 37.6789 38.0347C36.0589 37.7847 34.5689 37.8147 32.8089 38.0447C32.6689 38.0647 32.1489 38.0547 32.1189 38.1547C32.0589 38.1447 31.9989 38.1347 31.9289 38.1447C31.7589 38.1747 31.6189 38.2947 31.5589 38.4447C31.5189 38.5347 31.4989 38.6347 31.4789 38.7347C31.4789 38.7647 31.4689 38.7847 31.4689 38.8147C31.4389 38.8247 31.4189 38.8447 31.3989 38.8547C30.0589 39.7847 29.7789 41.5247 29.7789 43.0547C29.7789 44.5247 30.2489 46.2247 31.5089 47.1247C31.5089 47.1447 31.5089 47.1647 31.5089 47.1847C31.5089 47.2147 31.4989 47.2447 31.5089 47.3047C31.5089 47.3847 31.5489 47.4547 31.5789 47.5247C31.6489 47.6447 31.7789 47.7547 31.9089 47.7647C32.0589 47.7747 32.1889 47.7747 32.3089 47.6747C32.3389 47.6547 32.3589 47.6147 32.3889 47.5847C32.5689 47.6847 32.7289 47.7747 32.9389 47.8447C33.1889 47.9347 33.4389 48.0147 33.6889 48.0747C33.7189 48.0847 33.7489 48.0847 33.7689 48.0947C34.0089 48.1547 34.2489 48.2147 34.4789 48.2647C34.7189 48.3147 34.9689 48.3347 35.2089 48.3747H35.2189H35.2289C35.4289 48.4047 35.6389 48.4247 35.8389 48.4447C36.0689 48.4647 36.2889 48.4947 36.5189 48.4947C36.5589 48.4947 36.6089 48.4947 36.6489 48.4947C32.6289 50.2447 29.4389 53.5047 26.7189 56.8947C23.3589 61.0947 20.8489 65.7647 19.2489 70.9047C18.3489 73.7847 17.6089 76.7647 17.1989 79.7547C12.8189 79.7047 8.14888 80.9747 4.76888 83.8247C1.21888 86.8147 0.378883 91.2247 0.148883 95.6447C0.138883 95.8147 0.298881 95.9547 0.458881 95.9547C0.618881 95.9547 0.788881 95.9647 0.958881 95.9647C1.81888 96.0847 2.76888 95.9947 3.60888 95.9947C4.74888 95.9947 5.88888 96.0047 7.01888 96.0047C9.24888 96.0147 11.4789 96.0047 13.6989 96.0047C15.9289 96.0047 18.1589 96.0047 20.3789 96.0047C22.1589 96.0047 23.9789 96.0047 25.7889 95.9347C27.5589 96.0147 29.3189 96.1947 30.8589 97.0947C31.8689 97.6847 32.7489 98.5647 33.2689 99.6147C33.4189 99.9147 33.4289 100.235 33.5489 100.535C33.5989 100.665 33.6289 100.725 33.7689 100.795C33.9089 100.865 34.1089 100.865 34.2989 100.845C40.1189 101.125 45.9789 100.925 51.8089 100.955C57.7089 100.985 63.5989 100.985 69.4989 100.985H114.499C117.819 100.955 120.979 101.035 124.299 100.925C124.719 100.965 124.849 100.855 124.879 100.665C125.049 99.3647 124.819 98.0247 124.629 96.7347C124.439 95.4147 124.169 94.1047 123.829 92.8247C123.139 90.2647 122.189 87.7747 120.949 85.4247C119.859 83.3647 118.609 81.5247 117.069 79.7447C118.629 78.4247 120.049 77.0647 121.539 75.7347C122.969 74.4647 128.129 69.9247 129.849 68.2247C129.929 68.1647 130.009 68.1047 130.099 68.0547C130.289 67.9447 130.529 67.9247 130.739 67.9247C131.239 67.9247 131.769 67.9447 132.269 67.9147C132.699 67.8947 133.019 67.7247 133.189 67.3047C133.269 67.1247 133.289 66.9047 133.289 66.7147C133.259 66.5047 133.249 66.3147 133.239 66.0747ZM115.509 78.0347C113.959 76.5747 112.429 75.3847 110.549 74.3747C109.409 73.7647 108.349 73.2247 107.109 72.8547C108.439 72.8547 109.639 72.9147 110.969 72.8947C112.569 72.8747 114.199 72.9147 115.799 72.8247C116.569 72.8147 117.459 72.8147 117.969 72.1347C118.449 71.4847 118.479 70.5247 118.309 69.7647C118.169 69.1747 118.049 68.6447 117.639 68.1547C118.329 68.1547 118.959 68.1447 119.649 68.1447C120.499 68.1447 121.359 68.1347 122.219 68.1347C123.069 68.1347 123.959 68.0947 124.809 68.0947C125.459 68.0947 126.079 68.0947 126.719 68.0747C124.969 69.5747 121.299 72.8547 119.899 74.1347C118.429 75.4447 116.999 76.7047 115.509 78.0347ZM31.4589 46.8047C30.5289 45.8147 30.1089 44.4147 30.1389 43.0147C30.1589 41.6647 30.4489 40.1347 31.4689 39.1047C31.4689 39.1147 31.4689 39.1247 31.4689 39.1347C31.3789 40.2547 31.4589 41.3847 31.4589 42.6347C31.4589 43.4147 31.4789 44.1947 31.4789 44.9747C31.4789 45.5947 31.4089 46.1847 31.4589 46.8047ZM31.9189 47.5447C31.6989 47.4947 31.6989 47.1347 31.6989 47.1247C31.7389 46.3947 31.7289 45.7747 31.7389 45.0447C31.7489 44.2347 31.7189 43.4547 31.7189 42.6447C31.7189 41.3247 31.7189 40.4347 31.6889 39.1847C31.6889 39.1847 31.6889 39.0847 31.6889 39.0747C31.6989 38.9847 31.6889 38.9547 31.6889 38.9047C31.6989 38.8347 31.6889 38.8247 31.6989 38.7647C31.7089 38.6747 31.7289 38.6047 31.7689 38.5547C31.7689 38.5547 31.9089 38.3747 32.0889 38.4847C32.0789 38.4847 32.1089 38.4947 32.1289 38.5147C32.1389 38.5247 32.1589 38.5647 32.1789 38.5947C32.1889 38.6247 32.1889 38.6447 32.1989 38.6647C32.1989 38.6847 32.1989 38.7047 32.2089 38.7247C32.1989 38.6647 32.2089 38.7447 32.2089 38.7547C32.2089 38.8047 32.2089 38.8447 32.2089 38.8947C32.2089 38.9347 32.2089 38.9947 32.2089 39.0147C32.2089 39.0447 32.2089 39.0847 32.2089 39.0947C32.2089 39.1147 32.2089 39.1947 32.2089 39.2547C32.2089 39.2847 32.2089 39.3147 32.2089 39.3947C32.2289 40.7047 32.2589 41.3747 32.2489 42.6247C32.2489 43.4047 32.2389 44.3047 32.2389 45.0747C32.2389 45.7947 32.2289 46.3447 32.2689 47.0647C32.3089 47.5847 31.9189 47.5447 31.9189 47.5447ZM34.2389 100.245C34.2389 100.245 34.2389 100.255 34.2389 100.245C34.0189 100.205 33.9889 100.095 33.8689 99.8047C33.6689 99.3147 33.3589 98.7647 33.0389 98.3447C32.3589 97.4647 31.5889 96.7547 30.5789 96.2847C29.1289 95.6147 27.4689 95.3347 25.9089 95.3447C24.0489 95.2847 22.1789 95.4147 20.3589 95.4147H13.6789C11.4489 95.4147 9.21888 95.4147 6.99888 95.4247C5.85888 95.4247 4.71888 95.4347 3.58888 95.4347C3.00888 95.4347 2.37888 95.3947 1.74888 95.4047C1.43888 95.3547 1.10888 95.3447 0.788882 95.3447C1.15888 91.2347 1.95888 87.1347 5.26888 84.3447C8.20888 81.8647 12.1089 80.7447 15.9189 80.5547C18.7289 80.6647 21.0589 81.0847 23.5289 82.0747C25.8389 82.9947 27.9689 84.3847 29.7089 86.1747C31.4689 87.9847 32.7489 90.1547 33.5189 92.5547C33.9289 93.8447 34.2089 95.1747 34.4189 96.5147C34.6089 97.7247 34.6589 99.0247 34.9589 100.225C34.7089 100.235 34.4789 100.235 34.2389 100.245Z" fill="black" stroke="black" stroke-width="0.25" stroke-miterlimit="10"/>
<path d="M45.0717 42.9594C45.0117 42.9194 44.9517 42.8894 44.8917 42.8594C44.7217 42.8894 44.5417 42.9294 44.3717 42.9594C44.4517 42.9894 44.5317 43.0194 44.6117 43.0594C44.7617 43.1494 44.9117 43.3094 45.0317 43.4394C45.2617 43.6894 45.2817 44.1694 45.2817 44.4894C45.2917 45.1294 45.1317 45.8194 44.6017 46.2294C44.3917 46.3894 44.1617 46.4494 43.9117 46.4894C43.9817 46.4094 44.0517 46.3194 44.1017 46.2194C44.3417 45.7594 44.3617 45.1494 44.3217 44.6394C44.2817 44.0594 44.0917 43.7594 43.7417 43.2994C43.6917 43.2294 43.6217 43.1694 43.5617 43.1194C43.2817 43.1694 43.0017 43.2294 42.7317 43.2894C42.7417 43.2894 42.7417 43.2994 42.7517 43.2994C42.9017 43.3594 43.0417 43.4094 43.1817 43.5094C43.3117 43.6094 43.4517 43.6894 43.5417 43.8394C43.6517 44.0194 43.7117 44.2094 43.7617 44.4094C43.8517 44.8194 43.8117 45.2494 43.7117 45.6494C43.6217 46.0094 43.3817 46.2594 43.0217 46.3594C42.2917 46.5594 41.3617 46.2494 40.9017 45.6194C40.4917 45.0494 40.5217 44.3094 40.9617 43.7794C40.7217 43.8594 40.4717 43.9294 40.2317 44.0294C40.2017 44.0994 40.1517 44.1694 40.1217 44.2494C39.9817 44.7294 40.0717 45.2494 40.2917 45.6894C40.6817 46.4794 41.5717 46.9594 42.4317 47.0194C42.8417 47.1194 43.2217 47.0594 43.5317 47.0494C43.8717 47.0394 44.1617 46.9694 44.4817 46.8494C45.0317 46.6294 45.3317 46.2594 45.5517 45.7094C45.8117 45.0594 45.8217 44.3394 45.5817 43.6894C45.4717 43.3794 45.3217 43.1394 45.0717 42.9594Z" fill="black"/>
<path d="M44.8795 44.3677C44.8195 44.0677 44.7295 43.7877 44.5995 43.5177C44.4895 43.2777 44.3495 43.0677 44.0795 43.0177C43.9895 42.9977 43.9395 43.1277 44.0095 43.1877C44.1695 43.3177 44.2395 43.5877 44.3095 43.7777C44.3895 44.0177 44.4595 44.2677 44.5095 44.5177C44.5595 44.7677 44.5795 45.0177 44.5595 45.2677C44.5395 45.4977 44.3995 45.7577 44.5095 45.9777C44.5395 46.0277 44.5895 46.0577 44.6495 46.0377C44.9195 45.9377 44.9495 45.5377 44.9595 45.2877C44.9695 44.9777 44.9395 44.6677 44.8795 44.3677Z" fill="black"/>
<path d="M95.1516 47.2664C95.1616 44.5964 95.0916 41.9264 94.8816 39.2664C94.6716 36.6464 94.3316 34.0164 93.7516 31.4464C93.2116 29.0364 92.6916 26.5864 91.5116 24.4064C90.4116 22.3964 88.4916 20.4164 86.3016 19.2664C86.2016 19.2164 86.0316 19.2864 85.9816 19.3964C85.9116 19.5364 85.8416 19.6764 85.7816 19.8064C84.9816 20.9864 83.8116 21.7964 82.4616 22.2264C81.7116 22.4664 80.9316 22.6064 80.1516 22.6564C79.8116 22.6764 79.4716 22.6964 79.1316 22.6864C78.7216 22.6764 78.4616 22.6064 78.0616 22.5164C77.9416 22.4964 77.8216 22.5264 77.7116 22.6164C77.7016 22.6264 77.7016 22.6364 77.7016 22.6364C75.6816 24.1964 75.3416 26.8264 74.6316 29.1264C73.8016 31.8564 72.3016 34.0264 70.3016 35.9664C69.7916 36.4564 69.2416 37.0564 68.6716 37.4764C67.9716 38.0064 67.2516 37.9164 66.4016 37.9564C64.8916 38.0264 63.3716 38.1064 61.8616 38.1864C58.7416 38.3564 55.6216 38.5964 52.5116 38.8564C51.5116 38.9464 50.3216 38.9464 49.4016 39.4564C49.4816 39.6764 49.5316 39.8964 49.5616 40.1364C50.0616 39.8264 50.6916 39.6364 51.2116 39.5664C52.5816 39.3964 53.9716 39.3064 55.3516 39.1864C58.2316 38.9464 61.1216 38.7564 64.0016 38.5864C65.3016 38.5064 66.6916 38.5964 67.9816 38.3964C68.4116 38.3264 68.7316 38.1264 69.0516 37.8364C69.5316 37.3964 70.0316 36.9464 70.4816 36.4864C72.1816 34.7764 73.6916 32.7764 74.6416 30.5364C75.7116 28.0364 75.5716 24.7664 77.9716 23.0164C78.0016 22.9964 78.0616 22.9564 78.0916 22.9364C78.1716 22.9564 78.2716 22.9764 78.3516 23.0064C78.5316 23.0664 78.6516 23.0664 78.8316 23.0864C79.2616 23.1464 79.5916 23.1464 80.0216 23.1264C80.9016 23.0864 81.7716 22.9864 82.6116 22.7164C84.0616 22.2664 85.4416 21.3764 86.2016 20.0364C86.2216 20.0064 86.2316 19.9864 86.2416 19.9564C86.2616 19.9164 86.2516 19.9164 86.2816 19.8964C87.1516 20.4764 88.0216 21.0064 88.7916 21.7264C89.6416 22.5264 90.2916 23.4164 90.8516 24.4364C92.0216 26.5664 92.7016 28.9364 93.2416 31.3064C94.3716 36.3164 94.7216 41.4464 94.7516 46.5664C94.7616 47.9764 94.7516 49.3764 94.6916 50.7864C94.6416 51.9764 94.5816 53.3464 94.5916 54.4864C94.5716 54.7064 94.5216 54.9164 94.3816 55.0564C94.1416 55.3064 93.6116 55.3364 93.2716 55.3864C92.4116 55.5164 91.5416 55.5664 90.6716 55.6364C88.9316 55.7764 87.1916 55.8964 85.4516 55.9864C83.7616 56.0764 82.0616 56.1264 80.3716 56.1464C79.5216 56.1564 78.6716 56.1564 77.8316 56.1564C77.4116 56.1564 76.9816 56.1464 76.5616 56.1464C76.4416 56.1464 75.6616 56.1964 75.3816 56.0664C75.5316 54.7664 75.6616 53.2564 75.7716 51.8264C75.8916 50.1864 76.0516 48.5264 76.1316 46.8764C76.2016 45.2764 76.2116 43.8364 76.2416 42.2364C76.2616 41.0964 76.3016 39.4864 75.6016 38.5164C75.5216 38.4064 75.4416 38.4564 75.3616 38.5264C75.3416 38.5364 75.3016 38.5664 75.2816 38.5864C73.7116 39.7964 72.3016 41.2064 70.5116 42.0464C69.3716 42.5864 67.9916 42.6264 66.7516 42.7264C65.5016 42.8264 64.2516 42.8664 63.0016 42.8864C60.4516 42.9264 57.8916 42.8664 55.3416 42.9964C54.1016 43.0564 52.8616 43.2464 51.6216 43.2964C50.6116 43.3364 49.4216 43.0364 48.9716 42.1064C48.8916 42.2164 48.8116 42.3164 48.7216 42.4164C48.6816 42.4564 48.6416 42.4764 48.6016 42.5064C48.8316 42.9364 49.2116 43.2764 49.6816 43.4964C50.7616 43.9964 51.9916 43.7864 53.1216 43.6764C56.0316 43.4064 58.9616 43.4664 61.8916 43.4464C63.3316 43.4364 64.7716 43.4164 66.2016 43.3264C67.4916 43.2464 68.8716 43.1864 70.1216 42.8064C72.2516 42.1464 73.5616 40.2564 75.4316 39.1564C75.5516 39.6564 75.6616 40.1464 75.6916 40.6764C75.7316 41.3564 75.6916 42.0364 75.6816 42.7164C75.6416 44.2264 75.5816 45.7264 75.5016 47.2364C75.4216 48.7464 75.3216 50.2464 75.2016 51.7464C75.0816 53.2364 74.8416 54.7564 74.8416 56.2564C74.8416 56.3764 74.9116 56.4364 74.9916 56.4864C75.0616 56.5664 75.1416 56.6464 75.2516 56.6864C75.6316 56.8564 76.1716 56.7864 76.5716 56.7864C77.1416 56.7964 77.7016 56.7864 78.2716 56.7764C80.5816 56.7564 82.8916 56.6764 85.1916 56.5864C87.5016 56.4964 89.8016 56.3464 92.1016 56.1364C92.8616 56.0664 94.0216 56.0864 94.6816 55.6564C94.8016 55.5764 94.8916 55.5064 94.9516 55.3764C95.0216 55.2864 95.0316 55.2664 95.0416 55.1964C95.2516 53.9464 95.1816 52.6064 95.1816 51.3364C95.1316 49.9964 95.1516 48.6264 95.1516 47.2664Z" fill="black" stroke="black" stroke-width="0.25" stroke-miterlimit="10"/>
<path d="M75.0928 27.3266C74.1828 28.3566 72.8028 29.5366 71.8028 30.5266C70.9028 31.4266 70.0028 32.3066 69.0728 33.1766C68.6328 33.5866 68.1528 33.9966 67.6128 34.2766C66.9328 34.6266 66.1828 34.6666 65.4328 34.7266C64.0328 34.8366 62.6228 34.9466 61.2228 35.0466C58.5128 35.2566 55.7928 35.4466 53.0728 35.6466C51.7928 35.7366 50.5028 35.7866 49.2328 35.9666C48.3128 36.0966 47.3128 36.3866 46.7228 37.1566C46.6928 37.1966 46.6628 37.2566 46.6328 37.3066C46.8728 37.3566 47.1228 37.4366 47.3728 37.5366C47.9528 36.8866 48.9528 36.6966 49.7928 36.6166C52.1828 36.3666 54.6028 36.2266 57.0028 36.0266C59.3928 35.8266 61.7728 35.6366 64.1628 35.4466C65.2228 35.3666 66.4028 35.4066 67.4128 35.0366C68.3028 34.7166 69.0028 34.0366 69.6828 33.4066C70.6128 32.5266 71.4828 31.5866 72.3728 30.6666C73.3028 29.6866 74.4328 28.6966 75.4228 27.5866C75.6528 27.3366 75.3528 27.0266 75.0928 27.3266Z" fill="black" stroke="black" stroke-width="0.25" stroke-miterlimit="10"/>
<path d="M87.319 7.9575C87.449 7.5875 87.399 7.1075 87.369 6.7475C87.339 6.2375 87.249 5.7275 87.119 5.2375C86.869 4.2775 86.469 3.5175 85.789 2.8075C84.479 1.4475 83.419 0.9275 81.489 0.8475C81.349 0.8375 80.589 0.847502 80.439 0.877502C80.149 0.897502 79.869 0.937501 79.589 0.997501C78.659 1.2075 77.739 1.6475 76.959 2.1975C76.269 2.6875 75.659 3.3075 75.289 4.0675C75.069 4.5175 74.929 4.9975 74.799 5.4775C74.689 5.8875 74.599 6.3075 74.629 6.7275C73.939 6.7475 73.259 6.7575 72.569 6.7775C71.929 6.7875 71.279 6.7475 70.649 6.8375C70.279 6.8975 69.399 7.1475 69.589 7.6975C69.669 7.9175 69.839 8.0275 70.049 8.1075C70.219 8.1775 70.369 8.2275 70.509 8.2375C70.579 8.2475 70.679 8.2275 70.759 8.2275C71.279 8.2675 71.819 8.2375 72.339 8.2375C73.169 8.2275 73.989 8.2375 74.819 8.2375C74.689 8.7075 74.589 9.1875 74.569 9.6675C74.539 10.2575 74.879 10.6475 74.979 11.2075C75.099 11.9075 74.679 12.4075 74.509 13.0475C74.359 13.5875 74.389 14.1975 74.579 14.7175C74.669 14.9575 74.799 15.1775 74.909 15.4075C75.079 15.7775 75.089 16.1475 75.079 16.5375C75.069 17.0575 75.039 17.5775 75.249 18.0675C75.719 19.2175 77.219 19.1075 78.259 19.2575C78.319 19.2675 78.369 19.2575 78.419 19.2475C78.409 19.3275 78.409 19.4275 78.409 19.4575C78.369 19.8375 78.339 20.2275 78.289 20.6075C78.249 20.9775 78.189 21.3475 78.129 21.7175C78.099 21.8975 78.079 22.0675 78.039 22.2475C78.009 22.4175 77.939 22.6075 77.989 22.7875C78.029 22.9375 78.199 23.0075 78.339 22.9275C78.679 22.7375 78.659 22.1375 78.689 21.7975C78.729 21.3675 78.769 20.9375 78.809 20.5075C78.859 20.0875 78.899 19.6675 78.929 19.2475C78.929 19.2075 78.919 19.1675 78.919 19.1275C78.959 19.1275 79.009 19.1275 79.049 19.1275C79.669 19.0575 80.269 18.9175 80.849 18.6775C81.399 18.4575 81.889 18.1375 82.359 17.7775C82.849 17.3975 83.369 17.0175 83.619 16.4375C83.649 16.3575 83.569 16.2275 83.479 16.2975C83.039 16.6275 82.689 17.0575 82.249 17.3875C81.779 17.7375 81.209 17.9775 80.659 18.1675C80.129 18.3575 79.569 18.4775 78.999 18.5175C78.729 18.5375 78.449 18.5475 78.179 18.5275C78.039 18.5175 77.879 18.4975 77.739 18.4975C77.399 18.4475 77.069 18.3975 76.729 18.3375C76.049 18.2075 75.809 17.8175 75.789 17.1475C75.769 16.6175 75.859 16.0875 75.729 15.5675C75.599 15.0475 75.199 14.6575 75.069 14.1375C74.809 13.1275 75.729 12.2775 75.599 11.2375C75.529 10.6775 75.129 10.2375 75.129 9.6875C75.119 9.2075 75.179 8.7375 75.239 8.2575C75.289 8.2575 75.339 8.2575 75.379 8.2575C76.459 8.2575 78.979 8.2575 81.449 8.2575C81.449 8.3275 81.479 8.4075 81.569 8.4475C82.719 8.9375 81.629 10.4475 82.199 11.2475C82.459 11.6175 82.949 11.5775 83.279 11.3375C83.649 11.0775 83.789 10.5475 84.229 10.3775C84.819 10.1475 85.249 10.7475 85.059 11.2875C84.859 11.8375 84.379 12.3375 84.059 12.8275C83.789 13.2375 83.429 13.6875 83.399 14.2075C83.379 14.5175 83.489 14.8375 83.739 14.9975C83.749 15.0275 83.729 15.0475 83.749 15.0775C84.219 15.9075 84.599 16.7875 84.869 17.7075C84.999 18.1475 85.109 18.5875 85.209 19.0375C85.309 19.5175 85.349 19.9975 85.479 20.4675C85.519 20.6075 85.759 20.6275 85.779 20.4675C85.849 19.9675 85.789 19.4875 85.719 18.9975C85.649 18.5075 85.549 18.0275 85.419 17.5575C85.189 16.7675 84.859 16.0175 84.489 15.2875C84.629 15.2775 84.779 15.2375 84.899 15.1475C85.249 14.8975 85.449 14.4375 85.629 14.0575C85.859 13.5875 86.069 13.1175 86.309 12.6575C86.549 12.1975 86.819 11.7675 87.159 11.3775C87.459 11.0275 87.749 10.6775 87.819 10.2075C87.929 9.5875 87.889 8.3975 87.319 7.9575ZM77.819 7.8375C77.779 7.8475 77.599 7.8375 77.559 7.8375L74.949 7.8675C74.239 7.8775 73.529 7.8875 72.819 7.8875C72.079 7.8875 71.339 7.9675 70.599 7.9275C70.499 7.9275 70.409 7.8975 70.339 7.8675C70.239 7.8175 70.119 7.7775 70.049 7.6875C70.009 7.6275 70.019 7.5375 70.059 7.4775C70.089 7.4375 70.199 7.3675 70.239 7.3575C70.679 7.2675 71.069 7.2075 71.509 7.1975C72.589 7.1675 73.659 7.1675 74.739 7.1675C74.849 7.1675 74.909 7.0875 74.929 7.0075L74.939 6.9975C74.939 6.9875 74.939 6.9875 74.939 6.9775C74.939 6.9575 74.949 6.9475 74.949 6.9275C75.099 6.0175 75.299 5.0775 75.729 4.2475C76.099 3.5275 76.699 2.9575 77.369 2.5175C78.069 2.0575 78.859 1.6975 79.679 1.5075C80.159 1.3975 80.639 1.3675 81.129 1.3775C81.539 1.3875 81.949 1.3775 82.369 1.4375C82.639 1.4875 82.899 1.5475 83.159 1.6375C83.969 1.9175 84.689 2.4075 85.249 3.0475C85.869 3.7475 86.379 4.5275 86.609 5.4375C86.729 5.9075 86.809 6.3875 86.839 6.8675C86.859 7.1675 86.829 7.4875 86.859 7.7975C85.309 7.8175 79.049 7.8275 77.819 7.8375ZM86.799 11.0375C86.579 11.2975 86.369 11.5775 86.189 11.8775C85.819 12.4875 85.549 13.1475 85.209 13.7775C85.059 14.0575 84.909 14.3875 84.669 14.6075C84.519 14.7475 84.359 14.7675 84.209 14.7275C84.159 14.6775 84.109 14.6475 84.049 14.6375C83.809 14.1875 84.149 13.6975 84.409 13.2975C84.719 12.8175 85.079 12.3675 85.379 11.8775C85.639 11.4575 85.779 10.9775 85.579 10.5075C85.409 10.0975 85.029 9.7975 84.579 9.7475C84.119 9.6875 83.699 9.8875 83.439 10.2675C83.309 10.4575 83.219 10.7075 83.049 10.8675C82.919 10.9875 82.729 11.0775 82.619 10.8675C82.559 10.7575 82.589 10.5775 82.599 10.4575C82.629 9.9175 82.779 9.3775 82.619 8.8475C82.549 8.6275 82.439 8.4175 82.279 8.2575C84.159 8.2575 85.909 8.2575 86.829 8.2575C86.929 8.4875 87.049 8.7075 87.119 8.9675C87.209 9.2875 87.279 9.6375 87.289 9.9775C87.339 10.4275 87.089 10.7075 86.799 11.0375Z" fill="black" stroke="black" stroke-width="0.25" stroke-miterlimit="10"/>
<path d="M95.0326 53.6986C94.9026 53.3486 94.3326 53.4986 94.4626 53.8586C95.2226 55.9886 94.7326 58.3486 94.3426 60.5186C93.9426 62.7086 93.1626 64.5686 91.2126 65.8186C89.3426 67.0186 87.1026 67.5286 84.9126 67.5586C82.5026 67.5886 80.0926 67.4186 77.6926 67.2486C75.2526 67.0786 72.8226 66.8586 70.3926 66.5886C67.9426 66.3086 65.4226 66.0986 63.0226 65.5286C61.7626 65.2286 59.4826 64.0686 58.7826 65.8686C58.4226 66.7986 58.5626 67.9986 58.5326 68.9786C58.4926 70.1986 58.4826 71.4186 58.4726 72.6386C58.4426 75.3586 58.4326 78.0886 58.4726 80.8086C58.4926 82.2186 58.5226 83.6286 58.5626 85.0386C58.5826 85.8886 58.5826 86.7486 58.6626 87.6086C58.6726 87.7786 58.6826 87.9286 58.6826 88.0586C58.6826 88.2586 58.6426 88.4186 58.6526 88.6186C57.5926 88.6686 56.5326 88.7386 55.4726 88.8286C55.4026 88.6086 55.3326 88.3986 55.2626 88.1786C54.8226 84.7186 54.1026 81.2886 53.5426 77.8586C52.9126 74.0086 52.4226 70.1286 51.9626 66.2486C51.7426 64.3486 51.5526 62.4386 51.3626 60.5286C51.1826 58.7286 51.1326 56.8286 52.8726 55.7586C54.4626 54.7886 56.4026 54.9986 58.1626 55.2686C60.0226 55.5586 61.8726 55.8286 63.7426 56.0386C67.9726 56.5186 72.2226 56.7686 76.4826 56.8086C76.8826 56.8086 76.8826 56.1886 76.4826 56.1886C72.4126 56.1586 68.3426 55.9186 64.2926 55.4786C62.2526 55.2486 60.2226 54.9586 58.1926 54.6486C56.5226 54.3986 54.7726 54.2186 53.1826 54.9086C51.8326 55.4886 50.8926 56.5986 50.6826 58.0686C50.4226 59.8586 50.8526 61.8286 51.0726 63.6086C51.5626 67.5786 52.0426 71.5486 52.6326 75.5086C53.2726 79.8386 53.7926 84.2886 54.8826 88.5386C54.9026 88.6586 54.9326 88.7786 54.9626 88.8986C54.9726 88.9486 54.9826 88.9986 54.9926 89.0486L55.0026 89.0586C55.0126 89.0986 55.0226 89.1386 55.0326 89.1686C55.0626 89.2686 55.1626 89.3686 55.2826 89.3586C56.3226 89.2686 57.3726 89.2086 58.4226 89.1786C58.4026 89.3186 58.4026 89.4586 58.4126 89.5986C58.4226 89.7386 58.5226 89.8286 58.6526 89.8386C59.2626 89.8786 59.8726 89.9286 60.4826 89.9486C60.6326 89.9586 60.7726 89.8086 60.7726 89.6586C60.7226 85.5286 60.7126 81.3986 60.7026 77.2686C60.6926 75.2286 60.6126 73.1886 60.6426 71.1386C60.6526 70.0986 60.6726 69.0486 60.6726 68.0086C60.6726 67.5386 60.6626 67.0586 60.6526 66.5886C60.6526 66.1986 60.6526 65.9086 60.6626 65.5286C61.0326 65.6186 61.3126 65.6786 61.6726 65.7886C62.7726 66.1186 63.8726 66.3386 65.0126 66.5086C69.8226 67.2186 74.6626 67.7186 79.5226 67.9986C83.6126 68.2286 88.5426 68.8786 91.9926 66.1586C93.7226 64.7986 94.5626 62.7986 94.9526 60.6886C95.3726 58.4786 95.8626 55.8486 95.0326 53.6986ZM60.1826 66.4486C60.1826 66.9686 60.1726 67.4886 60.1726 68.0186C60.1726 69.0586 60.2026 70.1086 60.2226 71.1486C60.2626 73.1886 60.1926 75.2286 60.2026 77.2786C60.2126 81.3086 60.2226 85.3486 60.2026 89.3786C59.7626 89.3686 59.3126 89.3686 58.8726 89.3586C58.8626 89.2986 58.8426 89.2286 58.8326 89.1586C58.8726 89.1586 58.9126 89.1586 58.9526 89.1586C59.0026 89.1586 59.0426 89.1286 59.0926 89.0986H59.1026C59.1826 89.0486 59.2526 88.9786 59.2426 88.8786C59.2326 88.7886 59.2726 88.6586 59.2626 88.5786C59.3126 87.5386 59.2426 86.6086 59.2126 85.6086C59.1826 84.3386 59.1526 83.0686 59.1326 81.8086C59.0926 79.3686 59.0926 76.9186 59.1126 74.4786C59.1326 71.9886 59.1826 69.4986 59.2926 67.0086C59.3226 66.3486 59.4226 65.6486 60.2026 65.5386C60.2326 65.5386 60.2526 65.5386 60.2826 65.5386C60.1626 65.8286 60.1826 66.0886 60.1826 66.4486Z" fill="black" stroke="black" stroke-width="0.25" stroke-miterlimit="10"/>
<path d="M59.3992 91.9797C59.3092 91.5797 59.1892 91.0997 58.9392 90.7597C58.9392 90.7597 58.9292 90.7597 58.9292 90.7497C58.9192 90.6897 58.9492 90.5497 58.9392 90.4997C58.9292 90.3697 58.9192 90.2597 58.9392 90.1297C58.9692 89.9197 59.0092 89.6997 58.8792 89.5197C58.8292 89.4597 58.7192 89.4197 58.6592 89.4897C58.5092 89.6697 58.5292 89.8797 58.5492 90.1097C58.5592 90.2297 58.5592 90.3297 58.5392 90.4497C58.5292 90.5097 58.5192 90.5697 58.5192 90.6297C58.5192 90.6297 58.5192 90.6397 58.5192 90.6497C58.1892 90.6197 57.8592 90.6297 57.5392 90.6197C57.1292 90.6097 56.7292 90.5797 56.3192 90.5697C56.1192 90.5597 55.9292 90.5597 55.7292 90.5597C55.7092 90.5597 55.6792 90.5597 55.6392 90.5597C55.6392 90.4797 55.6392 90.3997 55.6392 90.3197C55.6292 89.9097 55.6392 89.4997 55.5492 89.0997C55.5092 88.9197 55.2092 88.9097 55.1792 89.0997C55.1092 89.5497 55.1392 90.0197 55.1592 90.4697C55.1292 90.5097 55.0892 90.5497 55.0792 90.6197C55.0392 90.9297 54.5292 91.1997 54.2992 91.3597C53.9792 91.5797 53.6392 91.7797 53.2592 91.8797C52.5092 92.0897 51.8192 92.3897 51.1092 92.7197C50.4592 93.0197 49.8292 93.3497 49.2692 93.7997C48.8492 94.1297 48.1992 94.6997 48.2192 95.2797C48.2192 95.3197 48.2692 95.3497 48.3092 95.3297C48.5892 95.1497 48.7492 94.8597 48.9792 94.6297C49.2392 94.3697 49.5192 94.1297 49.8192 93.9297C50.4992 93.4697 51.2592 93.1297 52.0092 92.7997C52.3792 92.6397 52.7592 92.4997 53.1292 92.3397C53.4992 92.1897 53.8792 92.1097 54.2492 91.9497C54.6792 91.7597 55.2892 91.4497 55.5292 90.9897C55.5792 90.9897 55.6192 90.9997 55.6592 91.0097C55.7792 91.0297 55.8992 91.0397 56.0192 91.0497C56.4692 91.0997 56.9192 91.1197 57.3692 91.1297C57.7492 91.1397 58.1292 91.1497 58.5092 91.1297C58.5892 91.4397 58.7092 91.7497 58.7892 92.0597C58.8892 92.4297 58.9092 92.7997 58.8792 93.1797C58.8492 93.5397 58.8192 93.8997 58.7492 94.2497C58.6792 94.6197 58.5292 94.9597 58.3992 95.3097C58.3292 95.4897 58.5892 95.6097 58.7092 95.4897C59.2692 94.9497 59.3492 93.9897 59.4392 93.2597C59.4992 92.8297 59.4892 92.4097 59.3992 91.9797Z" fill="black" stroke="black" stroke-width="0.25" stroke-miterlimit="10"/>
<path d="M60.8525 91.7444C60.8125 91.6344 60.7225 91.5744 60.6125 91.5744C60.5925 91.5244 60.5625 91.4844 60.5125 91.4744C60.4625 91.4644 60.4125 91.4644 60.3625 91.4544C60.3725 91.3344 60.3825 91.2044 60.3725 91.0744C60.3725 90.9344 60.3625 90.7944 60.3625 90.6544C60.3525 90.5044 60.3425 90.3544 60.3125 90.2144C60.2825 90.0844 60.2525 89.9444 60.2225 89.8144C60.2025 89.7444 60.1225 89.6944 60.0525 89.7044C59.9725 89.7144 59.9225 89.7744 59.9125 89.8544C59.9025 89.9944 59.8825 90.1344 59.8625 90.2744C59.8425 90.4044 59.8525 90.5344 59.8525 90.6744C59.8525 90.9244 59.8425 91.1844 59.8625 91.4344C59.8425 91.4344 59.8225 91.4344 59.8025 91.4344C59.6925 91.4344 59.5825 91.4444 59.4725 91.4544C59.4025 91.4544 59.3525 91.4644 59.2925 91.4944C59.2425 91.5144 59.1825 91.5444 59.1325 91.5644C59.0425 91.6044 59.0725 91.7344 59.1625 91.7644C59.2725 91.7944 59.3725 91.8244 59.4925 91.8244C59.6025 91.8244 59.7025 91.8244 59.8125 91.8244C60.0025 91.8244 60.1925 91.8244 60.3825 91.8244C60.4625 92.4444 60.5525 93.0444 60.4825 93.6644C60.4525 93.9644 60.3825 94.2644 60.2925 94.5544C60.1925 94.8544 60.0725 95.1344 60.0125 95.4544C59.9825 95.5844 60.1425 95.6844 60.2425 95.5844C60.7225 95.1344 60.8925 94.3944 60.9925 93.7644C61.0825 93.1044 61.1025 92.3744 60.8525 91.7444Z" fill="black" stroke="black" stroke-width="0.25" stroke-miterlimit="10"/>
<path d="M49.167 38.2686C49.127 38.2186 48.947 38.0186 48.847 37.9186C48.547 37.7086 48.177 37.5586 47.887 37.4786C46.737 37.1486 45.447 37.4386 44.257 37.3286C42.417 37.1586 40.547 36.8186 38.807 37.3086C38.177 37.4286 37.547 37.6986 37.047 38.1086C36.887 38.2386 36.997 38.4786 37.157 38.5286C37.847 38.7486 38.537 38.9786 39.217 39.2186C39.557 39.3386 39.897 39.4586 40.237 39.5886C40.377 39.6386 40.527 39.6986 40.667 39.7686C40.627 39.7786 40.587 39.7786 40.557 39.7886C40.297 39.8386 40.047 39.9186 39.807 40.0186C39.317 40.2286 38.877 40.5486 38.497 40.9186C38.137 41.2786 37.807 41.7186 37.727 42.2386C37.677 42.5286 37.727 42.8286 37.847 43.0986C37.847 43.1286 37.837 43.1486 37.847 43.1786C38.367 44.3786 39.867 44.2886 40.887 43.8886C41.597 43.6186 42.267 43.2986 43.017 43.1486C43.217 43.1086 43.417 43.0786 43.617 43.0586C43.977 43.0786 44.337 43.0886 44.707 43.1186C45.237 43.1586 45.757 43.2086 46.287 43.2186C47.107 43.2286 48.017 43.1086 48.727 42.6686C49.057 42.4586 49.347 42.1786 49.547 41.8386C49.777 41.4386 49.827 41.0686 49.867 40.6186C49.957 39.7386 49.647 38.8986 49.167 38.2686ZM48.047 42.4686C47.297 42.7586 46.477 42.7186 45.687 42.6386C45.017 42.5786 44.617 42.5986 43.827 42.5886C43.787 42.5886 43.387 42.6186 43.357 42.6286C42.707 42.6986 42.157 42.8886 41.547 43.1286C40.687 43.4686 39.307 44.0386 38.517 43.3386C38.507 43.3086 38.507 43.2786 38.477 43.2586C38.177 42.9986 38.117 42.5686 38.227 42.1986C38.347 41.7786 38.647 41.4386 38.967 41.1586C39.287 40.8586 39.657 40.6286 40.057 40.4486C40.257 40.3586 40.467 40.2886 40.677 40.2386C40.857 40.1986 41.137 40.1886 41.257 40.0486C41.367 40.0086 41.447 39.8986 41.357 39.7786C41.157 39.5186 40.907 39.3786 40.607 39.2486C40.247 39.0986 39.887 38.9686 39.527 38.8286C38.947 38.6186 38.367 38.4186 37.777 38.2286C37.907 38.1386 38.037 38.0286 38.177 37.9486C38.277 37.8986 38.387 37.8586 38.497 37.8186C39.107 37.6586 39.727 37.5286 40.347 37.4886C41.427 37.4186 42.547 37.5286 43.617 37.6786C44.637 37.8186 45.587 37.7786 46.607 37.7386C47.137 37.7186 47.667 37.8086 48.147 38.0686C48.357 38.1786 48.597 38.3086 48.727 38.4786C48.987 38.6986 49.127 38.9986 49.237 39.3286C49.377 39.7286 49.447 40.2386 49.437 40.6586C49.427 41.4586 48.777 42.1786 48.047 42.4686Z" fill="black" stroke="black" stroke-width="0.25" stroke-miterlimit="10"/>
</svg>
