<svg width="13" height="12" viewBox="0 0 13 12" fill="none" xmlns="http://www.w3.org/2000/svg">
<path d="M12.5004 10.7667L10.3362 8.62002C11.1763 7.57259 11.5831 6.24311 11.4731 4.90494C11.363 3.56678 10.7444 2.32164 9.74447 1.42556C8.74455 0.529481 7.4393 0.0505666 6.09712 0.0872935C4.75494 0.12402 3.47784 0.673597 2.52841 1.62302C1.57899 2.57244 1.02942 3.84954 0.992689 5.19172C0.955962 6.53391 1.43488 7.83915 2.33096 8.83907C3.22704 9.83899 4.47217 10.4576 5.81034 10.5677C7.1485 10.6777 8.47799 10.2709 9.52541 9.43085L11.6721 11.5775C11.7263 11.6322 11.7908 11.6756 11.8619 11.7052C11.933 11.7348 12.0092 11.7501 12.0862 11.7501C12.1633 11.7501 12.2395 11.7348 12.3106 11.7052C12.3817 11.6756 12.4462 11.6322 12.5004 11.5775C12.6056 11.4687 12.6643 11.3234 12.6643 11.1721C12.6643 11.0208 12.6056 10.8755 12.5004 10.7667ZM6.25291 9.43085C5.44531 9.43085 4.65584 9.19137 3.98434 8.74269C3.31284 8.29401 2.78946 7.65628 2.48041 6.91014C2.17135 6.16401 2.09048 5.34299 2.24804 4.5509C2.4056 3.75881 2.7945 3.03123 3.36556 2.46017C3.93663 1.8891 4.66421 1.5002 5.4563 1.34265C6.24838 1.18509 7.06941 1.26595 7.81554 1.57501C8.56167 1.88407 9.1994 2.40744 9.64808 3.07894C10.0968 3.75044 10.3362 4.53991 10.3362 5.34752C10.3362 6.43049 9.90604 7.4691 9.14027 8.23487C8.37449 9.00065 7.33588 9.43085 6.25291 9.43085Z" fill="#ACB8C1"/>
</svg>
