<svg width="178" height="177" viewBox="0 0 178 177" fill="none" xmlns="http://www.w3.org/2000/svg">
<path d="M27.8125 60.8438H150.188V33.1875C150.188 31.7205 149.601 30.3136 148.558 29.2763C147.515 28.239 146.1 27.6562 144.625 27.6562H33.375C31.8997 27.6562 30.4849 28.239 29.4417 29.2763C28.3985 30.3136 27.8125 31.7205 27.8125 33.1875V60.8438Z" fill="#FCD400"/>
<path d="M144.625 22.125H127.938V16.5938C127.938 15.1268 127.351 13.7199 126.308 12.6826C125.265 11.6453 123.85 11.0625 122.375 11.0625C120.9 11.0625 119.485 11.6453 118.442 12.6826C117.399 13.7199 116.812 15.1268 116.812 16.5938V22.125H61.1875V16.5938C61.1875 15.1268 60.6015 13.7199 59.5583 12.6826C58.5151 11.6453 57.1003 11.0625 55.625 11.0625C54.1497 11.0625 52.7349 11.6453 51.6917 12.6826C50.6485 13.7199 50.0625 15.1268 50.0625 16.5938V22.125H33.375C30.4255 22.1284 27.5978 23.2949 25.5122 25.3688C23.4266 27.4427 22.2534 30.2546 22.25 33.1875V143.812C22.2534 146.745 23.4266 149.557 25.5122 151.631C27.5978 153.705 30.4255 154.872 33.375 154.875H144.625C147.574 154.872 150.402 153.705 152.488 151.631C154.573 149.557 155.747 146.745 155.75 143.812V33.1875C155.747 30.2546 154.573 27.4427 152.488 25.3688C150.402 23.2949 147.574 22.1284 144.625 22.125ZM50.0625 33.1875V38.7188C50.0625 40.1857 50.6485 41.5926 51.6917 42.6299C52.7349 43.6672 54.1497 44.25 55.625 44.25C57.1003 44.25 58.5151 43.6672 59.5583 42.6299C60.6015 41.5926 61.1875 40.1857 61.1875 38.7188V33.1875H116.812V38.7188C116.812 40.1857 117.399 41.5926 118.442 42.6299C119.485 43.6672 120.9 44.25 122.375 44.25C123.85 44.25 125.265 43.6672 126.308 42.6299C127.351 41.5926 127.938 40.1857 127.938 38.7188V33.1875H144.625L144.626 55.3125H33.375V33.1875H50.0625ZM144.625 143.812H33.375V66.375H144.627L144.632 143.812H144.625Z" fill="#2D2A2E"/>
<path d="M94.1875 81.56L93.1635 112.472H85.6115L84.5235 81.56H94.1875ZM89.5795 127.448C87.9582 127.448 86.6142 126.957 85.5475 125.976C84.5235 124.952 84.0115 123.693 84.0115 122.2C84.0115 120.707 84.5235 119.469 85.5475 118.488C86.6142 117.464 87.9582 116.952 89.5795 116.952C91.1582 116.952 92.4595 117.464 93.4835 118.488C94.5075 119.469 95.0195 120.707 95.0195 122.2C95.0195 123.693 94.5075 124.952 93.4835 125.976C92.4595 126.957 91.1582 127.448 89.5795 127.448Z" fill="#2D2A2E"/>
</svg>
