<svg width="20" height="20" viewBox="0 0 20 20" fill="none" xmlns="http://www.w3.org/2000/svg">
<g clip-path="url(#clip0_311_67)">
<path fill-rule="evenodd" clip-rule="evenodd" d="M14.9964 12.7773H13.8853V14.9996C13.8853 15.1473 13.9441 15.2884 14.0475 15.3929L15.333 16.6773L16.1186 15.8918L14.9964 14.7696V12.7773Z" fill="black"/>
<path fill-rule="evenodd" clip-rule="evenodd" d="M14.4409 18.8889C12.2965 18.8889 10.552 17.1444 10.552 15C10.552 12.8556 12.2965 11.1111 14.4409 11.1111C16.5854 11.1111 18.3298 12.8556 18.3298 15C18.3298 17.1444 16.5854 18.8889 14.4409 18.8889ZM14.4409 10C11.6843 10 9.44092 12.2433 9.44092 15C9.44092 17.7567 11.6843 20 14.4409 20C17.1976 20 19.4409 17.7567 19.4409 15C19.4409 12.2433 17.1976 10 14.4409 10Z" fill="black"/>
<path fill-rule="evenodd" clip-rule="evenodd" d="M16.1076 4.44445H1.66311V2.77778C1.66311 2.47111 1.91311 2.22222 2.21867 2.22222H3.88534V2.77778C3.88534 3.08445 4.13423 3.33333 4.44089 3.33333C4.74755 3.33333 4.99644 3.08445 4.99644 2.77778V2.22222H12.7742V2.77778C12.7742 3.08445 13.0231 3.33333 13.3298 3.33333C13.6364 3.33333 13.8853 3.08445 13.8853 2.77778V2.22222H15.552C15.8576 2.22222 16.1076 2.47111 16.1076 2.77778V4.44445ZM15.552 1.11111H13.8853V0.555552C13.8853 0.248885 13.6364 0 13.3298 0C13.0231 0 12.7742 0.248885 12.7742 0.555552V1.11111H4.99644V0.555552C4.99644 0.248885 4.74755 0 4.44089 0C4.13423 0 3.88534 0.248885 3.88534 0.555552V1.11111H2.21867C1.29978 1.11111 0.552002 1.85889 0.552002 2.77778V18.8889H8.32977V17.7778H1.66311V5.55555H16.1076V8.88889H17.2187V2.77778C17.2187 1.85889 16.4709 1.11111 15.552 1.11111Z" fill="black"/>
</g>
<defs>
<clipPath id="clip0_311_67">
<rect width="20" height="20" fill="white"/>
</clipPath>
</defs>
</svg>
