<svg width="396" height="374" viewBox="0 0 396 374" fill="none" xmlns="http://www.w3.org/2000/svg">
<g clip-path="url(#clip0_38_4)">
<path d="M159.555 188.33C159.555 191.285 157.195 193.649 154.245 193.649H134.317C131.367 193.649 129.007 191.285 129.007 188.33V168.369C129.007 165.415 131.367 163.051 134.317 163.051H154.245C157.195 163.051 159.555 165.415 159.555 168.369V188.33ZM201.182 168.435C201.182 165.48 198.822 163.116 195.872 163.116H175.943C172.993 163.116 170.633 165.48 170.633 168.435V188.396C170.633 191.351 172.993 193.715 175.943 193.715H195.872C198.822 193.715 201.182 191.351 201.182 188.396V168.435ZM242.808 168.435C242.808 165.48 240.448 163.116 237.498 163.116H217.57C214.62 163.116 212.26 165.48 212.26 168.435V188.396C212.26 191.351 214.62 193.715 217.57 193.715H237.498C240.448 193.715 242.808 191.351 242.808 188.396V168.435ZM159.555 209.014C159.555 206.059 157.195 203.695 154.245 203.695H134.317C131.367 203.695 129.007 206.059 129.007 209.014V228.975C129.007 231.929 131.367 234.293 134.317 234.293H154.245C157.195 234.293 159.555 231.929 159.555 228.975V209.014ZM201.182 209.014C201.182 206.059 198.822 203.695 195.872 203.695H175.943C172.993 203.695 170.633 206.059 170.633 209.014V228.975C170.633 231.929 172.993 234.293 175.943 234.293H195.872C198.822 234.293 201.182 231.929 201.182 228.975V209.014ZM237.498 203.695H217.57C214.62 203.695 212.26 206.059 212.26 209.014V228.975C212.26 231.929 214.62 234.293 217.57 234.293H237.498C240.448 234.293 242.808 231.929 242.808 228.975V209.014C242.808 206.059 240.448 203.695 237.498 203.695ZM112.553 244.274H92.6899C89.7399 244.274 87.38 246.638 87.38 249.592V269.553C87.38 272.508 89.7399 274.872 92.6899 274.872H112.618C115.568 274.872 117.928 272.508 117.928 269.553V249.592C117.928 246.638 115.503 244.274 112.553 244.274ZM117.928 209.014C117.928 206.059 115.568 203.695 112.618 203.695H92.6899C89.7399 203.695 87.38 206.059 87.38 209.014V228.975C87.38 231.929 89.7399 234.293 92.6899 234.293H112.618C115.568 234.293 117.928 231.929 117.928 228.975V209.014V209.014ZM195.872 244.274H175.943C172.993 244.274 170.633 246.638 170.633 249.592V269.553C170.633 272.508 172.993 274.872 175.943 274.872H195.872C198.822 274.872 201.182 272.508 201.182 269.553V249.592C201.182 246.638 198.822 244.274 195.872 244.274ZM154.245 244.274H134.317C131.367 244.274 129.007 246.638 129.007 249.592V269.553C129.007 272.508 131.367 274.872 134.317 274.872H154.245C157.195 274.872 159.555 272.508 159.555 269.553V249.592C159.555 246.638 157.195 244.274 154.245 244.274ZM279.125 193.715C282.075 193.715 284.435 191.351 284.435 188.396V168.435C284.435 165.48 282.075 163.116 279.125 163.116H259.197C256.247 163.116 253.887 165.48 253.887 168.435V188.396C253.887 191.351 256.247 193.715 259.197 193.715H279.125ZM74.2692 318.208H225.502C223.077 310.592 221.7 302.45 221.634 294.045H74.2692C70.336 294.045 67.1894 290.828 67.1894 286.954V144.272H304.298V210.655C312.689 210.721 320.817 211.968 328.422 214.398V94.3034C328.422 77.0345 314.393 62.983 297.152 62.983H262.147V43.6785C262.147 37.3751 257.033 32.2535 250.74 32.2535H232.975C226.682 32.2535 221.569 37.3751 221.569 43.6785V63.0486H149.853V43.6785C149.853 37.3751 144.74 32.2535 138.446 32.2535H120.681C114.388 32.2535 109.275 37.3751 109.275 43.6785V63.0486H74.2692C57.0285 63.0486 43 77.1001 43 94.369V286.954C43 304.157 57.0285 318.208 74.2692 318.208ZM363.69 293.126C363.69 326.153 336.944 352.943 303.97 352.943C270.996 352.943 244.25 326.153 244.25 293.126C244.25 260.098 270.996 233.308 303.97 233.308C336.944 233.308 363.69 260.098 363.69 293.126ZM334.125 277.63C334.125 275.725 333.404 273.887 332.027 272.574C329.208 269.75 324.685 269.75 321.866 272.574L295.907 298.576L285.943 288.595C283.124 285.772 278.601 285.772 275.782 288.595C274.405 289.974 273.684 291.747 273.684 293.651C273.684 295.555 274.405 297.394 275.782 298.707L290.794 313.743C293.613 316.567 298.136 316.567 300.955 313.743L331.962 282.686C333.404 281.372 334.125 279.534 334.125 277.63Z" fill="#ACB8C1"/>
</g>
<defs>
<clipPath id="clip0_38_4">
<rect width="310" height="310" fill="white" transform="translate(43 32)"/>
</clipPath>
</defs>
</svg>
