<svg width="12" height="12" viewBox="0 0 12 12" fill="none" xmlns="http://www.w3.org/2000/svg">
<path d="M10.3401 6.58346C10.2117 6.58346 10.0776 6.54263 9.94923 6.51346C9.68934 6.45619 9.43395 6.38016 9.18506 6.28596C8.91444 6.18751 8.61698 6.19262 8.34991 6.30031C8.08283 6.408 7.86502 6.61066 7.73839 6.86929L7.61006 7.13179C7.04189 6.81573 6.5198 6.42318 6.05839 5.96513C5.60034 5.50372 5.20779 4.98163 4.89173 4.41346L5.13673 4.25013C5.39536 4.12349 5.59802 3.90569 5.70571 3.63861C5.8134 3.37154 5.81851 3.07408 5.72006 2.80346C5.62744 2.55404 5.55144 2.29876 5.49256 2.03929C5.46339 1.91096 5.44006 1.77679 5.42256 1.64263C5.35172 1.23174 5.13651 0.859643 4.81567 0.593349C4.49484 0.327056 4.08946 0.184065 3.67256 0.190126H1.92256C1.67116 0.187766 1.4222 0.239601 1.19264 0.342103C0.963074 0.444604 0.75829 0.595366 0.592227 0.784124C0.426163 0.972883 0.302721 1.19521 0.230302 1.43596C0.157883 1.67671 0.138188 1.93024 0.172559 2.17929C0.483323 4.6231 1.59941 6.89372 3.34452 8.6325C5.08964 10.3713 7.36431 11.4791 9.80923 11.781H10.0309C10.4611 11.7816 10.8764 11.6238 11.1976 11.3376C11.3821 11.1726 11.5295 10.9702 11.6301 10.744C11.7306 10.5177 11.782 10.2727 11.7809 10.0251V8.27513C11.7737 7.86994 11.6262 7.47978 11.3634 7.17127C11.1007 6.86275 10.739 6.65499 10.3401 6.58346ZM10.6317 10.0835C10.6316 10.1663 10.6139 10.2481 10.5797 10.3236C10.5455 10.399 10.4956 10.4663 10.4334 10.521C10.3682 10.5772 10.292 10.6193 10.2096 10.6444C10.1273 10.6695 10.0406 10.6771 9.95506 10.6668C7.77042 10.3867 5.7412 9.38724 4.18748 7.82613C2.63376 6.26502 1.64396 4.23107 1.37423 2.04513C1.36494 1.95968 1.37308 1.87324 1.39814 1.79102C1.42321 1.70881 1.46468 1.63253 1.52006 1.56679C1.57472 1.50457 1.64201 1.4547 1.71745 1.4205C1.79288 1.38631 1.87473 1.36856 1.95756 1.36846H3.70756C3.84321 1.36544 3.97567 1.40981 4.08214 1.49392C4.18861 1.57803 4.26243 1.69663 4.29089 1.82929C4.31423 1.98874 4.34339 2.14624 4.37839 2.30179C4.44578 2.60929 4.53546 2.91148 4.64673 3.20596L3.83006 3.58513C3.76023 3.61716 3.69742 3.66268 3.64523 3.71906C3.59305 3.77544 3.55251 3.84157 3.52595 3.91366C3.49939 3.98575 3.48733 4.06237 3.49047 4.13913C3.49361 4.21589 3.51187 4.29128 3.54423 4.36096C4.38376 6.15923 5.82929 7.60476 7.62756 8.44429C7.76958 8.50264 7.92887 8.50264 8.07089 8.44429C8.14364 8.41827 8.2105 8.37806 8.26758 8.32599C8.32465 8.27391 8.37082 8.21102 8.40339 8.14096L8.76506 7.32429C9.06662 7.43214 9.3744 7.52174 9.68673 7.59263C9.84228 7.62763 9.99978 7.65679 10.1592 7.68013C10.2919 7.70859 10.4105 7.78241 10.4946 7.88888C10.5787 7.99535 10.6231 8.12781 10.6201 8.26346L10.6317 10.0835Z" fill="#50616E" stroke="white" stroke-width="0.2"/>
</svg>
