<svg width="24" height="24" viewBox="0 0 24 24" fill="none" xmlns="http://www.w3.org/2000/svg">
<path d="M24 12C24 18.6274 18.6274 24 12 24C5.37258 24 0 18.6274 0 12C0 5.37258 5.37258 0 12 0C18.6274 0 24 5.37258 24 12Z" fill="#FCD400"/>
<path d="M15.7605 12.5159C15.6501 12.5159 15.5347 12.4807 15.4243 12.4555C15.2008 12.4061 14.9811 12.3405 14.767 12.2593C14.5342 12.1743 14.2783 12.1787 14.0485 12.2716C13.8188 12.3646 13.6314 12.5394 13.5225 12.7625L13.4121 12.989C12.9234 12.7163 12.4742 12.3776 12.0773 11.9825C11.6833 11.5844 11.3456 11.134 11.0737 10.6438L11.2845 10.5029C11.5069 10.3936 11.6813 10.2057 11.7739 9.9753C11.8666 9.74488 11.871 9.48825 11.7863 9.25478C11.7066 9.03959 11.6412 8.81935 11.5906 8.5955C11.5655 8.48479 11.5454 8.36904 11.5303 8.25329C11.4694 7.8988 11.2843 7.57778 11.0083 7.34803C10.7323 7.11829 10.3836 6.99493 10.0249 7.00016H8.51954C8.30328 6.99812 8.08912 7.04284 7.89164 7.13128C7.69416 7.21971 7.518 7.34977 7.37515 7.51262C7.23229 7.67547 7.1261 7.86728 7.06381 8.07499C7.00151 8.28269 6.98457 8.50142 7.01413 8.71629C7.28146 10.8246 8.24156 12.7836 9.74276 14.2837C11.244 15.7838 13.2007 16.7396 15.3039 17H15.4946C15.8646 17.0005 16.2219 16.8644 16.4982 16.6175C16.6569 16.4751 16.7838 16.3006 16.8703 16.1054C16.9568 15.9102 17.001 15.6988 17 15.4852V13.9754C16.9938 13.6258 16.8669 13.2892 16.6409 13.023C16.4148 12.7569 16.1037 12.5776 15.7605 12.5159ZM16.0114 15.5355C16.0113 15.607 15.9961 15.6776 15.9667 15.7427C15.9372 15.8077 15.8944 15.8658 15.8408 15.913C15.7849 15.9618 15.7194 15.9982 15.6485 16.0199C15.5776 16.0416 15.5029 16.048 15.4293 16.0388C13.55 15.7971 11.8045 14.9349 10.4679 13.588C9.13133 12.2412 8.27988 10.4864 8.04785 8.60054C8.03986 8.52682 8.04686 8.45224 8.06842 8.38131C8.08998 8.31038 8.12566 8.24457 8.1733 8.18786C8.22032 8.13418 8.2782 8.09115 8.34309 8.06165C8.40799 8.03215 8.4784 8.01684 8.54965 8.01675H10.0551C10.1717 8.01415 10.2857 8.05242 10.3773 8.12499C10.4689 8.19755 10.5324 8.29987 10.5569 8.41433C10.5769 8.55189 10.602 8.68777 10.6321 8.82197C10.6901 9.08726 10.7672 9.34797 10.863 9.60203L10.1604 9.92915C10.1004 9.95679 10.0463 9.99606 10.0014 10.0447C9.95654 10.0933 9.92167 10.1504 9.89883 10.2126C9.87598 10.2748 9.86561 10.3409 9.8683 10.4071C9.871 10.4733 9.88672 10.5384 9.91455 10.5985C10.6367 12.1499 11.8802 13.397 13.4272 14.1213C13.5493 14.1717 13.6864 14.1717 13.8085 14.1213C13.8711 14.0989 13.9286 14.0642 13.9777 14.0193C14.0268 13.9743 14.0665 13.9201 14.0946 13.8596L14.4057 13.1551C14.6651 13.2481 14.9298 13.3254 15.1985 13.3866C15.3323 13.4168 15.4678 13.4419 15.605 13.4621C15.7191 13.4866 15.8211 13.5503 15.8935 13.6422C15.9658 13.734 16.004 13.8483 16.0014 13.9653L16.0114 15.5355Z" fill="#0D1D28"/>
</svg>
