<svg width="13" height="13" viewBox="0 0 13 13" fill="none" xmlns="http://www.w3.org/2000/svg">
<path d="M8.375 5.875H7.125V3.375C7.125 3.20924 7.05915 3.05027 6.94194 2.93306C6.82473 2.81585 6.66576 2.75 6.5 2.75C6.33424 2.75 6.17527 2.81585 6.05806 2.93306C5.94085 3.05027 5.875 3.20924 5.875 3.375V6.5C5.875 6.66576 5.94085 6.82473 6.05806 6.94194C6.17527 7.05915 6.33424 7.125 6.5 7.125H8.375C8.54076 7.125 8.69973 7.05915 8.81694 6.94194C8.93415 6.82473 9 6.66576 9 6.5C9 6.33424 8.93415 6.17527 8.81694 6.05806C8.69973 5.94085 8.54076 5.875 8.375 5.875ZM6.5 0.25C5.26387 0.25 4.0555 0.616556 3.02769 1.30331C1.99988 1.99007 1.1988 2.96619 0.725756 4.10823C0.252708 5.25027 0.128937 6.50693 0.370095 7.71931C0.611252 8.9317 1.20651 10.0453 2.08059 10.9194C2.95466 11.7935 4.06831 12.3888 5.28069 12.6299C6.49307 12.8711 7.74974 12.7473 8.89178 12.2742C10.0338 11.8012 11.0099 11.0001 11.6967 9.97231C12.3834 8.94451 12.75 7.73613 12.75 6.5C12.75 5.67924 12.5883 4.86651 12.2743 4.10823C11.9602 3.34994 11.4998 2.66095 10.9194 2.08058C10.3391 1.50022 9.65006 1.03984 8.89178 0.725753C8.13349 0.411661 7.32076 0.25 6.5 0.25ZM6.5 11.5C5.5111 11.5 4.5444 11.2068 3.72215 10.6573C2.89991 10.1079 2.25904 9.32705 1.88061 8.41342C1.50217 7.49979 1.40315 6.49445 1.59608 5.52455C1.789 4.55464 2.26521 3.66373 2.96447 2.96447C3.66373 2.2652 4.55465 1.789 5.52455 1.59607C6.49446 1.40315 7.49979 1.50216 8.41342 1.8806C9.32705 2.25904 10.1079 2.8999 10.6574 3.72215C11.2068 4.54439 11.5 5.51109 11.5 6.5C11.5 7.82608 10.9732 9.09785 10.0355 10.0355C9.09786 10.9732 7.82609 11.5 6.5 11.5Z" fill="#0D1D28"/>
</svg>
