<svg width="21" height="21" viewBox="0 0 21 21" fill="none" xmlns="http://www.w3.org/2000/svg">
<g clip-path="url(#clip0_302_6)">
<path d="M19.9787 0.583401C20.2496 0.583401 20.5093 0.702901 20.7009 0.915701C20.8924 1.1284 21 1.4169 21 1.7177L21 10.7917C21 11.0925 20.8924 11.381 20.7009 11.5938C20.5093 11.8065 20.2496 11.926 19.9787 11.926H16.9147L16.9147 0.583401H19.9787ZM2.6683 13.0602L8.5623 13.0602L8.5623 18.7315C8.5623 21 11.7039 21 11.7039 21C11.7039 21 11.7039 16.463 12.7518 15.3287C13.3197 14.7128 14.1888 12.6655 14.8721 11.926L14.8721 0.583401L4.0011 0.583401C3.5161 0.578301 3.0446 0.7616 2.6684 1.1017C2.2923 1.4419 2.035 1.9173 1.9411 2.4459L0.6134 10.3857C0.5619 10.7164 0.576701 11.0556 0.656601 11.3793C0.736501 11.703 0.8796 12.0031 1.0758 12.2584C1.2719 12.5137 1.5163 12.7179 1.7915 12.8565C2.0668 12.9951 2.3661 13.0646 2.6683 13.0602Z" fill="#F50000"/>
</g>
<defs>
<clipPath id="clip0_302_6">
<rect width="21" height="21" fill="white" transform="matrix(-1 0 0 -1 21 21)"/>
</clipPath>
</defs>
</svg>
