<svg width="20" height="24" viewBox="0 0 20 24" fill="none" xmlns="http://www.w3.org/2000/svg">
<g clip-path="url(#clip0_304_2)">
<rect width="20" height="24" fill="white"/>
<g clip-path="url(#clip1_304_2)">
<path d="M0.02132 20.4166C-0.24955 20.4166 -0.509327 20.2971 -0.700862 20.0843C-0.892397 19.8716 -1 19.5831 -1 19.2823V10.2083C-1 9.90746 -0.892397 9.61896 -0.700862 9.40624C-0.509327 9.19353 -0.24955 9.07403 0.02132 9.07403H3.08529V20.4166H0.02132ZM17.3317 7.93977H11.4377V2.26851C11.4377 0 8.29607 0 8.29607 0C8.29607 0 8.29607 4.53701 7.24819 5.67127C6.68034 6.28717 5.81119 8.33449 5.12793 9.07403V20.4166H15.9989C16.4839 20.4217 16.9554 20.2384 17.3316 19.8983C17.7077 19.5581 17.965 19.0827 18.0589 18.5541L19.3866 10.6143C19.4381 10.2836 19.4233 9.94439 19.3434 9.62072C19.2635 9.29705 19.1204 8.9969 18.9242 8.74159C18.7281 8.48628 18.4837 8.28209 18.2085 8.14351C17.9332 8.00493 17.6339 7.93537 17.3317 7.93977Z" fill="#2BD900"/>
</g>
</g>
<defs>
<clipPath id="clip0_304_2">
<rect width="20" height="24" fill="white"/>
</clipPath>
<clipPath id="clip1_304_2">
<rect width="21" height="21" fill="white" transform="translate(-1)"/>
</clipPath>
</defs>
</svg>
