<svg width="15" height="10" viewBox="0 0 15 10" fill="none" xmlns="http://www.w3.org/2000/svg">
<path d="M14.9355 4.75C13.5177 1.81875 10.8507 0 7.97311 0C5.09552 0 2.42848 1.81875 1.01074 4.75C0.972096 4.82885 0.952148 4.91396 0.952148 5C0.952148 5.08604 0.972096 5.17115 1.01074 5.25C2.42848 8.18125 5.09552 10 7.97311 10C10.8507 10 13.5177 8.18125 14.9355 5.25C14.9741 5.17115 14.9941 5.08604 14.9941 5C14.9941 4.91396 14.9741 4.82885 14.9355 4.75ZM7.97311 8.75C5.74824 8.75 3.64268 7.31875 2.42848 5C3.64268 2.68125 5.74824 1.25 7.97311 1.25C10.198 1.25 12.3035 2.68125 13.5177 5C12.3035 7.31875 10.198 8.75 7.97311 8.75ZM7.97311 2.5C7.41785 2.5 6.87507 2.64662 6.4134 2.92133C5.95172 3.19603 5.59189 3.58648 5.3794 4.04329C5.16692 4.50011 5.11132 5.00277 5.21964 5.48773C5.32797 5.97268 5.59535 6.41814 5.98797 6.76777C6.38059 7.1174 6.88083 7.3555 7.42541 7.45196C7.96999 7.54843 8.53447 7.49892 9.04745 7.3097C9.56044 7.12048 9.9989 6.80005 10.3074 6.38893C10.6159 5.9778 10.7805 5.49445 10.7805 5C10.7805 4.33696 10.4847 3.70107 9.95824 3.23223C9.43175 2.76339 8.71768 2.5 7.97311 2.5ZM7.97311 6.25C7.69548 6.25 7.42409 6.17669 7.19325 6.03934C6.96241 5.90199 6.7825 5.70676 6.67625 5.47835C6.57001 5.24995 6.54221 4.99861 6.59638 4.75614C6.65054 4.51366 6.78423 4.29093 6.98054 4.11612C7.17685 3.9413 7.42697 3.82225 7.69926 3.77402C7.97155 3.72579 8.25379 3.75054 8.51028 3.84515C8.76677 3.93976 8.986 4.09998 9.14024 4.30554C9.29448 4.5111 9.37681 4.75277 9.37681 5C9.37681 5.33152 9.22892 5.64946 8.96567 5.88388C8.70243 6.1183 8.34539 6.25 7.97311 6.25Z" fill="#0D1D28"/>
</svg>
