<svg width="11" height="10" viewBox="0 0 11 10" fill="none" xmlns="http://www.w3.org/2000/svg">
<path d="M6.89766 3.66266L5.11016 5.45433L4.42266 4.76683C4.38531 4.72321 4.33934 4.68779 4.28765 4.66278C4.23595 4.63777 4.17965 4.62371 4.12226 4.6215C4.06488 4.61928 4.00766 4.62895 3.95419 4.6499C3.90072 4.67084 3.85216 4.70262 3.81155 4.74322C3.77095 4.78383 3.73917 4.83239 3.71823 4.88586C3.69728 4.93933 3.68761 4.99655 3.68983 5.05393C3.69204 5.11132 3.7061 5.16762 3.73111 5.21932C3.75612 5.27101 3.79154 5.31698 3.83516 5.35433L4.81433 6.33766C4.85326 6.37628 4.89943 6.40683 4.9502 6.42757C5.00096 6.4483 5.05532 6.45881 5.11016 6.4585C5.21947 6.45804 5.32422 6.41464 5.40183 6.33766L7.48516 4.25433C7.52421 4.21559 7.55521 4.16951 7.57636 4.11874C7.59752 4.06796 7.60841 4.0135 7.60841 3.9585C7.60841 3.90349 7.59752 3.84903 7.57636 3.79826C7.55521 3.74748 7.52421 3.7014 7.48516 3.66266C7.40709 3.58506 7.30149 3.5415 7.19141 3.5415C7.08133 3.5415 6.97573 3.58506 6.89766 3.66266ZM5.76433 0.833496C4.94024 0.833496 4.13465 1.07787 3.44945 1.53571C2.76424 1.99355 2.23019 2.64429 1.91483 3.40565C1.59946 4.16701 1.51695 5.00478 1.67772 5.81304C1.83849 6.62129 2.23533 7.36372 2.81805 7.94644C3.40077 8.52916 4.14319 8.926 4.95145 9.08677C5.7597 9.24754 6.59748 9.16503 7.35884 8.84966C8.1202 8.5343 8.77094 8.00024 9.22878 7.31504C9.68662 6.62983 9.93099 5.82425 9.93099 5.00016C9.93099 4.45299 9.82322 3.91117 9.61382 3.40565C9.40443 2.90013 9.09751 2.4408 8.7106 2.05388C8.32369 1.66697 7.86436 1.36006 7.35884 1.15066C6.85332 0.94127 6.3115 0.833496 5.76433 0.833496Z" fill="#04A971"/>
<path d="M6.8976 3.66267L5.1101 5.45433L4.4226 4.76683C4.38524 4.72322 4.33928 4.68779 4.28758 4.66278C4.23589 4.63777 4.17958 4.62372 4.1222 4.6215C4.06482 4.61928 4.0076 4.62895 3.95413 4.6499C3.90066 4.67085 3.8521 4.70262 3.81149 4.74323C3.77089 4.78384 3.73911 4.8324 3.71816 4.88587C3.69722 4.93934 3.68755 4.99656 3.68976 5.05394C3.69198 5.11132 3.70603 5.16763 3.73104 5.21932C3.75605 5.27102 3.79148 5.31698 3.8351 5.35433L4.81426 6.33767C4.8532 6.37628 4.89937 6.40684 4.95014 6.42757C5.0009 6.44831 5.05526 6.45882 5.1101 6.4585C5.21941 6.45804 5.32416 6.41464 5.40176 6.33767L7.4851 4.25433C7.52415 4.2156 7.55515 4.16952 7.5763 4.11874C7.59746 4.06797 7.60835 4.01351 7.60835 3.9585C7.60835 3.9035 7.59746 3.84904 7.5763 3.79826C7.55515 3.74749 7.52415 3.7014 7.4851 3.66267C7.40703 3.58506 7.30143 3.5415 7.19135 3.5415C7.08127 3.5415 6.97567 3.58506 6.8976 3.66267Z" fill="white"/>
</svg>
