<svg width="470" height="470" viewBox="0 0 470 470" fill="none" xmlns="http://www.w3.org/2000/svg">
<rect width="470" height="470" rx="12" fill="white"/>
<path d="M85.9261 102.201V110.489L80.4381 102.201H78.6141V113.337H80.4381V105.033L85.9261 113.337H87.7501V102.201H85.9261ZM93.8573 105.913C95.2173 105.913 96.2893 106.777 96.3213 108.137H91.4413C91.6333 106.745 92.6253 105.913 93.8573 105.913ZM97.9853 110.713H96.0173C95.6813 111.401 95.0573 111.945 93.9373 111.945C92.5933 111.945 91.5533 111.065 91.4253 109.609H98.1613C98.2093 109.305 98.2253 109.017 98.2253 108.713C98.2253 106.121 96.4493 104.377 93.9373 104.377C91.3293 104.377 89.5373 106.153 89.5373 108.921C89.5373 111.689 91.4093 113.481 93.9373 113.481C96.0973 113.481 97.4893 112.249 97.9853 110.713ZM101.732 113.337H103.652L105.428 106.825L107.204 113.337H109.124L111.86 104.521H110.068L108.244 111.577L106.452 104.521H104.548L102.676 111.609L100.836 104.521H98.9803L101.732 113.337ZM125.78 108.921C125.78 106.153 123.796 104.377 121.284 104.377C118.772 104.377 116.788 106.153 116.788 108.921C116.788 111.689 118.692 113.481 121.204 113.481C123.732 113.481 125.78 111.689 125.78 108.921ZM118.644 108.921C118.644 106.921 119.876 105.961 121.252 105.961C122.612 105.961 123.908 106.921 123.908 108.921C123.908 110.921 122.564 111.897 121.204 111.897C119.828 111.897 118.644 110.921 118.644 108.921ZM129.407 108.697C129.407 106.825 130.239 106.265 131.583 106.265H132.047V104.377C130.799 104.377 129.919 104.921 129.407 105.801V104.521H127.583V113.337H129.407V108.697ZM133.115 108.889C133.115 111.609 134.955 113.481 137.275 113.481C138.715 113.481 139.771 112.809 140.331 112.009V113.337H142.171V101.497H140.331V105.753C139.659 104.921 138.443 104.377 137.291 104.377C134.955 104.377 133.115 106.169 133.115 108.889ZM140.331 108.921C140.331 110.825 139.035 111.897 137.659 111.897C136.299 111.897 134.987 110.793 134.987 108.889C134.987 106.985 136.299 105.961 137.659 105.961C139.035 105.961 140.331 107.033 140.331 108.921ZM148.279 105.913C149.639 105.913 150.711 106.777 150.743 108.137H145.863C146.055 106.745 147.047 105.913 148.279 105.913ZM152.407 110.713H150.439C150.103 111.401 149.479 111.945 148.359 111.945C147.015 111.945 145.975 111.065 145.847 109.609H152.583C152.631 109.305 152.647 109.017 152.647 108.713C152.647 106.121 150.871 104.377 148.359 104.377C145.751 104.377 143.959 106.153 143.959 108.921C143.959 111.689 145.831 113.481 148.359 113.481C150.519 113.481 151.911 112.249 152.407 110.713ZM156.266 108.697C156.266 106.825 157.098 106.265 158.442 106.265H158.906V104.377C157.658 104.377 156.778 104.921 156.266 105.801V104.521H154.442V113.337H156.266V108.697ZM166.563 108.697C166.563 106.825 167.395 106.265 168.739 106.265H169.203V104.377C167.955 104.377 167.075 104.921 166.563 105.801V104.521H164.739V113.337H166.563V108.697ZM174.592 105.913C175.952 105.913 177.024 106.777 177.056 108.137H172.176C172.368 106.745 173.36 105.913 174.592 105.913ZM178.72 110.713H176.752C176.416 111.401 175.792 111.945 174.672 111.945C173.328 111.945 172.288 111.065 172.16 109.609H178.896C178.944 109.305 178.96 109.017 178.96 108.713C178.96 106.121 177.184 104.377 174.672 104.377C172.064 104.377 170.272 106.153 170.272 108.921C170.272 111.689 172.144 113.481 174.672 113.481C176.832 113.481 178.224 112.249 178.72 110.713ZM180.147 108.889C180.147 111.609 181.987 113.481 184.259 113.481C185.747 113.481 186.851 112.745 187.363 112.057V117.529H189.203V104.521H187.363V105.801C186.851 105.081 185.779 104.377 184.323 104.377C181.987 104.377 180.147 106.169 180.147 108.889ZM187.363 108.921C187.363 110.825 186.067 111.897 184.691 111.897C183.331 111.897 182.019 110.793 182.019 108.889C182.019 106.985 183.331 105.961 184.691 105.961C186.067 105.961 187.363 107.033 187.363 108.921ZM199.582 104.521H197.758V109.433C197.758 111.049 196.878 111.881 195.534 111.881C194.206 111.881 193.326 111.049 193.326 109.433V104.521H191.518V109.705C191.518 112.169 193.086 113.465 195.15 113.465C196.19 113.465 197.182 113.033 197.758 112.281V113.337H199.582V104.521ZM205.701 105.913C207.061 105.913 208.133 106.777 208.165 108.137H203.285C203.477 106.745 204.469 105.913 205.701 105.913ZM209.829 110.713H207.861C207.525 111.401 206.901 111.945 205.781 111.945C204.437 111.945 203.397 111.065 203.269 109.609H210.005C210.053 109.305 210.069 109.017 210.069 108.713C210.069 106.121 208.293 104.377 205.781 104.377C203.173 104.377 201.381 106.153 201.381 108.921C201.381 111.689 203.253 113.481 205.781 113.481C207.941 113.481 209.333 112.249 209.829 110.713ZM218.44 110.873C218.344 107.689 213.368 108.681 213.368 106.905C213.368 106.313 213.88 105.913 214.856 105.913C215.848 105.913 216.44 106.441 216.504 107.209H218.328C218.232 105.449 216.92 104.377 214.92 104.377C212.84 104.377 211.528 105.513 211.528 106.921C211.528 110.153 216.648 109.161 216.648 110.889C216.648 111.497 216.088 111.945 215.032 111.945C214.024 111.945 213.336 111.353 213.272 110.633H211.384C211.464 112.233 212.952 113.481 215.064 113.481C217.144 113.481 218.44 112.361 218.44 110.873ZM220.699 110.889C220.699 112.681 221.675 113.337 223.243 113.337H224.683V111.817H223.563C222.795 111.817 222.539 111.545 222.539 110.889V106.009H224.683V104.521H222.539V102.329H220.699V104.521H219.659V106.009H220.699V110.889ZM232.94 110.873C232.844 107.689 227.868 108.681 227.868 106.905C227.868 106.313 228.38 105.913 229.356 105.913C230.348 105.913 230.94 106.441 231.004 107.209H232.828C232.732 105.449 231.42 104.377 229.42 104.377C227.34 104.377 226.028 105.513 226.028 106.921C226.028 110.153 231.148 109.161 231.148 110.889C231.148 111.497 230.588 111.945 229.532 111.945C228.524 111.945 227.836 111.353 227.772 110.633H225.884C225.964 112.233 227.452 113.481 229.564 113.481C231.644 113.481 232.94 112.361 232.94 110.873ZM240.779 113.337H242.699L244.475 106.825L246.251 113.337H248.171L250.907 104.521H249.115L247.291 111.577L245.499 104.521H243.595L241.723 111.609L239.883 104.521H238.027L240.779 113.337ZM252.27 113.337H254.094V104.521H252.27V113.337ZM253.198 103.353C253.838 103.353 254.35 102.841 254.35 102.185C254.35 101.529 253.838 101.017 253.198 101.017C252.542 101.017 252.03 101.529 252.03 102.185C252.03 102.841 252.542 103.353 253.198 103.353ZM256.489 113.337H258.313V101.497H256.489V113.337ZM260.708 113.337H262.532V101.497H260.708V113.337ZM270.907 105.833V101.497H269.083V113.337H270.907V112.057C271.483 112.825 272.523 113.481 273.979 113.481C276.299 113.481 278.123 111.609 278.123 108.889C278.123 106.169 276.315 104.377 273.979 104.377C272.587 104.377 271.483 105.033 270.907 105.833ZM276.267 108.889C276.267 110.793 274.955 111.897 273.579 111.897C272.219 111.897 270.907 110.825 270.907 108.921C270.907 107.033 272.219 105.961 273.579 105.961C274.955 105.961 276.267 106.985 276.267 108.889ZM283.639 105.913C284.999 105.913 286.071 106.777 286.103 108.137H281.223C281.415 106.745 282.407 105.913 283.639 105.913ZM287.767 110.713H285.799C285.463 111.401 284.839 111.945 283.719 111.945C282.375 111.945 281.335 111.065 281.207 109.609H287.943C287.991 109.305 288.007 109.017 288.007 108.713C288.007 106.121 286.231 104.377 283.719 104.377C281.111 104.377 279.319 106.153 279.319 108.921C279.319 111.689 281.191 113.481 283.719 113.481C285.879 113.481 287.271 112.249 287.767 110.713ZM293.35 108.889C293.35 111.609 295.19 113.481 297.478 113.481C298.95 113.481 300.006 112.777 300.566 112.025V113.337H302.406V104.521H300.566V105.801C300.022 105.081 298.998 104.377 297.51 104.377C295.19 104.377 293.35 106.169 293.35 108.889ZM300.566 108.921C300.566 110.825 299.27 111.897 297.894 111.897C296.534 111.897 295.222 110.793 295.222 108.889C295.222 106.985 296.534 105.961 297.894 105.961C299.27 105.961 300.566 107.033 300.566 108.921ZM306.626 105.817V104.521H304.802V117.529H306.626V112.057C307.202 112.745 308.242 113.481 309.698 113.481C312.018 113.481 313.842 111.609 313.842 108.889C313.842 106.169 312.018 104.377 309.698 104.377C308.258 104.377 307.186 105.081 306.626 105.817ZM311.986 108.889C311.986 110.793 310.674 111.897 309.298 111.897C307.938 111.897 306.626 110.825 306.626 108.921C306.626 107.033 307.938 105.961 309.298 105.961C310.674 105.961 311.986 106.985 311.986 108.889ZM317.469 105.817V104.521H315.645V117.529H317.469V112.057C318.045 112.745 319.085 113.481 320.541 113.481C322.861 113.481 324.685 111.609 324.685 108.889C324.685 106.169 322.861 104.377 320.541 104.377C319.101 104.377 318.029 105.081 317.469 105.817ZM322.829 108.889C322.829 110.793 321.517 111.897 320.141 111.897C318.781 111.897 317.469 110.825 317.469 108.921C317.469 107.033 318.781 105.961 320.141 105.961C321.517 105.961 322.829 106.985 322.829 108.889ZM330.201 105.913C331.561 105.913 332.633 106.777 332.665 108.137H327.785C327.977 106.745 328.969 105.913 330.201 105.913ZM334.329 110.713H332.361C332.025 111.401 331.401 111.945 330.281 111.945C328.937 111.945 327.897 111.065 327.769 109.609H334.505C334.553 109.305 334.569 109.017 334.569 108.713C334.569 106.121 332.793 104.377 330.281 104.377C327.673 104.377 325.881 106.153 325.881 108.921C325.881 111.689 327.753 113.481 330.281 113.481C332.441 113.481 333.833 112.249 334.329 110.713ZM335.756 108.889C335.756 111.609 337.596 113.481 339.884 113.481C341.356 113.481 342.412 112.777 342.972 112.025V113.337H344.812V104.521H342.972V105.801C342.428 105.081 341.404 104.377 339.916 104.377C337.596 104.377 335.756 106.169 335.756 108.889ZM342.972 108.921C342.972 110.825 341.676 111.897 340.3 111.897C338.94 111.897 337.628 110.793 337.628 108.889C337.628 106.985 338.94 105.961 340.3 105.961C341.676 105.961 342.972 107.033 342.972 108.921ZM349.032 108.697C349.032 106.825 349.864 106.265 351.208 106.265H351.672V104.377C350.424 104.377 349.544 104.921 349.032 105.801V104.521H347.208V113.337H349.032V108.697ZM357.505 113.337H359.329V108.409C359.329 106.793 360.209 105.961 361.553 105.961C362.881 105.961 363.761 106.793 363.761 108.409V113.337H365.569V108.137C365.569 105.673 364.033 104.377 362.065 104.377C360.929 104.377 359.937 104.809 359.329 105.545V101.497H357.505V113.337ZM371.607 105.913C372.967 105.913 374.039 106.777 374.071 108.137H369.191C369.383 106.745 370.375 105.913 371.607 105.913ZM375.735 110.713H373.767C373.431 111.401 372.807 111.945 371.687 111.945C370.343 111.945 369.303 111.065 369.175 109.609H375.911C375.959 109.305 375.975 109.017 375.975 108.713C375.975 106.121 374.199 104.377 371.687 104.377C369.079 104.377 367.287 106.153 367.287 108.921C367.287 111.689 369.159 113.481 371.687 113.481C373.847 113.481 375.239 112.249 375.735 110.713ZM379.594 108.697C379.594 106.825 380.426 106.265 381.77 106.265H382.234V104.377C380.986 104.377 380.106 104.921 379.594 105.801V104.521H377.77V113.337H379.594V108.697ZM387.623 105.913C388.983 105.913 390.055 106.777 390.087 108.137H385.207C385.399 106.745 386.391 105.913 387.623 105.913ZM391.751 110.713H389.783C389.447 111.401 388.823 111.945 387.703 111.945C386.359 111.945 385.319 111.065 385.191 109.609H391.927C391.975 109.305 391.991 109.017 391.991 108.713C391.991 106.121 390.215 104.377 387.703 104.377C385.095 104.377 383.303 106.153 383.303 108.921C383.303 111.689 385.175 113.481 387.703 113.481C389.863 113.481 391.255 112.249 391.751 110.713Z" fill="#0D1D28"/>
<path fill-rule="evenodd" clip-rule="evenodd" d="M260.322 202.255C262.545 194.277 266.113 188.184 271.026 183.975C272.005 183.136 273.499 183.996 273.276 185.266C273.273 185.288 273.269 185.309 273.264 185.331C273.062 186.386 270.954 188.856 268.371 191.882C265.662 195.056 262.429 198.843 260.322 202.255ZM278.442 209.779C278.316 207.552 276.408 206.392 272.714 206.3C269.522 209.476 267.566 211.034 266.846 210.974C266.125 210.913 267.224 209.289 270.143 206.101C268.812 205.682 266.236 205.94 262.417 206.875C261.728 211.222 261.042 213.277 260.358 213.04C259.675 212.805 260.078 210.896 261.568 207.315C260.168 207.431 258.692 208.128 257.139 209.404C255.075 211.58 255.493 213.938 258.395 216.476C258.124 217.977 257.347 219.486 256.064 221.002C255.789 221.275 255.49 221.657 255.165 222.149L255.702 222.263C255.777 222.128 255.855 221.998 255.937 221.877C255.937 221.875 255.938 221.875 255.938 221.874L255.939 221.874L255.94 221.872C255.941 221.871 255.941 221.87 255.943 221.868C255.997 221.793 256.075 221.686 256.171 221.555H256.172V221.554C256.405 221.268 256.566 221.053 256.672 220.896C256.673 220.896 256.673 220.895 256.673 220.895C257.38 219.988 258.368 218.822 258.899 218.645C259.404 220.815 263.942 222.117 266.62 222.132C269.1 222.146 268.455 221.325 267.445 220.038C267.365 219.935 267.282 219.829 267.198 219.72C266.489 218.804 265.066 218.342 263.914 217.968C263.223 217.744 262.629 217.551 262.344 217.311C261.586 216.668 262.934 216.472 264.617 216.965C265.365 217.184 265.879 217.68 266.456 218.237C267.178 218.934 267.999 219.727 269.504 220.197C271.31 220.762 273.28 219.46 275.417 216.29C273.383 216.479 270.183 214.703 270.191 214.017C270.196 213.556 272.483 213.919 274.234 214.197L274.234 214.197L274.234 214.197C275.086 214.332 275.811 214.447 276.083 214.437C276.914 214.407 278.63 213.119 278.442 209.779ZM258.836 218.374C258.851 218.491 258.872 218.581 258.899 218.645L258.836 218.374ZM279.271 186.249C271.49 189.649 264.741 196.109 259.025 205.628C262.821 202.102 268.146 198.496 272.609 195.474C276.864 192.592 280.335 190.241 280.951 188.997C281.423 188.041 281.395 187.378 281.175 186.922C280.838 186.222 279.983 185.938 279.271 186.249ZM257.672 266.041C266.348 261.693 271.472 260.276 273.042 261.79C274.611 263.305 269.488 264.722 257.672 266.041ZM255.554 266.823C267.172 265.803 273.072 266.503 273.254 268.924C273.436 271.345 267.536 270.645 255.554 266.823ZM195.496 190.084C196.978 185.515 201.59 184.147 209.332 185.978C214.24 194.341 217.461 198.657 218.994 198.926C220.528 199.195 219.129 195.209 214.795 186.971C217.8 186.828 223.023 188.777 230.463 192.817C229.516 202.247 229.82 206.903 231.373 206.786C232.926 206.669 233.131 202.473 231.991 194.198C234.842 195.208 237.535 197.467 240.071 200.976C243.177 206.64 241.013 211.321 233.579 215.017C233.322 218.292 234.113 221.86 235.954 225.722C236.377 226.439 236.792 227.399 237.199 228.603L236.015 228.544C235.934 228.222 235.843 227.91 235.74 227.61C235.74 227.608 235.739 227.606 235.738 227.605L235.737 227.602C235.735 227.598 235.734 227.595 235.733 227.592C235.661 227.405 235.557 227.139 235.428 226.815L235.427 226.814L235.427 226.813V226.812C235.1 226.086 234.881 225.551 234.745 225.167L234.745 225.166L234.744 225.165L234.744 225.163C233.77 222.888 232.351 219.917 231.34 219.258C231.434 219.14 231.527 218.963 231.62 218.728L231.541 218.878L231.483 218.988L231.34 219.258C229.101 223.5 218.937 223.726 213.35 222.291C208.177 220.962 209.972 219.602 212.78 217.475C213.004 217.306 213.234 217.131 213.468 216.952C215.447 215.43 218.663 215.248 221.268 215.1C222.831 215.011 224.173 214.935 224.898 214.59C226.828 213.67 224.129 212.522 220.353 212.627C218.674 212.674 217.333 213.424 215.826 214.269C213.941 215.324 211.796 216.526 208.404 216.682C204.334 216.868 200.943 213.076 198.23 205.304C202.362 206.812 210 204.866 210.361 203.433C210.603 202.469 205.637 201.972 201.838 201.592C199.99 201.406 198.418 201.249 197.857 201.079C196.142 200.56 193.275 196.938 195.496 190.084ZM267.173 238.985C271.769 238.133 274.435 239.069 275.173 241.793C276.279 245.878 274.492 247.92 273.471 248.176C273.137 248.259 272.212 248.306 271.123 248.361C268.883 248.475 265.952 248.624 266.067 249.196C266.237 250.048 270.663 251.41 273.131 250.644C271.315 255.126 269.216 257.253 266.833 257.026C264.847 256.837 263.623 256.07 262.548 255.397C261.688 254.858 260.923 254.378 259.94 254.303C257.727 254.132 256.11 254.728 257.216 255.324C257.631 255.548 258.417 255.631 259.331 255.728C260.855 255.889 262.738 256.089 263.854 257.039C263.986 257.151 264.116 257.26 264.243 257.366C265.829 258.695 266.844 259.545 263.77 260.175C260.45 260.855 254.493 260.43 253.302 257.877L253.25 257.766C253.217 257.694 253.184 257.625 253.153 257.558C253.201 257.699 253.251 257.805 253.302 257.877C252.689 258.234 251.772 259.936 251.135 261.244C251.135 261.244 251.134 261.245 251.134 261.246C251.043 261.468 250.899 261.775 250.686 262.192V262.193C250.601 262.379 250.532 262.533 250.484 262.64L250.483 262.644L250.482 262.647C250.481 262.648 250.48 262.649 250.48 262.65C250.411 262.824 250.348 263.004 250.291 263.191H249.595C249.868 262.496 250.14 261.945 250.408 261.537H250.409C251.6 259.323 252.167 257.253 252.111 255.324C247.855 252.941 246.721 250.132 248.707 246.899C250.295 244.913 251.94 243.665 253.642 243.154C252.734 247.977 252.734 250.444 253.642 250.558C254.55 250.672 254.862 247.948 254.578 242.389C259.06 240.233 262.181 239.239 263.94 239.41C261.16 244.119 260.224 246.416 261.132 246.303C262.039 246.19 264.053 243.75 267.173 238.985ZM203.733 237.014C205.366 233.918 208.85 233.511 214.182 235.791C216.662 242.411 218.436 245.912 219.504 246.296C220.573 246.681 220.065 243.644 217.981 237.187C220.157 237.46 223.664 239.51 228.503 243.34C226.647 249.994 226.284 253.376 227.414 253.486C228.543 253.596 229.215 250.608 229.429 244.523C231.35 245.604 233.002 247.562 234.385 250.399C235.909 254.855 233.771 257.946 227.97 259.673C227.377 261.992 227.5 264.653 228.341 267.656C228.555 268.224 228.733 268.965 228.875 269.881L228.032 269.691C228.014 269.45 227.988 269.215 227.951 268.986L227.951 268.984C227.951 268.983 227.951 268.982 227.95 268.982C227.949 268.978 227.948 268.975 227.948 268.972C227.92 268.829 227.878 268.625 227.826 268.376V268.375V268.373C227.681 267.812 227.591 267.401 227.542 267.107C227.541 267.106 227.541 267.105 227.541 267.104C227.125 265.348 226.477 263.038 225.833 262.439C225.915 262.365 226.004 262.25 226.101 262.092C226.015 262.203 225.927 262.318 225.833 262.439C223.696 265.205 216.369 264.099 212.536 262.372C208.986 260.772 210.445 260.019 212.728 258.842C212.909 258.748 213.096 258.652 213.287 258.552C214.897 257.706 217.23 257.977 219.119 258.196C220.252 258.327 221.226 258.44 221.789 258.282C223.291 257.862 221.495 256.701 218.77 256.305C217.559 256.129 216.502 256.501 215.314 256.919C213.83 257.442 212.139 258.038 209.684 257.726C206.737 257.352 204.775 254.205 203.797 248.286C206.576 249.884 212.304 249.44 212.742 248.456C213.036 247.794 209.534 246.818 206.854 246.07L206.854 246.07C205.549 245.706 204.439 245.397 204.056 245.204C202.889 244.618 201.282 241.658 203.733 237.014ZM204.66 269.584C201.683 271.263 200.627 273.039 201.491 274.913C202.787 277.722 204.747 278.029 205.439 277.693C205.667 277.583 206.209 277.174 206.847 276.693C208.156 275.706 209.867 274.418 210.071 274.793C210.375 275.349 208.533 278.189 206.789 278.917C209.91 280.579 212.085 280.788 213.315 279.542C214.34 278.505 214.667 277.5 214.953 276.618C215.183 275.912 215.387 275.285 215.903 274.781C217.064 273.647 218.25 273.223 217.909 274.076C217.781 274.396 217.38 274.811 216.912 275.295C216.134 276.101 215.172 277.095 214.992 278.152C214.97 278.277 214.948 278.398 214.927 278.517C214.66 280.007 214.49 280.959 216.51 279.871C218.691 278.695 221.832 275.661 221.302 273.671C221.814 273.584 223.127 274.108 224.097 274.542C224.097 274.542 224.098 274.542 224.098 274.543C224.098 274.543 224.098 274.543 224.099 274.543C224.253 274.625 224.479 274.73 224.793 274.864H224.794C224.794 274.864 224.794 274.864 224.794 274.864C224.794 274.864 224.794 274.864 224.795 274.864C224.929 274.929 225.04 274.983 225.117 275.02L225.122 275.023C225.123 275.023 225.124 275.024 225.125 275.025C225.245 275.089 225.364 275.16 225.484 275.238L225.875 274.912C225.395 274.651 224.985 274.469 224.642 274.366C222.936 273.684 221.646 272.788 220.773 271.68C222.041 268.348 221.36 266.24 218.729 265.359C216.906 264.99 215.398 265.062 214.204 265.574C216.976 267.853 218.134 269.237 217.678 269.726C217.222 270.216 215.769 268.835 213.319 265.584C209.795 266.478 207.579 267.385 206.673 268.305C210.441 269.642 212.044 270.491 211.482 270.854C210.92 271.216 208.645 270.793 204.66 269.584ZM221.236 273.423C221.258 273.502 221.28 273.584 221.302 273.671C221.298 273.606 221.275 273.524 221.236 273.423Z" fill="#F2F5F8"/>
<path d="M187.446 257.505C188.428 257.618 189.298 257.65 190.058 257.605C191.483 257.519 193.24 257.484 193.567 257.864C193.892 258.244 193.892 258.244 193.259 258.577C192.766 258.838 190.866 259.676 189.581 259.279C188.725 259.014 187.751 258.909 186.657 258.962L187.446 257.505Z" fill="#EEEFF1"/>
<path d="M171.73 243.481C173.558 252.539 175.561 257.412 177.738 258.104C179.348 258.616 186.39 259.573 188.458 259.589C188.777 259.296 188.863 258.597 188.715 257.492C183.747 255.996 180.89 254.784 180.141 253.854C178.47 251.779 180.571 244.945 178.515 243.025C176.459 241.105 173.149 240.424 171.73 243.481Z" fill="#D2D9DE"/>
<path d="M173.033 294.11H173.429C173.826 294.11 174.151 293.785 174.151 293.389V271.46C174.151 271.063 173.826 270.738 173.429 270.738H173.033C172.637 270.738 172.312 271.063 172.312 271.46V293.389C172.312 293.785 172.637 294.11 173.033 294.11Z" fill="#D2D9DE"/>
<path d="M164.99 295.646C165.854 293.858 169.216 292.524 173.231 292.524C177.246 292.524 180.608 293.858 181.472 295.646H164.99Z" fill="#D2D9DE"/>
<path d="M167.185 289.582H179.278C179.404 289.582 179.509 289.478 179.509 289.351V288.872C179.509 288.744 179.404 288.641 179.278 288.641H167.185C167.057 288.641 166.954 288.744 166.954 288.872V289.351C166.954 289.478 167.057 289.582 167.185 289.582Z" fill="#D2D9DE"/>
<path d="M172.161 268.608C172.725 269.564 173.376 270.459 174.048 271.307C176.123 273.927 178.383 276.088 178.776 278.129C178.854 278.537 178.978 278.974 179.14 279.436C179.305 279.904 179.508 280.396 179.743 280.905C180.623 282.818 181.941 284.961 183.256 286.91C184.771 289.155 186.242 291.215 187.666 293.089L191.586 292.921C191.43 292.529 189.72 287.878 187.433 282.194C186.504 279.887 185.516 277.432 184.563 275.065C184.436 274.75 184.309 274.435 184.184 274.123C183.893 273.399 183.605 272.685 183.326 271.991C181.894 268.433 180.608 265.237 179.468 262.405C173.745 260.237 170.586 259.856 169.992 261.26C169.257 262.997 169.856 264.699 172.161 268.608Z" fill="#0D1D28"/>
<path d="M187.789 292.376C187.923 294.532 188.198 295.626 188.615 295.657C188.671 295.661 189.729 295.663 191.789 295.663L195.735 295.64C195.718 295.006 195.325 294.622 194.556 294.489C193.403 294.288 191.473 293.477 190.774 291.952C190.284 290.883 189.288 291.024 187.789 292.376Z" fill="#0D1D28"/>
<path d="M178.712 283.135C176.893 284.303 176.073 285.077 176.249 285.456C176.273 285.506 176.787 286.432 177.791 288.23L179.735 291.664C180.28 291.34 180.424 290.81 180.165 290.073C179.779 288.969 179.546 286.888 180.536 285.535C181.231 284.586 180.622 283.786 178.712 283.135Z" fill="#0D1D28"/>
<path d="M182.551 260.957C190.297 266.521 194.593 270.177 195.438 271.926C196.099 273.29 191.167 278.312 180.641 286.989C179.108 285.47 178.241 284.343 178.04 283.608C181.667 278.398 184.916 274.947 187.789 273.256C189.072 272.5 172.406 270.656 170.602 267.849C169.399 265.979 169.129 263.804 169.792 261.326L182.551 260.957Z" fill="#0D1D28"/>
<path d="M163.839 273.249H182.498C183.872 273.249 184.995 272.124 184.995 270.751V270.348C184.995 268.974 183.872 267.85 182.498 267.85H163.839C162.465 267.85 161.342 268.974 161.342 270.348V270.751C161.342 272.124 162.465 273.249 163.839 273.249Z" fill="#898C93"/>
<path d="M177.418 237.341C178.124 237.777 178.671 238.273 179.06 238.828C177.339 239.273 175.052 238.698 172.2 237.104C173.307 236.36 174.067 235.17 174.477 233.534C174.508 233.411 174.536 233.284 174.562 233.154C174.642 232.741 174.692 232.294 174.701 231.811L175.887 232.873L177.858 234.64C177.828 235.128 177.731 235.792 177.567 236.633C177.524 236.853 177.475 237.09 177.418 237.341Z" fill="#E7ECEF"/>
<path d="M182.726 260.502C182.721 260.528 182.713 260.555 182.704 260.582C182.455 261.28 178.698 263.649 176.161 264.589C174.577 265.176 169.082 266.489 168.72 265.359C168.301 264.049 169.837 254.5 169.466 249.527C169.031 243.448 170.714 237.915 173.053 236.11C173.23 235.98 173.58 236.325 174.594 236.806C175.53 237.25 176.564 237.376 177.44 237.185L178.224 237.858C179.31 238.833 180.502 240.165 181.043 242.207C181.373 243.458 181.623 245.441 181.809 247.668C181.88 248.53 181.942 249.432 181.995 250.34C182.079 251.788 182.152 253.249 182.187 254.638C182.188 254.664 182.19 254.691 182.19 254.718L182.191 254.768C182.205 254.908 182.208 255.061 182.209 255.201C182.213 255.341 182.217 255.481 182.22 255.62C182.245 256.707 182.244 257.716 182.282 258.588C182.301 259.026 182.389 259.339 182.483 259.589C182.578 259.843 182.68 260.03 182.722 260.209C182.744 260.306 182.749 260.401 182.726 260.502Z" fill="#FCD400"/>
<path d="M177.859 234.64C177.829 235.128 177.731 235.792 177.567 236.633C175.642 236.011 174.768 234.272 174.477 233.534C174.422 233.395 174.382 233.283 174.358 233.197C174.408 233.187 174.475 233.172 174.562 233.154C174.832 233.097 175.341 232.989 175.887 232.873L177.859 234.64Z" fill="#D2D9DE"/>
<path d="M178.446 235.262C175.61 235.19 174.227 234.27 174.299 232.504C174.407 229.855 173.93 228.058 176.652 228.015C179.374 227.972 179.86 229.004 180.039 229.897C180.217 230.79 179.556 235.222 178.446 235.262Z" fill="#E7ECEF"/>
<path d="M193.677 258.066L194.048 258.186L197.198 248.491L196.828 248.371L193.677 258.066Z" fill="#8D9DA8"/>
<path d="M183.367 257.318L194.061 257.547L194.048 258.186L183.353 257.958L183.367 257.318Z" fill="#8D9DA8"/>
<path d="M173.769 227.581C173.743 227.536 173.671 227.492 173.5 227.452C173.602 227.41 173.715 227.399 173.839 227.418C173.917 227.184 174.12 226.783 174.551 226.753C174.389 226.805 174.283 226.915 174.233 227.081C174.798 226.675 175.886 226.499 178.682 227.226C182.367 228.184 180.711 230.358 180.177 230.557C179.643 230.758 178.563 229.76 177.648 229.671C176.735 229.582 176.332 230.855 175.995 230.979C175.657 231.104 175.834 230.809 175.453 230.548C175.072 230.288 174.911 230.967 174.952 231.433C174.979 231.745 174.768 232.063 174.32 232.388C174.32 232.388 174.165 232.148 173.855 231.667C173.39 230.947 173.314 228.23 173.674 227.718C173.706 227.673 173.738 227.626 173.769 227.581Z" fill="#1D180C"/>
<path d="M182.483 259.589C181.449 259.421 178.897 258.91 177.044 257.751C174.815 256.356 173.043 252.116 171.73 245.033L176.968 251.741L182.213 255.581L182.22 255.62C182.245 256.707 182.244 257.716 182.282 258.588C182.301 259.026 182.389 259.339 182.483 259.589Z" fill="#867311"/>
<path d="M187.462 254.665C187.709 254.747 187.977 254.747 188.267 254.665C188.7 254.541 190.186 254.17 190.434 254.293C190.681 254.417 191.455 255.037 191.641 255.16C191.765 255.243 191.919 255.46 192.105 255.811C191.934 255.936 191.472 255.511 191.24 255.48C191.008 255.449 189.149 256.105 188.638 256.043C188.298 256.001 187.869 255.904 187.353 255.748L187.462 254.665Z" fill="#EEEFF1"/>
<path d="M190.544 255.24C190.544 255.269 191.052 256.06 191.56 255.918L191.125 255.323L190.544 255.24Z" fill="#EEEFF1"/>
<path d="M188.267 254.665C188.692 254.382 188.981 254.168 189.13 254.023C189.198 254.069 189.229 254.124 189.222 254.186C189.21 254.292 189.137 254.432 189.004 254.607L188.267 254.665Z" fill="#EEEFF1"/>
<path d="M177.051 239.74C174.298 237.384 170.165 240.05 171.156 243.535C172.305 247.577 174.523 254.244 176.805 254.89C178.431 255.353 185.499 256.091 187.566 256.043C187.821 256.14 187.858 255.639 187.675 254.538C182.508 252.943 179.641 251.619 179.076 250.568C178.62 249.724 179.229 241.65 177.114 239.795C177.093 239.776 177.072 239.758 177.051 239.74Z" fill="#FCD400"/>
<path d="M295.291 234.836C298.851 238.527 300.716 241.067 300.883 242.457C301.051 243.846 300.199 245.624 298.326 247.793L295.291 234.836Z" fill="#867311"/>
<path d="M292.878 292.216C292.753 294.174 292.5 295.166 292.121 295.194C292.071 295.197 291.111 295.197 289.239 295.193L285.657 295.165C285.673 294.589 286.031 294.241 286.73 294.121C287.778 293.941 289.531 293.209 290.169 291.826C290.616 290.856 291.519 290.986 292.878 292.216Z" fill="#0D1D28"/>
<path d="M300.858 292.233C300.732 294.19 300.48 295.183 300.101 295.21C300.05 295.214 299.09 295.214 297.219 295.209L293.636 295.181C293.653 294.605 294.011 294.258 294.709 294.138C295.757 293.958 297.511 293.225 298.149 291.842C298.596 290.873 299.499 291.003 300.858 292.233Z" fill="#0D1D28"/>
<path d="M288.979 260.64C289.595 264.637 291.061 270.184 293.375 277.281C295.69 284.379 297.003 289.463 297.314 292.535L301.064 292.438C301.102 284.687 300.588 279.027 299.522 275.459C298.456 271.89 298.354 265.461 299.216 256.172L288.979 260.64Z" fill="#0D1D28"/>
<path d="M287.163 256.474C287.062 262.494 287.524 269.202 288.55 276.596C289.575 283.99 289.908 289.256 289.548 292.393L293.29 292.526C294.797 285.134 295.341 279.588 294.922 275.887C294.502 272.186 295.537 265.84 298.026 256.849L287.163 256.474Z" fill="#0D1D28"/>
<path d="M294.454 235.356L292.457 236.659L289.577 236.116C289.617 235.883 289.809 234.92 289.984 234.046C289.994 233.996 290.005 233.944 290.015 233.894C290.115 233.399 290.208 232.938 290.295 232.513L292.989 231.331L293.994 230.891C293.991 230.906 293.914 231.715 293.903 231.833C293.774 233.231 293.958 234.406 294.454 235.356Z" fill="#E7ECEF"/>
<path d="M290.317 234.687C290.374 234.664 293.79 233.664 294.161 233.787C294.408 233.87 294.604 234.15 294.75 234.628L289.162 235.879C289.457 235.283 289.842 234.887 290.317 234.687Z" fill="#374956"/>
<path d="M299.462 257.615C298.877 260.254 289.245 260.546 286.768 258.144C286.486 257.871 286.475 256.6 286.585 254.886C286.801 251.539 287.48 246.505 287.512 243.932C287.527 242.689 287.701 241.418 287.931 240.265C288.257 238.626 288.667 237.164 289.162 235.878C292.301 234.871 294.163 234.454 294.75 234.628C298.987 235.884 300.046 254.976 299.462 257.615Z" fill="#FCD400"/>
<path d="M286.585 254.887C286.801 251.54 287.48 246.505 287.512 243.933C287.527 242.69 287.701 241.419 287.931 240.266L290.761 239.772C292.59 247.31 291.198 252.348 286.585 254.887Z" fill="#867311"/>
<path d="M288.128 250.224C288.255 250.531 288.184 250.788 287.914 250.994C287.507 251.303 287.244 251.803 287.336 252.17C287.428 252.536 288.315 253.137 288.623 253.041C288.932 252.945 289.56 252.464 289.492 252.27C289.426 252.077 289.918 250.575 289.168 249.995C288.668 249.607 288.321 249.684 288.128 250.224Z" fill="#FFB27D"/>
<path d="M291.325 235.206C289.484 235.546 287.828 236.795 286.357 238.952C284.151 242.188 282.699 244.594 283.102 245.763C283.505 246.932 287.188 250.992 287.825 250.992C288.462 250.994 289.49 250.533 289.55 249.491C287.822 246.891 287.13 245.396 287.472 245.007C287.691 244.758 290.853 242.203 291.301 243.362C291.796 244.639 291.803 241.921 291.325 235.206Z" fill="#FCD400"/>
<path d="M293.701 231.87C293.107 232.87 290.903 233.731 289.984 234.047C289.994 233.996 290.005 233.944 290.015 233.894C290.115 233.399 290.208 232.939 290.295 232.513L292.989 231.331C293.584 231.325 293.945 231.459 293.701 231.87Z" fill="#6D7E8B"/>
<path d="M289.281 232.347C292.169 233.254 293.882 232.804 294.419 230.997C295.226 228.286 296.329 226.636 293.597 225.652C290.865 224.668 290.017 225.542 289.528 226.381C289.038 227.22 288.175 231.923 289.281 232.347Z" fill="#E7ECEF"/>
<path d="M289.699 226.121C289.878 228.225 290.186 229.233 290.621 229.142C291.274 229.006 291.867 228.906 291.769 229.858C291.671 230.809 290.764 231.906 292.776 232.079C294.787 232.251 297.691 227.069 297.14 226.085C295.551 223.247 287.401 222.657 289.699 226.121Z" fill="#0D1D28"/>
<path d="M243.372 245.498C243.292 245.611 242.951 246.156 243.388 246.769C243.417 246.808 243.436 246.839 243.447 246.866C248.687 250.015 264.406 262.752 264.406 271.73V290.329H216.967V271.722C216.967 262.687 232.9 249.747 238.026 246.769H238.026C238.19 246.539 238.245 246.318 238.245 246.127C238.245 245.872 238.172 245.655 238.026 245.476C232.888 242.431 216.967 229.587 216.967 220.551V201.952H264.406V220.559C264.406 229.579 248.525 242.493 243.372 245.498Z" fill="#E7ECEF"/>
<path d="M267.128 295.12H213.868V292.827C213.868 291.447 214.987 290.329 216.366 290.329H264.732C266.055 290.329 267.128 291.402 267.128 292.724V295.12Z" fill="#50616E"/>
<path d="M230.547 272.873C230.304 277.037 231.095 286.016 231.023 290.329H216.967V271.722C216.967 262.687 232.9 249.747 238.026 246.769H238.026C238.19 246.539 238.245 246.318 238.245 246.127C238.245 245.872 238.172 245.655 238.026 245.476C232.888 242.431 216.967 229.587 216.967 220.551V201.952H226.37L233.083 203.789V218.498C232.64 221.323 232.973 224.122 234.083 226.896C235.747 231.057 239.321 244.407 239.265 246.141C239.21 247.875 230.962 265.737 230.547 272.873Z" fill="#ACB8C1"/>
<path d="M258.26 214.316C255.383 214.359 250.439 214.878 242.44 216.896C236.964 218.278 227.521 217.237 222.528 216.521C220.775 216.27 219.208 217.629 219.208 219.398V221.542C219.208 227.449 235.101 240.244 239.304 243.524C239.941 244.021 240.313 244.783 240.313 245.591V278.438C240.313 279.559 239.76 280.604 238.841 281.247C236.637 282.789 233.679 285.816 229.966 290.329H251.029C247.264 285.974 244.324 282.988 242.211 281.371C241.487 280.818 241.06 279.961 241.06 279.051V245.582C241.06 244.779 241.425 244.019 242.052 243.517C246.172 240.217 261.718 227.375 261.718 221.473V217.723C261.718 215.82 260.161 214.288 258.26 214.316Z" fill="#50616E"/>
<path d="M325.751 295.226H144.249" stroke="#0D1D28"/>
<path d="M264.643 203.789H216.264C214.94 203.789 213.868 202.716 213.868 201.393V198.998H267.128V201.304C267.128 202.676 266.015 203.789 264.643 203.789Z" fill="#50616E"/>
<path d="M173.91 212.059L186.39 213.839L178.108 208.194L177.688 210.004L174.653 210.553L173.91 212.059Z" fill="#ACB8C1"/>
<path d="M186.242 213.783L175.857 208.428L165.679 207.917L186.242 213.783Z" fill="#E7ECEF"/>
<path d="M177.96 208.138L186.242 213.783L179.831 204.961L177.96 208.138Z" fill="#E7ECEF"/>
<path d="M241.739 184.567L252.693 186.13L245.423 181.175L245.054 182.763L242.39 183.245L241.739 184.567Z" fill="#ACB8C1"/>
<path d="M252.563 186.081L243.447 181.38L234.513 180.932L252.563 186.081Z" fill="#E7ECEF"/>
<path d="M245.293 181.125L252.563 186.08L246.936 178.337L245.293 181.125Z" fill="#E7ECEF"/>
<path d="M296.995 208.813L284.516 210.593L292.798 204.948L293.218 206.758L296.253 207.307L296.995 208.813Z" fill="#ACB8C1"/>
<path d="M284.663 210.537L295.049 205.182L305.227 204.671L284.663 210.537Z" fill="#E7ECEF"/>
<path d="M292.946 204.892L284.663 210.536L291.074 201.715L292.946 204.892Z" fill="#E7ECEF"/>
<path d="M181.5 360.913C181.301 360.913 181.11 360.992 180.97 361.133C180.829 361.273 180.75 361.464 180.75 361.663V364.663C180.75 364.862 180.829 365.053 180.97 365.193C181.11 365.334 181.301 365.413 181.5 365.413C181.699 365.413 181.89 365.334 182.03 365.193C182.171 365.053 182.25 364.862 182.25 364.663V361.663C182.25 361.464 182.171 361.273 182.03 361.133C181.89 360.992 181.699 360.913 181.5 360.913ZM182.19 367.378C182.174 367.33 182.151 367.285 182.123 367.243L182.033 367.131C181.927 367.027 181.793 366.956 181.648 366.928C181.502 366.9 181.352 366.916 181.215 366.973C181.124 367.011 181.04 367.064 180.968 367.131C180.898 367.201 180.843 367.284 180.806 367.375C180.768 367.467 180.749 367.564 180.75 367.663C180.751 367.761 180.772 367.858 180.81 367.948C180.844 368.041 180.897 368.126 180.967 368.196C181.037 368.266 181.122 368.319 181.215 368.353C181.305 368.393 181.402 368.413 181.5 368.413C181.598 368.413 181.695 368.393 181.785 368.353C181.878 368.319 181.963 368.266 182.033 368.196C182.103 368.126 182.156 368.041 182.19 367.948C182.228 367.858 182.249 367.761 182.25 367.663C182.254 367.613 182.254 367.563 182.25 367.513C182.237 367.465 182.217 367.42 182.19 367.378ZM181.5 357.163C180.017 357.163 178.567 357.603 177.333 358.427C176.1 359.251 175.139 360.423 174.571 361.793C174.003 363.163 173.855 364.671 174.144 366.126C174.434 367.581 175.148 368.917 176.197 369.966C177.246 371.015 178.582 371.73 180.037 372.019C181.492 372.308 183 372.16 184.37 371.592C185.741 371.025 186.912 370.063 187.736 368.83C188.56 367.596 189 366.146 189 364.663C189 363.678 188.806 362.703 188.429 361.793C188.052 360.883 187.5 360.056 186.803 359.36C186.107 358.663 185.28 358.111 184.37 357.734C183.46 357.357 182.485 357.163 181.5 357.163ZM181.5 370.663C180.313 370.663 179.153 370.311 178.167 369.652C177.18 368.993 176.411 368.056 175.957 366.959C175.503 365.863 175.384 364.656 175.615 363.493C175.847 362.329 176.418 361.26 177.257 360.42C178.096 359.581 179.166 359.01 180.329 358.778C181.493 358.547 182.7 358.666 183.796 359.12C184.892 359.574 185.83 360.343 186.489 361.33C187.148 362.316 187.5 363.476 187.5 364.663C187.5 366.254 186.868 367.781 185.743 368.906C184.617 370.031 183.091 370.663 181.5 370.663Z" fill="#ACB8C1"/>
<path d="M204.355 359.891V367.647L199.231 359.891H197.957V369.663H199.231V361.893L204.355 369.663H205.629V359.891H204.355ZM215.081 365.813C215.081 363.391 213.387 361.865 211.203 361.865C209.033 361.865 207.325 363.391 207.325 365.813C207.325 368.249 208.977 369.789 211.147 369.789C213.331 369.789 215.081 368.249 215.081 365.813ZM208.627 365.813C208.627 363.881 209.845 362.971 211.189 362.971C212.505 362.971 213.779 363.881 213.779 365.813C213.779 367.759 212.477 368.669 211.147 368.669C209.817 368.669 208.627 367.759 208.627 365.813ZM226.102 369.663H227.362V365.141C227.362 362.943 226.004 361.851 224.226 361.851C223.19 361.851 222.266 362.285 221.762 363.083V361.991H220.488V369.663H221.762V365.421C221.762 363.769 222.658 362.957 223.96 362.957C225.248 362.957 226.102 363.755 226.102 365.323V369.663ZM232.705 362.943C234.021 362.943 235.141 363.769 235.127 365.267H230.283C230.423 363.769 231.459 362.943 232.705 362.943ZM236.289 367.297H234.917C234.637 368.123 233.909 368.711 232.761 368.711C231.459 368.711 230.367 367.857 230.269 366.303H236.401C236.429 366.037 236.443 365.813 236.443 365.533C236.443 363.433 234.987 361.865 232.761 361.865C230.521 361.865 228.967 363.391 228.967 365.813C228.967 368.249 230.577 369.789 232.761 369.789C234.665 369.789 235.897 368.697 236.289 367.297ZM239.623 369.663H240.939L242.787 363.573L244.635 369.663H245.951L248.345 361.991H247.085L245.349 368.445L243.487 361.991H242.185L240.281 368.431L238.517 361.991H237.215L239.623 369.663ZM260.622 365.813C260.622 363.391 258.928 361.865 256.744 361.865C254.574 361.865 252.866 363.391 252.866 365.813C252.866 368.249 254.518 369.789 256.688 369.789C258.872 369.789 260.622 368.249 260.622 365.813ZM254.168 365.813C254.168 363.881 255.386 362.971 256.73 362.971C258.046 362.971 259.32 363.881 259.32 365.813C259.32 367.759 258.018 368.669 256.688 368.669C255.358 368.669 254.168 367.759 254.168 365.813ZM263.571 365.491C263.571 363.713 264.495 363.167 265.713 363.167H266.049V361.851C264.831 361.851 264.005 362.383 263.571 363.237V361.991H262.297V369.663H263.571V365.491ZM267.043 365.799C267.043 368.179 268.625 369.789 270.683 369.789C272.083 369.789 273.077 369.075 273.539 368.221V369.663H274.827V359.303H273.539V363.363C273.007 362.481 271.901 361.865 270.697 361.865C268.625 361.865 267.043 363.405 267.043 365.799ZM273.539 365.813C273.539 367.619 272.335 368.669 270.935 368.669C269.535 368.669 268.345 367.605 268.345 365.799C268.345 363.993 269.535 362.971 270.935 362.971C272.335 362.971 273.539 364.035 273.539 365.813ZM280.242 362.943C281.558 362.943 282.678 363.769 282.664 365.267H277.82C277.96 363.769 278.996 362.943 280.242 362.943ZM283.826 367.297H282.454C282.174 368.123 281.446 368.711 280.298 368.711C278.996 368.711 277.904 367.857 277.806 366.303H283.938C283.966 366.037 283.98 365.813 283.98 365.533C283.98 363.433 282.524 361.865 280.298 361.865C278.058 361.865 276.504 363.391 276.504 365.813C276.504 368.249 278.114 369.789 280.298 369.789C282.202 369.789 283.434 368.697 283.826 367.297ZM286.936 365.491C286.936 363.713 287.86 363.167 289.078 363.167H289.414V361.851C288.196 361.851 287.37 362.383 286.936 363.237V361.991H285.662V369.663H286.936V365.491ZM296.401 367.577C296.345 364.833 291.893 365.827 291.893 364.007C291.893 363.391 292.453 362.943 293.391 362.943C294.413 362.943 295.001 363.503 295.057 364.273H296.331C296.247 362.775 295.127 361.865 293.433 361.865C291.725 361.865 290.619 362.831 290.619 364.007C290.619 366.863 295.155 365.869 295.155 367.577C295.155 368.207 294.595 368.711 293.587 368.711C292.509 368.711 291.851 368.151 291.781 367.409H290.465C290.549 368.809 291.809 369.789 293.601 369.789C295.295 369.789 296.401 368.837 296.401 367.577Z" fill="#ACB8C1"/>
</svg>
