<svg width="470" height="470" viewBox="0 0 470 470" fill="none" xmlns="http://www.w3.org/2000/svg">
<rect width="470" height="470" rx="12" fill="white"/>
<path d="M113.649 96.3369V92.7049H115.665C117.089 92.7049 117.729 93.3769 117.729 94.5289C117.729 95.6489 117.089 96.3369 115.665 96.3369H113.649ZM119.601 94.5289C119.601 92.7209 118.305 91.2169 115.665 91.2169H111.825V102.337H113.649V97.8249H115.665C118.561 97.8249 119.601 96.1129 119.601 94.5289ZM123.165 97.6969C123.165 95.8249 123.997 95.2649 125.341 95.2649H125.805V93.3769C124.557 93.3769 123.677 93.9209 123.165 94.8009V93.5209H121.341V102.337H123.165V97.6969ZM131.193 94.9129C132.553 94.9129 133.625 95.7769 133.657 97.1369H128.777C128.969 95.7449 129.961 94.9129 131.193 94.9129ZM135.321 99.7129H133.353C133.017 100.401 132.393 100.945 131.273 100.945C129.929 100.945 128.889 100.065 128.761 98.6089H135.497C135.545 98.3049 135.561 98.0169 135.561 97.7129C135.561 95.1209 133.785 93.3769 131.273 93.3769C128.665 93.3769 126.873 95.1529 126.873 97.9209C126.873 100.689 128.745 102.481 131.273 102.481C133.433 102.481 134.825 101.249 135.321 99.7129ZM139.18 94.8169V93.5209H137.356V106.529H139.18V101.057C139.756 101.745 140.796 102.481 142.252 102.481C144.572 102.481 146.396 100.609 146.396 97.8889C146.396 95.1689 144.572 93.3769 142.252 93.3769C140.812 93.3769 139.74 94.0809 139.18 94.8169ZM144.54 97.8889C144.54 99.7929 143.228 100.897 141.852 100.897C140.492 100.897 139.18 99.8249 139.18 97.9209C139.18 96.0329 140.492 94.9609 141.852 94.9609C143.228 94.9609 144.54 95.9849 144.54 97.8889ZM147.592 97.8889C147.592 100.609 149.432 102.481 151.72 102.481C153.192 102.481 154.248 101.777 154.808 101.025V102.337H156.648V93.5209H154.808V94.8009C154.264 94.0809 153.24 93.3769 151.752 93.3769C149.432 93.3769 147.592 95.1689 147.592 97.8889ZM154.808 97.9209C154.808 99.8249 153.512 100.897 152.136 100.897C150.776 100.897 149.464 99.7929 149.464 97.8889C149.464 95.9849 150.776 94.9609 152.136 94.9609C153.512 94.9609 154.808 96.0329 154.808 97.9209ZM160.868 97.6969C160.868 95.8249 161.7 95.2649 163.044 95.2649H163.508V93.3769C162.26 93.3769 161.38 93.9209 160.868 94.8009V93.5209H159.044V102.337H160.868V97.6969ZM165.184 102.337H167.008V93.5209H165.184V102.337ZM166.112 92.3529C166.752 92.3529 167.264 91.8409 167.264 91.1849C167.264 90.5289 166.752 90.0169 166.112 90.0169C165.456 90.0169 164.944 90.5289 164.944 91.1849C164.944 91.8409 165.456 92.3529 166.112 92.3529ZM175.659 102.337H177.467V97.1369C177.467 94.6729 175.915 93.3769 173.851 93.3769C172.795 93.3769 171.819 93.8089 171.227 94.5289V93.5209H169.403V102.337H171.227V97.4089C171.227 95.7929 172.107 94.9609 173.451 94.9609C174.779 94.9609 175.659 95.7929 175.659 97.4089V102.337ZM179.186 97.8889C179.186 100.609 181.026 102.481 183.346 102.481C184.786 102.481 185.842 101.761 186.402 101.009V102.481C186.402 104.241 185.346 105.105 183.938 105.105C182.674 105.105 181.698 104.481 181.426 103.569H179.618C179.842 105.521 181.586 106.689 183.938 106.689C186.69 106.689 188.242 104.881 188.242 102.481V93.5209H186.402V94.8009C185.858 94.0489 184.786 93.3769 183.346 93.3769C181.026 93.3769 179.186 95.1689 179.186 97.8889ZM186.402 97.9209C186.402 99.8249 185.106 100.897 183.73 100.897C182.37 100.897 181.058 99.7929 181.058 97.8889C181.058 95.9849 182.37 94.9609 183.73 94.9609C185.106 94.9609 186.402 96.0329 186.402 97.9209ZM189.518 104.561H190.702L192.638 100.145H190.654L189.518 104.561ZM204.292 94.5449C204.292 95.6489 203.652 96.4329 202.228 96.4329H200.212V92.7049H202.228C203.652 92.7049 204.292 93.4249 204.292 94.5449ZM198.388 91.2169V102.337H200.212V97.8889H201.604L204.164 102.337H206.34L203.588 97.7289C205.46 97.2649 206.164 95.8569 206.164 94.5449C206.164 92.7369 204.868 91.2169 202.228 91.2169H198.388ZM212.209 94.9129C213.569 94.9129 214.641 95.7769 214.673 97.1369H209.793C209.985 95.7449 210.977 94.9129 212.209 94.9129ZM216.337 99.7129H214.369C214.033 100.401 213.409 100.945 212.289 100.945C210.945 100.945 209.905 100.065 209.777 98.6089H216.513C216.561 98.3049 216.577 98.0169 216.577 97.7129C216.577 95.1209 214.801 93.3769 212.289 93.3769C209.681 93.3769 207.889 95.1529 207.889 97.9209C207.889 100.689 209.761 102.481 212.289 102.481C214.449 102.481 215.841 101.249 216.337 99.7129ZM217.764 97.8889C217.764 100.609 219.604 102.481 221.892 102.481C223.364 102.481 224.42 101.777 224.98 101.025V102.337H226.82V93.5209H224.98V94.8009C224.436 94.0809 223.412 93.3769 221.924 93.3769C219.604 93.3769 217.764 95.1689 217.764 97.8889ZM224.98 97.9209C224.98 99.8249 223.684 100.897 222.308 100.897C220.948 100.897 219.636 99.7929 219.636 97.8889C219.636 95.9849 220.948 94.9609 222.308 94.9609C223.684 94.9609 224.98 96.0329 224.98 97.9209ZM228.608 97.8889C228.608 100.609 230.448 102.481 232.768 102.481C234.208 102.481 235.264 101.809 235.824 101.009V102.337H237.664V90.4969H235.824V94.7529C235.152 93.9209 233.936 93.3769 232.784 93.3769C230.448 93.3769 228.608 95.1689 228.608 97.8889ZM235.824 97.9209C235.824 99.8249 234.528 100.897 233.152 100.897C231.792 100.897 230.48 99.7929 230.48 97.8889C230.48 95.9849 231.792 94.9609 233.152 94.9609C234.528 94.9609 235.824 96.0329 235.824 97.9209ZM243.531 100.241L241.051 93.5209H239.019L242.491 102.193L240.699 106.481H242.587L247.995 93.5209H246.107L243.531 100.241ZM252.92 97.8889C252.92 100.609 254.76 102.481 257.048 102.481C258.52 102.481 259.576 101.777 260.136 101.025V102.337H261.976V93.5209H260.136V94.8009C259.592 94.0809 258.568 93.3769 257.08 93.3769C254.76 93.3769 252.92 95.1689 252.92 97.8889ZM260.136 97.9209C260.136 99.8249 258.84 100.897 257.464 100.897C256.104 100.897 254.792 99.7929 254.792 97.8889C254.792 95.9849 256.104 94.9609 257.464 94.9609C258.84 94.9609 260.136 96.0329 260.136 97.9209ZM270.628 102.337H272.436V97.1369C272.436 94.6729 270.884 93.3769 268.82 93.3769C267.764 93.3769 266.788 93.8089 266.196 94.5289V93.5209H264.372V102.337H266.196V97.4089C266.196 95.7929 267.076 94.9609 268.42 94.9609C269.748 94.9609 270.628 95.7929 270.628 97.4089V102.337ZM274.155 97.8889C274.155 100.609 275.995 102.481 278.315 102.481C279.755 102.481 280.811 101.809 281.371 101.009V102.337H283.211V90.4969H281.371V94.7529C280.699 93.9209 279.483 93.3769 278.331 93.3769C275.995 93.3769 274.155 95.1689 274.155 97.8889ZM281.371 97.9209C281.371 99.8249 280.075 100.897 278.699 100.897C277.339 100.897 276.027 99.7929 276.027 97.8889C276.027 95.9849 277.339 94.9609 278.699 94.9609C280.075 94.9609 281.371 96.0329 281.371 97.9209ZM289.763 102.337H291.587V91.2169H289.763V102.337ZM300.237 102.337H302.045V97.1369C302.045 94.6729 300.493 93.3769 298.429 93.3769C297.373 93.3769 296.397 93.8089 295.805 94.5289V93.5209H293.981V102.337H295.805V97.4089C295.805 95.7929 296.685 94.9609 298.029 94.9609C299.357 94.9609 300.237 95.7929 300.237 97.4089V102.337ZM308.816 99.8889C308.816 101.681 309.792 102.337 311.36 102.337H312.8V100.817H311.68C310.912 100.817 310.656 100.545 310.656 99.8889V95.0089H312.8V93.5209H310.656V91.3289H308.816V93.5209H307.776V95.0089H308.816V99.8889ZM316.305 97.6969C316.305 95.8249 317.137 95.2649 318.481 95.2649H318.945V93.3769C317.697 93.3769 316.817 93.9209 316.305 94.8009V93.5209H314.481V102.337H316.305V97.6969ZM320.014 97.8889C320.014 100.609 321.854 102.481 324.142 102.481C325.614 102.481 326.67 101.777 327.23 101.025V102.337H329.07V93.5209H327.23V94.8009C326.686 94.0809 325.662 93.3769 324.174 93.3769C321.854 93.3769 320.014 95.1689 320.014 97.8889ZM327.23 97.9209C327.23 99.8249 325.934 100.897 324.558 100.897C323.198 100.897 321.886 99.7929 321.886 97.8889C321.886 95.9849 323.198 94.9609 324.558 94.9609C325.934 94.9609 327.23 96.0329 327.23 97.9209ZM337.722 102.337H339.53V97.1369C339.53 94.6729 337.978 93.3769 335.914 93.3769C334.858 93.3769 333.882 93.8089 333.29 94.5289V93.5209H331.466V102.337H333.29V97.4089C333.29 95.7929 334.17 94.9609 335.514 94.9609C336.842 94.9609 337.722 95.7929 337.722 97.4089V102.337ZM348.432 99.8729C348.336 96.6889 343.36 97.6809 343.36 95.9049C343.36 95.3129 343.872 94.9129 344.848 94.9129C345.84 94.9129 346.432 95.4409 346.496 96.2089H348.32C348.224 94.4489 346.912 93.3769 344.912 93.3769C342.832 93.3769 341.52 94.5129 341.52 95.9209C341.52 99.1529 346.64 98.1609 346.64 99.8889C346.64 100.497 346.08 100.945 345.024 100.945C344.016 100.945 343.328 100.353 343.264 99.6329H341.376C341.456 101.233 342.944 102.481 345.056 102.481C347.136 102.481 348.432 101.361 348.432 99.8729ZM350.403 102.337H352.227V93.5209H350.403V102.337ZM351.331 92.3529C351.971 92.3529 352.483 91.8409 352.483 91.1849C352.483 90.5289 351.971 90.0169 351.331 90.0169C350.675 90.0169 350.163 90.5289 350.163 91.1849C350.163 91.8409 350.675 92.3529 351.331 92.3529ZM354.91 99.8889C354.91 101.681 355.886 102.337 357.454 102.337H358.894V100.817H357.774C357.006 100.817 356.75 100.545 356.75 99.8889V95.0089H358.894V93.5209H356.75V91.3289H354.91V93.5209H353.87V95.0089H354.91V99.8889ZM143.561 119.921C143.561 117.153 141.577 115.377 139.065 115.377C136.553 115.377 134.569 117.153 134.569 119.921C134.569 122.689 136.473 124.481 138.985 124.481C141.513 124.481 143.561 122.689 143.561 119.921ZM136.425 119.921C136.425 117.921 137.657 116.961 139.033 116.961C140.393 116.961 141.689 117.921 141.689 119.921C141.689 121.921 140.345 122.897 138.985 122.897C137.609 122.897 136.425 121.921 136.425 119.921ZM147.188 119.697C147.188 117.825 148.02 117.265 149.364 117.265H149.828V115.377C148.58 115.377 147.7 115.921 147.188 116.801V115.521H145.364V124.337H147.188V119.697ZM150.897 119.889C150.897 122.609 152.737 124.481 155.057 124.481C156.497 124.481 157.553 123.809 158.113 123.009V124.337H159.953V112.497H158.113V116.753C157.441 115.921 156.225 115.377 155.073 115.377C152.737 115.377 150.897 117.169 150.897 119.889ZM158.113 119.921C158.113 121.825 156.817 122.897 155.441 122.897C154.081 122.897 152.769 121.793 152.769 119.889C152.769 117.985 154.081 116.961 155.441 116.961C156.817 116.961 158.113 118.033 158.113 119.921ZM166.06 116.913C167.42 116.913 168.492 117.777 168.524 119.137H163.644C163.836 117.745 164.828 116.913 166.06 116.913ZM170.188 121.713H168.22C167.884 122.401 167.26 122.945 166.14 122.945C164.796 122.945 163.756 122.065 163.628 120.609H170.364C170.412 120.305 170.428 120.017 170.428 119.713C170.428 117.121 168.652 115.377 166.14 115.377C163.532 115.377 161.74 117.153 161.74 119.921C161.74 122.689 163.612 124.481 166.14 124.481C168.3 124.481 169.692 123.249 170.188 121.713ZM174.047 119.697C174.047 117.825 174.879 117.265 176.223 117.265H176.687V115.377C175.439 115.377 174.559 115.921 174.047 116.801V115.521H172.223V124.337H174.047V119.697ZM184.232 124.337H186.152L187.928 117.825L189.704 124.337H191.624L194.36 115.521H192.568L190.744 122.577L188.952 115.521H187.048L185.176 122.609L183.336 115.521H181.48L184.232 124.337ZM195.723 124.337H197.547V115.521H195.723V124.337ZM196.651 114.353C197.291 114.353 197.803 113.841 197.803 113.185C197.803 112.529 197.291 112.017 196.651 112.017C195.995 112.017 195.483 112.529 195.483 113.185C195.483 113.841 195.995 114.353 196.651 114.353ZM199.942 124.337H201.766V112.497H199.942V124.337ZM204.161 124.337H205.985V112.497H204.161V124.337ZM214.36 116.833V112.497H212.536V124.337H214.36V123.057C214.936 123.825 215.976 124.481 217.432 124.481C219.752 124.481 221.576 122.609 221.576 119.889C221.576 117.169 219.768 115.377 217.432 115.377C216.04 115.377 214.936 116.033 214.36 116.833ZM219.72 119.889C219.72 121.793 218.408 122.897 217.032 122.897C215.672 122.897 214.36 121.825 214.36 119.921C214.36 118.033 215.672 116.961 217.032 116.961C218.408 116.961 219.72 117.985 219.72 119.889ZM227.092 116.913C228.452 116.913 229.524 117.777 229.556 119.137H224.676C224.868 117.745 225.86 116.913 227.092 116.913ZM231.22 121.713H229.252C228.916 122.401 228.292 122.945 227.172 122.945C225.828 122.945 224.788 122.065 224.66 120.609H231.396C231.444 120.305 231.46 120.017 231.46 119.713C231.46 117.121 229.684 115.377 227.172 115.377C224.564 115.377 222.772 117.153 222.772 119.921C222.772 122.689 224.644 124.481 227.172 124.481C229.332 124.481 230.724 123.249 231.22 121.713ZM236.803 119.889C236.803 122.609 238.643 124.481 240.931 124.481C242.403 124.481 243.459 123.777 244.019 123.025V124.337H245.859V115.521H244.019V116.801C243.475 116.081 242.451 115.377 240.963 115.377C238.643 115.377 236.803 117.169 236.803 119.889ZM244.019 119.921C244.019 121.825 242.723 122.897 241.347 122.897C239.987 122.897 238.675 121.793 238.675 119.889C238.675 117.985 239.987 116.961 241.347 116.961C242.723 116.961 244.019 118.033 244.019 119.921ZM250.079 116.817V115.521H248.255V128.529H250.079V123.057C250.655 123.745 251.695 124.481 253.151 124.481C255.471 124.481 257.295 122.609 257.295 119.889C257.295 117.169 255.471 115.377 253.151 115.377C251.711 115.377 250.639 116.081 250.079 116.817ZM255.439 119.889C255.439 121.793 254.127 122.897 252.751 122.897C251.391 122.897 250.079 121.825 250.079 119.921C250.079 118.033 251.391 116.961 252.751 116.961C254.127 116.961 255.439 117.985 255.439 119.889ZM260.922 116.817V115.521H259.098V128.529H260.922V123.057C261.498 123.745 262.538 124.481 263.994 124.481C266.314 124.481 268.138 122.609 268.138 119.889C268.138 117.169 266.314 115.377 263.994 115.377C262.554 115.377 261.482 116.081 260.922 116.817ZM266.282 119.889C266.282 121.793 264.97 122.897 263.594 122.897C262.234 122.897 260.922 121.825 260.922 119.921C260.922 118.033 262.234 116.961 263.594 116.961C264.97 116.961 266.282 117.985 266.282 119.889ZM273.654 116.913C275.014 116.913 276.086 117.777 276.118 119.137H271.238C271.43 117.745 272.422 116.913 273.654 116.913ZM277.782 121.713H275.814C275.478 122.401 274.854 122.945 273.734 122.945C272.39 122.945 271.35 122.065 271.222 120.609H277.958C278.006 120.305 278.022 120.017 278.022 119.713C278.022 117.121 276.246 115.377 273.734 115.377C271.126 115.377 269.334 117.153 269.334 119.921C269.334 122.689 271.206 124.481 273.734 124.481C275.894 124.481 277.286 123.249 277.782 121.713ZM279.209 119.889C279.209 122.609 281.049 124.481 283.337 124.481C284.809 124.481 285.865 123.777 286.425 123.025V124.337H288.265V115.521H286.425V116.801C285.881 116.081 284.857 115.377 283.369 115.377C281.049 115.377 279.209 117.169 279.209 119.889ZM286.425 119.921C286.425 121.825 285.129 122.897 283.753 122.897C282.393 122.897 281.081 121.793 281.081 119.889C281.081 117.985 282.393 116.961 283.753 116.961C285.129 116.961 286.425 118.033 286.425 119.921ZM292.485 119.697C292.485 117.825 293.317 117.265 294.661 117.265H295.125V115.377C293.877 115.377 292.997 115.921 292.485 116.801V115.521H290.661V124.337H292.485V119.697ZM300.958 124.337H302.782V119.409C302.782 117.793 303.662 116.961 305.006 116.961C306.334 116.961 307.214 117.793 307.214 119.409V124.337H309.022V119.137C309.022 116.673 307.486 115.377 305.518 115.377C304.382 115.377 303.39 115.809 302.782 116.545V112.497H300.958V124.337ZM315.06 116.913C316.42 116.913 317.492 117.777 317.524 119.137H312.644C312.836 117.745 313.828 116.913 315.06 116.913ZM319.188 121.713H317.22C316.884 122.401 316.26 122.945 315.14 122.945C313.796 122.945 312.756 122.065 312.628 120.609H319.364C319.412 120.305 319.428 120.017 319.428 119.713C319.428 117.121 317.652 115.377 315.14 115.377C312.532 115.377 310.74 117.153 310.74 119.921C310.74 122.689 312.612 124.481 315.14 124.481C317.3 124.481 318.692 123.249 319.188 121.713ZM323.047 119.697C323.047 117.825 323.879 117.265 325.223 117.265H325.687V115.377C324.439 115.377 323.559 115.921 323.047 116.801V115.521H321.223V124.337H323.047V119.697ZM331.076 116.913C332.436 116.913 333.508 117.777 333.54 119.137H328.66C328.852 117.745 329.844 116.913 331.076 116.913ZM335.204 121.713H333.236C332.9 122.401 332.276 122.945 331.156 122.945C329.812 122.945 328.772 122.065 328.644 120.609H335.38C335.428 120.305 335.444 120.017 335.444 119.713C335.444 117.121 333.668 115.377 331.156 115.377C328.548 115.377 326.756 117.153 326.756 119.921C326.756 122.689 328.628 124.481 331.156 124.481C333.316 124.481 334.708 123.249 335.204 121.713Z" fill="#0D1D28"/>
<path fill-rule="evenodd" clip-rule="evenodd" d="M260.322 213.255C262.545 205.277 266.113 199.184 271.026 194.975C272.005 194.136 273.499 194.996 273.276 196.266C273.273 196.288 273.269 196.309 273.264 196.331C273.062 197.386 270.954 199.856 268.371 202.882C265.662 206.056 262.429 209.843 260.322 213.255ZM278.442 220.779C278.316 218.552 276.408 217.392 272.714 217.3C269.522 220.476 267.566 222.034 266.846 221.974C266.125 221.913 267.224 220.289 270.143 217.101C268.812 216.682 266.236 216.94 262.417 217.875C261.728 222.222 261.042 224.277 260.358 224.04C259.675 223.805 260.078 221.896 261.568 218.315C260.168 218.431 258.692 219.128 257.139 220.404C255.075 222.58 255.493 224.938 258.395 227.476C258.124 228.977 257.347 230.486 256.064 232.002C255.789 232.275 255.49 232.657 255.165 233.149L255.702 233.263C255.777 233.128 255.855 232.998 255.937 232.877L255.937 232.876L255.938 232.875L255.938 232.874L255.939 232.874C255.94 232.872 255.941 232.87 255.943 232.868C255.997 232.793 256.075 232.686 256.171 232.555H256.172V232.554C256.405 232.268 256.566 232.053 256.672 231.896L256.673 231.896L256.673 231.895L256.673 231.895C257.38 230.988 258.368 229.822 258.899 229.645C259.404 231.815 263.942 233.117 266.62 233.132C269.1 233.146 268.455 232.325 267.445 231.038C267.365 230.935 267.282 230.829 267.198 230.72C266.489 229.804 265.066 229.342 263.914 228.968C263.223 228.744 262.629 228.551 262.344 228.311C261.586 227.668 262.934 227.472 264.617 227.965C265.365 228.184 265.879 228.68 266.456 229.237C267.178 229.934 267.999 230.727 269.504 231.197C271.31 231.762 273.28 230.46 275.417 227.29C273.383 227.479 270.183 225.703 270.191 225.017C270.196 224.556 272.483 224.919 274.234 225.197C275.086 225.332 275.811 225.447 276.083 225.437C276.914 225.407 278.63 224.119 278.442 220.779ZM258.836 229.374C258.851 229.491 258.872 229.581 258.899 229.645L258.836 229.374ZM279.271 197.249C271.49 200.649 264.741 207.109 259.025 216.628C262.821 213.102 268.146 209.496 272.609 206.474C276.864 203.592 280.335 201.241 280.951 199.997C281.423 199.041 281.395 198.378 281.175 197.922C280.838 197.222 279.983 196.938 279.271 197.249ZM257.672 277.041C266.348 272.693 271.472 271.276 273.042 272.79C274.611 274.305 269.488 275.722 257.672 277.041ZM255.554 277.823C267.172 276.803 273.072 277.503 273.254 279.924C273.436 282.345 267.536 281.645 255.554 277.823ZM195.496 201.084C196.978 196.515 201.59 195.147 209.332 196.978C214.24 205.341 217.461 209.657 218.994 209.926C220.528 210.195 219.129 206.209 214.795 197.971C217.8 197.828 223.023 199.777 230.463 203.817C229.516 213.247 229.82 217.903 231.373 217.786C232.926 217.669 233.131 213.473 231.991 205.198C234.842 206.208 237.535 208.467 240.071 211.976C243.177 217.64 241.013 222.321 233.579 226.017C233.322 229.292 234.113 232.86 235.954 236.722C236.377 237.439 236.792 238.399 237.199 239.603L236.015 239.544C235.934 239.222 235.843 238.91 235.74 238.61C235.74 238.608 235.739 238.606 235.738 238.605L235.737 238.602L235.735 238.597L235.734 238.595L235.733 238.592C235.661 238.405 235.557 238.139 235.428 237.815C235.428 237.814 235.428 237.814 235.427 237.814L235.427 237.813V237.812C235.1 237.086 234.881 236.551 234.745 236.167C234.745 236.166 234.745 236.166 234.745 236.165C234.744 236.164 234.744 236.164 234.744 236.163C233.77 233.888 232.351 230.917 231.34 230.258C231.434 230.14 231.527 229.963 231.62 229.728C231.576 229.812 231.53 229.899 231.483 229.988L231.34 230.258C229.101 234.5 218.937 234.726 213.35 233.291C208.177 231.962 209.972 230.602 212.78 228.475C213.004 228.306 213.234 228.131 213.468 227.952C215.447 226.43 218.663 226.248 221.268 226.1C222.831 226.011 224.173 225.935 224.898 225.59C226.828 224.67 224.129 223.522 220.353 223.627C218.674 223.674 217.333 224.424 215.826 225.269C213.941 226.324 211.796 227.526 208.404 227.682C204.334 227.868 200.943 224.076 198.23 216.304C202.362 217.812 210 215.866 210.361 214.433C210.603 213.469 205.637 212.972 201.838 212.592C199.99 212.406 198.418 212.249 197.857 212.079C196.142 211.56 193.275 207.938 195.496 201.084ZM267.173 249.985C271.769 249.133 274.435 250.069 275.173 252.793C276.279 256.878 274.492 258.92 273.471 259.176C273.137 259.259 272.212 259.306 271.123 259.361C268.883 259.475 265.952 259.624 266.067 260.196C266.237 261.048 270.663 262.41 273.131 261.644C271.315 266.126 269.216 268.253 266.833 268.026C264.847 267.837 263.623 267.07 262.548 266.397C261.688 265.858 260.923 265.378 259.94 265.303C257.727 265.132 256.11 265.728 257.216 266.324C257.631 266.548 258.417 266.631 259.331 266.728C260.855 266.889 262.738 267.089 263.854 268.039C263.986 268.151 264.116 268.26 264.243 268.366C265.829 269.695 266.844 270.545 263.77 271.175C260.45 271.855 254.493 271.43 253.302 268.877L253.25 268.766L253.25 268.766C253.217 268.695 253.184 268.625 253.153 268.558C253.201 268.699 253.251 268.805 253.302 268.877C252.689 269.234 251.772 270.936 251.135 272.244C251.135 272.244 251.134 272.245 251.134 272.246C251.043 272.468 250.899 272.775 250.686 273.192V273.193C250.601 273.379 250.532 273.533 250.484 273.64L250.483 273.644L250.482 273.647C250.481 273.648 250.48 273.649 250.48 273.65C250.411 273.824 250.348 274.004 250.291 274.191H249.595C249.868 273.496 250.14 272.945 250.408 272.537H250.409C251.6 270.323 252.167 268.253 252.111 266.324C247.855 263.941 246.721 261.132 248.707 257.899C250.295 255.913 251.94 254.665 253.642 254.154C252.734 258.977 252.734 261.444 253.642 261.558C254.55 261.672 254.862 258.948 254.578 253.389C259.06 251.233 262.181 250.239 263.94 250.41C261.16 255.119 260.224 257.416 261.132 257.303C262.039 257.19 264.053 254.75 267.173 249.985ZM203.733 248.014C205.366 244.918 208.85 244.511 214.182 246.791C216.662 253.411 218.436 256.912 219.504 257.296C220.573 257.681 220.065 254.644 217.981 248.187C220.157 248.46 223.664 250.51 228.503 254.34C226.647 260.994 226.284 264.376 227.414 264.486C228.543 264.596 229.215 261.608 229.429 255.523C231.35 256.604 233.002 258.562 234.385 261.399C235.909 265.855 233.771 268.946 227.97 270.673C227.377 272.992 227.5 275.653 228.341 278.656C228.555 279.224 228.733 279.965 228.875 280.881L228.032 280.691C228.014 280.45 227.988 280.215 227.951 279.986C227.951 279.984 227.951 279.983 227.95 279.982L227.95 279.98C227.949 279.977 227.948 279.975 227.948 279.972C227.92 279.829 227.878 279.625 227.826 279.376V279.375V279.373C227.681 278.812 227.591 278.401 227.542 278.107C227.541 278.106 227.541 278.105 227.541 278.104C227.125 276.348 226.477 274.038 225.833 273.439C225.915 273.365 226.004 273.25 226.101 273.092L226.067 273.136C225.992 273.233 225.915 273.334 225.833 273.439C223.696 276.205 216.369 275.099 212.536 273.372C208.986 271.772 210.445 271.019 212.728 269.842L212.728 269.842C212.909 269.748 213.096 269.652 213.287 269.552C214.897 268.706 217.23 268.977 219.119 269.196C220.252 269.327 221.226 269.44 221.789 269.283C223.291 268.862 221.495 267.701 218.77 267.305C217.559 267.129 216.502 267.501 215.314 267.919C213.83 268.442 212.139 269.038 209.684 268.726C206.737 268.352 204.775 265.205 203.797 259.286C206.576 260.884 212.304 260.44 212.742 259.456C213.036 258.794 209.534 257.818 206.854 257.07C205.549 256.706 204.439 256.397 204.056 256.204C202.889 255.618 201.282 252.658 203.733 248.014ZM204.66 280.584C201.683 282.263 200.627 284.039 201.491 285.913C202.787 288.722 204.747 289.029 205.439 288.693C205.667 288.583 206.209 288.174 206.847 287.693C208.156 286.706 209.867 285.418 210.071 285.793C210.375 286.349 208.533 289.189 206.789 289.917C209.91 291.579 212.085 291.788 213.315 290.542C214.34 289.505 214.666 288.5 214.953 287.618C215.183 286.912 215.387 286.285 215.903 285.781C217.064 284.647 218.25 284.223 217.909 285.076C217.781 285.396 217.38 285.811 216.912 286.295C216.134 287.101 215.172 288.095 214.992 289.152C214.97 289.277 214.948 289.398 214.927 289.517C214.66 291.007 214.49 291.959 216.51 290.871C218.691 289.695 221.832 286.661 221.302 284.671C221.814 284.584 223.127 285.108 224.097 285.542C224.097 285.542 224.098 285.542 224.098 285.542C224.098 285.543 224.098 285.543 224.099 285.543C224.253 285.625 224.479 285.73 224.793 285.864H224.794C224.794 285.864 224.794 285.864 224.794 285.864C224.794 285.864 224.794 285.864 224.795 285.864C224.929 285.929 225.04 285.983 225.117 286.02L225.122 286.023C225.123 286.023 225.124 286.024 225.125 286.025C225.245 286.089 225.364 286.16 225.484 286.238L225.875 285.912C225.395 285.651 224.985 285.469 224.642 285.366C222.936 284.684 221.646 283.788 220.773 282.68C222.041 279.348 221.36 277.24 218.729 276.359C216.906 275.99 215.398 276.062 214.204 276.574C216.976 278.853 218.134 280.237 217.678 280.726C217.222 281.216 215.769 279.835 213.319 276.584C209.795 277.478 207.579 278.385 206.673 279.305C210.441 280.642 212.044 281.491 211.482 281.854C210.92 282.216 208.645 281.793 204.66 280.584ZM221.236 284.423C221.258 284.502 221.28 284.584 221.302 284.671C221.298 284.606 221.275 284.524 221.236 284.423Z" fill="#F2F5F8"/>
<path d="M187.446 268.505C188.428 268.618 189.298 268.65 190.058 268.605C191.483 268.519 193.24 268.484 193.567 268.864C193.892 269.244 193.892 269.244 193.259 269.577C192.766 269.838 190.866 270.676 189.581 270.279C188.725 270.014 187.751 269.909 186.657 269.962L187.446 268.505Z" fill="#EEEFF1"/>
<path d="M171.73 254.481C173.558 263.539 175.561 268.412 177.738 269.104C179.348 269.616 186.39 270.573 188.458 270.589C188.777 270.296 188.863 269.597 188.715 268.492C183.747 266.996 180.89 265.784 180.141 264.854C178.47 262.779 180.571 255.945 178.515 254.025C176.459 252.105 173.149 251.424 171.73 254.481Z" fill="#D2D9DE"/>
<path d="M173.033 305.11H173.429C173.826 305.11 174.151 304.785 174.151 304.389V282.46C174.151 282.063 173.826 281.738 173.429 281.738H173.033C172.637 281.738 172.312 282.063 172.312 282.46V304.389C172.312 304.785 172.637 305.11 173.033 305.11Z" fill="#D2D9DE"/>
<path d="M164.99 306.646C165.854 304.858 169.216 303.524 173.231 303.524C177.246 303.524 180.608 304.858 181.472 306.646H164.99Z" fill="#D2D9DE"/>
<path d="M167.185 300.582H179.278C179.404 300.582 179.509 300.478 179.509 300.351V299.872C179.509 299.744 179.404 299.641 179.278 299.641H167.185C167.057 299.641 166.954 299.744 166.954 299.872V300.351C166.954 300.478 167.057 300.582 167.185 300.582Z" fill="#D2D9DE"/>
<path d="M172.161 279.608C172.725 280.564 173.376 281.459 174.048 282.307C176.123 284.927 178.383 287.088 178.776 289.129C178.854 289.537 178.978 289.974 179.14 290.436C179.305 290.904 179.508 291.396 179.743 291.905C180.623 293.818 181.941 295.961 183.256 297.91C184.771 300.155 186.242 302.215 187.666 304.089L191.586 303.921C191.43 303.529 189.72 298.878 187.433 293.194C186.504 290.887 185.516 288.432 184.563 286.065C184.436 285.75 184.309 285.435 184.184 285.123C183.893 284.399 183.605 283.685 183.326 282.991C181.894 279.433 180.608 276.237 179.468 273.405C173.745 271.237 170.586 270.856 169.992 272.26C169.257 273.997 169.856 275.699 172.161 279.608Z" fill="#0D1D28"/>
<path d="M187.789 303.376C187.923 305.532 188.198 306.626 188.615 306.657C188.671 306.661 189.729 306.663 191.789 306.663L195.735 306.64C195.718 306.006 195.325 305.622 194.556 305.489C193.403 305.288 191.473 304.477 190.774 302.952C190.284 301.883 189.288 302.024 187.789 303.376Z" fill="#0D1D28"/>
<path d="M178.712 294.135C176.893 295.303 176.073 296.077 176.249 296.456C176.273 296.506 176.787 297.432 177.791 299.23L179.735 302.664C180.28 302.34 180.424 301.81 180.165 301.073C179.779 299.969 179.546 297.888 180.536 296.535C181.231 295.586 180.622 294.786 178.712 294.135Z" fill="#0D1D28"/>
<path d="M182.551 271.957C190.297 277.521 194.593 281.177 195.438 282.926C196.099 284.29 191.167 289.312 180.641 297.989C179.108 296.47 178.241 295.343 178.04 294.608C181.667 289.398 184.916 285.947 187.789 284.256C189.072 283.5 172.406 281.656 170.602 278.849C169.399 276.979 169.129 274.804 169.792 272.326L182.551 271.957Z" fill="#0D1D28"/>
<path d="M163.839 284.249H182.498C183.872 284.249 184.995 283.124 184.995 281.751V281.348C184.995 279.974 183.872 278.85 182.498 278.85H163.839C162.465 278.85 161.342 279.974 161.342 281.348V281.751C161.342 283.124 162.465 284.249 163.839 284.249Z" fill="#898C93"/>
<path d="M177.418 248.341C178.124 248.777 178.671 249.273 179.06 249.828C177.339 250.273 175.052 249.698 172.2 248.104C173.307 247.36 174.067 246.17 174.477 244.534C174.508 244.411 174.536 244.284 174.562 244.154C174.642 243.741 174.692 243.294 174.701 242.811L175.887 243.873L177.858 245.64C177.828 246.128 177.731 246.792 177.567 247.633C177.524 247.853 177.475 248.09 177.418 248.341Z" fill="#E7ECEF"/>
<path d="M182.726 271.502C182.721 271.528 182.713 271.555 182.704 271.582C182.455 272.28 178.698 274.649 176.161 275.589C174.577 276.176 169.082 277.489 168.72 276.359C168.301 275.049 169.837 265.5 169.466 260.527C169.031 254.448 170.714 248.915 173.053 247.11C173.23 246.98 173.58 247.325 174.594 247.806C175.53 248.25 176.564 248.376 177.44 248.185L178.224 248.858C179.31 249.833 180.502 251.165 181.043 253.207C181.373 254.458 181.623 256.441 181.809 258.668C181.88 259.53 181.942 260.432 181.995 261.34C182.079 262.788 182.152 264.249 182.187 265.638C182.188 265.664 182.19 265.691 182.19 265.718L182.191 265.768C182.205 265.908 182.208 266.061 182.209 266.201C182.213 266.341 182.217 266.481 182.22 266.62C182.245 267.707 182.244 268.716 182.282 269.588C182.301 270.026 182.389 270.339 182.483 270.589C182.578 270.843 182.68 271.03 182.722 271.209C182.744 271.306 182.749 271.401 182.726 271.502Z" fill="#FCD400"/>
<path d="M177.859 245.64C177.829 246.128 177.731 246.792 177.567 247.633C175.642 247.011 174.768 245.272 174.477 244.534C174.422 244.395 174.382 244.283 174.358 244.197C174.408 244.187 174.475 244.172 174.562 244.154C174.832 244.097 175.341 243.989 175.887 243.873L177.859 245.64Z" fill="#D2D9DE"/>
<path d="M178.446 246.262C175.61 246.19 174.227 245.27 174.299 243.504C174.407 240.855 173.93 239.058 176.652 239.015C179.374 238.972 179.86 240.004 180.039 240.897C180.217 241.79 179.556 246.222 178.446 246.262Z" fill="#E7ECEF"/>
<path d="M193.677 269.066L194.048 269.186L197.198 259.491L196.828 259.371L193.677 269.066Z" fill="#8D9DA8"/>
<path d="M183.367 268.318L194.061 268.547L194.048 269.186L183.353 268.958L183.367 268.318Z" fill="#8D9DA8"/>
<path d="M173.769 238.581C173.743 238.536 173.671 238.492 173.5 238.452C173.602 238.41 173.715 238.399 173.839 238.418C173.917 238.184 174.12 237.783 174.551 237.753C174.389 237.805 174.283 237.915 174.233 238.081C174.798 237.675 175.886 237.499 178.682 238.226C182.367 239.184 180.711 241.358 180.177 241.557C179.643 241.758 178.563 240.76 177.648 240.671C176.735 240.582 176.332 241.855 175.995 241.979C175.657 242.104 175.834 241.809 175.453 241.548C175.072 241.288 174.911 241.967 174.952 242.433C174.979 242.745 174.768 243.063 174.32 243.388C174.32 243.388 174.165 243.148 173.855 242.667C173.39 241.947 173.314 239.23 173.674 238.718C173.706 238.673 173.738 238.626 173.769 238.581Z" fill="#1D180C"/>
<path d="M182.483 270.589C181.449 270.421 178.897 269.91 177.044 268.751C174.815 267.356 173.043 263.116 171.73 256.033L176.968 262.741L182.213 266.581L182.22 266.62C182.245 267.707 182.244 268.716 182.282 269.588C182.301 270.026 182.389 270.339 182.483 270.589Z" fill="#867311"/>
<path d="M187.462 265.665C187.709 265.747 187.977 265.747 188.267 265.665C188.7 265.541 190.186 265.17 190.434 265.293C190.681 265.417 191.455 266.037 191.641 266.16C191.765 266.243 191.919 266.46 192.105 266.811C191.934 266.936 191.472 266.511 191.24 266.48C191.008 266.449 189.149 267.105 188.638 267.043C188.298 267.001 187.869 266.904 187.353 266.748L187.462 265.665Z" fill="#EEEFF1"/>
<path d="M190.544 266.24C190.544 266.269 191.052 267.06 191.56 266.918L191.125 266.323L190.544 266.24Z" fill="#EEEFF1"/>
<path d="M188.267 265.665C188.692 265.382 188.981 265.168 189.13 265.023C189.198 265.069 189.229 265.124 189.222 265.186C189.21 265.292 189.137 265.432 189.004 265.607L188.267 265.665Z" fill="#EEEFF1"/>
<path d="M177.051 250.74C174.298 248.384 170.165 251.05 171.156 254.535C172.305 258.577 174.523 265.244 176.805 265.89C178.431 266.353 185.499 267.091 187.566 267.043C187.821 267.14 187.858 266.639 187.675 265.538C182.508 263.943 179.641 262.619 179.076 261.568C178.62 260.724 179.229 252.65 177.114 250.795C177.093 250.776 177.072 250.758 177.051 250.74Z" fill="#FCD400"/>
<path d="M295.291 245.836C298.851 249.527 300.716 252.067 300.883 253.457C301.051 254.846 300.199 256.624 298.326 258.793L295.291 245.836Z" fill="#867311"/>
<path d="M292.878 303.216C292.753 305.174 292.5 306.166 292.121 306.194C292.071 306.197 291.111 306.197 289.239 306.193L285.657 306.165C285.673 305.589 286.031 305.241 286.73 305.121C287.778 304.941 289.531 304.209 290.169 302.826C290.616 301.856 291.519 301.986 292.878 303.216Z" fill="#0D1D28"/>
<path d="M300.858 303.233C300.732 305.19 300.48 306.183 300.101 306.21C300.05 306.214 299.09 306.214 297.219 306.209L293.636 306.181C293.653 305.605 294.011 305.258 294.709 305.138C295.757 304.958 297.511 304.225 298.149 302.842C298.596 301.873 299.499 302.003 300.858 303.233Z" fill="#0D1D28"/>
<path d="M288.979 271.64C289.595 275.637 291.061 281.184 293.375 288.281C295.69 295.379 297.003 300.463 297.314 303.535L301.064 303.438C301.102 295.687 300.588 290.027 299.522 286.459C298.456 282.89 298.354 276.461 299.216 267.172L288.979 271.64Z" fill="#0D1D28"/>
<path d="M287.163 267.474C287.062 273.494 287.524 280.202 288.55 287.596C289.575 294.99 289.908 300.256 289.548 303.393L293.29 303.526C294.797 296.134 295.341 290.588 294.922 286.887C294.502 283.186 295.537 276.84 298.026 267.849L287.163 267.474Z" fill="#0D1D28"/>
<path d="M294.454 246.356L292.457 247.659L289.577 247.116C289.617 246.883 289.809 245.92 289.984 245.046C289.994 244.996 290.005 244.944 290.015 244.894C290.115 244.399 290.208 243.938 290.295 243.513L292.989 242.331L293.994 241.891C293.991 241.906 293.914 242.715 293.903 242.833C293.774 244.231 293.958 245.406 294.454 246.356Z" fill="#E7ECEF"/>
<path d="M290.317 245.687C290.374 245.664 293.79 244.664 294.161 244.787C294.408 244.87 294.604 245.15 294.75 245.628L289.162 246.879C289.457 246.283 289.842 245.887 290.317 245.687Z" fill="#374956"/>
<path d="M299.462 268.615C298.877 271.254 289.245 271.546 286.768 269.144C286.486 268.871 286.475 267.6 286.585 265.886C286.801 262.539 287.48 257.505 287.512 254.932C287.527 253.689 287.701 252.418 287.931 251.265C288.257 249.626 288.667 248.164 289.162 246.878C292.301 245.871 294.163 245.454 294.75 245.628C298.987 246.884 300.046 265.976 299.462 268.615Z" fill="#FCD400"/>
<path d="M286.585 265.887C286.801 262.54 287.48 257.505 287.512 254.933C287.527 253.69 287.701 252.419 287.931 251.266L290.761 250.772C292.59 258.31 291.198 263.348 286.585 265.887Z" fill="#867311"/>
<path d="M288.128 261.224C288.255 261.531 288.184 261.788 287.914 261.994C287.507 262.303 287.244 262.803 287.336 263.17C287.428 263.536 288.315 264.137 288.623 264.041C288.932 263.945 289.56 263.464 289.492 263.27C289.426 263.077 289.918 261.575 289.168 260.995C288.668 260.607 288.321 260.684 288.128 261.224Z" fill="#FFB27D"/>
<path d="M291.325 246.206C289.484 246.546 287.828 247.795 286.357 249.952C284.151 253.188 282.699 255.594 283.102 256.763C283.505 257.932 287.188 261.992 287.825 261.992C288.462 261.994 289.49 261.533 289.55 260.491C287.822 257.891 287.13 256.396 287.472 256.007C287.691 255.758 290.853 253.203 291.301 254.362C291.796 255.639 291.803 252.921 291.325 246.206Z" fill="#FCD400"/>
<path d="M293.701 242.87C293.107 243.87 290.903 244.731 289.984 245.047C289.994 244.996 290.005 244.944 290.015 244.894C290.115 244.399 290.208 243.939 290.295 243.513L292.989 242.331C293.584 242.325 293.945 242.459 293.701 242.87Z" fill="#6D7E8B"/>
<path d="M289.281 243.347C292.169 244.254 293.882 243.804 294.419 241.997C295.226 239.286 296.329 237.636 293.597 236.652C290.865 235.668 290.017 236.542 289.528 237.381C289.038 238.22 288.175 242.923 289.281 243.347Z" fill="#E7ECEF"/>
<path d="M289.699 237.121C289.878 239.225 290.186 240.233 290.621 240.142C291.274 240.006 291.867 239.906 291.769 240.858C291.671 241.809 290.764 242.906 292.776 243.079C294.787 243.251 297.691 238.069 297.14 237.085C295.551 234.247 287.401 233.657 289.699 237.121Z" fill="#0D1D28"/>
<path d="M243.372 256.498C243.292 256.611 242.951 257.156 243.388 257.769C243.417 257.808 243.436 257.839 243.447 257.866C248.687 261.015 264.406 273.752 264.406 282.73V301.329H216.967V282.722C216.967 273.687 232.9 260.747 238.026 257.769H238.026C238.19 257.539 238.245 257.318 238.245 257.127C238.245 256.872 238.172 256.655 238.026 256.476C232.888 253.431 216.967 240.587 216.967 231.551V212.952H264.406V231.559C264.406 240.579 248.525 253.493 243.372 256.498Z" fill="#E7ECEF"/>
<path d="M267.128 306.12H213.868V303.827C213.868 302.447 214.987 301.329 216.366 301.329H264.732C266.055 301.329 267.128 302.402 267.128 303.724V306.12Z" fill="#50616E"/>
<path d="M230.547 283.873C230.304 288.037 231.095 297.016 231.023 301.329H216.967V282.722C216.967 273.687 232.9 260.747 238.026 257.769H238.026C238.19 257.539 238.245 257.318 238.245 257.127C238.245 256.872 238.172 256.655 238.026 256.476C232.888 253.431 216.967 240.587 216.967 231.551V212.952H226.37L233.083 214.789V229.498C232.64 232.323 232.973 235.122 234.083 237.896C235.747 242.057 239.321 255.407 239.265 257.141C239.21 258.875 230.962 276.737 230.547 283.873Z" fill="#ACB8C1"/>
<path d="M258.26 225.316C255.383 225.359 250.439 225.878 242.44 227.896C236.964 229.278 227.521 228.237 222.528 227.521C220.775 227.27 219.208 228.629 219.208 230.398V232.542C219.208 238.449 235.101 251.244 239.304 254.524C239.941 255.021 240.313 255.783 240.313 256.591V289.438C240.313 290.559 239.76 291.604 238.841 292.247C236.637 293.789 233.679 296.816 229.966 301.329H251.029C247.264 296.974 244.324 293.988 242.211 292.371C241.487 291.818 241.06 290.961 241.06 290.051V256.582C241.06 255.779 241.425 255.019 242.052 254.517C246.172 251.217 261.718 238.375 261.718 232.473V228.723C261.718 226.82 260.161 225.288 258.26 225.316Z" fill="#50616E"/>
<path d="M325.751 306.226H144.249" stroke="#0D1D28"/>
<path d="M264.643 214.789H216.264C214.94 214.789 213.868 213.716 213.868 212.393V209.998H267.128V212.304C267.128 213.676 266.015 214.789 264.643 214.789Z" fill="#50616E"/>
<path d="M173.91 223.059L186.39 224.839L178.108 219.194L177.688 221.004L174.653 221.553L173.91 223.059Z" fill="#ACB8C1"/>
<path d="M186.242 224.783L175.857 219.428L165.679 218.917L186.242 224.783Z" fill="#E7ECEF"/>
<path d="M177.96 219.138L186.242 224.783L179.831 215.961L177.96 219.138Z" fill="#E7ECEF"/>
<path d="M241.739 195.567L252.693 197.13L245.423 192.175L245.054 193.763L242.39 194.245L241.739 195.567Z" fill="#ACB8C1"/>
<path d="M252.563 197.081L243.447 192.38L234.513 191.932L252.563 197.081Z" fill="#E7ECEF"/>
<path d="M245.293 192.125L252.563 197.08L246.936 189.337L245.293 192.125Z" fill="#E7ECEF"/>
<path d="M296.995 219.813L284.516 221.593L292.798 215.948L293.218 217.758L296.253 218.307L296.995 219.813Z" fill="#ACB8C1"/>
<path d="M284.663 221.537L295.049 216.182L305.227 215.671L284.663 221.537Z" fill="#E7ECEF"/>
<path d="M292.946 215.892L284.663 221.536L291.074 212.715L292.946 215.892Z" fill="#E7ECEF"/>
<path d="M109 371.913C108.801 371.913 108.61 371.992 108.47 372.133C108.329 372.273 108.25 372.464 108.25 372.663V375.663C108.25 375.862 108.329 376.053 108.47 376.193C108.61 376.334 108.801 376.413 109 376.413C109.199 376.413 109.39 376.334 109.53 376.193C109.671 376.053 109.75 375.862 109.75 375.663V372.663C109.75 372.464 109.671 372.273 109.53 372.133C109.39 371.992 109.199 371.913 109 371.913ZM109.69 378.378C109.674 378.33 109.651 378.285 109.623 378.243L109.533 378.131C109.427 378.027 109.293 377.956 109.148 377.928C109.002 377.9 108.852 377.916 108.715 377.973C108.624 378.011 108.54 378.064 108.468 378.131C108.398 378.201 108.343 378.284 108.306 378.375C108.268 378.467 108.249 378.564 108.25 378.663C108.251 378.761 108.272 378.858 108.31 378.948C108.344 379.041 108.397 379.126 108.467 379.196C108.537 379.266 108.622 379.319 108.715 379.353C108.805 379.393 108.902 379.413 109 379.413C109.098 379.413 109.195 379.393 109.285 379.353C109.378 379.319 109.463 379.266 109.533 379.196C109.603 379.126 109.656 379.041 109.69 378.948C109.728 378.858 109.749 378.761 109.75 378.663C109.754 378.613 109.754 378.563 109.75 378.513C109.737 378.465 109.717 378.42 109.69 378.378ZM109 368.163C107.517 368.163 106.067 368.603 104.833 369.427C103.6 370.251 102.639 371.423 102.071 372.793C101.503 374.163 101.355 375.671 101.644 377.126C101.934 378.581 102.648 379.917 103.697 380.966C104.746 382.015 106.082 382.73 107.537 383.019C108.992 383.308 110.5 383.16 111.87 382.592C113.241 382.025 114.412 381.063 115.236 379.83C116.06 378.596 116.5 377.146 116.5 375.663C116.5 374.678 116.306 373.703 115.929 372.793C115.552 371.883 115 371.056 114.303 370.36C113.607 369.663 112.78 369.111 111.87 368.734C110.96 368.357 109.985 368.163 109 368.163ZM109 381.663C107.813 381.663 106.653 381.311 105.667 380.652C104.68 379.993 103.911 379.056 103.457 377.959C103.003 376.863 102.884 375.656 103.115 374.493C103.347 373.329 103.918 372.26 104.757 371.42C105.596 370.581 106.666 370.01 107.829 369.778C108.993 369.547 110.2 369.666 111.296 370.12C112.392 370.574 113.33 371.343 113.989 372.33C114.648 373.316 115 374.476 115 375.663C115 377.254 114.368 378.781 113.243 379.906C112.117 381.031 110.591 381.663 109 381.663Z" fill="#ACB8C1"/>
<path d="M131.716 370.891V378.647L126.592 370.891H125.318V380.663H126.592V372.893L131.716 380.663H132.99V370.891H131.716ZM142.442 376.813C142.442 374.391 140.748 372.865 138.564 372.865C136.394 372.865 134.686 374.391 134.686 376.813C134.686 379.249 136.338 380.789 138.508 380.789C140.692 380.789 142.442 379.249 142.442 376.813ZM135.988 376.813C135.988 374.881 137.206 373.971 138.55 373.971C139.866 373.971 141.14 374.881 141.14 376.813C141.14 378.759 139.838 379.669 138.508 379.669C137.178 379.669 135.988 378.759 135.988 376.813ZM155.129 376.813C155.129 374.391 153.435 372.865 151.251 372.865C149.081 372.865 147.373 374.391 147.373 376.813C147.373 379.249 149.025 380.789 151.195 380.789C153.379 380.789 155.129 379.249 155.129 376.813ZM148.675 376.813C148.675 374.881 149.893 373.971 151.237 373.971C152.553 373.971 153.827 374.881 153.827 376.813C153.827 378.759 152.525 379.669 151.195 379.669C149.865 379.669 148.675 378.759 148.675 376.813ZM158.079 376.491C158.079 374.713 159.003 374.167 160.221 374.167H160.557V372.851C159.339 372.851 158.513 373.383 158.079 374.237V372.991H156.805V380.663H158.079V376.491ZM161.551 376.799C161.551 379.179 163.133 380.789 165.191 380.789C166.591 380.789 167.585 380.075 168.047 379.221V380.663H169.335V370.303H168.047V374.363C167.515 373.481 166.409 372.865 165.205 372.865C163.133 372.865 161.551 374.405 161.551 376.799ZM168.047 376.813C168.047 378.619 166.843 379.669 165.443 379.669C164.043 379.669 162.853 378.605 162.853 376.799C162.853 374.993 164.043 373.971 165.443 373.971C166.843 373.971 168.047 375.035 168.047 376.813ZM174.75 373.943C176.066 373.943 177.186 374.769 177.172 376.267H172.328C172.468 374.769 173.504 373.943 174.75 373.943ZM178.334 378.297H176.962C176.682 379.123 175.954 379.711 174.806 379.711C173.504 379.711 172.412 378.857 172.314 377.303H178.446C178.474 377.037 178.488 376.813 178.488 376.533C178.488 374.433 177.032 372.865 174.806 372.865C172.566 372.865 171.012 374.391 171.012 376.813C171.012 379.249 172.622 380.789 174.806 380.789C176.71 380.789 177.942 379.697 178.334 378.297ZM181.444 376.491C181.444 374.713 182.368 374.167 183.586 374.167H183.922V372.851C182.704 372.851 181.878 373.383 181.444 374.237V372.991H180.17V380.663H181.444V376.491ZM189.125 380.663H190.399V372.991H189.125V380.663ZM189.783 371.745C190.245 371.745 190.623 371.367 190.623 370.877C190.623 370.387 190.245 370.009 189.783 370.009C189.293 370.009 188.915 370.387 188.915 370.877C188.915 371.367 189.293 371.745 189.783 371.745ZM198.086 378.577C198.03 375.833 193.578 376.827 193.578 375.007C193.578 374.391 194.138 373.943 195.076 373.943C196.098 373.943 196.686 374.503 196.742 375.273H198.016C197.932 373.775 196.812 372.865 195.118 372.865C193.41 372.865 192.304 373.831 192.304 375.007C192.304 377.863 196.84 376.869 196.84 378.577C196.84 379.207 196.28 379.711 195.272 379.711C194.194 379.711 193.536 379.151 193.466 378.409H192.15C192.234 379.809 193.494 380.789 195.286 380.789C196.98 380.789 198.086 379.837 198.086 378.577ZM210.897 376.813C210.897 374.391 209.203 372.865 207.019 372.865C204.849 372.865 203.141 374.391 203.141 376.813C203.141 379.249 204.793 380.789 206.963 380.789C209.147 380.789 210.897 379.249 210.897 376.813ZM204.443 376.813C204.443 374.881 205.661 373.971 207.005 373.971C208.321 373.971 209.595 374.881 209.595 376.813C209.595 378.759 208.293 379.669 206.963 379.669C205.633 379.669 204.443 378.759 204.443 376.813ZM218.186 380.663H219.446V376.141C219.446 373.943 218.088 372.851 216.31 372.851C215.274 372.851 214.35 373.285 213.846 374.083V372.991H212.572V380.663H213.846V376.421C213.846 374.769 214.742 373.957 216.044 373.957C217.332 373.957 218.186 374.755 218.186 376.323V380.663ZM221.051 376.799C221.051 379.179 222.633 380.789 224.691 380.789C226.091 380.789 227.085 380.047 227.547 379.221V380.831C227.547 382.469 226.525 383.337 225.167 383.337C223.907 383.337 222.997 382.707 222.717 381.783H221.457C221.709 383.421 223.151 384.443 225.167 384.443C227.421 384.443 228.835 382.945 228.835 380.831V372.991H227.547V374.391C227.099 373.565 226.091 372.865 224.691 372.865C222.633 372.865 221.051 374.405 221.051 376.799ZM227.547 376.813C227.547 378.619 226.343 379.669 224.943 379.669C223.543 379.669 222.353 378.605 222.353 376.799C222.353 374.993 223.543 373.971 224.943 373.971C226.343 373.971 227.547 375.035 227.547 376.813ZM238.268 376.813C238.268 374.391 236.574 372.865 234.39 372.865C232.22 372.865 230.512 374.391 230.512 376.813C230.512 379.249 232.164 380.789 234.334 380.789C236.518 380.789 238.268 379.249 238.268 376.813ZM231.814 376.813C231.814 374.881 233.032 373.971 234.376 373.971C235.692 373.971 236.966 374.881 236.966 376.813C236.966 378.759 235.664 379.669 234.334 379.669C233.004 379.669 231.814 378.759 231.814 376.813ZM239.943 380.663H241.217V372.991H239.943V380.663ZM240.601 371.745C241.063 371.745 241.441 371.367 241.441 370.877C241.441 370.387 241.063 370.009 240.601 370.009C240.111 370.009 239.733 370.387 239.733 370.877C239.733 371.367 240.111 371.745 240.601 371.745ZM249.003 380.663H250.263V376.141C250.263 373.943 248.905 372.851 247.127 372.851C246.091 372.851 245.167 373.285 244.663 374.083V372.991H243.389V380.663H244.663V376.421C244.663 374.769 245.559 373.957 246.861 373.957C248.149 373.957 249.003 374.755 249.003 376.323V380.663ZM251.868 376.799C251.868 379.179 253.45 380.789 255.508 380.789C256.908 380.789 257.902 380.047 258.364 379.221V380.831C258.364 382.469 257.342 383.337 255.984 383.337C254.724 383.337 253.814 382.707 253.534 381.783H252.274C252.526 383.421 253.968 384.443 255.984 384.443C258.238 384.443 259.652 382.945 259.652 380.831V372.991H258.364V374.391C257.916 373.565 256.908 372.865 255.508 372.865C253.45 372.865 251.868 374.405 251.868 376.799ZM258.364 376.813C258.364 378.619 257.16 379.669 255.76 379.669C254.36 379.669 253.17 378.605 253.17 376.799C253.17 374.993 254.36 373.971 255.76 373.971C257.16 373.971 258.364 375.035 258.364 376.813ZM265.061 376.799C265.061 379.179 266.643 380.789 268.687 380.789C270.101 380.789 271.095 380.061 271.557 379.235V380.663H272.845V372.991H271.557V374.391C271.109 373.593 270.129 372.865 268.701 372.865C266.643 372.865 265.061 374.405 265.061 376.799ZM271.557 376.813C271.557 378.619 270.353 379.669 268.953 379.669C267.553 379.669 266.363 378.605 266.363 376.799C266.363 374.993 267.553 373.971 268.953 373.971C270.353 373.971 271.557 375.035 271.557 376.813ZM275.278 378.563C275.278 380.103 276.048 380.663 277.406 380.663H278.554V379.585H277.616C276.832 379.585 276.552 379.319 276.552 378.563V374.041H278.554V372.991H276.552V371.059H275.278V372.991H274.284V374.041H275.278V378.563ZM284.11 378.563C284.11 380.103 284.88 380.663 286.238 380.663H287.386V379.585H286.448C285.664 379.585 285.384 379.319 285.384 378.563V374.041H287.386V372.991H285.384V371.059H284.11V372.991H283.116V374.041H284.11V378.563ZM288.93 380.663H290.204V376.421C290.204 374.769 291.1 373.957 292.402 373.957C293.69 373.957 294.544 374.755 294.544 376.323V380.663H295.804V376.141C295.804 373.943 294.446 372.851 292.738 372.851C291.66 372.851 290.708 373.285 290.204 374.097V370.303H288.93V380.663ZM301.147 373.943C302.463 373.943 303.583 374.769 303.569 376.267H298.725C298.865 374.769 299.901 373.943 301.147 373.943ZM304.731 378.297H303.359C303.079 379.123 302.351 379.711 301.203 379.711C299.901 379.711 298.809 378.857 298.711 377.303H304.843C304.871 377.037 304.885 376.813 304.885 376.533C304.885 374.433 303.429 372.865 301.203 372.865C298.963 372.865 297.409 374.391 297.409 376.813C297.409 379.249 299.019 380.789 301.203 380.789C303.107 380.789 304.339 379.697 304.731 378.297ZM321.373 380.663H322.633V376.141C322.633 373.943 321.275 372.851 319.525 372.851C318.349 372.851 317.257 373.453 316.809 374.559C316.305 373.411 315.255 372.851 313.995 372.851C312.987 372.851 312.077 373.285 311.573 374.097V372.991H310.299V380.663H311.573V376.435C311.573 374.783 312.455 373.957 313.743 373.957C315.003 373.957 315.843 374.755 315.843 376.323V380.663H317.103V376.435C317.103 374.783 317.985 373.957 319.273 373.957C320.533 373.957 321.373 374.755 321.373 376.323V380.663ZM332.003 376.813C332.003 374.391 330.309 372.865 328.125 372.865C325.955 372.865 324.247 374.391 324.247 376.813C324.247 379.249 325.899 380.789 328.069 380.789C330.253 380.789 332.003 379.249 332.003 376.813ZM325.549 376.813C325.549 374.881 326.767 373.971 328.111 373.971C329.427 373.971 330.701 374.881 330.701 376.813C330.701 378.759 329.399 379.669 328.069 379.669C326.739 379.669 325.549 378.759 325.549 376.813ZM344.752 380.663H346.012V376.141C346.012 373.943 344.654 372.851 342.904 372.851C341.728 372.851 340.636 373.453 340.188 374.559C339.684 373.411 338.634 372.851 337.374 372.851C336.366 372.851 335.456 373.285 334.952 374.097V372.991H333.678V380.663H334.952V376.435C334.952 374.783 335.834 373.957 337.122 373.957C338.382 373.957 339.222 374.755 339.222 376.323V380.663H340.482V376.435C340.482 374.783 341.364 373.957 342.652 373.957C343.912 373.957 344.752 374.755 344.752 376.323V380.663ZM351.363 373.943C352.679 373.943 353.799 374.769 353.785 376.267H348.941C349.081 374.769 350.117 373.943 351.363 373.943ZM354.947 378.297H353.575C353.295 379.123 352.567 379.711 351.419 379.711C350.117 379.711 349.025 378.857 348.927 377.303H355.059C355.087 377.037 355.101 376.813 355.101 376.533C355.101 374.433 353.645 372.865 351.419 372.865C349.179 372.865 347.625 374.391 347.625 376.813C347.625 379.249 349.235 380.789 351.419 380.789C353.323 380.789 354.555 379.697 354.947 378.297ZM362.397 380.663H363.657V376.141C363.657 373.943 362.299 372.851 360.521 372.851C359.485 372.851 358.561 373.285 358.057 374.083V372.991H356.783V380.663H358.057V376.421C358.057 374.769 358.953 373.957 360.255 373.957C361.543 373.957 362.397 374.755 362.397 376.323V380.663ZM366.018 378.563C366.018 380.103 366.788 380.663 368.146 380.663H369.294V379.585H368.356C367.572 379.585 367.292 379.319 367.292 378.563V374.041H369.294V372.991H367.292V371.059H366.018V372.991H365.024V374.041H366.018V378.563Z" fill="#ACB8C1"/>
</svg>
