<svg width="269" height="205" viewBox="0 0 269 205" fill="none" xmlns="http://www.w3.org/2000/svg">
<path d="M230.474 203.115C242.714 206.039 251.846 200.876 257.871 187.627C269.596 161.844 253.139 137.351 224.751 135.587C183.808 133.044 206.499 67.1829 141.891 85.0524C123.724 90.0772 84.2103 64.1392 60.9492 108.088C56.9938 115.562 45.1707 115.196 29.417 127.945C1.6294 150.435 11.6332 203.354 35.0468 203.594C50.6555 203.755 115.798 203.595 230.474 203.115Z" fill="white"/>
<path d="M74.1535 166.176C70.0635 169.201 67.8766 173.416 67.5916 178.822L68.7056 178.921C70.0125 173.332 71.8454 169.445 74.2072 167.259C76.5689 165.073 76.551 164.712 74.1535 166.176Z" fill="#8D9DA8"/>
<path d="M56.589 148.009C64.2788 143.704 66.3293 138.629 62.7405 132.785C59.8706 129.197 56.8975 126.942 53.821 126.019C55.4625 134.733 55.4625 139.192 53.821 139.397C52.1809 139.603 51.6176 134.681 52.1299 124.635C44.0312 120.739 38.3933 118.945 35.2149 119.253C40.2386 127.761 41.9297 131.913 40.2896 131.709C38.6494 131.504 35.0097 127.096 29.3705 118.483C21.0679 116.946 16.2494 118.638 14.9164 123.558C12.9168 130.939 16.1461 134.63 17.9914 135.091C19.8368 135.553 31.6771 135.4 31.37 136.937C31.0629 138.475 23.0661 140.934 18.607 139.552C21.8873 147.65 25.6812 151.494 29.986 151.084C36.4447 150.469 38.4442 146.472 42.442 146.163C46.4397 145.856 49.3619 146.933 47.3624 148.009C45.3642 149.085 38.5971 148.361 35.3678 151.107C32.1398 153.852 29.5247 155.544 35.522 156.774C41.5193 158.004 52.2842 157.235 54.4366 152.622C55.8715 149.547 56.589 148.009 56.589 148.009Z" fill="#ACB8C1"/>
<path d="M18.5137 125.404C40.042 132.375 52.0366 139.757 54.4961 147.548C54.3942 151.034 55.4188 154.777 57.5726 158.774V161.081C55.3169 155.852 53.5734 152.879 52.3437 152.161C57.1622 145.396 45.8851 136.476 18.5137 125.404Z" fill="#8D9DA8"/>
<path d="M57.5723 158.775C60.8926 163.816 61.6059 169.406 59.7124 175.542L58.4317 175.198C59.2607 168.439 58.8062 163.359 57.0697 159.959C55.3332 156.559 55.4998 156.165 57.5723 158.775Z" fill="#8D9DA8"/>
<path d="M120.278 109.452C91.9002 118.642 76.0883 128.371 72.8452 138.641C72.9802 143.237 71.6292 148.168 68.791 153.438V156.479C71.7642 149.588 74.0612 145.669 75.6834 144.723C69.3322 135.803 84.1967 124.047 120.278 109.452Z" fill="#8D9DA8"/>
<path d="M68.791 153.438C64.4145 160.084 63.474 167.453 65.9693 175.542L67.6576 175.089C66.5656 166.178 67.1632 159.482 69.4534 155.001C71.7435 150.519 71.5218 149.998 68.791 153.438Z" fill="#8D9DA8"/>
<path d="M215.695 59.6049C197.264 54.7052 185.398 54.4532 180.094 58.8462C178.574 61.3621 176.139 63.5435 172.787 65.3915L171.734 67.0248C175.719 64.3518 178.312 63.0436 179.512 63.0973C179.191 56.1043 191.252 54.9393 215.695 59.6049Z" fill="#8D9DA8"/>
<path d="M142.133 56.0039C137.956 62.7765 137.236 70.1689 139.971 78.1809L141.645 77.6782C140.287 68.8041 140.685 62.0921 142.841 57.5449C144.996 52.9977 144.76 52.484 142.133 56.0039Z" fill="#6BB7BF"/>
<path d="M145.745 41.0907C135.446 35.72 132.544 29.114 137.043 21.2742C140.684 16.4336 144.513 13.3448 148.53 12.009C146.711 23.5547 146.886 29.4308 149.054 29.636C151.223 29.8425 151.773 23.3357 150.704 10.1182C161.223 4.66763 168.58 2.0828 172.781 2.36373C166.496 13.7717 164.43 19.309 166.582 18.9744C168.736 18.6398 173.358 12.6893 180.45 1.12158C191.33 -1.23052 197.745 0.808976 199.695 7.24007C202.618 16.8867 198.508 21.8773 196.095 22.5576C193.681 23.2379 178.074 23.4996 178.54 25.5129C179.005 27.5276 189.638 30.4553 195.459 28.4572C191.454 39.2564 186.608 44.4715 180.918 44.0997C172.384 43.542 169.594 38.353 164.313 38.1052C159.033 37.8559 155.225 39.39 157.902 40.7299C160.578 42.0685 169.465 40.8497 173.827 44.3407C178.19 47.8317 181.702 49.9579 173.848 51.8143C165.994 53.6706 151.78 53.0798 148.763 47.0853C146.751 43.0889 145.745 41.0907 145.745 41.0907Z" fill="#F2F5F8"/>
<path d="M183.566 18.1348C155.473 28.1656 139.958 38.3617 137.022 48.7231C137.294 53.313 136.09 58.283 133.41 63.6358L133.501 66.675C136.268 59.6972 138.448 55.7119 140.04 54.7176C133.425 45.9923 147.935 33.798 183.566 18.1348Z" fill="#8D9DA8"/>
<path d="M12.1936 203.849C12.918 199.102 17.9017 196.09 27.1449 194.813C41.0096 192.898 53.9021 177.539 76.7675 179.768C99.633 181.997 118.605 195.984 144.633 191.698C170.66 187.413 186.958 192.874 192.796 197.183C198.633 201.491 222.795 196.173 224.579 204.066L12.1936 203.849Z" fill="white"/>
<path d="M79.8462 158.187C75.0126 152.548 74.8638 147.937 79.3987 144.356C82.712 142.35 85.7196 141.429 88.4201 141.592C84.5931 148.01 83.2986 151.539 84.5366 152.177C85.7747 152.815 87.6489 149.086 90.1608 140.987C97.699 140.256 102.681 140.473 105.107 141.64C98.6616 146.914 96.1181 149.708 97.476 150.022C98.8324 150.336 102.993 147.904 109.954 142.728C116.97 143.922 120.292 146.659 119.917 150.939C119.355 157.36 115.729 159.343 114.135 159.172C112.541 159.001 103.217 155.443 103.015 156.748C102.811 158.054 108.424 162.323 112.354 162.522C107.408 167.977 103.29 169.917 100.002 168.343C95.0701 165.982 94.6501 162.237 91.575 160.834C88.5013 159.429 85.8766 159.433 87.1463 160.866C88.416 162.298 93.9795 163.689 95.7367 166.798C97.4952 169.909 99.072 172.005 93.9698 171.238C88.8677 170.471 80.5747 166.736 80.2098 162.462C79.9674 159.611 79.8462 158.187 79.8462 158.187Z" fill="#599DAD"/>
<path d="M114.746 151.113C95.6886 150.379 84.0548 152.737 79.8464 158.187C78.9154 160.975 77.0178 163.638 74.1534 166.176L73.4841 168.001C76.7864 164.519 79.0284 162.673 80.2099 162.462C78.3618 155.71 89.8745 151.927 114.746 151.113Z" fill="#599DAD"/>
<path d="M72.8447 138.642C62.7092 132.967 60.0073 126.277 64.7363 118.575C68.5206 113.844 72.4398 110.871 76.494 109.655C74.332 121.142 74.332 127.02 76.494 127.29C78.6561 127.56 79.3997 121.074 78.7236 107.83C89.3989 102.695 96.8325 100.331 101.022 100.736C94.3992 111.952 92.1696 117.425 94.3317 117.155C96.4938 116.885 101.292 111.074 108.724 99.722C119.67 97.6949 126.022 99.9245 127.779 106.412C130.413 116.141 126.157 121.007 123.725 121.615C121.291 122.223 105.683 122.02 106.089 124.047C106.494 126.074 117.035 129.317 122.914 127.493C118.589 138.169 113.589 143.237 107.913 142.696C99.3995 141.885 96.7637 136.615 91.4935 136.21C86.2233 135.804 82.3729 137.223 85.0073 138.642C87.6431 140.06 96.5612 139.107 100.818 142.726C105.076 146.344 108.521 148.575 100.615 150.196C92.7108 151.818 78.5211 150.804 75.6829 144.723C73.7908 140.669 72.8447 138.642 72.8447 138.642Z" fill="#ACB8C1"/>
<path d="M102.524 203.374H42.1421C42.1421 201.344 43.7864 199.7 45.8162 199.7H98.85C100.88 199.7 102.524 201.344 102.524 203.374Z" fill="#ACB8C1"/>
<path d="M72.3327 201.858C88.7808 201.858 102.113 188.525 102.113 172.078H42.5527C42.5527 188.525 55.8859 201.858 72.3327 201.858Z" fill="#ACB8C1"/>
<path d="M102.79 172.991H41.5735V172.078H102.79V172.991Z" fill="#0D1D28"/>
<path d="M180.095 58.8457C176.617 52.2838 177.484 47.7531 182.695 45.2536C186.367 44.0239 189.503 43.7856 192.103 44.5375C186.959 49.9592 184.921 53.1169 185.99 54.012C187.057 54.9072 189.705 51.6792 193.933 44.3296C201.448 45.2715 206.261 46.577 208.372 48.2475C200.926 51.978 197.832 54.1456 199.086 54.7502C200.342 55.3547 204.933 53.895 212.861 50.3723C219.444 53.077 222.084 56.4771 220.78 60.5712C218.823 66.7117 214.85 67.8492 213.331 67.3328C211.813 66.8164 203.498 61.2983 203.014 62.5281C202.529 63.7578 207.068 69.1533 210.858 70.2109C204.834 74.4469 200.392 75.4371 197.53 73.1786C193.238 69.7923 193.648 66.048 190.957 64.0029C188.266 61.9579 185.705 61.3864 186.629 63.061C187.553 64.7369 192.676 67.3163 193.709 70.7356C194.74 74.1564 195.82 76.5484 191.01 74.6797C186.201 72.8109 178.928 67.3479 179.512 63.0968C179.9 60.2627 180.095 58.8457 180.095 58.8457Z" fill="#E0E1E3"/>
<path d="M172.788 65.3911C168.133 67.4444 165.073 71.0772 163.611 76.2882L164.675 76.6297C167.176 71.4628 169.819 68.0737 172.602 66.4598C175.385 64.8458 175.447 64.4891 172.788 65.3911Z" fill="#599DAD"/>
<path d="M69.1878 34.1888C58.7548 33.6793 56.3063 49.3218 61.8409 81.1165C65.5632 91.9102 65.0757 100.784 60.3756 107.74H164.154V34.1888H69.1878Z" fill="#ACB8C1"/>
<path d="M75.7673 62.4199V203.721H184.117V62.4199H75.7673Z" fill="#50616E"/>
<path d="M79.3108 62.4199V203.721H185.837V62.4199H79.3108Z" fill="#F2F5F8"/>
<path d="M185.838 62.4164C185.837 62.4178 185.837 62.4178 185.837 62.4178H79.3094C79.8988 54.3631 79.012 48.5131 77.5881 44.3061C75.7675 38.9133 73.2874 35.5408 70.1489 34.1885H170.614C179.188 34.1885 185.837 39.354 187.646 46.2106C187.714 46.4695 187.777 46.7257 187.832 46.9818C189.55 54.8272 185.909 62.2732 185.838 62.4164Z" fill="#F2F5F8"/>
<path d="M185.838 62.417C185.837 62.4184 185.837 62.4184 185.837 62.4184H79.3093C79.8987 54.3637 79.0118 48.5137 77.5879 44.3066C88.4753 46.3007 115.438 50.5477 144.299 49.833C162.97 49.3689 177.724 48.1198 187.832 46.9824C189.549 54.8277 185.908 62.2738 185.838 62.417Z" fill="#E7ECEF"/>
<path d="M157.697 95.0001H101.204C100.624 95.0001 100.15 94.5264 100.15 93.9467V93.4055C100.15 92.8257 100.624 92.3506 101.204 92.3506H157.697C158.277 92.3506 158.752 92.8257 158.752 93.4055V93.9467C158.752 94.5264 158.277 95.0001 157.697 95.0001Z" fill="#ACB8C1"/>
<path d="M135.833 99.4591H100.982C100.525 99.4591 100.15 99.0846 100.15 98.626V97.6413C100.15 97.1841 100.525 96.8096 100.982 96.8096H135.833C136.29 96.8096 136.664 97.1841 136.664 97.6413V98.626C136.664 99.0846 136.29 99.4591 135.833 99.4591Z" fill="#ACB8C1"/>
<path d="M94.7082 99.0296V93.6175H93.9948C93.561 93.6175 93.3448 93.4371 93.3448 93.0763C93.3448 92.8161 93.5142 92.6315 93.8544 92.5241C94.0265 92.4663 94.3033 92.4236 94.682 92.3947C95.0607 92.3657 95.365 92.3506 95.5964 92.3506C95.8195 92.3506 95.9613 92.396 96.0192 92.4855C96.0756 92.5764 96.1059 92.805 96.1059 93.1741V99.0296H96.8413C97.3178 99.0296 97.556 99.2361 97.556 99.6465C97.556 100.08 97.3178 100.296 96.8413 100.296H93.875C93.6657 100.296 93.4908 100.24 93.3503 100.128C93.2099 100.017 93.1396 99.86 93.1396 99.6575C93.1396 99.2389 93.3806 99.0296 93.864 99.0296H94.7082Z" fill="#ACB8C1"/>
<path d="M157.697 122.908H101.204C100.624 122.908 100.151 122.435 100.151 121.853V121.314C100.151 120.734 100.624 120.259 101.204 120.259H157.697C158.277 120.259 158.752 120.734 158.752 121.314V121.853C158.752 122.435 158.277 122.908 157.697 122.908Z" fill="#ACB8C1"/>
<path d="M135.833 127.368H100.982C100.525 127.368 100.151 126.993 100.151 126.535V125.55C100.151 125.091 100.525 124.717 100.982 124.717H135.833C136.29 124.717 136.665 125.091 136.665 125.55V126.535C136.665 126.993 136.29 127.368 135.833 127.368Z" fill="#ACB8C1"/>
<path d="M97.6676 126.826C97.6676 127.187 97.4156 127.367 96.9116 127.367H93.7745C93.3215 127.367 93.0942 127.186 93.0942 126.822C93.0942 126.706 93.1548 126.573 93.276 126.42C93.455 126.216 93.7167 125.909 94.061 125.501C94.5843 124.845 95.0208 124.277 95.372 123.798C95.4931 123.64 95.6653 123.397 95.8884 123.071C96.0729 122.746 96.1652 122.472 96.1652 122.249C96.1652 121.999 96.0853 121.794 95.9269 121.632C95.7672 121.469 95.5634 121.388 95.3141 121.388C95.0718 121.388 94.8611 121.464 94.682 121.617C94.5608 121.72 94.4658 121.91 94.3956 122.191C94.3061 122.554 94.2496 122.765 94.2235 122.823C94.1284 123.027 93.9714 123.129 93.7552 123.129C93.5638 123.129 93.4137 123.058 93.3049 122.918C93.203 122.797 93.1521 122.637 93.1521 122.44C93.1521 122.217 93.1865 121.99 93.2567 121.761C93.411 121.27 93.6809 120.894 94.0706 120.632C94.4397 120.383 94.89 120.259 95.4188 120.259C95.9999 120.259 96.4847 120.435 96.873 120.786C97.2751 121.157 97.4762 121.629 97.4762 122.203C97.4762 122.632 97.333 123.072 97.0452 123.527C96.8868 123.776 96.5577 124.217 96.0605 124.849C95.8058 125.175 95.4036 125.647 94.8555 126.267H96.9212C97.4183 126.267 97.6676 126.453 97.6676 126.826Z" fill="#ACB8C1"/>
<path d="M157.697 146.187H101.204C100.624 146.187 100.151 145.712 100.151 145.132V144.591C100.151 144.011 100.624 143.536 101.204 143.536H157.697C158.277 143.536 158.752 144.011 158.752 144.591V145.132C158.752 145.712 158.277 146.187 157.697 146.187Z" fill="#ACB8C1"/>
<path d="M135.833 150.645H100.982C100.525 150.645 100.151 150.27 100.151 149.813V148.827C100.151 148.37 100.525 147.995 100.982 147.995H135.833C136.29 147.995 136.665 148.37 136.665 148.827V149.813C136.665 150.27 136.29 150.645 135.833 150.645Z" fill="#ACB8C1"/>
<path d="M97.6677 148.425C97.6677 149.103 97.4295 149.648 96.9543 150.058C96.504 150.45 95.9339 150.645 95.2426 150.645C94.7083 150.645 94.2511 150.518 93.8738 150.264C93.2733 149.86 92.9731 149.374 92.9731 148.807C92.9731 148.644 93.0255 148.504 93.1301 148.387C93.2348 148.27 93.3684 148.21 93.5309 148.21C93.7002 148.21 93.86 148.325 94.0101 148.552C94.2511 148.931 94.3916 149.14 94.4315 149.178C94.6463 149.407 94.9231 149.52 95.2619 149.52C95.7191 149.52 96.0441 149.351 96.2396 149.012C96.3305 148.842 96.3773 148.628 96.3773 148.366C96.3773 147.728 96.0014 147.373 95.2522 147.3C94.8281 147.262 94.616 147.083 94.616 146.763C94.616 146.529 94.74 146.362 94.9851 146.265C95.445 146.095 95.6792 146.007 95.6847 146C95.9312 145.838 96.0537 145.554 96.0537 145.149C96.0537 144.908 95.9821 144.718 95.8403 144.578C95.6971 144.437 95.5056 144.367 95.2646 144.367C94.9658 144.367 94.7317 144.438 94.5637 144.582C94.4205 144.706 94.2993 144.918 94.2029 145.218C94.1244 145.447 93.9757 145.559 93.754 145.559C93.5983 145.559 93.4703 145.492 93.3698 145.354C93.2692 145.218 93.2183 145.068 93.2183 144.905C93.2183 144.703 93.2734 144.5 93.3849 144.298C93.5667 143.959 93.8476 143.696 94.2249 143.506C94.5706 143.33 94.9493 143.243 95.3597 143.243C95.9133 143.243 96.3746 143.41 96.7437 143.746C97.1114 144.082 97.2959 144.524 97.2959 145.071C97.2959 145.73 97.0218 146.251 96.4751 146.636C97.2697 146.956 97.6677 147.552 97.6677 148.425Z" fill="#ACB8C1"/>
<path d="M269 204.111H0.5" stroke="#0D1D28"/>
<path d="M151.117 71.8034H115.923C115.322 71.8034 114.829 71.3118 114.829 70.7086V69.8204C114.829 69.2186 115.322 68.7256 115.923 68.7256H151.117C151.719 68.7256 152.212 69.2186 152.212 69.8204V70.7086C152.212 71.3118 151.719 71.8034 151.117 71.8034Z" fill="#ACB8C1"/>
<path d="M160.294 76.5505H106.748C106.009 76.5505 105.404 75.9459 105.404 75.2078V74.8153C105.404 74.0772 106.009 73.4727 106.748 73.4727H160.294C161.032 73.4727 161.637 74.0772 161.637 74.8153V75.2078C161.637 75.9459 161.032 76.5505 160.294 76.5505Z" fill="#ACB8C1"/>
<path d="M129.394 109.29C117.789 109.29 106.776 107.834 98.567 105.752C90.2727 103.649 85.804 100.213 85.804 97.1641C85.804 94.4016 89.445 91.8595 96.3333 89.8158C89.7328 91.7755 86.2019 94.6522 86.2019 97.1641C86.2019 99.9513 90.7781 102.711 98.757 104.733C106.938 106.808 117.818 107.95 129.394 107.95C140.968 107.95 151.849 106.808 160.029 104.733C168.008 102.711 172.584 99.9513 172.584 97.1641C172.584 94.2116 167.765 90.5429 160.008 87.5904C151.189 84.2317 140.315 82.9854 129.394 82.9854C108.887 82.9854 100.447 85.3788 93.1219 88.3781C100.478 85.3664 108.815 81.9512 129.394 81.9512C140.359 81.9512 151.279 83.8103 160.14 87.1842C168.061 90.2 172.982 94.0243 172.982 97.1641C172.982 100.213 168.414 103.05 160.12 105.153C151.911 107.233 140.998 109.29 129.394 109.29Z" fill="#0D1D28"/>
<path d="M199.864 136.494C199.61 138.972 199.342 140.444 199.063 140.912C198.643 141.616 196.858 143.861 196.098 144.301C195.338 144.742 196.562 141.343 196.408 140.681C196.252 140.02 195.781 141.889 195.447 141.933C195.111 141.977 195.197 140.294 195.185 139.682C195.172 139.07 196.815 137.559 197.395 136.256C197.781 135.387 198.604 135.467 199.864 136.494Z" fill="#ACB8C1"/>
<path d="M154.222 102.23L153.368 100.619C153.65 98.7051 152.592 97.1435 150.195 95.933C149.318 95.5763 148.632 95.7553 148.137 96.4701C147.454 97.4574 149.44 97.2784 149.334 98.9681C149.227 100.658 150.028 101.649 151.145 102.199L152.068 103.269L154.222 102.23Z" fill="#ACB8C1"/>
<path d="M188.214 98.3795C186.155 108.487 179.46 115.193 168.127 118.495C164.59 119.525 158.802 114.218 150.766 102.571C151.048 101.497 152.074 101.084 153.844 101.331C161.67 106.511 166.074 109.383 167.06 109.946C168.371 110.695 176.994 100.317 180.925 98.6425C183.545 97.5271 185.976 97.4389 188.214 98.3795Z" fill="#FCD400"/>
<path d="M158.767 97.8225L158.285 100.961L142.5 98.5359L142.981 95.3975L158.767 97.8225Z" fill="#FCD400"/>
<path d="M139.071 96.4027L142.5 98.5359L142.982 95.3975L139.071 96.4027Z" fill="#ACB8C1"/>
<path d="M160.443 99.1443L160.29 100.137C160.197 100.747 159.625 101.166 159.015 101.072L158.285 100.961L158.767 97.8223L159.562 97.9435C160.136 98.0316 160.531 98.57 160.443 99.1443Z" fill="#ACB8C1"/>
<path d="M208.509 193.687C209.915 194.969 210.481 196.067 210.207 196.978C209.795 198.346 207.892 199.257 207.634 200.928C207.378 202.6 206.349 203.511 205.423 203.511C204.806 203.511 203.335 203.511 201.009 203.511C200.555 202.728 200.877 202.217 201.973 201.981C203.62 201.626 204.24 199.662 204.138 197.839C204.069 196.624 204.12 195.206 204.292 193.585L207.789 192.775L208.509 193.687Z" fill="#ACB8C1"/>
<path d="M182.638 198.664C182.89 201.583 182.707 203.196 182.09 203.499L170.243 203.476C170.243 202.564 170.876 202.006 172.144 201.804C174.048 201.499 177.391 200.385 177.957 197.904C178.335 196.25 179.895 196.503 182.638 198.664Z" fill="#ACB8C1"/>
<path d="M172.635 136.797C173.051 141.915 173.504 147.55 173.994 153.702C174.992 166.238 176.193 181.637 176.312 184.553C176.448 187.931 176.791 192.32 177.34 197.723C178.643 199.005 180.597 199.376 183.204 198.835C185.527 191.125 187.02 183.19 187.684 175.031C187.699 174.831 187.714 174.628 187.729 174.426C188.348 166.121 189.135 153.223 190.095 135.733L172.635 136.797Z" fill="#1C2A38"/>
<path d="M172.635 136.797C173.051 141.915 173.504 147.55 173.994 153.702L187.684 175.031C187.699 174.831 187.714 174.628 187.729 174.426C188.348 166.121 189.135 153.223 190.095 135.733L172.635 136.797Z" fill="#0D1D28"/>
<path d="M175.488 137.708C182.998 156.244 189.221 169.868 194.159 178.578C199.096 187.29 202.336 192.86 203.88 195.291C206.709 194.177 208.251 193.24 208.509 192.48C206.621 175.664 204.023 165.206 200.717 161.107C197.914 157.632 194.622 147.205 194.468 143.558C194.364 141.128 194.03 137.506 193.465 132.694L175.488 137.708Z" fill="#1C2A38"/>
<path d="M190.308 94.8609C185.227 97.3121 181.222 98.0833 178.293 97.1744C179.015 96.2641 180.006 95.4709 181.268 94.7947C181.115 93.912 180.996 93.1477 180.929 92.4977C180.805 91.4993 180.743 90.7171 180.743 90.1525L183.683 87.839L186.472 85.626C186.326 89.7752 187.604 92.853 190.308 94.8609Z" fill="#ACB8C1"/>
<path d="M194.324 134.12C194.342 134.585 193.345 135.118 192.906 135.318C189.643 136.749 186.601 137.747 183.154 138.079C179.082 138.495 174.265 137.58 172.61 137.613C172.44 137.613 172.289 137.547 172.154 137.43C172.036 137.348 171.95 132.438 172.036 126.266C172.036 126.015 172.036 125.766 172.052 125.517V125.433C172.085 123.02 172.171 120.492 172.289 117.962C172.526 112.404 172.964 107.047 173.707 104.085C174.604 100.591 176.631 98.2777 178.474 96.5976L179.994 95.2659C181.516 95.5661 183.12 95.4821 184.726 94.6999C186.483 93.8516 188.376 92.9359 188.681 93.17C190.979 94.85 192.534 98.6274 193.361 103.453C193.834 106.232 194.071 109.343 194.054 112.604C194.054 113.802 194.02 115.034 193.952 116.249C193.547 122.837 193.952 128.562 194.189 131.872C194.257 132.838 194.308 133.587 194.324 134.12Z" fill="#FCD400"/>
<path d="M194.189 133.816C176.397 133.78 174.757 124.127 189.267 104.857L193.591 103.452C193.933 106.421 194.104 109.746 194.091 113.23C194.091 114.509 194.068 115.825 194.018 117.123C193.725 124.162 194.018 130.278 194.189 133.816Z" fill="#AB9446"/>
<path d="M186.523 88.0055C185.238 90.3466 183.375 91.8435 180.929 92.4976C180.805 91.4992 180.743 90.717 180.743 90.1524L183.683 87.8389L186.523 88.0055Z" fill="#374956"/>
<path d="M179.404 90.0506C184.25 90.8438 186.901 89.7504 187.356 86.7703C188.038 82.3002 189.437 79.4441 184.824 78.4953C180.211 77.5478 179.046 79.1191 178.449 80.5568C177.853 81.9931 177.529 89.6264 179.404 90.0506Z" fill="#ACB8C1"/>
<path d="M189.999 77.9607C190.065 77.8849 190.216 77.8229 190.555 77.805C190.375 77.6921 190.164 77.6329 189.923 77.626C189.852 77.1551 189.601 76.3219 188.79 76.1195C189.08 76.2737 189.246 76.5188 189.283 76.8521C188.344 75.8881 186.332 75.1858 180.76 75.6251C173.417 76.2048 175.837 80.9063 176.787 81.4668C177.739 82.0273 180.131 80.4918 181.903 80.6322C183.674 80.7727 184.01 83.3314 184.612 83.6825C185.212 84.0337 184.975 83.4126 185.789 83.0463C186.602 82.6786 186.679 84.0254 186.445 84.9013C186.288 85.4852 186.582 86.1627 187.326 86.9325C187.326 86.9325 187.703 86.5276 188.455 85.7165C189.584 84.5005 190.649 79.3515 190.135 78.254C190.09 78.1576 190.044 78.0584 189.999 77.9607Z" fill="#2C3A64"/>
<path d="M188.677 93.1328C191.744 94.5843 194.013 96.4269 195.482 98.6591C198.905 103.854 202.871 122.786 202.944 124.539C202.992 125.708 202.028 130.418 200.049 138.668C198.043 138.536 196.78 137.965 196.262 136.951C196.663 128.474 196.737 123.962 196.482 123.417C196.102 122.599 183.934 106.359 185.303 102.894C186.215 100.583 187.34 97.3289 188.677 93.1328Z" fill="#FCD400"/>
<path d="M153.353 100.542C153.519 99.8838 153.373 99.4059 152.916 99.1099C152.232 98.6664 151.601 97.4587 151.312 97.6226C150.713 97.9614 151.64 99.0148 151.47 100.33C151.411 100.79 152.482 101.996 153.353 100.542Z" fill="#ACB8C1"/>
<path d="M41.5742 194.121C34.3706 175.674 28.2425 167.92 23.1912 170.857C18.1386 173.795 24.2668 181.549 41.5742 194.121Z" fill="#E7ECEF"/>
<path d="M36.2319 194.122C26.7147 185.897 19.7823 182.548 15.4362 184.076C11.0887 185.604 18.021 188.952 36.2319 194.122Z" fill="#E7ECEF"/>
<path d="M187.379 198.106C189.573 190.481 191.956 187.118 194.528 188.017C197.102 188.917 194.718 192.279 187.379 198.106Z" fill="#E7ECEF"/>
<path d="M190.381 197.483C195.98 193.807 199.394 192.538 200.624 193.674C201.855 194.81 198.44 196.08 190.381 197.483Z" fill="#E7ECEF"/>
</svg>
