<svg width="13" height="13" viewBox="0 0 13 13" fill="none" xmlns="http://www.w3.org/2000/svg">
<path d="M12.5003 11.6628L10.3361 9.51614C11.1762 8.46871 11.583 7.13923 11.4729 5.80106C11.3628 4.4629 10.7442 3.21776 9.74432 2.32168C8.74439 1.4256 7.43915 0.946685 6.09697 0.983412C4.75478 1.02014 3.47768 1.56972 2.52826 2.51914C1.57884 3.46856 1.02926 4.74566 0.992536 6.08784C0.95581 7.43003 1.43472 8.73527 2.3308 9.73519C3.22689 10.7351 4.47202 11.3537 5.81019 11.4638C7.14835 11.5738 8.47783 11.167 9.52526 10.327L11.6719 12.4736C11.7262 12.5283 11.7907 12.5717 11.8618 12.6013C11.9328 12.6309 12.0091 12.6462 12.0861 12.6462C12.1631 12.6462 12.2393 12.6309 12.3104 12.6013C12.3815 12.5717 12.446 12.5283 12.5003 12.4736C12.6054 12.3649 12.6642 12.2195 12.6642 12.0682C12.6642 11.9169 12.6054 11.7716 12.5003 11.6628ZM6.25276 10.327C5.44516 10.327 4.65568 10.0875 3.98418 9.63881C3.31268 9.19012 2.78931 8.55239 2.48025 7.80626C2.1712 7.06013 2.09033 6.23911 2.24789 5.44702C2.40544 4.65493 2.79434 3.92735 3.36541 3.35628C3.93647 2.78522 4.66405 2.39632 5.45614 2.23876C6.24823 2.08121 7.06925 2.16207 7.81539 2.47113C8.56152 2.78019 9.19925 3.30356 9.64793 3.97506C10.0966 4.64656 10.3361 5.43603 10.3361 6.24364C10.3361 7.32661 9.90589 8.36522 9.14011 9.13099C8.37434 9.89676 7.33573 10.327 6.25276 10.327Z" fill="#ACB8C1"/>
</svg>
