<svg width="131" height="23" viewBox="0 0 131 23" fill="none" xmlns="http://www.w3.org/2000/svg">
<path d="M12.55 4.71C12.29 3.95 11.82 3.39 11.33 2.99C10.5 2.36 9.61004 2.3 8.84999 2.3C8.01999 2.3 6.97 2.43 6.07 3.22C5.41 3.81 4.90999 4.81 4.90999 5.83C4.90999 6.52 5.16999 7.25 5.83999 7.85C6.26999 8.25 7.22999 8.78 7.68999 9.01L9.67004 9.94C10.69 10.4 11.68 11 12.48 11.82C13.73 13.11 13.9699 14.26 13.9699 15.69C13.9699 16.98 13.74 18.99 12.12 20.68C10.27 22.6 7.95999 22.79 6.40999 22.79C4.62999 22.79 3.16999 22.46 1.84999 21.14C0.889994 20.15 0.17 18.7 0 17.11L2.43999 16.45C2.50999 17.57 2.93999 18.6 3.62999 19.32C4.58999 20.31 5.67999 20.48 6.76999 20.48C7.82999 20.48 9.18 20.31 10.21 19.26C11.04 18.4 11.4 17.11 11.4 16.06C11.4 14.74 10.81 13.78 10.21 13.25C9.78004 12.85 8.75999 12.26 8.05999 11.93L6.30999 11.1C5.71999 10.84 4.42999 10.17 3.69999 9.41C3.10999 8.78 2.43999 7.73 2.43999 6.01C2.43999 4.46 2.89999 3.07 4.15999 1.85C5.54999 0.499998 7.16999 0 9.01999 0C9.98004 0 11.4599 0.129998 12.65 0.919998C13.5099 1.48 14.24 2.41 14.63 3.43L12.55 4.71Z" fill="#2D2A2E"/>
<path d="M24.9996 0.350098C27.2496 0.350098 29.1996 0.9401 30.3196 2.0401C31.2096 2.9001 31.8396 4.3501 31.8396 6.2001C31.8396 8.3501 31.0096 9.9701 30.0596 10.8901C29.1396 11.7801 27.3496 12.8101 23.8196 12.8101H21.9396L20.7496 22.3901H18.3096L21.0196 0.3601H24.9996V0.350098ZM22.1896 10.4901H24.2696C25.4596 10.4901 27.0796 10.3601 28.2296 9.3001C28.8896 8.7101 29.4196 7.7101 29.4196 6.2601C29.4196 4.7701 28.8296 3.9101 28.1996 3.4501C27.3096 2.7601 25.9496 2.6601 24.9596 2.6601H23.1396L22.1896 10.4901Z" fill="#2D2A2E"/>
<path d="M48.3198 3.5201H39.5298L38.8698 9.1001H47.3898L46.9898 12.2701H38.4698L37.6098 19.2101H46.3998L45.9998 22.3801H33.8398L36.5498 0.350098H48.7098L48.3198 3.5201Z" fill="#2D2A2E"/>
<path d="M65.4995 3.5201H56.7095L56.0495 9.1001H64.5695L64.1695 12.2701H55.6495L54.7895 19.2101H63.5795L63.1795 22.3801H51.0195L53.7295 0.350098H65.8895L65.4995 3.5201Z" fill="#2D2A2E"/>
<path d="M77.0203 0.350098C79.3003 0.350098 82.9704 0.680103 85.4404 3.1601C86.8904 4.6101 88.0804 7.0301 88.0804 10.4901C88.0804 15.5401 85.7704 18.2901 84.6404 19.3401C82.1004 21.7501 78.6303 22.3801 74.6303 22.3801H67.8604L70.5704 0.350098H77.0203ZM73.4903 18.0901H75.0404C76.5304 18.0901 78.8704 17.9901 80.6604 16.4001C81.9204 15.2801 82.8704 13.2301 82.8704 10.6201C82.8704 8.6701 82.2403 7.1201 81.2803 6.1901C80.2203 5.1701 78.4104 4.6401 76.6904 4.6401H75.1404L73.4903 18.0901Z" fill="#2D2A2E"/>
<path d="M96.1802 12.1101L89.7402 0.350098H95.5502L99.1502 7.1901L104.4 0.350098H110.61L101.26 12.1101L100.01 22.3801H94.9202L96.1802 12.1101Z" fill="#2D2A2E"/>
<path d="M121.39 12.7399L120.2 22.3899H114.62L115.84 12.5799L110.22 0.359863H116.4L117.92 3.89986C118.81 6.00986 118.88 6.14987 119.11 6.86987C119.18 7.03987 119.24 7.29986 119.34 7.59986C119.64 7.03986 119.93 6.57986 120.43 5.84986L124.23 0.369865H131L121.39 12.7399Z" fill="#2D2A2E"/>
</svg>
