<svg width="70" height="70" viewBox="0 0 70 70" fill="none" xmlns="http://www.w3.org/2000/svg">
<g clip-path="url(#clip0_201_11)">
<path d="M59.103 0H10.897C4.87877 0 0 4.91826 0 10.9852V59.0148C0 65.0817 4.87877 70 10.897 70H59.103C65.1212 70 70 65.0817 70 59.0148V10.9852C70 4.91826 65.1212 0 59.103 0Z" fill="#F7C100"/>
<path d="M27.5136 44.5684H43.1461C47.1821 44.5684 50.4539 41.2701 50.4539 37.2015C50.4539 33.1328 47.1821 29.8346 43.1461 29.8346L27.5136 29.8346C23.4776 29.8346 20.2058 33.1328 20.2058 37.2015C20.2058 41.2701 23.4776 44.5684 27.5136 44.5684Z" fill="white"/>
<path fill-rule="evenodd" clip-rule="evenodd" d="M20.2058 37.2569C20.1952 35.7999 20.6134 34.3725 21.4075 33.1551C22.2016 31.9377 23.336 30.9851 24.6672 30.4176C25.9984 29.8502 27.4666 29.6934 28.8862 29.9671C30.3058 30.2408 31.613 30.9328 32.6425 31.9554C33.672 32.9781 34.3775 34.2855 34.67 35.7124C34.9624 37.1393 34.8285 38.6215 34.2853 39.9717C33.742 41.3219 32.8138 42.4794 31.6181 43.2978C30.4223 44.1162 29.0126 44.5588 27.5673 44.5695C25.6293 44.5838 23.7649 43.8214 22.3844 42.45C21.0038 41.0787 20.2202 39.2107 20.2058 37.2569Z" fill="#211816"/>
<path d="M43.1461 12.9141H27.5136C23.4776 12.9141 20.2058 16.2123 20.2058 20.281C20.2058 24.3496 23.4776 27.6479 27.5136 27.6479H43.1461C47.182 27.6479 50.4538 24.3496 50.4538 20.281C50.4538 16.2123 47.182 12.9141 43.1461 12.9141Z" fill="white"/>
<path fill-rule="evenodd" clip-rule="evenodd" d="M50.4553 20.2269C50.4659 21.6838 50.0477 23.1112 49.2537 24.3285C48.4596 25.5459 47.3253 26.4985 45.9942 27.066C44.6631 27.6335 43.1949 27.7904 41.7754 27.5168C40.3558 27.2432 39.0486 26.5514 38.0191 25.5289C36.9895 24.5064 36.2838 23.1991 35.9913 21.7723C35.6987 20.3455 35.8324 18.8633 36.3754 17.5131C36.9184 16.1629 37.8464 15.0053 39.0419 14.1867C40.2375 13.3681 41.647 12.9253 43.0923 12.9143C44.052 12.907 45.0038 13.0904 45.8933 13.454C46.7827 13.8176 47.5924 14.3542 48.2762 15.0333C48.9599 15.7123 49.5042 16.5205 49.8781 17.4116C50.252 18.3027 50.4481 19.2594 50.4553 20.2269Z" fill="#211816"/>
<path d="M37.0821 59.8394L37.8953 51.6405L40.5616 51.6354C41.0055 51.6333 41.4433 51.7383 41.8387 51.9417C42.234 52.1451 42.5753 52.441 42.8339 52.8046L42.8454 52.8213C43.2975 53.4674 43.4913 54.2039 43.5559 54.9694C43.6219 55.7942 43.5782 56.6169 43.2961 57.4135C43.0693 58.0531 42.7471 58.6275 42.2411 59.0776C41.8082 59.4685 41.2633 59.7105 40.6851 59.7685C39.5827 59.885 37.0821 59.8394 37.0821 59.8394ZM39.4592 53.2199L38.9568 58.2513C38.9568 58.2513 40.0398 58.2513 40.4131 58.179C40.9707 58.074 41.2923 57.6558 41.5076 57.1595C41.9382 56.1734 41.949 55.1568 41.6576 54.1366C41.5492 53.7568 41.3245 53.4326 40.9147 53.3089C40.4475 53.1715 39.4592 53.2199 39.4592 53.2199ZM48.4134 56.6205L51.2448 51.6108H49.3134L47.6282 54.7495C47.1093 53.7004 46.1016 51.6383 46.1016 51.6383H44.3397C44.3397 51.6383 46.3435 55.8347 46.7081 56.6183C46.5983 57.713 46.3859 59.8163 46.3859 59.8163H48.0581L48.4134 56.6205ZM55.5417 56.6205L58.3695 51.6094H56.4417L54.7565 54.748C54.2376 53.6989 53.23 51.6369 53.23 51.6369H51.468C51.468 51.6369 53.4718 55.8333 53.8364 56.6169C53.7266 57.7116 53.5142 59.8148 53.5142 59.8148H55.1836L55.5417 56.6205ZM25.992 56.0721H29.8806L29.9079 55.1242H26.0566C26.1284 54.3175 26.2002 53.5484 26.2719 52.7431H30.2911C30.2911 52.7431 30.3399 52.092 30.3629 51.7881H25.2837L24.6377 59.7533H30.0005C30.0005 59.7533 30.0335 59.1195 30.0536 58.7918H25.766C25.8449 57.8621 25.9181 56.9736 25.992 56.0721ZM32.0524 56.0721H35.941L35.9683 55.1242H32.117C32.1888 54.3175 32.2605 53.5484 32.3323 52.7431H36.3515C36.3515 52.7431 36.3996 52.092 36.4233 51.7881H31.3433L30.6974 59.7533H36.0616C36.0616 59.7533 36.0946 59.1195 36.1147 58.7918H31.8292C31.9053 57.8621 31.9785 56.9736 32.0524 56.0721ZM12.6361 58.3989C12.7454 58.6766 12.9108 58.9284 13.1219 59.1381C13.3329 59.3479 13.585 59.5111 13.862 59.6173C14.5981 59.9042 15.4059 59.946 16.1673 59.7367C16.6905 59.6106 17.1447 59.2845 17.434 58.8272C18.019 57.9018 17.7642 56.5604 16.8713 55.9331C16.5706 55.7319 16.2591 55.5473 15.9383 55.3804C15.4208 55.0953 14.894 54.8276 14.378 54.5404C13.862 54.2531 13.8132 53.7387 13.9036 53.314C13.9861 52.9255 14.4318 52.6216 14.8948 52.6049C15.1101 52.597 15.3297 52.5963 15.5464 52.6049C16.2032 52.6295 16.8484 53.1707 16.9424 53.8147C16.9582 53.9189 16.9855 54.0223 17.0142 54.1453C17.3135 54.1099 17.9601 54.0404 17.9601 54.0404C17.9601 54.0404 17.9271 53.8516 17.912 53.7749C17.7534 52.9696 17.3572 52.3184 16.6166 51.9465C15.802 51.5377 14.9364 51.5124 14.0873 51.8156C13.3495 52.0782 12.9333 52.6715 12.9189 53.5216C12.9038 54.2893 13.201 54.9195 13.8239 55.3652C14.1428 55.5821 14.4738 55.7804 14.8151 55.9592C15.268 56.211 15.7352 56.4382 16.1838 56.6979C16.6323 56.9576 16.8261 57.3606 16.7536 57.8642C16.6819 58.3345 16.3948 58.642 15.9462 58.8048C15.4656 58.9784 14.9408 58.9835 14.457 58.8193C13.9316 58.6521 13.5412 58.3381 13.4048 57.7723C13.3488 57.5401 13.249 57.064 13.249 57.064L12.3447 57.1458C12.3447 57.1458 12.4718 58.0075 12.6361 58.3989ZM19.8168 59.7266H18.8393L19.2484 51.7758H19.7321C20.6372 51.7758 21.5415 51.7758 22.4458 51.7758C22.7114 51.7696 22.9752 51.8217 23.2188 51.9284C23.8138 52.1998 24.1202 52.7004 24.3147 53.2988C24.5358 53.9804 24.4583 54.633 24.1798 55.2812C23.9013 55.9295 23.3903 56.2537 22.7293 56.4078C22.0267 56.572 21.3169 56.5315 20.6078 56.538C20.4154 56.538 20.2238 56.538 19.9991 56.538C19.9381 57.6081 19.8807 58.6543 19.8168 59.7266ZM20.0322 55.5707C20.0322 55.5707 20.3042 55.5707 20.4204 55.5707C21.0097 55.5584 21.5989 55.5395 22.1882 55.5215C22.4494 55.5135 22.6712 55.3985 22.8851 55.2581C23.6372 54.7647 23.6745 53.1136 22.7666 52.7634C21.9406 52.6115 21.0779 52.7156 20.19 52.6802C20.1384 53.6497 20.0343 55.5707 20.0343 55.5707H20.0322Z" fill="#211816"/>
</g>
<defs>
<clipPath id="clip0_201_11">
<rect width="70" height="70" fill="white"/>
</clipPath>
</defs>
</svg>
