<svg width="25" height="25" viewBox="0 0 25 25" fill="none" xmlns="http://www.w3.org/2000/svg">
<path d="M18.2149 14.5773L18.216 14.5773C20.5131 14.5588 22.389 16.4099 22.4044 18.704L22.4044 18.706C22.4229 21.0031 20.5718 22.8791 18.2777 22.8945L18.2768 22.8945L5.68962 22.9867L5.68854 22.9867C3.39146 23.0052 1.51549 21.1541 1.5001 18.86C1.48469 16.565 3.33357 14.6883 5.62826 14.6695C5.62846 14.6695 5.62865 14.6695 5.62885 14.6695L18.2149 14.5773Z" stroke="#F5BF00" stroke-width="3"/>
<path d="M5.65868 24.4861C8.78381 24.4861 11.3172 21.9526 11.3172 18.8275C11.3172 15.7024 8.78381 13.1689 5.65868 13.1689C2.53354 13.1689 0.00012207 15.7024 0.00012207 18.8275C0.00012207 21.9526 2.53354 24.4861 5.65868 24.4861Z" fill="#2D2A2E"/>
<path d="M6.22189 9.91248L6.22081 9.91249C3.92373 9.93097 2.04778 8.07985 2.03238 5.78574L2.03236 5.78374C2.01389 3.48665 3.86501 1.61069 6.15912 1.5953L6.16004 1.59529L18.7472 1.50308L18.7483 1.50307C21.0453 1.48459 22.9213 3.33572 22.9367 5.62983L22.9367 5.63184C22.9552 7.92398 21.1088 9.80119 18.809 9.82027C18.809 9.82027 18.8089 9.82027 18.8088 9.82027C18.8085 9.82027 18.8082 9.82028 18.808 9.82028L6.22189 9.91248Z" stroke="#F5BF00" stroke-width="3"/>
<path d="M18.7782 11.3171C21.9033 11.3171 24.4367 8.78369 24.4367 5.65856C24.4367 2.53342 21.9033 0 18.7782 0C15.6531 0 13.1196 2.53342 13.1196 5.65856C13.1196 8.78369 15.6531 11.3171 18.7782 11.3171Z" fill="#2D2A2E"/>
</svg>
